<?xml version="1.0" standalone="no"?>
<!DOCTYPE svg PUBLIC "-//W3C//DTD SVG 20010904//EN"
 "http://www.w3.org/TR/2001/REC-SVG-20010904/DTD/svg10.dtd">
<svg version="1.0" xmlns="http://www.w3.org/2000/svg"
 width="1000.000000pt" height="1000.000000pt" viewBox="0 0 1000.000000 1000.000000"
 preserveAspectRatio="xMidYMid meet">
<metadata>
Created by potrace 1.14, written by Peter Selinger 2001-2017
</metadata>
<g transform="translate(0.000000,1000.000000) scale(0.100000,-0.100000)"
fill="#000000" stroke="none">
<path d="M4836 9944 c-38 -9 -97 -28 -130 -43 -71 -32 -3819 -2149 -3886
-2195 -137 -93 -239 -238 -287 -406 -17 -62 -18 -161 -18 -2300 l0 -2235 23
-75 c47 -149 129 -274 235 -358 82 -65 3891 -2218 3977 -2248 146 -51 307 -52
460 -5 45 14 666 360 1994 1110 1060 600 1952 1108 1981 1130 106 80 196 208
243 346 l27 80 3 2225 c3 2498 9 2295 -73 2466 -54 113 -153 223 -258 288
-152 93 -3833 2168 -3881 2188 -119 47 -280 59 -410 32z m1042 -3210 c727
-239 1325 -434 1327 -434 3 0 5 -8 5 -17 1 -39 -501 -2749 -513 -2771 -12 -23
-1530 -928 -1534 -914 -1 4 114 630 256 1392 173 930 254 1387 247 1391 -6 4
-612 203 -1346 444 -734 240 -1336 438 -1338 440 -1 1 343 207 765 458 556
330 774 454 788 450 11 -3 615 -201 1343 -439z"/>
</g>
</svg>
