<?xml version="1.0" standalone="no"?>
<!DOCTYPE svg PUBLIC "-//W3C//DTD SVG 20010904//EN"
 "http://www.w3.org/TR/2001/REC-SVG-20010904/DTD/svg10.dtd">
<svg version="1.0"
    xmlns="http://www.w3.org/2000/svg" width="558.000000pt" height="558.000000pt" viewBox="0 0 558.000000 558.000000" preserveAspectRatio="xMidYMid meet">
    <metadata>
Created by potrace 1.14, written by Peter Selinger 2001-2017
    </metadata>
    <g transform="translate(0.000000,558.000000) scale(0.100000,-0.100000)" fill="#0b1325" stroke="none">
        <path d="M2707 5550 c-69 -12 -90 -23 -1007 -515 -459 -247 -954 -512 -1100
-591 -174 -93 -283 -158 -317 -189 -66 -58 -111 -146 -124 -242 -6 -43 -9
-534 -7 -1274 l3 -1204 23 -58 c29 -71 88 -146 144 -185 70 -47 2269 -1225
2323 -1244 70 -24 199 -24 273 1 46 16 1649 869 2195 1169 160 88 229 152 269
249 l23 58 0 1270 0 1270 -33 68 c-65 132 -15 101 -1280 780 -1290 693 -1226
663 -1385 637z m602 -1792 c427 -133 778 -243 780 -244 4 -3 -285 -1504 -297
-1541 -5 -17 -120 -87 -451 -273 -244 -138 -447 -249 -451 -248 -3 2 62 351
145 776 98 499 148 775 141 778 -6 2 -359 112 -785 244 -426 132 -777 243
-780 246 -3 4 -1 8 4 11 6 2 208 115 450 252 242 137 446 248 454 245 7 -2
363 -113 790 -246z"/>
    </g>
</svg>
