<svg xmlns="http://www.w3.org/2000/svg">
    <path fill="#1a1e3f" d="m921.16676,288.03478l0,423.63033a71.71562,71.71562 0 0 1 -36.36887,62.33448l-375.90792,212.47086a71.99451,71.99451 0 0 1 -70.46528,0l-375.90792,-212.46853a71.7218,71.7218 0 0 1 -36.36887,-62.33681l0,-423.63033a71.71562,71.71562 0 0 1 36.36909,-62.33448l375.90792,-212.47086a71.98878,71.98878 0 0 1 70.46528,0l375.90792,212.46853a71.7218,71.7218 0 0 1 36.36864,62.33681z"/>
    <g transform="rotate(-30.6821 539.178 464.012)" stroke="null">
        <polygon fill="#ffffff" points="535.4002952575684,250.1256160736084 722.2434959411621,464.0158443450928 535.4002952575684,677.8983821868896 356.1132164001465,677.8983821868896 543.2666893005371,464.0158443450928 356.1132164001465,250.1256160736084 "/>
    </g>
</svg>