<svg xmlns="http://www.w3.org/2000/svg" xml:space="preserve" x="0px" y="0px" viewBox="0 0 929.07 244.806">
    <script xmlns=""/>
    <path fill="#002F87" d="M373.07 42.854v90.334l-16-29.334h-49v-61h-37v160h37v-66h65v66h37v-160zM902.07 42.854v57h-14v-57h-27v96s-18 13-54 15v-83h40v-23h-67v135.5c47 .5 81-17.5 81-17.5v37h27v-76h14v76h27v-160h-27z"/>
    <g fill="#002F87">
        <path d="M654.07 175.854v-29h-29v56h131v-27zM697.07 100.354a40.16 40.16 0 0 0-5.041-19.5h13.041v23h20v9h-20v24h20v21h27v-115h-27v36h-19v-21h-66.296l.041-.042h30.255l-9.046-21.958-.7.712h-30.255l8.769 21.288h-36.769v23h14.041a40.17 40.17 0 0 0-5.041 19.5c0 22.92 19.252 41.5 43 41.5s43-18.58 43-41.5h.001zm-62 1.5c0-10.493 8.507-19 19-19s19 8.507 19 19-8.507 19-19 19-19-8.507-19-19z"/>
    </g>
    <path fill="#002F87" d="M514.01 42.854h-74.939v160h74.939c33.723 0 61.061-35.817 61.061-80s-27.338-80-61.061-80zm-5.939 133h-32v-105h32c17.121 0 31 23.505 31 52.5s-13.879 52.5-31 52.5z"/>
    <path fill="#00823D" d="M70.518 122.628.049 245.257h141.008z"/>
    <path fill="#00AE42" d="m0 .487 141.057 244.77 70.213-122.403z"/>
    <path fill="#38D430" d="M141.318.451 0 .487l211.27 122.367z"/>
</svg>