<svg xmlns="http://www.w3.org/2000/svg"
    xmlns:xlink="http://www.w3.org/1999/xlink" viewBox="0 0 80.63 138.46">
    <script xmlns=""/>
    <defs>
        <style>.cls-1{fill:none;}.cls-2{clip-path:url(#clip-path);}.cls-3{fill:#00a36c;}.cls-4{fill:#006dba;}.cls-5{fill:#ee7500;}.cls-6{fill:#231916;}</style>
        <clipPath id="clip-path" transform="translate(0 0)">
            <rect class="cls-1" width="80.63" height="138.46"/>
        </clipPath>
    </defs>
    <title>logo-ver-kor</title>
    <g id="레이어_2" data-name="레이어 2">
        <g id="레이어_1-2" data-name="레이어 1">
            <g class="cls-2">
                <path class="cls-3" d="M26.14,78.23A26.14,26.14,0,1,1,37.58,28.58l.73.36-.66.48A28.25,28.25,0,0,0,26.34,50c-.06.79-.09,1.46-.09,2.1a28,28,0,0,0,11.4,22.67l.66.48-.74.36a26.23,26.23,0,0,1-11.43,2.63" transform="translate(0 0)"/>
                <path class="cls-4" d="M54.49,78.23A26.13,26.13,0,0,1,28.35,52.5v-.77l.71.31a28.51,28.51,0,0,0,11.27,2.34A28.25,28.25,0,0,0,68.19,30.64l.12-.76.64.43A26.14,26.14,0,0,1,54.49,78.23" transform="translate(0 0)"/>
                <path class="cls-5" d="M54,47.59A28.22,28.22,0,0,0,26.14,23.85a28.55,28.55,0,0,0-11.27,2.34l-.7.31v-.77a26.14,26.14,0,0,1,52.28.41c0,.59,0,1.21-.08,1.95A25.92,25.92,0,0,1,54.77,47.92l-.64.43Z" transform="translate(0 0)"/>
                <path class="cls-6" d="M23.34,122.26h7A3.64,3.64,0,0,0,34,118.62V100.36H28.3v6.75H12.68v-6.75H7v18.26a3.64,3.64,0,0,0,3.63,3.64h7v6.47H1.78v5H36.67a2.53,2.53,0,0,0,2.53-2.52v-2.48H23.34ZM12.68,112.12H28.3v5.13H12.68Z" transform="translate(0 0)"/>
                <path class="cls-6" d="M61.74,117.37a2.54,2.54,0,0,0,3-.39l2.46-2.4c-3.47-1.76-5.91-3.73-7.24-5.87a12.25,12.25,0,0,1-2.07-6.62V98.64H52v3.45a13.49,13.49,0,0,1-2,6.83c-1.35,2.29-3.74,4.42-7.29,6.51l2.39,2.34a2.56,2.56,0,0,0,3.14.32,17.43,17.43,0,0,0,6.74-7l.07-.14.07.13a15.58,15.58,0,0,0,6.61,6.25" transform="translate(0 0)"/>
                <path class="cls-6" d="M63.43,108.85h6.88v9.84h2A3.64,3.64,0,0,0,76,115.05V97.78H70.31v6.06H63.43Z" transform="translate(0 0)"/>
                <path class="cls-6" d="M72.2,122.22a12.37,12.37,0,0,0-7.81-2.52,11.86,11.86,0,0,0-7.69,2.52,8.31,8.31,0,0,0-3.15,6.91,8.18,8.18,0,0,0,3.15,6.81,11.86,11.86,0,0,0,7.69,2.52,12.42,12.42,0,0,0,7.82-2.52,9.13,9.13,0,0,0,0-13.72m-4.07,10.11a6,6,0,0,1-3.7,1.13,5.68,5.68,0,0,1-3.66-1.14,3.63,3.63,0,0,1-1.57-3.19,3.91,3.91,0,0,1,1.57-3.29,6,6,0,0,1,3.66-1.13,6.38,6.38,0,0,1,3.7,1.13,4,4,0,0,1,1.54,3.29,3.77,3.77,0,0,1-1.54,3.2" transform="translate(0 0)"/>
            </g>
        </g>
    </g>
</svg>