<svg xmlns="http://www.w3.org/2000/svg" viewBox="0 0 483.07 150.95">
    <script xmlns=""/>
    <g fill="#3b4951">
        <path d="M102.62 90.03c-3.34-4.85-8.13-8.83-16.85-12.28a154.76 154.76 0 0 0-16.46-5.34c-6.33-1.8-16.26-3.34-26.26-9-2.1-1.19-5.12-4.14-5.12-7.88 0-1.94 0-6.52 7.33-10.23 4.54-2.28 11.64-3.47 17.82-3.72 1.45-.05 2.88-.08 4.27-.08a120.88 120.88 0 0 1 33.29 4.71v-19c0-7-5.24-8.62-6.55-8.93-13.69-2.45-31.79-3.83-47.65-1.84-9.35 1.18-18.15 3.14-25.62 6.68s-13 8.29-16.41 14.37A34.62 34.62 0 0 0 .16 52.21C.05 53.61 0 54.97 0 56.27a35 35 0 0 0 3.42 15.87 32.32 32.32 0 0 0 8.61 10.85c7.15 5.71 15.54 9.16 24.11 11.4 7.19 1.86 21.6 5.8 25.67 8s5.9 4.44 6.41 7.4c1 6.1-2.79 9.47-5.31 11.09-4.57 2.95-10.82 4.27-22.49 3.78-15.07-.62-30.23-3.14-39-6.06v27c2.34.56 5.58 1.26 9.72 2a189.18 189.18 0 0 0 41 3.29c18.65-.52 33.36-4.65 42.63-11.53s12.65-15.35 13.28-25.51c.09-1.46.13-2.88.13-4.23-.02-8.97-2.24-14.74-5.56-19.59zM166.84 127.52c-5-1.73-9-4.06-12-9.09a20.15 20.15 0 0 1-2.34-11.1h54.41c2.25-.07 9.24-1 8.58-9.41a72.53 72.53 0 0 0-3.28-17.29c-3-9-7.27-15.22-16.33-21-7.41-4.76-18.55-7.36-28.17-7.36a69.39 69.39 0 0 0-28 5.92 36.45 36.45 0 0 0-14.87 11.84c-6.55 9-7.92 20.67-7.9 30.77 0 2 0 3.91.11 5.73a46.75 46.75 0 0 0 9.71 27c6.72 8.36 17.31 15.27 35 16.85 5 .43 9.73.62 14.13.62 17.15 0 26.54-2.79 32.5-4.51V126.3c-6 1.88-12.06 3.67-24.42 3.66-6.42-.01-12.12-.67-17.13-2.44zm-13.2-44.77a15.63 15.63 0 0 1 5-8.34 14.34 14.34 0 0 1 8.32-3.15h1.25a14.79 14.79 0 0 1 8.27 2.32 12.85 12.85 0 0 1 4.45 5.09c1.77 3.58 1.51 12.1 1.51 12.1h-29.33a40.54 40.54 0 0 1 .53-8.02zM314.12 18.21H270.8a12.79 12.79 0 0 0-11.77 8.13l-.67 2-40.85 120.09h38.46l8.57-31h45l9.17 31h40.46zm-44.53 75.15 15.43-47.33.09-.24a2.43 2.43 0 0 1 2.37-1.63 2.38 2.38 0 0 1 2.33 1.56l15.33 47.64zM455.12 18.21c-9.71 0-10.84 7.39-10.95 9.91v39.61h-38.42V18.21h-27.94c-9.72 0-10.85 7.39-11 9.91v120.31h38.9V96.85h38.42v51.58h38.9V18.21z"/>
    </g>
    <path fill="#e54e2b" d="m122.72 16.66 39.14 21.87a12.29 12.29 0 0 0 12 0l34.56-19.59a5.09 5.09 0 0 0 1.77-6.81L203.36 0l-29.45 16.57a12.29 12.29 0 0 1-12 0L136.42 2.32a4.76 4.76 0 0 0-6.59 1.83z"/>
</svg>