<svg xmlns="http://www.w3.org/2000/svg" width="2749" height="550" overflow="hidden">
    <script xmlns=""/>
    <defs>
        <clipPath id="a">
            <path d="M826 962h2749v550H826z"/>
        </clipPath>
    </defs>
    <g fill-rule="evenodd" clip-path="url(#a)" transform="translate(-826 -962)">
        <path fill="#FFF" d="M3027 1236.5c0-151.05 122.45-273.5 273.5-273.5s273.5 122.45 273.5 273.5-122.45 273.5-273.5 273.5-273.5-122.45-273.5-273.5Z"/>
        <path fill="#005096" d="M1100.5 963C948.898 963 826 1085.88 826 1237.5c0 151.57 122.898 274.5 274.5 274.5 151.59 0 274.5-122.93 274.5-274.5 0-151.62-122.91-274.5-274.5-274.5Zm0 61.91c61.55 0 116.81 26.31 155.64 68.11-1.99-.05-3.92-.15-5.95-.1-40.91.97-71.6 15.28-92.08 42.99-12.07 16.36-18.26 41.4-19.13 74.4h-77.13v-83.35h-60.72v129.24c-.24 25.32-3.964 42.69-11.183 52.03-9.612 12.77-23.813 19.13-42.585 19.13-19.703.28-34.465-6.14-44.357-19.13-3.704-5.08-8.835-20.3-8.835-20.3-3.948-16.21-6.279-33.01-6.279-50.43 0-117.45 95.209-212.59 212.609-212.59Zm0 425.13c-63.87 0-121.013-28.3-159.986-72.88 3.198.09 6.414.22 9.738.17 40.942-.98 71.638-15.32 92.078-43.03 12.62-17.06 18.99-43.36 19.36-78.62h76.93v87.58h60.72V1214c.27-25.31 3.96-42.63 11.18-52 9.61-12.75 23.82-19.16 42.59-19.16 19.71-.22 34.49 6.14 44.36 19.16 3.71 5.09 8.34 21.1 8.34 21.1 4.59 17.41 7.27 35.56 7.27 54.4-.01 117.41-95.17 212.54-212.58 212.54ZM1590.75 1252.93h-4.22c-10.32 0-16.47 1.04-18.43 3.11-1.97 2.09-2.95 8.4-2.95 18.97 0 13.8 1.2 24.41 3.61 31.83 2.39 7.4 6.11 11.95 11.15 13.64 1.02.34 2.69.72 5.05 1.18 8.37 1.57 12.57 6.23 12.57 13.97 0 7.52-1.45 12.63-4.37 15.32-2.91 2.69-10.86 4.05-23.85 4.05-3.47 0-8.91-.18-16.29-.51-7.39-.34-12.98-.51-16.79-.51-5.37 0-12.78.12-22.18.35-9.4.23-16.13.33-20.15.33h-5.05c-12.29 0-20.02-1.08-23.15-3.27-3.14-2.18-4.71-6.26-4.71-12.22 0-8.53 2.85-13.97 8.57-16.34 2.46-1.01 4.4-2.01 5.87-3.02 2.79-1.91 4.76-7.44 5.87-16.6 1.12-9.13 1.68-25.68 1.68-49.59v-17.19c0-30.19-.42-49.96-1.26-59.33-.84-9.37-2.26-15-4.28-16.91-1.12-1.12-3.13-2.35-6.04-3.7-7.6-3.81-11.4-9.48-11.4-17 0-6.28 1.28-10.54 3.86-12.79 2.58-2.24 9.41-3.36 20.51-3.36 4.81 0 11.94.12 21.41.33 9.47.23 16.56.35 21.27.35 6.83 0 14.79-.12 23.87-.35 9.08-.21 14.67-.33 16.8-.33 8.63 0 14.63 1.06 17.98 3.2 3.37 2.12 5.05 5.88 5.05 11.27 0 7.51-3.77 12.73-11.29 15.63-.89.34-1.62.63-2.19.85-4.83 2.12-8.11 5.77-9.84 10.93-1.74 5.16-2.62 15.19-2.62 30.11 0 7.5 1.8 12.02 5.38 13.54 3.58 1.52 13.83 2.26 30.74 2.26h19.19c11.69 0 18.8-.98 21.34-2.94 2.52-1.96 3.78-7.66 3.78-17.07v-7.9c0-6.52-.58-12.14-1.76-16.91-1.17-4.76-2.72-7.81-4.63-9.16-.67-.45-1.56-1.07-2.68-1.85-6.96-4.83-10.42-10.09-10.42-15.81 0-6.39 1.36-10.74 4.11-13.04 2.75-2.3 7.77-3.45 15.05-3.45 1.34 0 7.04.12 17.07.34 10.02.23 19.41.33 28.16.33 7.05 0 14.64-.05 22.77-.15 8.13-.12 12.58-.18 13.36-.18 9.87 0 16.4 1.3 19.59 3.88 3.18 2.58 4.79 7.12 4.79 13.63 0 6.51-3.37 11.62-10.09 15.32-1.46.78-2.3 1.29-2.53 1.52-3.7 3.25-6.25 10.16-7.65 20.71-1.4 10.54-2.1 32.88-2.1 67 0 26.71.76 44.95 2.26 54.71 1.53 9.76 4.18 16.22 8 19.35 1.34 1.02 3.19 2.03 5.55 3.04 5.94 2.46 8.91 7.8 8.91 15.99 0 5.84-1.26 9.94-3.79 12.28-2.53 2.37-7.53 3.54-15.03 3.54h-5.23c-18.38-.21-37.32-.34-56.82-.34h-3.03c-3.59 0-8.07.06-13.45.17-5.39.11-8.98.17-10.77.17-6.5 0-11.37-1.49-14.63-4.47-3.25-2.97-4.87-7.44-4.87-13.39 0-5.83 2.52-10.6 7.54-14.3 1.79-1.35 3.02-2.47 3.69-3.38 2.11-2.47 3.68-6.42 4.68-11.87 1.01-5.44 1.51-12.77 1.51-21.98 0-2.01.05-5.05.16-9.09.12-4.04.17-7.08.17-9.1 0-6.05-1.86-9.88-5.57-11.45-3.71-1.57-14.29-2.36-31.72-2.36h-15.09ZM1811.54 1281.29l58.73-138.69c4.26-10.22 8.6-16.55 12.98-18.98 4.38-2.4 12.14-3.62 23.28-3.62 12.36 0 20.48.76 24.37 2.28 3.87 1.52 7.61 6.32 11.21 14.41l66.28 144.43c.67 1.46 1.62 3.49 2.86 6.07 8.77 19.57 16.59 30.98 23.44 34.24 5.51 2.59 8.94 4.93 10.29 6.99 1.34 2.09 2.02 5.1 2.02 9.03 0 7.31-1.18 12.01-3.54 14.09-2.36 2.08-7.25 3.12-14.67 3.12h-3.2c-5.07 0-12.94-.11-23.61-.34-10.69-.22-18.9-.34-24.63-.34-8.21 0-17.63.17-28.25.51-10.63.34-17.11.5-19.47.5-7.88 0-13.19-1.09-15.94-3.28-2.76-2.19-4.14-6.5-4.14-12.9 0-4.38.7-7.73 2.11-10.04 1.41-2.3 3.91-4.57 7.52-6.82.44-.34 1.17-.84 2.18-1.52 6.19-4.15 9.28-8.15 9.28-11.97 0-4.49-1.57-7.7-4.72-9.61-3.15-1.91-8.72-2.87-16.7-2.87-5.95 0-12.02-.12-18.2-.34H1877.85c-15.97 0-26.07 1.07-30.29 3.21-4.22 2.14-6.33 6.02-6.33 11.63 0 5.85 3.37 9.89 10.13 12.14 1.57.57 2.81 1.01 3.71 1.36 3.82 1.35 6.5 2.97 8.02 4.88 1.52 1.92 2.27 4.67 2.27 8.27 0 6.63-1.46 11.21-4.38 13.75-2.93 2.52-8.05 3.78-15.36 3.78-3.94 0-9.4-.11-16.37-.34-6.98-.21-11.99-.33-15.03-.33-4.49 0-9.87.17-16.12.51-6.24.34-10.31.5-12.24.5-5.85 0-9.96-1.01-12.31-3.03-2.37-2.03-3.55-5.85-3.55-11.47 0-3.6.51-6.62 1.52-9.03 1.02-2.42 2.48-4.13 4.39-5.15.23-.11.68-.34 1.35-.68 6.98-3.26 11.92-6.12 14.86-8.59 4.5-3.83 10.74-15.18 18.73-34.08l.69-1.68Zm78.12-80.66c-1.13 0-2.27.65-3.46 1.93-1.17 1.3-2.32 3.19-3.46 5.65-5.06 9.68-9.15 18.89-12.31 27.67-3.15 8.76-4.71 14.72-4.71 17.88 0 1.8.92 3.06 2.78 3.8 1.85.72 5.77 1.09 11.73 1.09h12.81c6.31 0 10.45-.37 12.48-1.09 2.03-.73 3.03-2.11 3.03-4.14 0-2.46-.83-7.24-2.53-14.33-1.68-7.09-3.93-14.73-6.75-22.95-2.13-6.17-3.87-10.31-5.22-12.38-1.35-2.1-2.81-3.13-4.39-3.13ZM2134.64 1133.96l106.38 91.79c.23.23.56.57 1.01 1.01 3.6 3.25 6.01 4.89 7.25 4.89 1.68 0 2.86-.6 3.53-1.77.68-1.18 1.01-3.79 1.01-7.83v-3.21c0-10.89-.48-20.86-1.42-29.9-.97-9.04-2-14.78-3.12-17.26-2.37-5.5-7.41-9.55-15.16-12.12-.56-.23-.91-.35-1.01-.35-1.35-.44-3.21-1.06-5.56-1.85-8.75-2.69-13.14-8.3-13.14-16.84 0-6.62 1.35-11.2 4.05-13.72 2.69-2.53 7.8-3.8 15.32-3.8 2.13 0 6.83.12 14.06.34 7.25.23 13.34.34 18.28.34 3.37 0 8.48-.06 15.34-.16 6.84-.12 12.12-.18 15.82-.18 8.31 0 13.84 1.05 16.59 3.12 2.75 2.09 4.13 5.98 4.13 11.71 0 8.2-3.77 14.15-11.29 17.85-4.05 2.03-6.86 3.99-8.43 5.9-2.13 2.58-3.65 5.9-4.55 9.94-.9 4.04-1.34 11.01-1.34 20.88v9.61l.34 95.17v2.03c0 .68.05 3.93.17 9.76.11 5.84.16 11.34.16 16.51 0 13.25-1.12 22.09-3.37 26.53-2.25 4.43-6.29 6.65-12.12 6.65-6.3 0-19.03-8.2-38.23-24.6l-1.18-1.01-91.04-78.33c-2.25-1.91-4.3-3.43-6.17-4.55-1.85-1.12-3.28-1.69-4.3-1.69-1.8 0-3.03.99-3.71 2.96-.67 1.97-1.01 7.1-1.01 15.41 0 17.63.78 29.57 2.36 35.8 1.57 6.24 4.44 10.86 8.6 13.9 2.59 1.92 7.14 3.54 13.66 4.89 2.82.68 5.01 1.24 6.59 1.69 4.28 1.34 7.05 3.03 8.35 5.06 1.29 2.01 1.94 5.72 1.94 11.1 0 5.51-1.21 9.47-3.62 11.89-2.41 2.4-6.31 3.61-11.69 3.61-.67 0-2.36-.06-5.06-.16-12.45-.79-24.4-1.18-35.84-1.18-7.08 0-14.76.16-23.07.5-8.3.35-13.02.5-14.13.5-7.31 0-12.12-.98-14.49-2.94-2.36-1.97-3.53-5.82-3.53-11.54 0-7.86 3.66-13.67 11-17.44 7.32-3.77 11.77-6.82 13.34-9.17 2.35-3.26 4.08-11.27 5.2-24.01 1.12-12.74 1.68-30.57 1.68-53.48 0-26.16-.56-43.6-1.68-52.3-1.13-8.7-3.08-14.8-5.87-18.28-1.68-2.02-5.99-4.66-12.93-7.92-6.93-3.25-10.4-8.14-10.4-14.66 0-6.96 1.23-12.04 3.7-15.24 2.46-3.2 6.38-4.8 11.77-4.8 1.23 0 4 .12 8.32.33 4.31.23 7.98.35 11.01.35 3.93 0 8-.12 12.19-.35 4.2-.21 6.47-.33 6.81-.33 2.25 0 4.6.68 7.06 2.03 2.46 1.35 6.28 4.33 11.44 8.92ZM2358.75 1433c-15.69 0-27.08-2.47-34.15-7.41-7.06-4.95-10.6-12.92-10.6-23.94 0-12.13 2.95-23.17 8.83-33.11 5.89-9.94 11.8-14.91 17.74-14.91 5.27 0 8.96 4.27 11.1 12.83.1.44.17.78.17 1.01 1.56 6.07 3.24 10.53 5.04 13.33 1.79 2.82 3.92 4.23 6.38 4.23 5.16 0 8.81-7.68 10.93-23.02 2.13-15.35 3.2-43.83 3.2-85.42v-52.44c0-26.18-.82-43.65-2.45-52.42-1.63-8.77-4.63-14.34-9.02-16.7-.78-.44-2.19-1.07-4.22-1.85-7.53-2.81-11.3-8.03-11.3-15.67 0-5.4 1.67-9.16 5.05-11.3 3.36-2.14 9.42-3.21 18.17-3.21 1.57 0 7.23.12 16.99.34 9.77.23 18.79.34 27.11.34 2.79 0 8.55-.11 17.23-.34 8.71-.22 15.92-.34 21.64-.34 11.21 0 18.09 1.15 20.62 3.46 2.52 2.31 3.79 7 3.79 14.08 0 6.51-3.75 11.74-11.23 15.67-2.79 1.47-4.75 2.7-5.87 3.71-1.9 1.8-3.23 6.5-4.02 14.07-.77 7.59-1.17 23.25-1.17 46.97v14.49c0 11.81.11 25.9.33 42.31.22 16.42.34 26.97.34 31.69 0 37.99-9.1 68.07-27.26 90.26-18.18 22.19-42.64 33.29-73.37 33.29ZM2583.37 1353.66c-19 .23-33.26.34-42.81.34-7.42 0-12.53-1.15-15.34-3.46-2.82-2.29-4.21-6.19-4.21-11.7 0-8.52 2.85-13.96 8.57-16.33 2.46-1 4.43-2.01 5.88-3.02 2.8-1.91 4.76-7.44 5.89-16.58 1.12-9.15 1.68-25.68 1.68-49.59v-17.17c0-30.19-.43-49.97-1.27-59.34-.84-9.38-2.27-15.02-4.28-16.92-1.13-1.13-3.15-2.37-6.06-3.72-7.62-3.81-11.42-9.48-11.42-17 0-6.17 1.23-10.4 3.71-12.72 2.46-2.3 7.19-3.45 14.17-3.45.78 0 6.23.12 16.35.34 10.13.23 19.85.34 29.19.34 9.43 0 19.17-.11 29.17-.34 10-.22 15.4-.34 16.19-.34 7.19 0 12.02 1.25 14.51 3.7 2.47 2.48 3.71 7.08 3.71 13.81 0 6.51-3.84 11.74-11.5 15.65-3.05 1.47-5.08 2.7-6.1 3.72-2.13 1.9-3.6 7.54-4.39 16.92-.79 9.37-1.19 29.15-1.19 59.35v17.17c0 23.78.56 40.26 1.69 49.4 1.14 9.15 3.17 14.79 6.1 16.93 1.34 1 3.27 1.96 5.75 2.85 5.76 2.26 8.63 7.7 8.63 16.33 0 5.74-1.42 9.7-4.24 11.89-2.81 2.18-9.46 3.27-19.95 3.27h-6.58c-2.24 0-6.89-.06-13.91-.16-7.02-.11-13-.17-17.94-.17ZM2753.36 1133.96l105.97 91.79 1.01 1.01c3.57 3.25 5.99 4.89 7.22 4.89 1.67 0 2.86-.6 3.52-1.77.67-1.18 1-3.79 1-7.83v-3.21c0-10.89-.47-20.86-1.42-29.9s-2-14.78-3.1-17.26c-2.37-5.5-7.39-9.55-15.12-12.12-.54-.23-.88-.35-.99-.35-1.34-.44-3.2-1.06-5.53-1.85-8.74-2.69-13.09-8.3-13.09-16.84 0-6.62 1.33-11.2 4.03-13.72 2.68-2.53 7.77-3.8 15.27-3.8 2.13 0 6.79.12 14 .34 7.21.23 13.3.34 18.19.34 3.38 0 8.45-.06 15.29-.16 6.82-.12 12.07-.18 15.76-.18 8.27 0 13.79 1.05 16.54 3.12 2.73 2.09 4.09 5.98 4.09 11.71 0 8.2-3.73 14.15-11.24 17.85-4.02 2.03-6.82 3.99-8.38 5.9-2.13 2.58-3.65 5.9-4.55 9.94-.89 4.04-1.34 11.01-1.34 20.88v9.61l.35 95.17v2.03c0 .68.04 3.93.17 9.76.1 5.84.15 11.34.15 16.51 0 13.25-1.12 22.09-3.35 26.53-2.23 4.44-6.28 6.65-12.07 6.65-6.28 0-18.95-8.2-38.09-24.6l-1.17-1.01-90.7-78.33c-2.23-1.91-4.28-3.43-6.13-4.55-1.85-1.12-3.28-1.69-4.3-1.69-1.79 0-3.02.99-3.69 2.96-.67 1.97-1.01 7.1-1.01 15.41 0 17.63.79 29.57 2.37 35.8 1.56 6.24 4.41 10.86 8.56 13.9 2.58 1.92 7.11 3.54 13.62 4.89 2.79.68 4.97 1.24 6.55 1.69 4.26 1.34 7.03 3.03 8.31 5.06 1.29 2.01 1.93 5.72 1.93 11.1 0 5.51-1.21 9.47-3.59 11.89-2.4 2.4-6.3 3.61-11.65 3.61-.69 0-2.37-.06-5.04-.16-12.42-.79-24.31-1.18-35.72-1.18-7.04 0-14.7.16-22.97.5-8.27.35-12.98.5-14.08.5-7.28 0-12.07-.98-14.42-2.94-2.36-1.97-3.52-5.82-3.52-11.54 0-7.86 3.64-13.67 10.95-17.44 7.29-3.77 11.73-6.82 13.3-9.17 2.33-3.26 4.06-11.27 5.18-24.01 1.11-12.74 1.68-30.57 1.68-53.48 0-26.16-.55-43.59-1.67-52.29-1.12-8.71-3.07-14.8-5.86-18.28-1.66-2.03-5.95-4.66-12.87-7.92-6.9-3.26-10.36-8.15-10.36-14.66 0-6.96 1.24-12.04 3.69-15.24 2.44-3.21 6.36-4.81 11.72-4.81 1.23 0 3.99.13 8.28.34 4.3.23 7.96.34 10.98.34 3.9 0 7.96-.11 12.14-.34 4.19-.21 6.45-.34 6.79-.34 2.23 0 4.57.68 7.03 2.03 2.45 1.35 6.24 4.33 11.38 8.92Z"/>
        <path fill="#ED192D" d="M3418.546 1071.528c83.543 25.706 144.209 103.521 144.209 195.562 0 13.427-1.263 26.538-3.74 39.182l-.316 1.83c-6.367 36.038-20.98 69.298-41.896 97.716l-.349.415c36.659-46.685 58.505-105.534 58.505-169.491 0-151.57-122.812-274.509-274.286-274.509-69.029 0-132.09 25.489-180.287 67.633l-.615.483c-37.99 34.974-61.814 85.02-61.814 140.707 0 23.01 4.125 45.139 11.588 65.57l.383.966c19.036 41.843 61.214 70.96 110.177 70.96 66.834 0 121-54.239 121-121.058l-.332-52.143c0-23.959 13.349-44.773 32.984-55.505l.232-.148c15.329-8.454 33.019-13.311 51.789-13.311 11.372 0 22.378 1.829 32.669 5.092Z"/>
        <path fill="#1C4E9D" d="M3182.629 1401.954c-83.642-25.724-144.463-103.545-144.463-195.577a206.69 206.69 0 0 1 3.748-39.185l.284-1.797c6.412-36.14 21.089-69.368 42.013-97.739l.35-.416c-36.733 46.641-58.622 105.559-58.622 169.454 0 151.65 123.024 274.547 274.833 274.547 69.167 0 132.354-25.508 180.648-67.638l.616-.5c38.066-34.908 61.903-85.025 61.903-140.634 0-23.078-4.098-45.158-11.577-65.658l-.383-.898c-19.109-41.882-61.337-70.968-110.397-70.968-66.935 0-121.209 54.245-121.209 121.034l.333 52.164c0 23.961-13.376 44.76-33.084 55.492l-.232.133c-15.394 8.503-33.052 13.328-51.86 13.328-11.427 0-22.456-1.78-32.766-5.058Z"/>
    </g>
</svg>