<svg xmlns="http://www.w3.org/2000/svg" x="0px" y="0px" style="enable-background:new 0 0 1400 980" viewBox="0 0 937.7879638671875 944.7465209960938">
    <script xmlns=""/>
    <path fill="none" d="M0 0h937.788v944.747H0z" style="fill:#ff8119;fill-opacity:0;pointer-events:none"/>
    <defs>
        <radialGradient id="a" cx="0" cy="0" r="1" fx="0" fy="0" gradientTransform="matrix(103.18309 0 0 -103.18309 252.264 493.777)" gradientUnits="userSpaceOnUse" spreadMethod="pad">
            <stop offset="0" style="stop-opacity:1;stop-color:#00adef"/>
            <stop offset="1" style="stop-opacity:1;stop-color:#173e7d"/>
        </radialGradient>
        <radialGradient id="b" cx="0" cy="0" r="1" fx="0" fy="0" gradientTransform="matrix(103.15771 0 0 -103.15771 252.346 493.795)" gradientUnits="userSpaceOnUse" spreadMethod="pad">
            <stop offset="0" style="stop-opacity:1;stop-color:#00adef"/>
            <stop offset="1" style="stop-opacity:1;stop-color:#173e7d"/>
        </radialGradient>
        <radialGradient id="c" cx="0" cy="0" r="1" fx="0" fy="0" gradientTransform="matrix(102.66292 0 0 -102.66292 251.871 493.784)" gradientUnits="userSpaceOnUse" spreadMethod="pad">
            <stop offset="0" style="stop-opacity:1;stop-color:#00adef"/>
            <stop offset="1" style="stop-opacity:1;stop-color:#173e7d"/>
        </radialGradient>
    </defs>
    <path d="M286.776 391.889c-50.592 17.972-71.433 14.789-77.913.177-5.132-11.608 4.909-21.58 11.042-28.007 17.609-18.452 47.988-30.686 77.958-29.854 32.258.881 88.324 25.673 96 91.047-11.423-47.536-53.072-52.59-107.087-33.363" style="fill:url(#a);stroke:none" transform="matrix(4.50567 0 0 -4.50567 -845.592 2441.013)"/>
    <path d="M230.834 469.628c0-8.418 6.832-15.242 15.236-15.242.795 0 1.554.115 2.314.233 6.954 1.446 12.188 7.606 12.188 15.001 0 8.194-6.469 14.841-14.564 15.245-8.376-.037-15.174-6.853-15.174-15.237" style="fill:url(#b);stroke:none" transform="matrix(4.50567 0 0 -4.50567 -845.592 2441.013)"/>
    <path d="M285.723 539.813c-56.793-3.365-100.107-52.115-96.737-108.895 1.05-17.662 4.809-27.78 10.666-40.037 2.704 22.142 21.968 45.892 97.167 21.989 28.499-9.054 36.829-11.253 55.658-10.21 14.154.768 48.141 14.94 39.035 60.096-11.533 44.828-52.257 77.238-99.638 77.238-2.039 0-4.089-.06-6.151-.181m53.958-37.144a32.844 32.844 0 0 0 14.743-3.495 33.072 33.072 0 0 0 16.073-17.251l-16.364-6.61c-.015.036-.038.068-.051.105l-.203-.081c-1.951 4.827-6.285 8.428-11.545 9.353a15.23 15.23 0 0 1-2.334.18c-8.421 0-15.238-6.836-15.238-15.242 0-8.418 6.817-15.242 15.238-15.242 1.543 0 3.03.241 4.432.67a15.34 15.34 0 0 1 9.482 8.908l.184-.072c.014.039.039.076.056.117l16.381-6.597a32.975 32.975 0 0 0-12.004-14.94 32.887 32.887 0 0 0-18.85-5.913c-9.148 0-17.401 3.756-23.384 9.765v-8.347h-.449v-.184h-17.807v63.686h17.807v-.156h.449v-8.419c5.983 6.009 14.236 9.765 23.384 9.765m-127.49-33.049c0 18.249 14.81 33.049 33.06 33.049 2.417 0 4.768-.278 7.038-.772 6.188-1.183 11.739-4.112 16.166-8.238v7.82h17.818v-.156h.606v-63.346h-.606v-.184h-17.818v7.798c-4.385-4.087-9.867-7.005-15.978-8.213a32.957 32.957 0 0 0-7.226-.819c-18.25 0-33.06 14.805-33.06 33.061" style="fill:url(#c);stroke:none" transform="matrix(4.50567 0 0 -4.50567 -845.592 2441.013)"/>
</svg>