<svg xmlns="http://www.w3.org/2000/svg" xml:space="preserve" x="0px" y="0px" viewBox="0 0 1000 354">
    <script xmlns=""/>
    <path fill="#4DB756" fill-rule="evenodd" d="M314.902 18.878C296.99 7.868 275.563 2.712 239.401 2.712h-89.879c-62.959 0-93.656 32.852-105.271 91.843C26.53 184.341 3.643 298.639 1.226 311.079c-5.859 29.62 9.689 39.706 38.042 39.706h121.277c53.956 0 85.897-8.214 110.031-23.206 43.691-24.378 52.438-74.129 52.438-74.129 14.278-71.162-55.739-81.689-55.739-81.689s60.869-12.52 73.638-79.946c.001-.001 10.832-50.215-26.011-72.937zm-89.745 220.165c-1.919 11.655-10.997 26.549-41.888 26.549h-69.398l10.935-54.867h63.952c15.017 0 40.938.264 36.399 28.318zm11.865-129.114c-2.725 19.666-17.284 25.504-48.944 25.504H139.58s3.212-18.702 5.247-29.066c2.069-10.422 7.823-19.122 23.144-19.122h43.106c4.046 0 29.287-1.022 25.945 22.684zm377.457 30.072-50.841.042c-42.894 0-51.5 29.34-55.406 49.268-1.49 7.687-5.575 26.628-5.575 26.628h64.847c-10.212 44.595-41.252 52.431-61.876 52.431-14.985 0-55.486 4.949-53.754-48.826.323-10.588 6.568-56.703 20.248-82.724 17.749-33.732 41.319-49.329 90.026-51.384 26.078-1.068 51.66 1.995 51.66 1.995 30.693 3.279 43.558-18.681 43.558-18.681 12.962-18.978 21.772-47.937 21.772-47.937s-11.472-5.576-31.917-11.538C615.702.197 572.15.081 572.15.081c-95.229-1.774-148.684 49.57-148.684 49.57-52.098 45.285-64.791 121.118-64.791 121.118-28.022 110.779 29.557 152.683 29.557 152.683 38.972 34.092 106.517 30.396 106.517 30.396 77.155 0 118.76-41.544 118.76-41.544 42.864-40.353 50.829-95.201 53.396-109.63 6.78-37.857-9.172-62.673-52.426-62.673zM879.103 2.273c-92.04 0-149.465 35-169.973 137.667 0 0-34.963 175.738-35.146 176.931-1.443 11.756.608 19.765 5.065 24.962v.034a21.42 21.42 0 0 0 2.195 2.156c5.607 4.809 13.741 6.537 22.977 6.537h63.982l23.852-115.099.866-4.612h78.811c39.756 0 70.923-14.894 80.357-51.423 5.077-19.603 5.892-35.383 5.892-35.383s-60.097-6.259-101.318-2.068c-24.074 2.428-40.816 7.2-51.16 23.763l5.286-25.695c9.614-41.502 38.901-53.279 70.446-53.279h52.72c31.613 0 51.533-11.071 57.413-39.507C996.166 24.191 1000 2.273 1000 2.273H879.103z" clip-rule="evenodd"/>
</svg>