<svg xmlns="http://www.w3.org/2000/svg" xml:space="preserve" x="0px" y="0px" viewBox="0 0 85.665 72.578">
    <script xmlns=""/>
    <path fill="#FF9700" d="M76.15 24.734c-8.794-3.466-17.676-3.097-19.928.962-2.274 4.092 1.037 13.778 7.288 21.821 6.251 8.038 15.086 7.775 19.961-1.004 4.797-8.754 1.449-18.324-7.321-21.779"/>
    <path fill="#006ECD" d="M31.43 27.537c7.802 5.329 16.542 6.94 19.638 3.483 3.124-3.483 2.046-13.66-2.263-22.886-4.309-9.221-12.979-10.925-19.679-3.45-6.617 7.468-5.477 17.539 2.304 22.853"/>
    <path fill="#EF151E" d="M59.394 55.586c-1.25-9.369-5.894-16.95-10.535-16.943-4.681.004-11.533 7.609-15.519 16.983-3.982 9.371.546 16.962 10.588 16.952 9.98-.068 16.713-7.648 15.466-16.992"/>
    <g fill="#FFF">
        <path d="M23.777 31.231c-1.591 0-2.662.981-2.662 2.441v1.47h3.78s.126 12.472-.017 13.779c-.143 1.307-.475 3.434-2.812 4.549-2.016.962-2.058 1.872-2.186 2.682-.167 1.05.03 1.183.794.996 3.003-.736 6.2-1.941 7.817-4.911.878-1.612 1.229-3.358 1.229-6.008V35.141c1.601-.018 2.756-1.039 2.756-2.441v-1.469h-8.699zM19.575 48.047s-3.032 4.348-8.921 4.348C4.579 52.395 0 47.744 0 41.575 0 35.324 4.579 30.61 10.654 30.61c5.782 0 8.844 4.347 8.844 4.347s-1.619 1.733-3.173 1.733c-.758 0-1.325-.351-1.981-.755-.877-.542-1.873-1.156-3.689-1.156-3.454 0-6.264 3.048-6.264 6.796 0 3.669 2.81 6.654 6.264 6.654 2.05 0 3.013-.588 3.863-1.106.604-.369 1.175-.718 2.001-.718 1.75 0 3.056 1.642 3.056 1.642z"/>
    </g>
</svg>