<svg xmlns="http://www.w3.org/2000/svg" viewBox="0 0 782.14307 150">
    <script xmlns=""/>
    <path d="M328.341 192.574h6.339l15.136-34.793h-8.649l-2.998 7.37h-13.515l-2.898-7.37h-8.452zm2.948-10.123-4.225-10.81h8.502zM381.163 171.198c0-2.065-.312-3.964-.934-5.7-.622-1.737-1.548-3.245-2.777-4.522-1.227-1.277-2.76-2.278-4.594-2.998-1.835-.718-3.948-1.081-6.34-1.081-2.423 0-4.554.363-6.388 1.081-1.835.72-3.366 1.721-4.595 2.998-1.228 1.277-2.155 2.785-2.775 4.522-.624 1.736-.934 3.635-.934 5.7v21.376h7.665v-21.08c0-1.084.173-2.083.516-2.999a7.153 7.153 0 0 1 1.45-2.384 6.537 6.537 0 0 1 2.237-1.572 7.008 7.008 0 0 1 2.824-.567c1.015 0 1.95.19 2.801.567.852.375 1.59.9 2.213 1.572a7.15 7.15 0 0 1 1.448 2.384c.345.916.516 1.915.516 2.998v21.081h7.667zM396.113 185.792h-9.928v6.782h27.52v-6.782h-9.927v-28.01h-7.665ZM415.714 175.18c0 2.783.467 5.308 1.4 7.567.935 2.26 2.238 4.185 3.909 5.774 1.67 1.588 3.65 2.81 5.944 3.662 2.295.85 4.8 1.275 7.52 1.275 2.718 0 5.227-.425 7.519-1.275 2.293-.852 4.275-2.074 5.945-3.662 1.672-1.589 2.975-3.513 3.909-5.774.932-2.26 1.399-4.784 1.399-7.568 0-2.788-.467-5.308-1.4-7.57-.933-2.26-2.236-4.183-3.908-5.773-1.67-1.588-3.652-2.81-5.945-3.661-2.292-.852-4.8-1.277-7.52-1.277-2.72 0-5.224.425-7.519 1.277-2.293.852-4.275 2.073-5.944 3.66-1.671 1.591-2.974 3.513-3.908 5.774-.934 2.262-1.4 4.782-1.4 7.57m7.961 0c0-1.64.252-3.14.761-4.499.508-1.36 1.236-2.538 2.187-3.536.95-1 2.088-1.78 3.415-2.334 1.326-.559 2.81-.835 4.448-.835 1.638 0 3.12.276 4.447.835a9.93 9.93 0 0 1 3.415 2.334c.951.998 1.68 2.176 2.187 3.536.509 1.36.763 2.86.763 4.5 0 1.604-.254 3.095-.763 4.468-.507 1.378-1.236 2.566-2.187 3.565a9.966 9.966 0 0 1-3.415 2.333c-1.326.559-2.809.835-4.447.835-1.639 0-3.122-.276-4.448-.835a9.953 9.953 0 0 1-3.415-2.333c-.95-1-1.68-2.187-2.187-3.565-.509-1.373-.761-2.864-.761-4.469M458.28 192.574h11.6l8.008-22.704h.1l8.057 22.704h11.55v-34.793h-7.666v26.684h-.098l-9.14-26.684h-5.848l-8.796 26.684h-.1v-26.684h-7.666zM502.616 175.18c0 2.783.467 5.308 1.4 7.567.935 2.26 2.238 4.185 3.909 5.774 1.672 1.588 3.65 2.81 5.946 3.662 2.294.85 4.799 1.275 7.519 1.275 2.719 0 5.226-.425 7.52-1.275 2.291-.852 4.274-2.074 5.944-3.662 1.672-1.589 2.975-3.513 3.908-5.774.932-2.26 1.4-4.784 1.4-7.568 0-2.788-.468-5.308-1.4-7.57-.933-2.26-2.236-4.183-3.908-5.773-1.67-1.588-3.653-2.81-5.943-3.661-2.295-.852-4.802-1.277-7.521-1.277-2.72 0-5.225.425-7.52 1.277-2.294.852-4.273 2.073-5.945 3.66-1.671 1.591-2.974 3.513-3.908 5.774-.934 2.262-1.4 4.782-1.4 7.57m7.961 0c0-1.64.255-3.14.763-4.499.508-1.36 1.236-2.538 2.187-3.536.95-1 2.089-1.78 3.414-2.334 1.327-.559 2.81-.835 4.448-.835 1.637 0 3.121.276 4.45.835a9.952 9.952 0 0 1 3.412 2.334c.951.998 1.68 2.176 2.187 3.536.508 1.36.762 2.86.762 4.5 0 1.604-.254 3.095-.762 4.468-.507 1.378-1.236 2.566-2.187 3.565a9.988 9.988 0 0 1-3.413 2.333c-1.328.559-2.812.835-4.449.835-1.639 0-3.121-.276-4.448-.835a9.967 9.967 0 0 1-3.414-2.333c-.951-1-1.679-2.187-2.187-3.565-.508-1.373-.763-2.864-.763-4.469M552.1 185.792h-9.93v6.782h27.521v-6.782h-9.927v-28.01H552.1zM574.715 192.575h7.665v-34.793h-7.665zM586.529 192.574h8.746l8.6-22.801h.1l8.746 22.801h8.208l-14.35-34.793h-6.143zM625.077 192.574h23.638v-7.077h-15.971v-6.484h15.085v-7.079h-15.085v-7.076h16.855v-7.077h-24.522ZM208.115 181.154l-6.457 14.742c-2.094 5.043-6.42 7.407-12.105 7.407h-70.31v-3.516l10.547-10.547h54.458a4.797 4.797 0 0 0 4.374-2.812l5.251-10.394a2.106 2.106 0 0 0 0-1.715l-5.251-10.39a4.798 4.798 0 0 0-4.374-2.813h-41.802c-.777 0-1.407.63-1.407 1.406v8.439l-11.25 11.249h-3.515v-30.938a4.217 4.217 0 0 1 4.219-4.218h59.06c5.685 0 10.011 2.362 12.105 7.404l6.453 14.743a16.308 16.308 0 0 1 1.13 5.982c0 2.108-.398 4.12-1.126 5.97M295.728 203.303l-11.25-11.25v-28.525c0-.77-.512-1.485-1.267-1.634a1.602 1.602 0 0 0-1.455.433l-36.188 36.191a16.297 16.297 0 0 1-12.66 4.748c-8.629-.568-15.227-7.965-15.227-16.612v-39.602h3.515l11.25 11.251v28.526c0 .77.512 1.484 1.267 1.634a1.6 1.6 0 0 0 1.455-.434l36.189-36.192a16.298 16.298 0 0 1 12.66-4.747c8.628.57 15.226 7.965 15.226 16.612v39.601z" style="fill:#0b50f2;fill-opacity:1;fill-rule:nonzero;stroke:none;stroke-width:1.41741" transform="matrix(1.33333 0 0 -1.33333 -121.49 308.57)"/>
</svg>