<svg xmlns="http://www.w3.org/2000/svg" viewBox="0 0 381.29118 77.34961">
    <script xmlns=""/>
    <defs>
        <radialGradient id="a" cx="0" cy="0" r="1" fx="0" fy="0" gradientTransform="matrix(22.07108 0 0 22.07108 536.156 312.906)" gradientUnits="userSpaceOnUse" spreadMethod="pad">
            <stop offset="0" style="stop-opacity:1;stop-color:#00adee"/>
            <stop offset="1" style="stop-opacity:1;stop-color:#1c4f78"/>
        </radialGradient>
        <radialGradient id="b" cx="0" cy="0" r="1" fx="0" fy="0" gradientTransform="translate(535.656 310.031) scale(23.31674)" gradientUnits="userSpaceOnUse" spreadMethod="pad">
            <stop offset="0" style="stop-opacity:1;stop-color:#e6e7e8"/>
            <stop offset="0.05658597" style="stop-opacity:1;stop-color:#e6e7e8"/>
            <stop offset="1" style="stop-opacity:1;stop-color:#748995"/>
        </radialGradient>
        <radialGradient id="c" cx="0" cy="0" r="1" fx="0" fy="0" gradientTransform="translate(535.64 309.969) scale(23.35255)" gradientUnits="userSpaceOnUse" spreadMethod="pad">
            <stop offset="0" style="stop-opacity:1;stop-color:#e6e7e8"/>
            <stop offset="0.05658597" style="stop-opacity:1;stop-color:#e6e7e8"/>
            <stop offset="1" style="stop-opacity:1;stop-color:#748995"/>
        </radialGradient>
    </defs>
    <path d="M-93.367.493a61.93 61.93 0 0 1-2.275-.051V.44c-14.26-.589-19.815-4.413-19.815-13.64 0-10.4 7.583-12.805 19.815-13.313 5.694-.24 15.612.436 17.978.606v11.245h-10.569v-8.283l-.57-.01c-2.063-.043-3.666.014-4.765.17-7.34 1.071-10.764 4.213-10.472 9.6-.294 5.373 3.228 8.65 10.468 9.71 3.958.57 13.189-.313 15.766-.58v3.899c-2.222.162-9.912.684-15.561.649ZM-33.063 0v-25.748h5.445v18.552l1.06-1.01c4.63-4.417 15.5-14.79 16.47-15.753 1.43-1.402 2.447-1.812 6.435-1.812 0 0 7.017.019 9.095.022V0H0v-21.08L-19.776-2.212a5.92 5.92 0 0 1-.115.113C-21.79-.239-22.034 0-26.573 0zm-38.635-.014v-22.164c0-1.972 2.209-3.579 4.924-3.579h28.393v4.928h-19.436l-.05.004c-1.65.205-2.597 1.066-2.597 2.362v4.498h22.083v4.93h-22.083v4.083h22.083v4.938zm82.79 0v-22.164c0-1.972 2.21-3.579 4.924-3.579h28.396v4.928H24.975l-.052.004c-1.649.205-2.594 1.066-2.594 2.362v4.498h22.083v4.93H22.329v4.083h22.083v4.938zm-207.56-.001v-22.163c0-1.973 2.207-3.577 4.923-3.577h28.391v4.926h-19.434l-.05.004c-1.65.205-2.597 1.067-2.597 2.362v4.5h22.081v4.929h-22.08v4.082h22.08v4.937zm38.643-.06c0-.818-.028-18.996-.028-18.996 0-4.471 7.397-8.108 16.489-8.108h4.873c9.088 0 16.48 3.637 16.48 8.108l-.02 18.996h-11.243V-19.88c0-2.81-4.114-3.84-7.638-3.866-3.541.026-7.663 1.055-7.663 3.866l.022 19.805z" style="fill:#264a90;fill-opacity:1;fill-rule:nonzero;stroke:none" transform="matrix(1.33333 0 0 -1.33333 261.958 41.112)"/>
    <path d="M528.408 319.481c4.221 2.634 6.959.126 5.647-3.043-.635-1.543-3.283-2.624-4.681-4.025-3.239-3.236-2.374-9.232.961-10.374 3.068-1.044.171 4.521 3.076 6.942 3.076 2.362 11.009-1.759 4.653-7.14-1.499-1.094-1.716-1.454-2.686-2.426-5.206-5.209 3.236-11.113 9.422-10.358 5.484.674 6.985 4.266 7.742 9.389.687 4.668-.247 6.296.485 9.688 2.326 6.422 9.843.959 10.903-2.165.024.358.054.706.054 1.071 0 11.023-8.942 19.966-19.975 19.966-6.32 0-11.943-2.942-15.601-7.525" style="fill:url(#a);stroke:none" transform="matrix(1.33333 0 0 -1.33333 -370.687 436.008)"/>
    <path d="M528.408 319.481a19.88 19.88 0 0 1-4.365-12.441c0-11.027 8.936-19.971 19.966-19.971 10.674 0 19.361 8.375 19.921 18.9-1.06 3.124-8.577 8.587-10.903 2.165-.732-3.392.202-5.02-.485-9.688-.757-5.123-2.258-8.715-7.742-9.389-6.186-.755-14.628 5.149-9.422 10.358.97.972 1.187 1.332 2.686 2.426 6.356 5.381-1.577 9.502-4.653 7.14-2.905-2.421-.008-7.986-3.076-6.942-3.335 1.142-4.2 7.138-.961 10.374 1.398 1.401 4.046 2.482 4.681 4.025.928 2.238-.166 4.147-2.377 4.147-.918 0-2.03-.329-3.27-1.104" style="fill:url(#b);stroke:none" transform="matrix(1.33333 0 0 -1.33333 -370.687 436.008)"/>
    <path d="M550.454 319.021c-.918-1.274-.118-3.437 1.793-4.811 1.905-1.376 4.199-1.471 5.122-.189.928 1.28.122 3.427-1.788 4.808-1.004.727-2.116 1.095-3.079 1.095-.867-.001-1.612-.3-2.048-.903" style="fill:url(#c);stroke:none" transform="matrix(1.33333 0 0 -1.33333 -370.687 436.008)"/>
</svg>