<svg xmlns="http://www.w3.org/2000/svg" xml:space="preserve" x="0px" y="0px" viewBox="0 0 1000 514.949">
    <script xmlns=""/>
    <linearGradient id="a" x1="202.74561" x2="120.3834" y1="-705.65582" y2="-623.29358" gradientTransform="translate(-124.02 788.417) scale(.9131)" gradientUnits="userSpaceOnUse">
        <stop offset="0" style="stop-color:#fcb811"/>
        <stop offset="1" style="stop-color:#c3be2f"/>
    </linearGradient>
    <path fill="url(#a)" d="m53.788 137.123-18.409-20.305C12.839 155.368 0 200.054 0 245.5h12.682c.059-42.51 14.844-81.165 41.106-108.377z" style="fill:url(#a)"/>
    <linearGradient id="b" x1="117.752" x2="188.3504" y1="-563.69781" y2="-493.09799" gradientTransform="translate(-124.02 788.417) scale(.9131)" gradientUnits="userSpaceOnUse">
        <stop offset="0" style="stop-color:#c3be2f"/>
        <stop offset="1" style="stop-color:#80c241"/>
    </linearGradient>
    <path fill="url(#b)" d="M50.505 336.496c-23.05-21.826-37.823-51.359-37.823-90.787v-.209H0c0 46.191 8.238 89.16 24.518 126.609z" style="fill:url(#b)"/>
    <linearGradient id="c" x1="618.65527" x2="678.69012" y1="-616.26709" y2="-556.23218" gradientTransform="translate(-124.02 788.417) scale(.9131)" gradientUnits="userSpaceOnUse">
        <stop offset="0" style="stop-color:#6ccef5"/>
        <stop offset="1" style="stop-color:#00b9c5"/>
    </linearGradient>
    <path fill="url(#c)" d="m454.315 212.703-23.574 24.355c32.632.458 52.694 25.664 51.986 57.807h12.694c.001-31.709-14.863-60.559-41.106-82.162z" style="fill:url(#c)"/>
    <linearGradient id="d" x1="691.04199" x2="630.3761" y1="-513.55469" y2="-452.88989" gradientTransform="translate(-124.02 788.417) scale(.9131)" gradientUnits="userSpaceOnUse">
        <stop offset="0" style="stop-color:#00b9c5"/>
        <stop offset="1" style="stop-color:#00a89b"/>
    </linearGradient>
    <path fill="url(#d)" d="M495.422 294.865h-12.694c-.623 26.451-14.754 48.668-46.113 65.158l33.097 45.59c16.168-29.845 25.71-66.418 25.71-110.748z" style="fill:url(#d)"/>
    <linearGradient id="e" x1="237.0381" x2="606.0116" y1="-578.0127" y2="-578.0127" gradientTransform="translate(-124.02 788.417) scale(.9131)" gradientUnits="userSpaceOnUse">
        <stop offset="0" style="stop-color:#0071bb"/>
        <stop offset="1" style="stop-color:#6ccef5"/>
    </linearGradient>
    <path fill="url(#e)" d="M67.021 208.443a82.585 82.585 0 0 0-1.409 15.179c0 75.765 56.469 124.134 127.75 124.134 135.523 0 175.745-110.737 236.436-110.737.301 0 .622.04.943.04l23.574-24.355c-29.289-24.093-72.723-39.192-125.43-39.192-107.282 0-164.434 89.606-213.149 89.606-21.182 0-37.416-23.268-37.416-45.839 0-2.347.157-4.628.399-6.83z" style="fill:url(#e)"/>
    <linearGradient id="f" x1="174.0439" x2="677.86908" y1="-777.70508" y2="-777.70508" gradientTransform="translate(-124.02 788.417) scale(.9131)" gradientUnits="userSpaceOnUse">
        <stop offset="0" style="stop-color:#fcb811"/>
        <stop offset="0.598" style="stop-color:#f5831b"/>
        <stop offset="1" style="stop-color:#f16421"/>
    </linearGradient>
    <path fill="url(#f)" d="M151.023 97.341c78.327 0 132.679 59.247 202.558 59.247 83.813 0 130.195-40.831 141.841-120.606l-12.694-2.11c-3.539 21.13-17.316 46.534-42.012 46.534-23.292 0-47.987-20.462-83.943-40.203C320.759 19.741 279.455 0 227.935 0 145.065 0 75.142 48.827 35.379 116.818l18.409 20.305c23.785-24.617 56.994-39.782 97.235-39.782z" style="fill:url(#f)"/>
    <linearGradient id="g" x1="190.6201" x2="613.49127" y1="-397.2114" y2="-397.2114" gradientTransform="translate(-124.02 788.417) scale(.9131)" gradientUnits="userSpaceOnUse">
        <stop offset="0" style="stop-color:#80c241"/>
        <stop offset="1" style="stop-color:#00a89b"/>
    </linearGradient>
    <path fill="url(#g)" d="M232.89 392.205c-60.658 0-137.358-13.135-182.385-55.709l-25.987 35.613c37.385 85.988 117.134 142.84 236.606 142.84 78.97 0 166.341-31.277 208.587-109.336l-33.097-45.59c-38.925 20.489-104.432 32.182-203.724 32.182z" style="fill:url(#g)"/>
    <text xml:space="preserve" x="568.4198" y="380.57574" style="font-size:358px;font-family:Whitney-Bold"/>
    <g style="font-size:358.346px;font-family:Whitney-Bold">
        <path d="M793.948 359.277V238.873H690.386l7.167 45.51h43.002v44.076q-7.526 3.942-15.41 6.092-7.524 1.792-17.916 1.792-16.126 0-28.31-5.734-11.825-5.733-20.067-16.125-7.884-10.75-11.826-25.085-3.941-14.692-3.941-32.25 0-17.201 3.941-31.535 3.942-14.334 11.826-24.368 7.883-10.392 19.709-16.125 11.825-5.734 27.95-5.734 19.351 0 35.477 6.092 16.484 6.092 30.46 15.05l8.241-53.393q-15.05-8.242-34.042-13.259-18.634-5.017-41.569-5.017-28.667 0-51.601 9.317-22.576 9.317-38.702 26.518-15.767 16.842-24.367 40.493-8.6 23.651-8.6 52.319 0 28.667 7.883 52.318 8.242 23.293 23.65 40.135 15.41 16.842 37.986 26.16 22.934 9.316 52.318 9.316 25.801 0 48.377-6.808 22.576-6.809 41.926-19.351zM999.997 306.242q0-14.692-4.3-25.801-3.942-11.467-13.26-20.426-8.958-8.959-23.292-16.484-14.333-7.525-34.4-15.05-11.468-4.3-18.993-7.884-7.167-3.583-11.467-6.809-3.942-3.583-5.734-7.166-1.433-3.942-1.433-8.6 0-8.601 6.808-13.976 6.81-5.375 20.785-5.375 14.333 0 30.817 5.375 16.843 5.017 33.685 14.692l9.317-51.602q-16.126-7.884-33.326-12.184-17.201-4.3-41.21-4.3-17.917 0-33.326 4.659-15.41 4.658-26.876 13.975-11.109 9.317-17.918 22.934-6.45 13.617-6.45 31.535 0 15.409 3.942 26.517 4.3 11.11 12.9 19.71 8.6 8.6 21.86 15.767 13.617 6.808 32.25 13.975 12.901 5.017 21.143 8.959 8.242 3.942 12.9 7.883 4.66 3.584 6.092 7.526 1.792 3.941 1.792 9.317 0 11.108-8.242 16.842-8.242 5.375-21.5 5.375-18.635 0-39.06-6.092-20.068-6.45-39.418-16.842l-8.959 52.318q18.992 8.6 40.135 13.618 21.142 5.016 46.226 5.016 18.276 0 34.402-4.3 16.125-4.658 27.95-13.975 12.184-9.676 18.993-24.368 7.167-14.692 7.167-34.76z" style="fill:#fff"/>
    </g>
</svg>