<svg xmlns="http://www.w3.org/2000/svg"
    xmlns:xlink="http://www.w3.org/1999/xlink" xml:space="preserve" viewBox="0 0 332.39998 237.1">
    <script xmlns=""/>
    <defs>
        <linearGradient id="a" x1="0" x2="1" y1="0" y2="0" gradientTransform="matrix(123.40947 -71.25049 -71.25049 -123.40945 188.986 486.599)" gradientUnits="userSpaceOnUse" spreadMethod="pad">
            <stop offset="0" style="stop-opacity:1;stop-color:#d00016"/>
            <stop offset="0.0500031" style="stop-opacity:1;stop-color:#d00016"/>
            <stop offset="0.12570421" style="stop-opacity:1;stop-color:#d00016"/>
            <stop offset="0.25" style="stop-opacity:1;stop-color:#e6001a"/>
            <stop offset="0.3736276" style="stop-opacity:1;stop-color:#e6001a"/>
            <stop offset="0.720001" style="stop-opacity:1;stop-color:#e6001a"/>
            <stop offset="0.77677544" style="stop-opacity:1;stop-color:#e6001a"/>
            <stop offset="0.869995" style="stop-opacity:1;stop-color:#d00016"/>
            <stop offset="1" style="stop-opacity:1;stop-color:#d00016"/>
        </linearGradient>
        <linearGradient id="b" x1="0" x2="1" y1="0" y2="0" gradientTransform="scale(246.4116 -246.4116) rotate(30 4.056 .24)" gradientUnits="userSpaceOnUse" spreadMethod="pad">
            <stop offset="0" style="stop-opacity:1;stop-color:#fdd221"/>
            <stop offset="0.142853" style="stop-opacity:1;stop-color:#fdd221"/>
            <stop offset="0.27159623" style="stop-opacity:1;stop-color:#f7ae00"/>
            <stop offset="0.350006" style="stop-opacity:1;stop-color:#f7ae00"/>
            <stop offset="0.37630732" style="stop-opacity:1;stop-color:#f7ae00"/>
            <stop offset="0.449997" style="stop-opacity:1;stop-color:#feda60"/>
            <stop offset="0.46641126" style="stop-opacity:1;stop-color:#ffe46d"/>
            <stop offset="0.520004" style="stop-opacity:1;stop-color:#ffe46d"/>
            <stop offset="0.630005" style="stop-opacity:1;stop-color:#fabd00"/>
            <stop offset="0.84643815" style="stop-opacity:1;stop-color:#fabd00"/>
            <stop offset="1" style="stop-opacity:1;stop-color:#fabd00"/>
        </linearGradient>
        <linearGradient id="i" x1="0" x2="1" y1="0" y2="0" gradientTransform="scale(246.40906 -246.40906) rotate(30 3.744 .157)" gradientUnits="userSpaceOnUse" spreadMethod="pad">
            <stop offset="0" style="stop-opacity:1;stop-color:#fdd221"/>
            <stop offset="0.164841" style="stop-opacity:1;stop-color:#fdd221"/>
            <stop offset="0.21605912" style="stop-opacity:1;stop-color:#f8b500"/>
            <stop offset="0.247253" style="stop-opacity:1;stop-color:#f8b500"/>
            <stop offset="0.36264" style="stop-opacity:1;stop-color:#ee7600"/>
            <stop offset="0.53028918" style="stop-opacity:1;stop-color:#ee7600"/>
            <stop offset="1" style="stop-opacity:1;stop-color:#ee7600"/>
        </linearGradient>
        <linearGradient xlink:href="#a" id="e" x1="0" x2="1" y1="0" y2="0" gradientTransform="matrix(123.40947 -71.25049 -71.25049 -123.40945 188.986 486.599)" gradientUnits="userSpaceOnUse" spreadMethod="pad"/>
        <linearGradient xlink:href="#b" id="g" x1="0" x2="1" y1="0" y2="0" gradientTransform="scale(246.4116 -246.4116) rotate(30 4.056 .24)" gradientUnits="userSpaceOnUse" spreadMethod="pad"/>
        <clipPath id="c" clipPathUnits="userSpaceOnUse">
            <path d="M0 737.01h510.24V0H0Z"/>
        </clipPath>
        <clipPath id="d" clipPathUnits="userSpaceOnUse">
            <path d="M171.888 450.056c0-18.595 22.089-36.437 54.087-42.382 25.486 6.23 64.66 7.645 86.558 19.066 9.439 4.909 16.234 12.272 16.234 23.316 0 24.446-36.34 44.552-78.438 44.552-42.099 0-78.441-20.106-78.441-44.552"/>
        </clipPath>
        <clipPath id="f" clipPathUnits="userSpaceOnUse">
            <path d="M164.714 450.056c0-20.482 20.011-38.134 48.897-46.442a56.809 56.809 0 0 0 8.589 3.02c-31.149 6.893-52.199 24.636-52.199 43.422 0 23.978 34.358 46.252 80.328 46.252 45.968 0 80.327-22.274 80.327-46.252 0-41.627-86.086-34.077-116.952-48.14-11.515-5.192-14.629-13.971-14.629-20.295 11.42 13.969 66.923 10.289 104.301 27.752 16.521 7.836 32.565 22.371 32.565 40.683 0 28.317-38.322 51.255-85.612 51.255-47.291 0-85.615-22.938-85.615-51.255"/>
        </clipPath>
        <clipPath id="h" clipPathUnits="userSpaceOnUse">
            <path d="m164.715 450.056-.001-.001c0-20.482 20.011-38.133 48.897-46.441a56.809 56.809 0 0 0 8.589 3.02c-31.149 6.893-52.199 24.636-52.199 43.422z"/>
        </clipPath>
        <clipPath id="j" clipPathUnits="userSpaceOnUse">
            <path d="M0 737.01h510.24V0H0Z"/>
        </clipPath>
    </defs>
    <g clip-path="url(#c)" transform="matrix(1.90269 0 0 -1.90269 -310.168 957.072)">
        <path d="M0 0c0-25.58 27.186-41.061 48.141-47.479-9.536-4.908-14.349-12.931-13.594-23.409.096-.849.945-.944 1.417-.282 2.17 2.83 4.624 4.625 7.834 6.041 8.212 3.586 20.955 5.474 35.492 7.645 20.106 3.021 43.043 6.513 61.731 15.292C157.825-34.264 174.626-19.254 174.626 0c0 33.039-44.554 52.956-87.313 52.956C44.553 52.956 0 33.039 0 0" style="fill:#fff;fill-opacity:1;fill-rule:nonzero;stroke:none" transform="translate(163.016 450.055)"/>
    </g>
    <g clip-path="url(#d)" transform="matrix(1.90269 0 0 -1.90269 -310.168 957.072)">
        <path d="M171.888 450.056c0-18.595 22.089-36.437 54.087-42.382 25.486 6.23 64.66 7.645 86.558 19.066 9.439 4.909 16.234 12.272 16.234 23.316 0 24.446-36.34 44.552-78.438 44.552-42.099 0-78.441-20.106-78.441-44.552" style="fill:url(#e);stroke:none"/>
    </g>
    <g clip-path="url(#f)" transform="matrix(1.90269 0 0 -1.90269 -310.168 957.072)">
        <path d="M164.714 450.056c0-20.482 20.011-38.134 48.897-46.442a56.809 56.809 0 0 0 8.589 3.02c-31.149 6.893-52.199 24.636-52.199 43.422 0 23.978 34.358 46.252 80.328 46.252 45.968 0 80.327-22.274 80.327-46.252 0-41.627-86.086-34.077-116.952-48.14-11.515-5.192-14.629-13.971-14.629-20.295 11.42 13.969 66.923 10.289 104.301 27.752 16.521 7.836 32.565 22.371 32.565 40.683 0 28.317-38.322 51.255-85.612 51.255-47.291 0-85.615-22.938-85.615-51.255" style="fill:url(#g);stroke:none"/>
    </g>
    <g clip-path="url(#h)" transform="matrix(1.90269 0 0 -1.90269 -310.168 957.072)">
        <path d="m164.715 450.056-.001-.001c0-20.482 20.011-38.133 48.897-46.441a56.809 56.809 0 0 0 8.589 3.02c-31.149 6.893-52.199 24.636-52.199 43.422z" style="fill:url(#i);stroke:none"/>
    </g>
    <g clip-path="url(#j)" transform="matrix(1.90269 0 0 -1.90269 -310.168 957.072)">
        <path d="M0 0c-3.711 0-6.689 3.033-6.689 6.627A6.667 6.667 0 0 0 0 13.317c3.707 0 6.74-2.81 6.74-6.632C6.74 3.089 3.707 0 0 0m14.271 22.571H4.83c-.844 0-1.123.392-1.123 1.121v4.948c0 1.123-.732 2.302-2.699 2.302h-2.024c-1.908 0-2.64-1.179-2.64-2.302v-4.948c0-.729-.28-1.121-1.121-1.121h-9.44c-1.125 0-2.246-.618-2.246-2.362v-1.571c0-1.742 1.121-2.362 2.246-2.362h4.838c-2.867-2.379-4.672-5.828-4.672-9.649C-14.051-.451-7.758-6.296 0-6.296c7.752 0 14.101 6.016 14.101 13.036 0 3.833-1.775 7.206-4.591 9.536h4.761c1.124 0 2.247.62 2.247 2.362v1.571c0 1.744-1.123 2.362-2.247 2.362" style="fill:#fff;fill-opacity:1;fill-rule:nonzero;stroke:none" transform="translate(213.588 445.806)"/>
        <path d="M0 0h-6.293c-.728 0-1.126.282-1.126 1.126v12.93c0 1.123-.728 2.3-2.693 2.3h-2.03c-1.905 0-2.636-1.177-2.636-2.3v-45.009c0-1.125.731-2.306 2.636-2.306h2.03c1.965 0 2.693 1.181 2.693 2.306V-7.64c0 .841.398 1.123 1.126 1.123H0c1.121 0 2.244.731 2.244 2.473v1.572C2.244-.729 1.121 0 0 0" style="fill:#fff;fill-opacity:1;fill-rule:nonzero;stroke:none" transform="translate(248.085 459.042)"/>
        <path d="M0 0c0-.845-.395-1.123-1.123-1.123h-17.686c-.729 0-1.121.278-1.121 1.123v4.117c0 .844.392 1.123 1.121 1.123h17.686C-.395 5.24 0 4.961 0 4.117Zm5.115 11.535h-30.16c-1.46 0-2.251-.731-2.251-2.246v-10.83c0-3.686 2.905-5.82 7.06-5.82H.301c4.162 0 7.058 2.134 7.058 5.82v10.83c0 1.515-.786 2.246-2.244 2.246" style="fill:#fff;fill-opacity:1;fill-rule:nonzero;stroke:none" transform="translate(287.47 432.584)"/>
        <path d="M0 0h-2.026c-1.911 0-2.639-1.181-2.639-2.303v-18.116c-2.466-1.141-4.846-1.655-11.381-1.655h-14.971c-.733 0-1.121.28-1.121 1.124v2.015c0 .843.388 1.123 1.121 1.123h15.899c1.462 0 2.251.73 2.251 2.25v11.566c0 1.518-.789 2.251-2.251 2.251h-22.25c-1.124 0-2.245-.622-2.245-2.363v-1.405c0-1.74 1.121-2.36 2.245-2.36h16.07c.735 0 1.127-.278 1.127-1.122v-1.626c0-.842-.392-1.121-1.127-1.121h-15.896c-1.463 0-2.254-.732-2.254-2.25v-8.255c0-3.686 2.327-5.955 7.192-5.955h16.159c6.641 0 9.201.78 11.432 1.974v-1.18c0-1.125.728-2.304 2.639-2.304H0c1.966 0 2.694 1.179 2.694 2.304v25.105C2.694-1.181 1.966 0 0 0" style="fill:#fff;fill-opacity:1;fill-rule:nonzero;stroke:none" transform="translate(292.136 475.798)"/>
    </g>
</svg>