<svg xmlns="http://www.w3.org/2000/svg" viewBox="0 0 982.7298 300">
    <script xmlns=""/>
    <path d="M0 0h-4.062v-3.042h.007A4.058 4.058 0 0 0 0-7.098v-3.771a.954.954 0 0 0-.959-.951h-12.104a.952.952 0 0 0-.957.951v3.771a4.06 4.06 0 0 0 4.056 4.056h.003V0h-13.134v-3.042h.001a4.06 4.06 0 0 0 4.06-4.056V-21.435a4.054 4.054 0 0 0-4.06-4.05h-.001v-3.048h13.134v3.048h-.003a4.053 4.053 0 0 0-4.056 4.05v3.771c0 .526.426.958.957.958H-.959A.96.96 0 0 0 0-17.664v-3.771a4.052 4.052 0 0 0-4.055-4.05h-.007v-3.048H9.073v3.048h-.006a4.053 4.053 0 0 0-4.052 4.05V-7.098a4.06 4.06 0 0 0 4.052 4.056h.006V0H5.015Z" style="fill:#e72510;fill-opacity:1;fill-rule:nonzero;stroke:none" transform="matrix(10.18088 0 0 -10.18088 235.127 4.707)"/>
    <path d="M0 0c4.127 0 7.381-2.446 8.845-5.916h3.044V4.129h-3.04c0-.694-.57-1.262-1.268-1.262-.147 0-.294.031-.425.077l-.009-.006C5.092 3.992 2.707 4.6.081 4.6c-8.751 0-14.936-6.713-14.936-14.74v-.075c0-8.02 6.109-14.652 14.855-14.652.281 0 .556.012.83.024.193.009.376.027.563.042.061.004.118.007.177.014 4.227.427 7.852 2.549 10.22 5.691l-3.206 3.207C6.61-18.496 3.521-20.268.286-20.268v.009c-.07 0-.134-.009-.205-.009-5.658 0-9.682 4.605-9.682 10.128v.084C-9.601-4.515-5.655 0 0 0" style="fill:#e72510;fill-opacity:1;fill-rule:nonzero;stroke:none" transform="matrix(10.18088 0 0 -10.18088 861.69 46.832)"/>
    <path d="M0 0c0-5.583-3.912-9.615-9.903-9.615h-5.626V9.782h5.626C-3.912 9.782 0 5.667 0 .084Zm-9.903 14.35-10.645-.003h-4.059v-3.043h.001a4.06 4.06 0 0 0 4.058-4.055V-7.088a4.055 4.055 0 0 0-4.058-4.05h-.001v-3.048h4.059l10.645.003c8.965 0 15.164 6.238 15.164 14.267v.083c0 8.03-6.199 14.183-15.164 14.183" style="fill:#e72510;fill-opacity:1;fill-rule:nonzero;stroke:none" transform="matrix(10.18088 0 0 -10.18088 623.115 150.769)"/>
    <path d="M0 0h-4.041v-3.022h.01A4.041 4.041 0 0 0 0-7.068V-10.812a.952.952 0 0 0-.945-.949h-12.053a.95.95 0 0 0-.943.949V-7.068a4.048 4.048 0 0 0 4.038 4.046V0h-13.071v-3.022a4.048 4.048 0 0 0 4.039-4.046v-14.25a4.045 4.045 0 0 0-4.039-4.037v-3.022h13.071v3.022a4.045 4.045 0 0 0-4.038 4.037v3.75c0 .517.419.949.943.949H-.945A.95.95 0 0 0 0-17.568v-3.75a4.038 4.038 0 0 0-4.031-4.037h-.01v-3.022H9.03v3.022a4.046 4.046 0 0 0-4.038 4.037v14.25A4.049 4.049 0 0 0 9.03-3.022V0H4.992Z" style="fill:#e72510;fill-opacity:1;fill-rule:nonzero;stroke:none" transform="matrix(.35278 0 0 -.35278 -113.74 2.875)"/>
    <path d="M0 0c4.102 0 7.34-2.429 8.803-5.887h3.03V4.118h-3.03c0-.701-.566-1.258-1.261-1.258a1.14 1.14 0 0 0-.427.08l-.009-.014C5.064 3.973 2.697 4.57.079 4.57c-8.7 0-14.854-6.671-14.854-14.649v-.084c0-7.978 6.073-14.566 14.775-14.566.281 0 .556.004.823.011.186.019.381.035.565.05.066.007.113.007.178.014 4.2.424 7.804 2.537 10.162 5.663l-3.191 3.196c-1.954-2.594-5.033-4.364-8.256-4.364v.007c-.064 0-.128-.007-.202-.007-5.629 0-9.628 4.579-9.628 10.08v.078C-9.549-4.484-5.624 0 0 0" style="fill:#e72510;fill-opacity:1;fill-rule:nonzero;stroke:none" transform="matrix(.35278 0 0 -.35278 -92.14 4.328)"/>
    <path d="M0 0c0-5.562-3.893-9.565-9.854-9.565h-5.604V9.736h5.604C-3.893 9.736 0 5.628 0 .087Zm-9.854 14.27H-24.481v-3.028a4.038 4.038 0 0 0 4.036-4.04V-7.056a4.043 4.043 0 0 0-4.036-4.029v-3.028H-9.854c8.911 0 15.081 6.209 15.081 14.2v.074c0 7.999-6.17 14.109-15.081 14.109" style="fill:#e72510;fill-opacity:1;fill-rule:nonzero;stroke:none" transform="matrix(.35278 0 0 -.35278 -100.362 7.91)"/>
    <path d="M0 0a21.889 21.889 0 0 0-2.613-.173h-7.537v20.429h9.258v-2.881h-5.719V2.71h4.489c.647 0 1.411.042 2.289.124.876.072 1.685.177 2.419.305v17.708h3.343v-8.939h4.033v8.939h3.346V-7.486H9.962V8.693H5.929V-7.486H2.586V.375C1.852.239.986.117 0 0" style="fill:#514f4e;fill-opacity:1;fill-rule:nonzero;stroke:none" transform="matrix(.35278 0 0 -.35278 -71.26 10.315)"/>
    <path d="M0 0v2.891h-15.793v6.11h-3.565V0Zm-4.288 7.313h3.604v21.02h-3.604v-6.367h-5.685c-.287.42-.619.816-1.002 1.162-.179.154-.377.274-.567.413h3.585v2.725h-6.211v2.473h-3.537v-2.473h-6.518v-2.725h3.572c-.189-.139-.396-.259-.569-.413a7.126 7.126 0 0 1-1.625-2.206 6.456 6.456 0 0 1-.597-2.763c0-.987.197-1.907.597-2.748a6.717 6.717 0 0 1 1.625-2.167 7.523 7.523 0 0 1 2.348-1.447 7.364 7.364 0 0 1 2.772-.524c.97 0 1.895.17 2.776.524a7.585 7.585 0 0 1 2.349 1.447c.093.081.161.185.249.267h6.438zm-7.965 10.813c0-.575-.089-1.105-.271-1.607a3.68 3.68 0 0 0-.8-1.292 3.512 3.512 0 0 0-1.184-.875 3.715 3.715 0 0 0-1.531-.325h-.117a3.7 3.7 0 0 0-1.528.325 3.578 3.578 0 0 0-1.188.875 3.753 3.753 0 0 0-.8 1.292 4.655 4.655 0 0 0-.271 1.607c0 .568.089 1.108.271 1.601.185.502.46.931.828 1.301.32.347.728.615 1.208.816.481.21.99.316 1.536.316.549 0 1.067-.106 1.54-.316a3.482 3.482 0 0 0 1.212-.816c.364-.37.639-.799.824-1.301a4.613 4.613 0 0 0 .271-1.601m7.965-1.947h-4.801c.202.626.34 1.278.34 1.98 0 .403-.058.792-.126 1.172h4.587z" style="fill:#514f4e;fill-opacity:1;fill-rule:nonzero;stroke:none" transform="matrix(.35278 0 0 -.35278 -75.707 12.956)"/>
    <path d="M0 0c1.161 0 2.219.146 3.175.443.959.301 1.783.73 2.471 1.278a5.81 5.81 0 0 1 1.58 1.965c.363.752.546 1.608.546 2.554v.08c0 2.02-.696 3.549-2.087 4.59-1.389 1.042-3.227 1.56-5.519 1.56h-7.165V0Zm-10.208 15.439H.4c1.588 0 3.044-.211 4.353-.633 1.306-.42 2.428-1.009 3.358-1.777a7.653 7.653 0 0 0 2.144-2.815c.503-1.106.753-2.365.753-3.765v-.078c0-1.537-.299-2.886-.888-4.028a8.67 8.67 0 0 0-2.411-2.9C6.697-1.342 5.516-1.924 4.17-2.32a15.501 15.501 0 0 0-4.292-.582h-6.877v-10.014h-3.209z" style="fill:#514f4e;fill-opacity:1;fill-rule:nonzero;stroke:none" transform="matrix(.35278 0 0 -.35278 -52.78 8.39)"/>
    <path d="M0 0h20.513v-2.913H3.21v-9.68h15.481v-2.903H3.21v-9.958h17.505v-2.901H0Z" style="fill:#514f4e;fill-opacity:1;fill-rule:nonzero;stroke:none" transform="matrix(.35278 0 0 -.35278 -64.705 2.942)"/>
</svg>