<svg xmlns="http://www.w3.org/2000/svg" xml:space="preserve" viewBox="0 0 792.72037 300">
    <script xmlns=""/>
    <path d="M0 0h-82.484l-17.568-30.61h41.718l-72.109-128.001h40.763z" style="fill:#00b4ed;fill-opacity:1;fill-rule:nonzero;stroke:none" transform="matrix(1.58544 0 0 -1.58544 364.757 0)"/>
    <path d="M0 0h-40.659l-89.356-158.611h82.379L-30.391-128h-41.718z" style="fill:#00b4ed;fill-opacity:1;fill-rule:nonzero;stroke:none" transform="matrix(1.58544 0 0 -1.58544 206.13 48.532)"/>
    <path d="M0 0v-43.93h-29.287V0H-76.88v-128.128h47.593v43.925H0v-43.925H47.592V0Z" style="fill:#000;fill-opacity:1;fill-rule:nonzero;stroke:none" transform="matrix(1.58544 0 0 -1.58544 522.751 60.946)"/>
    <path d="M0 0h-47.585v-128.128h23.794L0-86.029Z" style="fill:#000;fill-opacity:1;fill-rule:nonzero;stroke:none" transform="matrix(1.58544 0 0 -1.58544 701.066 60.946)"/>
    <path d="m0 0-23.791-42.098H57.81V0Z" style="fill:#00b4ed;fill-opacity:1;fill-rule:nonzero;stroke:none" transform="matrix(1.58544 0 0 -1.58544 701.066 197.343)"/>
</svg>