<svg xmlns="http://www.w3.org/2000/svg" xml:space="preserve" viewBox="0 0 704.72399 367.53">
    <script xmlns=""/>
    <path d="m0 0-41.43 40.27h-40.036v-142.853l43.268-10.506v92.544L0-57.582l38.226 37.037v-92.544l43.27 10.506V40.27H41.431Z" style="fill:#202857;fill-opacity:1;fill-rule:nonzero;stroke:none" transform="matrix(1.33333 0 0 -1.33333 352.342 159.373)"/>
    <path d="m0 0-32.59 31.729h-188.556v14.715h194.537L.065 20.473l27.04 25.994h194.234V31.751H33.03Z" style="fill:#ee242d;fill-opacity:1;fill-rule:nonzero;stroke:none" transform="matrix(1.33333 0 0 -1.33333 352.234 119.328)"/>
    <path d="M0 0h-42.454v36.088h-42.12v-108.82l42.12-10.284v42.445H0v-52.782l42.12-10.23V36.088H0Z" style="fill:#202857;fill-opacity:1;fill-rule:nonzero;stroke:none" transform="matrix(1.33333 0 0 -1.33333 170.137 153.797)"/>
    <path d="m0 0-21.613-20.711L-43.228 0H-84.96v-139.671l41.973 10.22v73.752l21.374-20.482 21.38 20.482v-63.347l41.966 10.225V0Z" style="fill:#202857;fill-opacity:1;fill-rule:nonzero;stroke:none" transform="matrix(1.33333 0 0 -1.33333 591.708 105.68)"/>
</svg>