<svg xmlns="http://www.w3.org/2000/svg" viewBox="0 0 549.67859 112.5">
    <script xmlns=""/>
    <path fill="#898989" d="M531.022 654.678v83.051h12.613v-47.6h13.416v-10.113h-13.416v-25.338zM476.172 699.495l-.445-12.694.49-13.46c.433-5.807 3.427-19.33 21.533-19.33h.17c18.099 0 21.074 13.523 21.526 19.33l.478 13.46-.44 12.681c-.176 4.727-2.298 20.077-21.565 20.077-19.417 0-21.52-15.35-21.747-20.064m21.61-35.345c-5.588 0-8.062 3.107-8.263 10.427l-.163 12.224.163 11.664c.126 7.778 2.493 10.942 8.262 10.942 5.883 0 8.287-3.164 8.362-10.942l.214-11.664-.214-12.255c-.207-7.289-2.655-10.396-8.224-10.396zM657.818 699.495l-.39-12.688.446-13.473c.446-5.8 3.252-19.33 20.253-19.33 17.088 0 19.97 13.53 20.422 19.33l.289 6.655.433.031h5.386v-25.344h11.709v83.058h-11.709v-47.606h-5.738l-.37 9.36c-.182 4.721-2.191 20.07-20.31 20.07-18.18 0-20.214-15.349-20.421-20.063m12.982-24.918-.2 12.23.2 11.658c.082 7.778 2.179 10.942 7.34 10.942 5.26 0 7.401-3.164 7.47-10.942l.17-11.658-.189-12.261c-.157-7.282-2.348-10.396-7.326-10.396-5.079 0-7.283 3.114-7.465 10.427M627.713 737.737h12.625v-83.058h-12.625zM904.678 654.421v9.882h-49.464v8.525h49.464v9.913h-25.112v7.973h29.984v9.348h-72.586v-9.348h29.977v-7.973h-25.18l.08-28.32zM722.197 737.737h11.683v-83.058h-11.683zM570.699 699.495l-.446-12.694.471-13.46c.465-5.807 3.472-19.33 21.546-19.33h.144c18.125 0 21.094 13.523 21.546 19.33l.515 13.46-.483 12.681c-.176 4.727-2.267 20.077-21.578 20.077-19.367 0-21.514-15.35-21.715-20.064m21.609-35.345c-5.588 0-8.067 3.107-8.224 10.427l-.239 12.224.195 11.664c.088 7.778 2.505 10.942 8.268 10.942 5.882 0 8.28-3.164 8.35-10.942l.213-11.664-.214-12.255c-.163-7.289-2.63-10.396-8.243-10.396zM873.288 739.792c-19.179 0-31.741-4.703-31.741-17.353 0-12.656 12.455-17.358 31.685-17.358h.094c19.217 0 31.672 4.702 31.672 17.358 0 12.65-12.568 17.353-31.735 17.353zm.038-9.643c13.096 0 17.949-2.097 17.949-7.703 0-5.6-4.853-7.678-17.95-7.678h-.093c-13.077 0-17.955 2.078-17.955 7.678 0 5.606 4.878 7.703 17.955 7.703zM825.563 730.73h-78.775v-9.341h78.775zM979.704 654.678v22.218H963.01v10.151h16.693v50.682H991.4v-83.05zM950.3 655.961v5.123c0 20.573 14.143 44.611 20.516 54.01l-9.386 5.11c-3.591-5.16-11.765-18.608-17.032-32.96l-.402-1.048-.414 1.048c-5.274 14.352-13.429 27.8-17.032 32.96l-9.398-5.11c6.378-9.399 20.516-33.437 20.516-54.01v-5.123zM786.186 677.242l-.402.665c-5.562 9.593-18.972 21.157-29.086 26.895l-6.485-7.678c7.214-5.098 29.557-21.433 29.557-38.766v-2.392h12.813v2.392c0 17.333 22.343 33.668 29.557 38.766l-6.473 7.678c-10.139-5.738-23.542-17.302-29.098-26.895z" style="stroke-width:6.27795" transform="matrix(.7629 0 0 .7629 -206.664 -452.188)"/>
    <path fill="#f08700" d="M312.17 612.316c0-13.586-5.908-17.114-18.263-17.114h-23.015v58.341c10.434 8.488 28.508 19.939 41.277 26.192z" style="stroke-width:6.27795" transform="matrix(.7629 0 0 .7629 -206.664 -452.188)"/>
    <path fill="#486cb3" d="M270.895 737.665h41.196v-9.837c21.213 8.293 42.935 12.355 60.457 12.355 39.1 0 60.463-15.645 60.463-43.274 0-27.385-23.756-39.376-45.49-47.292-18.012-6.535-25.978-10.465-25.219-16.147.722-5.38 7.459-7.93 17.164-7.93 12.632 0 26.738 2.996 40.575 8.382v-33.524c-13.78-5.35-28.96-7.678-41.284-7.678-38.076 0-57.16 16.373-57.16 39.708 0 28.012 23.906 39.62 50.574 49.244 7.276 2.624 14.188 5.531 17.786 9.197a8.125 8.125 0 0 1 2.442 5.795 8.179 8.179 0 0 1-2.813 6.177c-3.39 2.781-8.343 3.416-15.531 3.416-11.853 0-58.078-6.347-103.16-41.416z" style="stroke-width:6.27795" transform="matrix(.7629 0 0 .7629 -206.664 -452.188)"/>
</svg>