<svg xmlns="http://www.w3.org/2000/svg" xml:space="preserve" viewBox="0 0 848.39038 180.75694">
    <script xmlns=""/>
    <defs>
        <clipPath id="c" clipPathUnits="userSpaceOnUse">
            <path d="M0 600h600V0H0Z"/>
        </clipPath>
        <clipPath id="d" clipPathUnits="userSpaceOnUse">
            <path d="M88.395 263.047c-12.6-2.205-25.72 5.968-29.173 12.076-3.652-7.502-1.329-22.507 7.748-28.861 10.362-3.541 26.32-3.906 38.554 2.211 14.109 8.574 15.275 29.387 10.477 49.494-1.579-9.094-10.742-31.963-27.606-34.92"/>
        </clipPath>
        <clipPath id="f" clipPathUnits="userSpaceOnUse">
            <path d="M35.44 342.89h77.566v-98.917H35.44Z"/>
        </clipPath>
        <clipPath id="a" clipPathUnits="userSpaceOnUse">
            <path d="M35.44 342.89h77.566v-98.917H35.44Z"/>
        </clipPath>
        <clipPath id="h" clipPathUnits="userSpaceOnUse">
            <path d="M87.59 284.16h25.414v-37.515H87.591Z"/>
        </clipPath>
        <radialGradient id="e" cx="0" cy="0" r="1" fx="0" fy="0" gradientTransform="matrix(37.14486 0 0 -37.14486 119.632 279.926)" gradientUnits="userSpaceOnUse" spreadMethod="pad">
            <stop offset="0" style="stop-opacity:1;stop-color:#f9fbfe"/>
            <stop offset="0.53480568" style="stop-opacity:1;stop-color:#2b93dd"/>
            <stop offset="0.705521" style="stop-opacity:1;stop-color:#2b93dd"/>
            <stop offset="0.82252817" style="stop-opacity:1;stop-color:#2b93dd"/>
            <stop offset="1" style="stop-opacity:1;stop-color:#2b93dd"/>
        </radialGradient>
        <radialGradient id="g" cx="0" cy="0" r="1" fx="0" fy="0" gradientTransform="matrix(64.60959 0 0 -64.60959 70.465 309.11)" gradientUnits="userSpaceOnUse" spreadMethod="pad">
            <stop offset="0" style="stop-opacity:1;stop-color:#f7f6fa"/>
            <stop offset="0.0951962" style="stop-opacity:1;stop-color:#f7f6fa"/>
            <stop offset="0.306748" style="stop-opacity:1;stop-color:#807ab2"/>
            <stop offset="0.56095663" style="stop-opacity:1;stop-color:#001b6a"/>
            <stop offset="0.748466" style="stop-opacity:1;stop-color:#001b6a"/>
            <stop offset="0.84840957" style="stop-opacity:1;stop-color:#001b6a"/>
            <stop offset="1" style="stop-opacity:1;stop-color:#001b6a"/>
        </radialGradient>
        <radialGradient id="b" cx="0" cy="0" r="1" fx="0" fy="0" gradientTransform="matrix(50.19256 0 0 -50.19256 120.57 279.602)" gradientUnits="userSpaceOnUse" spreadMethod="pad">
            <stop offset="0" style="stop-opacity:1;stop-color:#f7f6fa"/>
            <stop offset="0.0951962" style="stop-opacity:1;stop-color:#f7f6fa"/>
            <stop offset="0.306748" style="stop-opacity:1;stop-color:#807ab2"/>
            <stop offset="0.56095663" style="stop-opacity:1;stop-color:#001b6a"/>
            <stop offset="0.748466" style="stop-opacity:1;stop-color:#001b6a"/>
            <stop offset="0.84840957" style="stop-opacity:1;stop-color:#001b6a"/>
            <stop offset="1" style="stop-opacity:1;stop-color:#001b6a"/>
        </radialGradient>
    </defs>
    <g clip-path="url(#a)" transform="matrix(1.60207 0 0 -1.60207 -56.778 571.2)">
        <path d="M78.04 243.973c-.002.004-.003.004-.005.006-.526.052-2.451.318-2.561 1.927-4.688 1.797-10.946 7.561-15.066 12.451 4.777 5.262 14.044 11.342 22.782 15.571 4.358-9.528 8.427-22.076 7.952-27.283 7.334 2.712 15.546 7.246 20.404 11.246 5.231 17.425-3.37 50.798-29.492 84.999-10.031-4.058-19.956-8.793-28.091-13.694 3.752-8.279 11.206-23.21 16.656-32.696-9.808-5.455-19.177-13.342-23.094-18.627-7.178 13.996-10.022 29.05-9.973 39.648-.832-2.813-1.336-5.91-1.629-8.395-2.947-24.595 7.836-51.915 26.19-60.868 1.544-.75 3.193-1.401 4.857-1.996 3.238-1.108 7.023-1.903 11.07-2.289" style="fill:url(#b);stroke:none"/>
    </g>
    <g clip-path="url(#c)" transform="matrix(1.60207 0 0 -1.60207 -56.778 571.2)">
        <path d="M0 0c4.118 2.816 8.794 5.51 13.326 7.703a127.499 127.499 0 0 0 4.401-11C11.48-4.174 5.16-2.574 0 0m47.292 90.315C45.57 84.299 39.13 73.867 30.78 67.08c6.381-8.957 12.185-21.995 15.355-35.35-.576-3.314-2.162-8.455-4.756-13.794-3.656 16.905-13.098 37.66-29.19 58.73-10.03-4.059-19.956-8.793-28.09-13.695 3.752-8.278 11.206-23.21 16.656-32.696-9.809-5.455-19.177-13.341-23.094-18.627-7.179 13.997-10.022 29.051-9.974 39.648-.832-2.812-1.335-5.91-1.628-8.394-2.948-24.595 7.836-51.916 26.19-60.869 1.544-.75 3.192-1.4 4.856-1.996 2.901-.992 6.041-1.701 9.688-2.139 9.22-1.107 20.016-.076 28.867 4.35C63.882-3.607 70.354 39.884 47.292 90.315" style="fill:#fff;fill-opacity:1;fill-rule:nonzero;stroke:none" transform="translate(69.864 266.225)"/>
    </g>
    <g clip-path="url(#d)" transform="matrix(1.60207 0 0 -1.60207 -56.778 571.2)">
        <path d="M55.57 297.969h65.227v-55.613H55.57Z" style="fill:#41a3db;fill-opacity:1;fill-rule:nonzero;stroke:none"/>
        <path d="M0 0c-8.023 11.441-1.434 29.906 14.727 41.238v-3.394H58.52v3.191c8.023-11.445 1.429-29.91-14.727-41.238C27.633-11.539 8.027-11.445 0 0" style="fill:#41a3db;fill-opacity:1;fill-rule:nonzero;stroke:none" transform="translate(61.98 261.125)"/>
        <path d="M0 0c-7.977 11.375-1.426 29.727 14.633 40.988v-3.269h43.519v3.066C66.129 29.41 59.578 11.059 43.52-.203 27.461-11.465 7.977-11.375 0 0" style="fill:#43a3dc;fill-opacity:1;fill-rule:nonzero;stroke:none" transform="translate(62.164 261.25)"/>
        <path d="M0 0c-7.93 11.305-1.414 29.543 14.543 40.734v-3.14h43.25v2.937C65.719 29.23 59.211 10.992 43.25-.199 27.289-11.391 7.926-11.301 0 0" style="fill:#42a3dc;fill-opacity:1;fill-rule:nonzero;stroke:none" transform="translate(62.344 261.375)"/>
        <path d="M0 0c-7.875 11.23-1.406 29.355 14.453 40.477v-3.012h42.981v2.812C65.313 29.043 58.84 10.922 42.98-.199 27.121-11.324 7.879-11.234 0 0" style="fill:#45a4dc;fill-opacity:1;fill-rule:nonzero;stroke:none" transform="translate(62.523 261.504)"/>
        <path d="M0 0c-7.828 11.164-1.398 29.172 14.363 40.223V37.34h42.711v2.687c7.828-11.164 1.395-29.172-14.363-40.226C26.953-11.25 7.828-11.16 0 0" style="fill:#47a4dc;fill-opacity:1;fill-rule:nonzero;stroke:none" transform="translate(62.703 261.629)"/>
        <path d="M0 0c-7.781 11.09-1.391 28.984 14.27 39.969v-2.758h42.437v2.559c7.781-11.09 1.391-28.985-14.269-39.969C26.777-11.18 7.777-11.094 0 0" style="fill:#47a4dc;fill-opacity:1;fill-rule:nonzero;stroke:none" transform="translate(62.887 261.758)"/>
        <path d="M0 0c-7.73 11.023-1.379 28.801 14.18 39.715v-2.629h42.168v2.434c7.73-11.024 1.382-28.801-14.18-39.715C26.609-11.109 7.727-11.02 0 0" style="fill:#49a4dc;fill-opacity:1;fill-rule:nonzero;stroke:none" transform="translate(63.066 261.883)"/>
        <path d="M0 0c-7.68 10.953-1.371 28.617 14.09 39.461v-2.5h41.898v2.305c7.68-10.95 1.371-28.618-14.09-39.457C26.437-11.035 7.68-10.949 0 0" style="fill:#4aa5dd;fill-opacity:1;fill-rule:nonzero;stroke:none" transform="translate(63.246 262.008)"/>
        <path d="M0 0c-7.629 10.879-1.363 28.434 14 39.203v-2.371h41.629v2.18c7.629-10.879 1.359-28.434-14-39.207C26.27-10.965 7.629-10.879 0 0" style="fill:#4ca6dd;fill-opacity:1;fill-rule:nonzero;stroke:none" transform="translate(63.426 262.137)"/>
        <path d="M0 0c-7.582 10.809-1.355 28.25 13.906 38.953v-2.246h41.36v2.051c7.578-10.809 1.351-28.246-13.911-38.949C26.094-10.895 7.578-10.809 0 0" style="fill:#4ca6dd;fill-opacity:1;fill-rule:nonzero;stroke:none" transform="translate(63.61 262.262)"/>
        <path d="M0 0c-7.531 10.738-1.344 28.062 13.816 38.695v-2.117h41.086v1.926C62.434 27.766 56.25 10.441 41.086-.191 25.926-10.824 7.531-10.738 0 0" style="fill:#4ea6dd;fill-opacity:1;fill-rule:nonzero;stroke:none" transform="translate(63.79 262.39)"/>
        <path d="M0 0c-7.48 10.668-1.336 27.879 13.727 38.441v-1.988h40.816v1.797c7.48-10.664 1.336-27.875-13.727-38.437C25.758-10.75 7.48-10.668 0 0" style="fill:#50a6dd;fill-opacity:1;fill-rule:nonzero;stroke:none" transform="translate(63.969 262.516)"/>
        <path d="M0 0c-7.43 10.598-1.328 27.691 13.637 38.184v-1.86h40.547v1.672c7.429-10.598 1.324-27.695-13.637-38.187C25.586-10.684 7.434-10.598 0 0" style="fill:#51a7dd;fill-opacity:1;fill-rule:nonzero;stroke:none" transform="translate(64.148 262.644)"/>
        <path d="M0 0c-7.379 10.527-1.316 27.508 13.547 37.934v-1.735H53.82v1.547c7.383-10.527 1.321-27.512-13.543-37.933C25.418-10.609 7.383-10.527 0 0" style="fill:#53a7de;fill-opacity:1;fill-rule:nonzero;stroke:none" transform="translate(64.328 262.77)"/>
        <path d="M0 0c-7.332 10.453-1.309 27.32 13.453 37.676V36.07h40.004v1.418C60.793 27.035 54.77 10.164 40.004-.187 25.242-10.539 7.332-10.457 0 0" style="fill:#53a7de;fill-opacity:1;fill-rule:nonzero;stroke:none" transform="translate(64.512 262.898)"/>
        <path d="M0 0c-7.285 10.383-1.301 27.141 13.363 37.422v-1.477h39.735v1.293c7.281-10.386 1.3-27.14-13.364-37.425C25.074-10.469 7.281-10.387 0 0" style="fill:#54a8de;fill-opacity:1;fill-rule:nonzero;stroke:none" transform="translate(64.691 263.023)"/>
        <path d="M0 0c-7.234 10.316-1.293 26.957 13.27 37.168V35.82h39.468v1.164c7.235-10.312 1.289-26.953-13.273-37.168C24.902-10.395 7.234-10.313 0 0" style="fill:#56a9de;fill-opacity:1;fill-rule:nonzero;stroke:none" transform="translate(64.871 263.148)"/>
        <path d="M0 0c-7.184 10.242-1.281 26.77 13.184 36.914v-1.223h39.195v1.039C59.563 26.488 53.66 9.961 39.199-.184 24.734-10.324 7.184-10.246 0 0" style="fill:#57a9de;fill-opacity:1;fill-rule:nonzero;stroke:none" transform="translate(65.05 263.277)"/>
        <path d="M0 0c-7.137 10.176-1.273 26.586 13.086 36.66v-1.094h38.926v.914c7.136-10.175 1.277-26.585-13.09-36.66C24.562-10.254 7.133-10.172 0 0" style="fill:#59a9de;fill-opacity:1;fill-rule:nonzero;stroke:none" transform="translate(65.234 263.402)"/>
        <path d="M0 0c-7.086 10.102-1.266 26.398 13 36.402v-.964h38.652v.785C58.738 26.121 52.918 9.82 38.656-.18 24.391-10.184 7.086-10.102 0 0" style="fill:#5baade;fill-opacity:1;fill-rule:nonzero;stroke:none" transform="translate(65.414 263.531)"/>
        <path d="M0 0c-7.035 10.031-1.258 26.219 12.906 36.148v-.835h38.387v.66C58.328 25.937 52.547 9.754 38.387-.18 24.223-10.109 7.035-10.031 0 0" style="fill:#5aaadf;fill-opacity:1;fill-rule:nonzero;stroke:none" transform="translate(65.594 263.656)"/>
        <path d="M0 0c-6.984 9.961-1.246 26.035 12.816 35.898v-.71h38.118v.531C57.918 25.758 52.18 9.688 38.117-.176 24.051-10.039 6.988-9.961 0 0" style="fill:#5cabdf;fill-opacity:1;fill-rule:nonzero;stroke:none" transform="translate(65.773 263.781)"/>
        <path d="M0 0c-6.937 9.891-1.238 25.848 12.723 35.641v-.582h37.843v.406c6.938-9.891 1.243-25.848-12.722-35.641S6.934-9.891 0 0" style="fill:#5dabdf;fill-opacity:1;fill-rule:nonzero;stroke:none" transform="translate(65.957 263.91)"/>
        <path d="M0 0c-6.887 9.82-1.23 25.664 12.633 35.387v-.453h37.574v.277c6.887-9.816 1.231-25.66-12.633-35.383C23.707-9.895 6.887-9.816 0 0" style="fill:#5fabdf;fill-opacity:1;fill-rule:nonzero;stroke:none" transform="translate(66.137 264.035)"/>
        <path d="M0 0c-6.836 9.75-1.223 25.477 12.543 35.129v-.324h37.305v.152c6.836-9.75 1.218-25.477-12.543-35.133C23.539-9.828 6.836-9.75 0 0" style="fill:#60ace0;fill-opacity:1;fill-rule:nonzero;stroke:none" transform="translate(66.316 264.164)"/>
        <path d="M0 0c-6.785 9.68-1.211 25.293 12.453 34.879v-.199h37.035v.027c6.785-9.68 1.211-25.297-12.453-34.879C23.371-9.754 6.789-9.68 0 0" style="fill:#62ace0;fill-opacity:1;fill-rule:nonzero;stroke:none" transform="translate(66.496 264.29)"/>
        <path d="M0 0c-6.738 9.605-1.203 25.105 12.359 34.621v-.07h30.086v5.316c2.703-1.207 4.993-3.015 6.68-5.418C55.859 24.84 50.328 9.34 36.762-.172 23.195-9.688 6.734-9.609 0 0" style="fill:#63ade0;fill-opacity:1;fill-rule:nonzero;stroke:none" transform="translate(66.68 264.418)"/>
        <path d="M0 0c-6.687 9.539-1.195 24.926 12.27 34.367 3.367 2.363 6.914 4.129 10.441 5.301v-5.242h10.348v6.976c6.605-.031 12.359-2.437 15.703-7.203 6.691-9.539 1.195-24.926-12.27-34.367C23.027-9.613 6.687-9.535 0 0" style="fill:#65ade0;fill-opacity:1;fill-rule:nonzero;stroke:none" transform="translate(66.86 264.543)"/>
        <path d="M0 0c-6.641 9.465-1.187 24.738 12.18 34.109 6.683 4.688 14.078 7.012 20.633 6.985 6.554-.031 12.269-2.418 15.589-7.153 6.641-9.464 1.184-24.738-12.179-34.113C22.855-9.543 6.641-9.469 0 0" style="fill:#64aee0;fill-opacity:1;fill-rule:nonzero;stroke:none" transform="translate(67.04 264.672)"/>
        <path d="M0 0c-6.59 9.395-1.176 24.555 12.09 33.859 6.633 4.649 13.972 6.957 20.48 6.926 6.504-.027 12.176-2.394 15.473-7.094 6.59-9.394 1.176-24.554-12.09-33.859C22.687-9.473 6.59-9.398 0 0" style="fill:#66aee0;fill-opacity:1;fill-rule:nonzero;stroke:none" transform="translate(67.219 264.797)"/>
        <path d="M0 0c-6.539 9.328-1.164 24.371 12 33.605 6.582 4.618 13.867 6.907 20.328 6.875 6.453-.027 12.086-2.378 15.352-7.042C54.223 24.113 48.852 9.07 35.684-.164 22.516-9.398 6.543-9.324 0 0" style="fill:#67aee0;fill-opacity:1;fill-rule:nonzero;stroke:none" transform="translate(67.398 264.922)"/>
        <path d="M0 0c-6.492 9.254-1.16 24.184 11.906 33.348 6.535 4.582 13.762 6.855 20.172 6.824 6.41-.027 11.996-2.359 15.238-6.988C53.809 23.93 48.477 8.996 35.41-.168 22.344-9.328 6.488-9.254 0 0" style="fill:#69afe1;fill-opacity:1;fill-rule:nonzero;stroke:none" transform="translate(67.582 265.05)"/>
        <path d="M0 0c-6.441 9.184-1.152 24.004 11.816 33.098 6.485 4.547 13.657 6.8 20.016 6.769 6.359-.027 11.906-2.344 15.125-6.933C53.398 23.746 48.105 8.93 35.141-.164 22.176-9.258 6.441-9.184 0 0" style="fill:#6ab0e1;fill-opacity:1;fill-rule:nonzero;stroke:none" transform="translate(67.762 265.176)"/>
        <path d="M0 0c-6.391 9.113-1.141 23.816 11.727 32.84 6.433 4.512 13.554 6.75 19.863 6.719 6.312-.028 11.812-2.325 15.008-6.883 6.39-9.114 1.14-23.817-11.727-32.84C22.004-9.188 6.391-9.117 0 0" style="fill:#6bb0e1;fill-opacity:1;fill-rule:nonzero;stroke:none" transform="translate(67.941 265.305)"/>
        <path d="M0 0c-6.34 9.043-1.129 23.633 11.637 32.586 6.383 4.477 13.449 6.695 19.711 6.668 6.257-.027 11.718-2.309 14.89-6.828 6.34-9.043 1.133-23.633-11.636-32.586C21.836-9.117 6.344-9.043 0 0" style="fill:#6db0e1;fill-opacity:1;fill-rule:nonzero;stroke:none" transform="translate(68.121 265.43)"/>
        <path d="M0 0c-6.293 8.973-1.125 23.449 11.543 32.332 6.332 4.441 13.344 6.645 19.555 6.617 6.215-.027 11.629-2.289 14.773-6.777 6.293-8.969 1.125-23.445-11.543-32.328C21.66-9.043 6.289-8.969 0 0" style="fill:#6eb1e1;fill-opacity:1;fill-rule:nonzero;stroke:none" transform="translate(68.305 265.555)"/>
        <path d="M0 0c-6.242 8.902-1.117 23.262 11.453 32.074 6.281 4.41 13.238 6.594 19.402 6.567 6.161-.028 11.536-2.274 14.657-6.723C51.754 23.016 46.625 8.656 34.059-.16 21.492-8.973 6.242-8.902 0 0" style="fill:#6fb2e2;fill-opacity:1;fill-rule:nonzero;stroke:none" transform="translate(68.484 265.684)"/>
        <path d="M0 0c-6.191 8.832-1.105 23.078 11.363 31.824 6.235 4.371 13.133 6.539 19.246 6.512 6.118-.027 11.446-2.254 14.543-6.668C51.344 22.836 46.258 8.59 33.789-.156 21.32-8.902 6.195-8.832 0 0" style="fill:#71b2e2;fill-opacity:1;fill-rule:nonzero;stroke:none" transform="translate(68.664 265.809)"/>
        <path d="M0 0c-6.141 8.758-1.094 22.891 11.273 31.566 6.184 4.336 13.028 6.489 19.094 6.461 6.067-.031 11.352-2.238 14.426-6.617C50.934 22.648 45.891 8.516 33.52-.156 21.152-8.832 6.145-8.762 0 0" style="fill:#72b2e2;fill-opacity:1;fill-rule:nonzero;stroke:none" transform="translate(68.844 265.938)"/>
        <path d="M0 0c-6.098 8.691-1.09 22.711 11.18 31.312 6.132 4.305 12.922 6.438 18.937 6.411 6.02-.028 11.262-2.219 14.309-6.563 6.094-8.691 1.09-22.711-11.18-31.316C20.98-8.758 6.094-8.688 0 0" style="fill:#73b3e2;fill-opacity:1;fill-rule:nonzero;stroke:none" transform="translate(69.027 266.063)"/>
        <path d="M0 0c-6.047 8.621-1.082 22.527 11.09 31.062 12.168 8.532 26.933 8.465 32.976-.156 6.047-8.617 1.079-22.523-11.089-31.058C20.809-8.688 6.043-8.617 0 0" style="fill:#74b4e3;fill-opacity:1;fill-rule:nonzero;stroke:none" transform="translate(69.207 266.188)"/>
        <path d="M0 0c-5.996 8.547-1.07 22.34 11 30.805 12.066 8.465 26.711 8.394 32.707-.153 5.996-8.55 1.07-22.339-11-30.804C20.641-8.617 5.996-8.551 0 0" style="fill:#76b4e3;fill-opacity:1;fill-rule:nonzero;stroke:none" transform="translate(69.387 266.316)"/>
        <path d="M0 0c-5.945 8.48-1.059 22.156 10.91 30.551 11.969 8.394 26.492 8.328 32.438-.153 5.945-8.476 1.062-22.152-10.91-30.546C20.469-8.543 5.945-8.477 0 0" style="fill:#76b4e3;fill-opacity:1;fill-rule:nonzero;stroke:none" transform="translate(69.566 266.441)"/>
        <path d="M0 0c-5.898 8.406-1.055 21.969 10.816 30.293 11.868 8.324 26.27 8.258 32.168-.148 5.895-8.407 1.051-21.973-10.82-30.293C20.297-8.477 5.895-8.406 0 0" style="fill:#77b5e3;fill-opacity:1;fill-rule:nonzero;stroke:none" transform="translate(69.75 266.57)"/>
        <path d="M0 0c-5.848 8.336-1.047 21.785 10.727 30.039 11.769 8.258 26.05 8.191 31.894-.148 5.848-8.336 1.043-21.786-10.726-30.039C20.125-8.402 5.844-8.336 0 0" style="fill:#78b5e3;fill-opacity:1;fill-rule:nonzero;stroke:none" transform="translate(69.93 266.695)"/>
        <path d="M0 0c-5.797 8.266-1.035 21.598 10.633 29.785 11.672 8.184 25.832 8.117 31.629-.148 5.797-8.266 1.035-21.602-10.637-29.785C19.957-8.332 5.797-8.266 0 0" style="fill:#79b6e3;fill-opacity:1;fill-rule:nonzero;stroke:none" transform="translate(70.11 266.824)"/>
        <path d="M0 0c-5.746 8.195-1.023 21.418 10.547 29.531 11.57 8.114 25.609 8.051 31.355-.144C47.648 21.191 42.93 7.969 31.359-.145 19.785-8.262 5.75-8.195 0 0" style="fill:#7bb6e3;fill-opacity:1;fill-rule:nonzero;stroke:none" transform="translate(70.29 266.95)"/>
        <path d="M0 0c-5.695 8.121-1.016 21.23 10.453 29.273 11.473 8.047 25.391 7.981 31.086-.144 5.699-8.125 1.02-21.231-10.453-29.277C19.617-8.191 5.699-8.125 0 0" style="fill:#7cb7e4;fill-opacity:1;fill-rule:nonzero;stroke:none" transform="translate(70.469 267.078)"/>
        <path d="M0 0c-5.648 8.055-1.012 21.047 10.363 29.023 11.367 7.973 25.164 7.907 30.813-.144 5.648-8.055 1.008-21.047-10.36-29.024C19.445-8.117 5.648-8.055 0 0" style="fill:#7db7e4;fill-opacity:1;fill-rule:nonzero;stroke:none" transform="translate(70.652 267.203)"/>
        <path d="M0 0c-5.598 7.984-1 20.863 10.27 28.77 11.273 7.902 24.949 7.839 30.546-.145 5.598-7.98 1-20.859-10.269-28.766C19.273-8.047 5.598-7.98 0 0" style="fill:#7fb8e4;fill-opacity:1;fill-rule:nonzero;stroke:none" transform="translate(70.832 267.328)"/>
        <path d="M0 0c-5.547 7.91-.988 20.676 10.18 28.512 11.172 7.836 24.726 7.773 30.277-.141 5.547-7.914.992-20.68-10.18-28.512C19.105-7.977 5.551-7.914 0 0" style="fill:#80b8e4;fill-opacity:1;fill-rule:nonzero;stroke:none" transform="translate(71.012 267.457)"/>
        <path d="M0 0c-5.496 7.844-.98 20.496 10.09 28.258 11.074 7.765 24.508 7.703 30.008-.137 5.5-7.844.98-20.496-10.09-28.258C18.934-7.902 5.5-7.84 0 0" style="fill:#80b9e5;fill-opacity:1;fill-rule:nonzero;stroke:none" transform="translate(71.191 267.582)"/>
        <path d="M0 0c-5.453 7.77-.977 20.309 9.996 28 10.973 7.695 24.285 7.633 29.734-.137 5.45-7.769.973-20.308-9.996-28.004C18.762-7.836 5.449-7.773 0 0" style="fill:#81bae5;fill-opacity:1;fill-rule:nonzero;stroke:none" transform="translate(71.375 267.71)"/>
        <path d="M0 0c-5.402 7.699-.965 20.125 9.906 27.75 10.875 7.625 24.067 7.563 29.465-.137 5.402-7.703.965-20.125-9.906-27.75C18.59-7.762 5.398-7.699 0 0" style="fill:#82bae5;fill-opacity:1;fill-rule:nonzero;stroke:none" transform="translate(71.555 267.836)"/>
        <path d="M0 0c-5.352 7.633-.953 19.941 9.816 27.496 10.774 7.555 23.844 7.496 29.196-.137 5.351-7.629.957-19.937-9.817-27.492C18.422-7.687 5.352-7.629 0 0" style="fill:#84bbe5;fill-opacity:1;fill-rule:nonzero;stroke:none" transform="translate(71.734 267.96)"/>
        <path d="M0 0c-5.301 7.559-.945 19.754 9.727 27.238 10.671 7.485 23.625 7.426 28.925-.133 5.301-7.558.946-19.753-9.726-27.242C18.25-7.621 5.305-7.559 0 0" style="fill:#85bbe6;fill-opacity:1;fill-rule:nonzero;stroke:none" transform="translate(71.914 268.09)"/>
        <path d="M0 0c-5.254 7.488-.941 19.57 9.633 26.988 10.574 7.414 23.402 7.352 28.652-.136 5.254-7.489.938-19.567-9.633-26.985C18.078-7.547 5.25-7.488 0 0" style="fill:#86bce6;fill-opacity:1;fill-rule:nonzero;stroke:none" transform="translate(72.098 268.215)"/>
        <path d="M0 0c-5.203 7.418-.93 19.383 9.543 26.73 10.473 7.344 23.18 7.286 28.383-.132 5.203-7.418.929-19.387-9.543-26.731C17.91-7.477 5.203-7.418 0 0" style="fill:#87bce6;fill-opacity:1;fill-rule:nonzero;stroke:none" transform="translate(72.277 268.344)"/>
        <path d="M0 0c-5.152 7.348-.918 19.203 9.453 26.477 10.375 7.273 22.961 7.218 28.113-.133C42.719 19 38.488 7.145 28.113-.129 17.738-7.406 5.152-7.348 0 0" style="fill:#88bde6;fill-opacity:1;fill-rule:nonzero;stroke:none" transform="translate(72.457 268.469)"/>
        <path d="M0 0c-5.102 7.273-.91 19.016 9.363 26.219 10.274 7.207 22.739 7.148 27.844-.129 5.102-7.278.91-19.016-9.363-26.219C17.57-7.336 5.105-7.277 0 0" style="fill:#89bde6;fill-opacity:1;fill-rule:nonzero;stroke:none" transform="translate(72.637 268.598)"/>
        <path d="M0 0c-5.055 7.207-.906 18.832 9.27 25.965 10.175 7.137 22.519 7.078 27.574-.125 5.051-7.207.898-18.832-9.274-25.969C17.395-7.262 5.051-7.207 0 0" style="fill:#8bbee6;fill-opacity:1;fill-rule:nonzero;stroke:none" transform="translate(72.82 268.723)"/>
        <path d="M0 0c-5.004 7.133-.895 18.645 9.18 25.711 10.074 7.062 22.297 7.008 27.3-.129 5.004-7.133.895-18.645-9.179-25.711C17.227-7.195 5.004-7.137 0 0" style="fill:#8cbfe7;fill-opacity:1;fill-rule:nonzero;stroke:none" transform="translate(73 268.852)"/>
        <path d="M0 0c-4.953 7.062-.883 18.461 9.09 25.457 9.972 6.996 22.078 6.938 27.031-.125 4.953-7.066.887-18.465-9.09-25.457C17.055-7.121 4.953-7.066 0 0" style="fill:#8dbfe7;fill-opacity:1;fill-rule:nonzero;stroke:none" transform="translate(73.18 268.977)"/>
        <path d="M0 0c-4.906 6.996-.875 18.277 9 25.203 9.875 6.926 21.855 6.871 26.762-.125 4.902-6.992.875-18.277-9-25.203C16.887-7.047 4.906-6.992 0 0" style="fill:#8ebfe7;fill-opacity:1;fill-rule:nonzero;stroke:none" transform="translate(73.36 269.102)"/>
        <path d="M0 0c-4.852 6.922-.867 18.094 8.91 24.949 9.774 6.852 21.637 6.797 26.488-.125 4.86-6.922.868-18.094-8.906-24.949C16.719-6.98 4.855-6.926 0 0" style="fill:#8fc0e7;fill-opacity:1;fill-rule:nonzero;stroke:none" transform="translate(73.54 269.23)"/>
        <path d="M0 0c-4.809 6.855-.859 17.91 8.816 24.695 9.676 6.785 21.414 6.731 26.219-.121 4.809-6.855.86-17.91-8.816-24.695S4.805-6.852 0 0" style="fill:#90c1e8;fill-opacity:1;fill-rule:nonzero;stroke:none" transform="translate(73.723 269.356)"/>
        <path d="M0 0c-4.758 6.781-.848 17.723 8.727 24.437 9.574 6.715 21.191 6.661 25.949-.121 4.758-6.781.851-17.722-8.727-24.437C16.375-6.836 4.754-6.781 0 0" style="fill:#92c1e8;fill-opacity:1;fill-rule:nonzero;stroke:none" transform="translate(73.902 269.484)"/>
        <path d="M0 0c-4.707 6.711-.84 17.539 8.637 24.184 9.476 6.644 20.972 6.593 25.679-.118 4.707-6.711.84-17.539-8.636-24.187C16.203-6.766 4.707-6.711 0 0" style="fill:#93c2e8;fill-opacity:1;fill-rule:nonzero;stroke:none" transform="translate(74.082 269.61)"/>
        <path d="M0 0c-4.656 6.641-.832 17.355 8.547 23.934 9.375 6.574 20.75 6.519 25.41-.122 4.656-6.64.828-17.351-8.547-23.929C16.035-6.691 4.66-6.641 0 0" style="fill:#94c3e8;fill-opacity:1;fill-rule:nonzero;stroke:none" transform="translate(74.262 269.734)"/>
        <path d="M0 0c-4.609 6.57-.824 17.168 8.453 23.676 9.274 6.504 20.531 6.453 25.137-.117 4.609-6.571.824-17.172-8.453-23.676C15.859-6.621 4.605-6.57 0 0" style="fill:#95c3e8;fill-opacity:1;fill-rule:nonzero;stroke:none" transform="translate(74.445 269.863)"/>
        <path d="M0 0c-4.559 6.5-.812 16.988 8.363 23.422 9.176 6.437 20.309 6.383 24.867-.113 4.559-6.5.817-16.989-8.363-23.422C15.691-6.551 4.559-6.5 0 0" style="fill:#96c3e9;fill-opacity:1;fill-rule:nonzero;stroke:none" transform="translate(74.625 269.988)"/>
        <path d="M0 0c-4.508 6.43-.805 16.801 8.273 23.164 9.075 6.367 20.09 6.316 24.598-.113 4.508-6.43.805-16.801-8.273-23.168C15.523-6.48 4.508-6.43 0 0" style="fill:#97c4e9;fill-opacity:1;fill-rule:nonzero;stroke:none" transform="translate(74.805 270.117)"/>
        <path d="M0 0c-4.457 6.359-.797 16.617 8.184 22.914 8.976 6.293 19.867 6.242 24.328-.113 4.457-6.36.793-16.617-8.184-22.914C15.352-6.406 4.461-6.359 0 0" style="fill:#98c5e9;fill-opacity:1;fill-rule:nonzero;stroke:none" transform="translate(74.984 270.242)"/>
        <path d="M0 0c-4.41 6.289-.789 16.434 8.09 22.66 8.875 6.227 19.648 6.176 24.055-.113 4.41-6.285.789-16.43-8.09-22.656C15.18-6.336 4.406-6.285 0 0" style="fill:#99c5e9;fill-opacity:1;fill-rule:nonzero;stroke:none" transform="translate(75.168 270.367)"/>
        <path d="M0 0c-4.359 6.215-.777 16.246 7.996 22.402 8.781 6.157 19.43 6.106 23.789-.109 4.36-6.219.781-16.25-8-22.402C15.008-6.266 4.359-6.215 0 0" style="fill:#9bc5e9;fill-opacity:1;fill-rule:nonzero;stroke:none" transform="translate(75.348 270.496)"/>
        <path d="M0 0c-4.309 6.148-.77 16.062 7.91 22.148 8.676 6.086 19.203 6.039 23.516-.109 4.308-6.144.769-16.062-7.906-22.148C14.84-6.195 4.309-6.145 0 0" style="fill:#9cc6ea;fill-opacity:1;fill-rule:nonzero;stroke:none" transform="translate(75.527 270.621)"/>
        <path d="M0 0c-4.262 6.074-.762 15.875 7.816 21.895 8.579 6.015 18.989 5.964 23.25-.11 4.258-6.074.758-15.879-7.82-21.894C14.668-6.125 4.262-6.078 0 0" style="fill:#9dc7ea;fill-opacity:1;fill-rule:nonzero;stroke:none" transform="translate(75.707 270.75)"/>
        <path d="M0 0c-4.215 6.008-.754 15.695 7.727 21.641 8.476 5.945 18.761 5.898 22.976-.11 4.211-6.004.75-15.691-7.726-21.636C14.496-6.051 4.211-6.004 0 0" style="fill:#9fc8ea;fill-opacity:1;fill-rule:nonzero;stroke:none" transform="translate(75.89 270.875)"/>
        <path d="M0 0c-4.164 5.934-.742 15.508 7.633 21.383 8.379 5.875 18.547 5.828 22.707-.106 4.164-5.933.746-15.507-7.633-21.382C14.328-5.984 4.16-5.934 0 0" style="fill:#a0c8ea;fill-opacity:1;fill-rule:nonzero;stroke:none" transform="translate(76.07 271.004)"/>
        <path d="M0 0c-4.113 5.863-.734 15.324 7.543 21.129 8.281 5.808 18.324 5.762 22.437-.102 4.114-5.867.735-15.324-7.543-21.132C14.156-5.91 4.113-5.863 0 0" style="fill:#a1c9eb;fill-opacity:1;fill-rule:nonzero;stroke:none" transform="translate(76.25 271.129)"/>
        <path d="M0 0c-4.062 5.789-.727 15.137 7.453 20.875 8.18 5.734 18.106 5.687 22.168-.105 4.063-5.793.723-15.137-7.453-20.875C13.988-5.84 4.062-5.797 0 0" style="fill:#a2c9eb;fill-opacity:1;fill-rule:nonzero;stroke:none" transform="translate(76.43 271.258)"/>
        <path d="M0 0c-4.012 5.723-.715 14.953 7.363 20.621 8.082 5.664 17.883 5.621 21.895-.101 4.015-5.723.719-14.958-7.36-20.622C13.816-5.77 4.016-5.723 0 0" style="fill:#a3caeb;fill-opacity:1;fill-rule:nonzero;stroke:none" transform="translate(76.61 271.383)"/>
        <path d="M0 0c-3.965 5.652-.707 14.773 7.27 20.367 7.98 5.598 17.664 5.551 21.625-.101 3.964-5.649.71-14.77-7.27-20.364C13.645-5.695 3.961-5.648 0 0" style="fill:#a4cbeb;fill-opacity:1;fill-rule:nonzero;stroke:none" transform="translate(76.793 271.508)"/>
        <path d="M0 0c-3.914 5.582-.699 14.586 7.18 20.109 7.879 5.528 17.441 5.485 21.355-.097 3.914-5.582.699-14.586-7.18-20.114C13.473-5.625 3.914-5.582 0 0" style="fill:#a5cbec;fill-opacity:1;fill-rule:nonzero;stroke:none" transform="translate(76.973 271.637)"/>
        <path d="M0 0c-3.863 5.512-.691 14.402 7.09 19.859 7.781 5.453 17.219 5.411 21.086-.097 3.863-5.512.687-14.403-7.09-19.86C13.305-5.555 3.863-5.508 0 0" style="fill:#a6cbec;fill-opacity:1;fill-rule:nonzero;stroke:none" transform="translate(77.152 271.762)"/>
        <path d="M0 0c-3.813 5.437-.68 14.215 7 19.602 7.68 5.386 17 5.343 20.816-.098 3.813-5.441.68-14.215-7-19.602C13.137-5.484 3.816-5.441 0 0" style="fill:#a7ccec;fill-opacity:1;fill-rule:nonzero;stroke:none" transform="translate(77.332 271.89)"/>
        <path d="M0 0c-3.766 5.371-.672 14.031 6.906 19.348 7.582 5.316 16.778 5.273 20.543-.094 3.766-5.371.676-14.031-6.906-19.348C12.961-5.41 3.766-5.367 0 0" style="fill:#a8cdec;fill-opacity:1;fill-rule:nonzero;stroke:none" transform="translate(77.516 272.016)"/>
        <path d="M0 0c-3.715 5.301-.664 13.848 6.816 19.094 7.481 5.25 16.559 5.207 20.274-.094 3.715-5.297.664-13.844-6.817-19.094C12.793-5.34 3.715-5.297 0 0" style="fill:#a9cdec;fill-opacity:1;fill-rule:nonzero;stroke:none" transform="translate(77.695 272.14)"/>
        <path d="M0 0c-3.664 5.227-.656 13.66 6.727 18.84 7.382 5.176 16.335 5.133 20.003-.094 3.668-5.226.653-13.664-6.726-18.84C12.621-5.27 3.668-5.227 0 0" style="fill:#aacdec;fill-opacity:1;fill-rule:nonzero;stroke:none" transform="translate(77.875 272.27)"/>
        <path d="M0 0c-3.617 5.16-.645 13.48 6.637 18.586 7.281 5.105 16.117 5.066 19.734-.094 3.613-5.156.645-13.476-6.637-18.582C12.453-5.195 3.617-5.156 0 0" style="fill:#abceed;fill-opacity:1;fill-rule:nonzero;stroke:none" transform="translate(78.055 272.394)"/>
        <path d="M0 0c-3.57 5.086-.637 13.293 6.543 18.328 7.18 5.039 15.894 4.996 19.461-.09 3.57-5.086.641-13.293-6.543-18.328C12.277-5.129 3.566-5.086 0 0" style="fill:#adcfed;fill-opacity:1;fill-rule:nonzero;stroke:none" transform="translate(78.238 272.523)"/>
        <path d="M0 0c-3.52 5.016-.629 13.109 6.453 18.074 7.082 4.969 15.676 4.93 19.192-.09 3.519-5.015.628-13.105-6.454-18.074C12.109-5.055 3.516-5.016 0 0" style="fill:#aecfed;fill-opacity:1;fill-rule:nonzero;stroke:none" transform="translate(78.418 272.648)"/>
        <path d="M0 0c-3.469 4.945-.621 12.922 6.363 17.82 6.981 4.895 15.453 4.856 18.922-.09 3.469-4.945.617-12.921-6.363-17.82C11.941-4.988 3.469-4.945 0 0" style="fill:#afd0ee;fill-opacity:1;fill-rule:nonzero;stroke:none" transform="translate(78.598 272.777)"/>
        <path d="M0 0c-3.418 4.875-.609 12.738 6.273 17.566 6.883 4.829 15.235 4.789 18.653-.086 3.418-4.875.609-12.742-6.274-17.566C11.77-4.914 3.418-4.875 0 0" style="fill:#b0d1ee;fill-opacity:1;fill-rule:nonzero;stroke:none" transform="translate(78.777 272.902)"/>
        <path d="M0 0c-3.371 4.801-.602 12.551 6.18 17.309 6.781 4.757 15.011 4.718 18.382-.086 3.368-4.801.602-12.555-6.183-17.309C11.598-4.844 3.367-4.805 0 0" style="fill:#b2d1ee;fill-opacity:1;fill-rule:nonzero;stroke:none" transform="translate(78.96 273.031)"/>
        <path d="M0 0c-3.32 4.734-.594 12.371 6.09 17.055 6.683 4.687 14.793 4.652 18.109-.082 3.321-4.735.594-12.371-6.09-17.059C11.426-4.773 3.32-4.734 0 0" style="fill:#b3d2ee;fill-opacity:1;fill-rule:nonzero;stroke:none" transform="translate(79.14 273.156)"/>
        <path d="M0 0c-3.27 4.664-.586 12.188 6 16.805 6.582 4.617 14.57 4.578 17.84-.086 3.269-4.66.582-12.184-6-16.801C11.258-4.699 3.27-4.66 0 0" style="fill:#b4d3ee;fill-opacity:1;fill-rule:nonzero;stroke:none" transform="translate(79.32 273.281)"/>
        <path d="M0 0c-3.219 4.59-.574 12 5.91 16.547 6.481 4.547 14.348 4.512 17.57-.082 3.219-4.594.575-12-5.91-16.547C11.086-4.629 3.223-4.594 0 0" style="fill:#b5d3ef;fill-opacity:1;fill-rule:nonzero;stroke:none" transform="translate(79.5 273.41)"/>
        <path d="M0 0c-3.168 4.523-.562 11.816 5.82 16.293 6.383 4.477 14.129 4.441 17.297-.078 3.172-4.524.57-11.817-5.816-16.293C10.918-4.559 3.172-4.52 0 0" style="fill:#b6d3ef;fill-opacity:1;fill-rule:nonzero;stroke:none" transform="translate(79.68 273.535)"/>
        <path d="M0 0c-3.121 4.449-.559 11.629 5.727 16.035 6.281 4.41 13.906 4.371 17.027-.078 3.121-4.449.558-11.629-5.727-16.039C10.746-4.488 3.121-4.453 0 0" style="fill:#b6d4ef;fill-opacity:1;fill-rule:nonzero;stroke:none" transform="translate(79.863 273.664)"/>
        <path d="M0 0c-3.074 4.379-.551 11.445 5.637 15.785 6.183 4.336 13.687 4.301 16.758-.078 3.07-4.383.546-11.449-5.637-15.785C10.574-4.414 3.07-4.379 0 0" style="fill:#b7d5ef;fill-opacity:1;fill-rule:nonzero;stroke:none" transform="translate(80.043 273.79)"/>
        <path d="M0 0c-3.02 4.312-.539 11.266 5.547 15.531 6.082 4.266 13.465 4.235 16.488-.078 3.024-4.308.539-11.262-5.547-15.527C10.406-4.344 3.023-4.309 0 0" style="fill:#b8d5ef;fill-opacity:1;fill-rule:nonzero;stroke:none" transform="translate(80.223 273.914)"/>
        <path d="M0 0c-2.973 4.238-.527 11.078 5.457 15.273 5.984 4.2 13.246 4.164 16.219-.074 2.972-4.238.531-11.078-5.457-15.273C10.234-4.273 2.973-4.238 0 0" style="fill:#b9d6f0;fill-opacity:1;fill-rule:nonzero;stroke:none" transform="translate(80.402 274.043)"/>
        <path d="M0 0c-2.926 4.168-.523 10.895 5.359 15.02 5.887 4.128 13.028 4.093 15.95-.071 2.925-4.172.523-10.894-5.364-15.023C10.063-4.199 2.922-4.168 0 0" style="fill:#bad6f0;fill-opacity:1;fill-rule:nonzero;stroke:none" transform="translate(80.586 274.168)"/>
        <path d="M0 0c-2.875 4.098-.516 10.707 5.273 14.766 5.782 4.054 12.805 4.023 15.676-.075 2.875-4.097.512-10.707-5.269-14.765C9.891-4.133 2.875-4.098 0 0" style="fill:#bbd7f0;fill-opacity:1;fill-rule:nonzero;stroke:none" transform="translate(80.766 274.297)"/>
        <path d="M0 0c-2.824 4.027-.504 10.523 5.18 14.512 5.687 3.988 12.586 3.957 15.41-.071 2.824-4.027.504-10.527-5.184-14.511C9.723-4.059 2.824-4.027 0 0" style="fill:#bcd8f0;fill-opacity:1;fill-rule:nonzero;stroke:none" transform="translate(80.945 274.422)"/>
        <path d="M0 0c-2.773 3.953-.492 10.336 5.09 14.254 5.586 3.918 12.363 3.887 15.14-.07 2.774-3.957.497-10.34-5.089-14.258C9.555-3.988 2.777-3.957 0 0" style="fill:#bdd8f1;fill-opacity:1;fill-rule:nonzero;stroke:none" transform="translate(81.125 274.55)"/>
        <path d="M0 0c-2.727 3.887-.488 10.152 4.996 14.004 5.488 3.844 12.145 3.812 14.867-.07 2.727-3.887.489-10.157-4.996-14.004C9.379-3.918 2.723-3.887 0 0" style="fill:#bfd9f1;fill-opacity:1;fill-rule:nonzero;stroke:none" transform="translate(81.309 274.676)"/>
        <path d="M0 0c-2.676 3.816-.48 9.973 4.906 13.75 5.387 3.777 11.922 3.746 14.598-.07 2.676-3.813.476-9.969-4.906-13.746C9.211-3.844 2.676-3.813 0 0" style="fill:#c0d9f1;fill-opacity:1;fill-rule:nonzero;stroke:none" transform="translate(81.488 274.8)"/>
        <path d="M0 0c-2.625 3.742-.469 9.785 4.816 13.492 5.289 3.707 11.704 3.676 14.329-.066 2.625-3.746.468-9.785-4.817-13.492C9.039-3.773 2.625-3.746 0 0" style="fill:#c1daf1;fill-opacity:1;fill-rule:nonzero;stroke:none" transform="translate(81.668 274.93)"/>
        <path d="M0 0c-2.574 3.676-.457 9.602 4.727 13.238 5.187 3.637 11.48 3.61 14.058-.066 2.574-3.672.461-9.598-4.726-13.234C8.871-3.703 2.578-3.672 0 0" style="fill:#c2dbf1;fill-opacity:1;fill-rule:nonzero;stroke:none" transform="translate(81.848 275.055)"/>
        <path d="M0 0c-2.527 3.602-.453 9.414 4.633 12.98 5.086 3.571 11.262 3.54 13.789-.062 2.523-3.602.449-9.414-4.637-12.984C8.695-3.633 2.523-3.605 0 0" style="fill:#c3dbf2;fill-opacity:1;fill-rule:nonzero;stroke:none" transform="translate(82.031 275.184)"/>
        <path d="M0 0c-2.477 3.531-.445 9.23 4.543 12.73 4.988 3.497 11.039 3.469 13.516-.062 2.476-3.535.441-9.234-4.543-12.73C8.527-3.559 2.477-3.531 0 0" style="fill:#c4dcf2;fill-opacity:1;fill-rule:nonzero;stroke:none" transform="translate(82.21 275.309)"/>
        <path d="M0 0c-2.43 3.461-.434 9.047 4.453 12.473 4.887 3.425 10.82 3.398 13.246-.063 2.426-3.461.434-9.047-4.453-12.472C8.359-3.492 2.43-3.465 0 0" style="fill:#c5dcf2;fill-opacity:1;fill-rule:nonzero;stroke:none" transform="translate(82.39 275.438)"/>
        <path d="M0 0c-2.379 3.391-.422 8.863 4.363 12.219 4.789 3.359 10.598 3.332 12.977-.059 2.379-3.39.426-8.863-4.363-12.222C8.188-3.418 2.379-3.391 0 0" style="fill:#c6ddf2;fill-opacity:1;fill-rule:nonzero;stroke:none" transform="translate(82.57 275.563)"/>
        <path d="M0 0c-2.328 3.32-.414 8.68 4.273 11.969 4.688 3.285 10.375 3.258 12.704-.063 2.332-3.32.418-8.676-4.27-11.965C8.02-3.344 2.332-3.32 0 0" style="fill:#c7def3;fill-opacity:1;fill-rule:nonzero;stroke:none" transform="translate(82.75 275.688)"/>
        <path d="M0 0c-2.281 3.25-.41 8.492 4.18 11.711 4.59 3.215 10.156 3.191 12.433-.059 2.282-3.25.407-8.492-4.179-11.711C7.844-3.277 2.277-3.25 0 0" style="fill:#c8def3;fill-opacity:1;fill-rule:nonzero;stroke:none" transform="translate(82.934 275.816)"/>
        <path d="M0 0c-2.23 3.18-.398 8.309 4.09 11.457 4.488 3.148 9.933 3.121 12.164-.055 2.23-3.179.398-8.308-4.09-11.457C7.676-3.203 2.23-3.18 0 0" style="fill:#cadff3;fill-opacity:1;fill-rule:nonzero;stroke:none" transform="translate(83.113 275.941)"/>
        <path d="M0 0c-2.18 3.109-.387 8.121 4 11.199 4.387 3.078 9.715 3.055 11.895-.054 2.179-3.11.39-8.122-4-11.2C7.504-3.133 2.18-3.109 0 0" style="fill:#cbe0f3;fill-opacity:1;fill-rule:nonzero;stroke:none" transform="translate(83.293 276.07)"/>
        <path d="M0 0c-2.129 3.039-.379 7.937 3.91 10.945s9.492 2.985 11.625-.05c2.129-3.04.379-7.942-3.91-10.95C7.336-3.063 2.133-3.039 0 0" style="fill:#cce0f4;fill-opacity:1;fill-rule:nonzero;stroke:none" transform="translate(83.473 276.195)"/>
        <path d="M0 0c-2.082 2.969-.375 7.758 3.816 10.695 4.188 2.938 9.274 2.914 11.352-.054 2.082-2.965.371-7.754-3.816-10.692C7.164-2.988 2.078-2.965 0 0" style="fill:#cce0f4;fill-opacity:1;fill-rule:nonzero;stroke:none" transform="translate(83.656 276.32)"/>
        <path d="M0 0c-2.031 2.895-.363 7.57 3.727 10.438 4.089 2.867 9.05 2.843 11.082-.051 2.031-2.899.363-7.571-3.727-10.438C6.992-2.918 2.031-2.895 0 0" style="fill:#cde1f4;fill-opacity:1;fill-rule:nonzero;stroke:none" transform="translate(83.836 276.45)"/>
        <path d="M0 0c-1.98 2.828-.352 7.387 3.637 10.184 3.988 2.796 8.832 2.777 10.812-.051 1.981-2.824.356-7.383-3.636-10.184C6.824-2.848 1.98-2.824 0 0" style="fill:#cee2f4;fill-opacity:1;fill-rule:nonzero;stroke:none" transform="translate(84.016 276.574)"/>
        <path d="M0 0c-1.93 2.754-.344 7.199 3.547 9.93 3.89 2.726 8.609 2.703 10.543-.051 1.93-2.754.344-7.199-3.547-9.93C6.652-2.777 1.934-2.758 0 0" style="fill:#cfe2f4;fill-opacity:1;fill-rule:nonzero;stroke:none" transform="translate(84.195 276.703)"/>
        <path d="M0 0c-1.883 2.688-.34 7.016 3.453 9.676 3.789 2.656 8.387 2.637 10.27-.051 1.882-2.684.336-7.016-3.453-9.672C6.48-2.703 1.879-2.684 0 0" style="fill:#d0e2f4;fill-opacity:1;fill-rule:nonzero;stroke:none" transform="translate(84.379 276.828)"/>
        <path d="M0 0c-1.832 2.613-.328 6.828 3.363 9.418 3.692 2.59 8.168 2.566 10-.047 1.836-2.613.328-6.832-3.363-9.418C6.309-2.637 1.832-2.613 0 0" style="fill:#d1e4f5;fill-opacity:1;fill-rule:nonzero;stroke:none" transform="translate(84.559 276.957)"/>
        <path d="M0 0c-1.785 2.543-.316 6.648 3.273 9.164 3.59 2.52 7.946 2.5 9.731-.043 1.785-2.543.32-6.648-3.274-9.164C6.141-2.563 1.785-2.543 0 0" style="fill:#d3e4f5;fill-opacity:1;fill-rule:nonzero;stroke:none" transform="translate(84.738 277.082)"/>
        <path d="M0 0c-1.734 2.469-.309 6.461 3.184 8.906 3.488 2.449 7.726 2.43 9.461-.043 1.734-2.472.308-6.461-3.184-8.91C5.973-2.492 1.734-2.477 0 0" style="fill:#d4e5f5;fill-opacity:1;fill-rule:nonzero;stroke:none" transform="translate(84.918 277.21)"/>
        <path d="M0 0c-1.687 2.402-.305 6.277 3.09 8.656 3.39 2.379 7.504 2.36 9.191-.043 1.684-2.402.297-6.277-3.093-8.656C5.797-2.422 1.684-2.402 0 0" style="fill:#d5e6f6;fill-opacity:1;fill-rule:nonzero;stroke:none" transform="translate(85.102 277.336)"/>
        <path d="M0 0c-1.637 2.332-.293 6.094 3 8.402 3.289 2.309 7.285 2.289 8.918-.043 1.637-2.328.293-6.089-3-8.398C5.629-2.348 1.633-2.328 0 0" style="fill:#d6e6f6;fill-opacity:1;fill-rule:nonzero;stroke:none" transform="translate(85.281 277.46)"/>
        <path d="M0 0c-1.586 2.262-.281 5.906 2.91 8.145 3.192 2.238 7.063 2.222 8.649-.04 1.586-2.261.285-5.906-2.911-8.148C5.457-2.281 1.586-2.262 0 0" style="fill:#d7e6f6;fill-opacity:1;fill-rule:nonzero;stroke:none" transform="translate(85.46 277.59)"/>
        <path d="M0 0c-1.535 2.191-.273 5.723 2.82 7.895 3.09 2.168 6.844 2.148 8.379-.04 1.535-2.191.274-5.726-2.82-7.894C5.289-2.207 1.535-2.191 0 0" style="fill:#d8e7f6;fill-opacity:1;fill-rule:nonzero;stroke:none" transform="translate(85.64 277.715)"/>
        <path d="M0 0c-1.484 2.117-.266 5.539 2.727 7.637 2.996 2.097 6.625 2.082 8.109-.039 1.488-2.121.266-5.539-2.727-7.637C5.117-2.137 1.488-2.121 0 0" style="fill:#d9e8f6;fill-opacity:1;fill-rule:nonzero;stroke:none" transform="translate(85.82 277.844)"/>
        <path d="M0 0c-1.437 2.047-.258 5.355 2.637 7.383 2.89 2.027 6.398 2.012 7.836-.035 1.437-2.051.257-5.356-2.633-7.383C4.945-2.066 1.434-2.047 0 0" style="fill:#d9e8f6;fill-opacity:1;fill-rule:nonzero;stroke:none" transform="translate(86.004 277.969)"/>
        <path d="M0 0c-1.387 1.98-.246 5.172 2.543 7.129 2.797 1.961 6.184 1.945 7.57-.035 1.387-1.977.25-5.168-2.547-7.125C4.777-1.992 1.387-1.977 0 0" style="fill:#dbeaf7;fill-opacity:1;fill-rule:nonzero;stroke:none" transform="translate(86.184 278.094)"/>
        <path d="M0 0c-1.336 1.906-.238 4.984 2.453 6.871 2.695 1.891 5.961 1.875 7.301-.031 1.336-1.906.238-4.985-2.453-6.875C4.605-1.922 1.34-1.906 0 0" style="fill:#dceaf7;fill-opacity:1;fill-rule:nonzero;stroke:none" transform="translate(86.363 278.223)"/>
        <path d="M0 0c-1.285 1.84-.23 4.801 2.363 6.621 2.594 1.817 5.742 1.805 7.032-.035 1.285-1.836.226-4.801-2.364-6.617C4.437-1.852 1.289-1.836 0 0" style="fill:#ddeaf7;fill-opacity:1;fill-rule:nonzero;stroke:none" transform="translate(86.543 278.348)"/>
        <path d="M0 0c-1.242 1.766-.223 4.613 2.27 6.363 2.496 1.75 5.519 1.735 6.757-.031 1.239-1.766.223-4.617-2.269-6.363C4.262-1.781 1.238-1.766 0 0" style="fill:#deebf8;fill-opacity:1;fill-rule:nonzero;stroke:none" transform="translate(86.727 278.477)"/>
        <path d="M0 0c-1.187 1.695-.211 4.43 2.18 6.109 2.394 1.68 5.3 1.668 6.488-.027 1.191-1.699.215-4.434-2.18-6.113C4.094-1.707 1.187-1.695 0 0" style="fill:#dfecf8;fill-opacity:1;fill-rule:nonzero;stroke:none" transform="translate(86.906 278.602)"/>
        <path d="M0 0c-1.141 1.625-.203 4.246 2.09 5.855 2.297 1.606 5.078 1.594 6.219-.031 1.14-1.625.203-4.246-2.09-5.855C3.922-1.641 1.141-1.625 0 0" style="fill:#e0ecf8;fill-opacity:1;fill-rule:nonzero;stroke:none" transform="translate(87.086 278.73)"/>
        <path d="M0 0c-1.09 1.555-.195 4.062 2 5.602 2.195 1.539 4.859 1.527 5.949-.028 1.09-1.554.192-4.062-2-5.601C3.754-1.566 1.09-1.555 0 0" style="fill:#e1edf8;fill-opacity:1;fill-rule:nonzero;stroke:none" transform="translate(87.266 278.856)"/>
        <path d="M0 0c-1.039 1.48-.184 3.875 1.91 5.344 2.098 1.468 4.637 1.457 5.676-.028 1.043-1.48.187-3.875-1.906-5.343C3.586-1.496 1.043-1.484 0 0" style="fill:#e2edf8;fill-opacity:1;fill-rule:nonzero;stroke:none" transform="translate(87.445 278.984)"/>
        <path d="M0 0c-.992 1.414-.176 3.691 1.816 5.09 1.997 1.402 4.414 1.39 5.407-.024.992-1.414.179-3.691-1.817-5.089C3.41-1.426.988-1.414 0 0" style="fill:#e3eef9;fill-opacity:1;fill-rule:nonzero;stroke:none" transform="translate(87.629 279.11)"/>
        <path d="M0 0c-.941 1.344-.168 3.508 1.727 4.84 1.894 1.328 4.195 1.316 5.136-.028.942-1.339.168-3.507-1.726-4.835C3.242-1.352.941-1.34 0 0" style="fill:#e4eff9;fill-opacity:1;fill-rule:nonzero;stroke:none" transform="translate(87.809 279.234)"/>
        <path d="M0 0c-.891 1.27-.16 3.324 1.637 4.582s3.972 1.25 4.867-.023c.891-1.274.156-3.325-1.637-4.582C3.07-1.281.895-1.273 0 0" style="fill:#e5eff9;fill-opacity:1;fill-rule:nonzero;stroke:none" transform="translate(87.988 279.363)"/>
        <path d="M0 0c-.844 1.203-.152 3.141 1.543 4.328 1.695 1.192 3.754 1.18 4.598-.019.839-1.204.148-3.141-1.547-4.329C2.898-1.211.84-1.199 0 0" style="fill:#e6f0f9;fill-opacity:1;fill-rule:nonzero;stroke:none" transform="translate(88.172 279.488)"/>
        <path d="M0 0c-.793 1.129-.141 2.953 1.453 4.07 1.598 1.121 3.531 1.11 4.324-.019.793-1.129.145-2.953-1.453-4.074C2.727-1.141.793-1.133 0 0" style="fill:#e7f0f9;fill-opacity:1;fill-rule:nonzero;stroke:none" transform="translate(88.352 279.617)"/>
        <path d="M0 0c-.742 1.059-.133 2.77 1.363 3.82 1.496 1.047 3.313 1.039 4.055-.019.742-1.059.133-2.77-1.363-3.821C2.559-1.07.742-1.059 0 0" style="fill:#e8f1fa;fill-opacity:1;fill-rule:nonzero;stroke:none" transform="translate(88.531 279.742)"/>
        <path d="M0 0c-.691.992-.125 2.586 1.273 3.566 1.399.981 3.09.973 3.786-.019.691-.988.121-2.582-1.274-3.563C2.391-.996.695-.988 0 0" style="fill:#e9f2fa;fill-opacity:1;fill-rule:nonzero;stroke:none" transform="translate(88.71 279.867)"/>
        <path d="M0 0c-.641.918-.113 2.398 1.184 3.309 1.296.91 2.871.902 3.511-.016.649-.918.117-2.398-1.179-3.309C2.219-.926.645-.918 0 0" style="fill:#eaf2fa;fill-opacity:1;fill-rule:nonzero;stroke:none" transform="translate(88.89 279.996)"/>
        <path d="M0 0c-.598.848-.105 2.215 1.09 3.055 1.195.84 2.648.832 3.242-.012.594-.852.109-2.219-1.09-3.059C2.047-.855.594-.848 0 0" style="fill:#ebf3fb;fill-opacity:1;fill-rule:nonzero;stroke:none" transform="translate(89.074 280.121)"/>
        <path d="M0 0c-.547.777-.098 2.031 1 2.801 1.098.769 2.43.762 2.973-.016.547-.777.097-2.031-1-2.801C1.875-.785.543-.777 0 0" style="fill:#ecf4fb;fill-opacity:1;fill-rule:nonzero;stroke:none" transform="translate(89.254 280.25)"/>
        <path d="M0 0c-.496.707-.09 1.848.91 2.547.996.699 2.207.695 2.703-.012s.086-1.848-.91-2.547C1.707-.711.496-.707 0 0" style="fill:#edf4fb;fill-opacity:1;fill-rule:nonzero;stroke:none" transform="translate(89.434 280.375)"/>
        <path d="M0 0c-.445.637-.078 1.664.82 2.293.899.629 1.989.625 2.434-.012.445-.636.078-1.66-.82-2.289C1.535-.641.449-.633 0 0" style="fill:#eef5fb;fill-opacity:1;fill-rule:nonzero;stroke:none" transform="translate(89.613 280.5)"/>
        <path d="M0 0c-.398.566-.07 1.477.727 2.035.796.563 1.765.555 2.16-.008.398-.566.074-1.476-.727-2.039C1.363-.57.395-.566 0 0" style="fill:#eff5fb;fill-opacity:1;fill-rule:nonzero;stroke:none" transform="translate(89.797 280.629)"/>
        <path d="M0 0c-.348.496-.062 1.293.637 1.785.699.488 1.543.485 1.89-.012.348-.492.063-1.293-.636-1.781C1.195-.496.348-.492 0 0" style="fill:#f0f6fb;fill-opacity:1;fill-rule:nonzero;stroke:none" transform="translate(89.977 280.754)"/>
        <path d="M0 0c-.297.422-.055 1.105.547 1.527.598.418 1.324.414 1.621-.007.297-.426.051-1.11-.547-1.528C1.023-.43.297-.426 0 0" style="fill:#f1f7fc;fill-opacity:1;fill-rule:nonzero;stroke:none" transform="translate(90.156 280.883)"/>
        <path d="M0 0c-.246.355-.043.926.457 1.273.496.352 1.102.348 1.352-.007.246-.352.043-.922-.457-1.27C.855-.355.25-.352 0 0" style="fill:#f2f7fc;fill-opacity:1;fill-rule:nonzero;stroke:none" transform="translate(90.336 281.008)"/>
        <path d="M0 0c-.195.281-.031.738.367 1.016.399.281.883.277 1.078-.004.2-.282.039-.739-.363-1.02C.684-.285.199-.285 0 0" style="fill:#f3f8fc;fill-opacity:1;fill-rule:nonzero;stroke:none" transform="translate(90.516 281.137)"/>
        <path d="M0 0c-.148.211-.027.555.273.766.297.207.661.207.809-.004.148-.215.027-.555-.273-.766C.512-.215.148-.211 0 0" style="fill:#f4f9fc;fill-opacity:1;fill-rule:nonzero;stroke:none" transform="translate(90.7 281.262)"/>
        <path d="M0 0c-.098.141-.02.367.184.508.199.14.441.137.539-.004C.82.363.738.137.539-.004.34-.145.098-.145 0 0" style="fill:#f5f9fc;fill-opacity:1;fill-rule:nonzero;stroke:none" transform="translate(90.879 281.39)"/>
        <path d="M0 0c-.047.07-.008.184.09.254.101.07.222.07.273 0C.41.184.371.07.27 0 .172-.07.051-.07 0 0" style="fill:#f6f9fd;fill-opacity:1;fill-rule:nonzero;stroke:none" transform="translate(91.059 281.516)"/>
    </g>
    <path d="M100.644 333.304c6.383-8.958 12.189-21.999 15.357-35.355 4.798-20.099 3.632-40.9-10.477-49.476 28.222 14.144 34.694 57.636 11.633 108.066-1.722-6.015-8.162-16.448-16.513-23.235" style="fill:url(#e);stroke:none" transform="matrix(1.60207 0 0 -1.60207 -56.778 571.2)"/>
    <g clip-path="url(#f)" transform="matrix(1.60207 0 0 -1.60207 -56.778 571.2)">
        <path d="M78.04 243.973c-.002.004-.003.004-.005.006-.526.052-2.451.318-2.561 1.927-4.688 1.797-10.946 7.561-15.066 12.451 4.777 5.262 14.044 11.342 22.782 15.571 4.358-9.528 8.427-22.076 7.952-27.283 7.334 2.712 15.546 7.246 20.404 11.246 5.231 17.425-3.37 50.798-29.492 84.999-10.031-4.058-19.956-8.793-28.091-13.694 3.752-8.279 11.206-23.21 16.656-32.696-9.808-5.455-19.177-13.342-23.094-18.627-7.178 13.996-10.022 29.05-9.973 39.648-.832-2.813-1.336-5.91-1.629-8.395-2.947-24.595 7.836-51.915 26.19-60.868 1.544-.75 3.193-1.401 4.857-1.996 3.238-1.108 7.023-1.903 11.07-2.289" style="fill:url(#g);stroke:none"/>
    </g>
    <g style="fill:#001651;fill-opacity:1">
        <g clip-path="url(#h)" style="fill:#001651;fill-opacity:1" transform="matrix(1.60207 0 0 -1.60207 -56.778 571.2)">
            <g style="fill:#001651;fill-opacity:1">
                <path d="M0 0c2.008 6.689 1.975 15.732-.303 26.27C-4.83 16.953-12.436 7.037-23.15 5.156c-.27-.045-.537-.08-.805-.119 2.3-6.623 3.855-12.951 3.551-16.283C-13.07-8.533-4.857-4 0 0" style="fill:#001651;fill-opacity:1;fill-rule:nonzero;stroke:none" transform="translate(111.546 257.89)"/>
            </g>
        </g>
    </g>
    <path d="M0 0v-49.699c0-5.324-8.722-6.107-13.887-6.107-2.338 0-4.745.285-6.664.889v22.189l-11.121-.709v-16.262c0-5.324-8.687-6.107-13.85-6.107-2.337 0-4.746.285-6.665.889v49.698c0 5.362 8.688 6.108 13.852 6.108 2.338 0 4.745-.285 6.663-.889v-20.273l11.121.675v14.379c0 5.362 8.688 6.108 13.887 6.108C-4.328.889-1.919.604 0 0" style="fill:#001b6a;fill-opacity:1;fill-rule:nonzero;stroke:none" transform="matrix(1.60207 0 0 -1.60207 269.838 54.606)"/>
    <path d="M0 0v-49.699c0-5.324-8.687-6.107-13.851-6.107-2.337 0-4.745.285-6.664.889v49.698c0 5.362 8.688 6.108 13.888 6.108C-4.326.889-1.918.604 0 0" style="fill:#001b6a;fill-opacity:1;fill-rule:nonzero;stroke:none" transform="matrix(1.60207 0 0 -1.60207 320.52 54.606)"/>
    <path d="m0 0-12.246-1.133c-.593 2.959-.731 5.883-.731 8.037 0 6.321 3.173 7.929 10.816 8.075l35.621.439a31 31 0 0 0 .663-6.504c0-6.576-2.337-8.585-8.269-8.585h-5.338v-35.498c0-5.325-8.688-6.108-13.851-6.108-2.337 0-4.745.285-6.665.889z" style="fill:#001b6a;fill-opacity:1;fill-rule:nonzero;stroke:none" transform="matrix(1.60207 0 0 -1.60207 351.456 77.883)"/>
    <path d="M0 0c.347-2.344.487-4.084.487-5.752 0-6.285-3.036-7.669-11.095-7.669h-11.27v-8.306l20.306.887c.209-1.347.35-2.734.35-4.011 0-6.709-1.954-8.945-10.781-8.945h-9.875v-8.735L.626-41.396c.21-1.277.278-2.59.278-3.76 0-7.101-2.161-10.472-9.839-10.472-.556 0-1.254 0-33.561.035v47.497c0 6.391 2.685 7.455 10.536 7.597z" style="fill:#001b6a;fill-opacity:1;fill-rule:nonzero;stroke:none" transform="matrix(1.60207 0 0 -1.60207 483.344 53.296)"/>
    <path d="M0 0v-49.699c0-5.324-8.688-6.107-13.852-6.107-2.336 0-4.744.285-6.664.889v49.698c0 5.362 8.69 6.108 13.887 6.108C-4.326.889-1.918.604 0 0" style="fill:#2b93dd;fill-opacity:1;fill-rule:nonzero;stroke:none" transform="matrix(1.60207 0 0 -1.60207 583.099 54.606)"/>
    <path d="M0 0v-39.816c0-5.324-8.687-6.107-13.85-6.107-2.338 0-4.745.285-6.664.888v39.801c0 3.39-2.539 4.326-5.121 4.326-1.676 0-4.083-.428-6-1.457v-37.451c0-5.324-8.687-6.107-13.851-6.107-2.338 0-4.746.285-6.664.888V4.346c0 5.679 7.92 6.355 13.362 6.355 1.85 0 3.559-.037 5.198-.322l.454-4.506c4.746 2.875 11.993 4.861 19.948 4.861C-6.49 10.734 0 7.53 0 0" style="fill:#2b93dd;fill-opacity:1;fill-rule:nonzero;stroke:none" transform="matrix(1.60207 0 0 -1.60207 684.464 70.44)"/>
    <path d="M0 0c0 4.645 5.658 5.227 12.794 4.885 3.351-.16 6.111 7.632 6.435 12.822.042.652.123 2.623.004 3.857-1.228.114-3.067.163-4.823.109C6.139 21.426.399 16.889-2.266 11.459l-1.424 9.572c-.967.104-1.962.156-2.938.156-5.198 0-13.886-.746-13.886-6.107v-49.699c1.919-.603 4.327-.888 6.664-.888 5.163 0 13.85.783 13.85 6.107z" style="fill:#2b93dd;fill-opacity:1;fill-rule:nonzero;stroke:none" transform="matrix(1.60207 0 0 -1.60207 735.145 87.127)"/>
    <path d="M0 0a8.443 8.443 0 0 1-4.57-1.313c-.524-1.845-1.012-7.134-1.012-15.831 0-13.064.593-16.828 5.095-16.828 1.744 0 3.279.498 4.568 1.349.525 1.846.979 7.135.979 15.797C5.06-3.728 4.536 0 0 0m14.479-42.845C9-45.9 1.396-46.681-4.466-46.681c-4.256 0-7.571.676-10.537 2.166-7.814 4.26-10.292 13.881-10.292 27.299 0 11.004 1.641 20.874 10.328 26.091C-9.35 12-1.743 12.71 4.257 12.71c4.222 0 7.293-.605 10.258-2.165 8.058-4.154 10.292-13.703 10.292-27.298 0-10.971-1.64-20.875-10.328-26.092" style="fill:#2b93dd;fill-opacity:1;fill-rule:nonzero;stroke:none" transform="matrix(1.60207 0 0 -1.60207 808.648 71.954)"/>
    <path d="M0 0v-50.154l-.366-.232c-2.057-1.297-5.017-3.809-6.414-5.752-1.906-2.66-4.363-6.822-4.067-12.731.49-.011.981-.021 1.477-.021 7.654 0 14.088 1.576 19.119 4.682 7.873 4.837 10.94 10.88 10.94 21.542V5.771c-1.778.614-3.994.921-6.598.921C8.826 6.692 0 5.824 0 0" style="fill:#2b93dd;fill-opacity:1;fill-rule:nonzero;stroke:none" transform="matrix(1.60207 0 0 -1.60207 499.183 63.609)"/>
</svg>