<svg xmlns="http://www.w3.org/2000/svg" width="109.2mm" height="60.200001mm" viewBox="0 0 109.19999 60.200002">
    <script xmlns=""/>
    <path d="M96.348 60.19c1.968 0 3.893-1.595 4.292-3.569l8.422-45.441c.402-1.969-.869-3.567-2.668-3.567H13.802c-2.14 0-4.064 1.598-4.47 3.567L.073 56.62c-.396 1.974.873 3.57 2.844 3.57z" style="fill:#004098;fill-opacity:1;fill-rule:nonzero;stroke:none;stroke-width:.988714"/>
    <path d="m43.232 26.278-3.61 17.586S37.17 53.992 50.488 53.992c0 0 11.722.4 14.968-8.93l1.062-5.193h-9.13l-.853 4.126s-.9 3.468-4.651 3.2c0 0-3.887.404-3.048-2.797l3.717-18.12s.11-2.998 4.3-3.33c0 0 3.809 0 3.401 2.93l-.93 4.526h9.137l.926-4.526s1.802-9.725-11.194-9.46c0 0-12.482.532-14.96 9.86M71.05 26.278l-3.6 17.586s-2.455 10.128 10.869 10.128c0 0 11.72.4 14.96-8.93l1.067-5.193h-9.135l-.85 4.126s-.9 3.468-4.649 3.2c0 0-3.889.404-3.042-2.797l3.71-18.12s.102-2.998 4.3-3.33c0 0 3.808 0 3.396 2.93l-.926 4.526h9.135l.926-4.526s1.803-9.725-11.195-9.46c0 0-12.483.532-14.965 9.86" style="fill:#fff;fill-opacity:1;fill-rule:nonzero;stroke:none;stroke-width:.988714"/>
    <path d="m55.853 7.618-10.572-.006-18.682 20.36 2.976-13.265-9.649-.011-8.262 38.355h9.654l2.227-10.706 2.497-2.875 3.32 13.589h9.566l-5.56-20.885z" style="fill:#fff;fill-opacity:1;fill-rule:nonzero;stroke:none;stroke-width:.988714"/>
    <path d="M62.835.003 52.23 0l-6.949 7.613 10.569-.006z" style="fill:#e70012;fill-opacity:1;fill-rule:nonzero;stroke:none;stroke-width:.988714"/>
</svg>