<svg xmlns="http://www.w3.org/2000/svg" xml:space="preserve" x="0px" y="0px" viewBox="0 0 1000 1170">
    <script xmlns=""/>
    <path fill="#EC0080" d="M983.299 483.932H607.161c-9.265 0-16.693-7.521-16.693-16.668 0 9.147 7.429 20.973 16.693 26.27l376.138 217.273c9.215 5.281 16.701 2.119 16.701-7.097V482.585c0-2.599-.648-5.351-1.75-8.17a16.498 16.498 0 0 1-14.951 9.517"/>
    <path fill="#85288F" d="m983.299 456.343-172.406-99.655-203.731 117.63c-9.265 5.296-16.693 2.104-16.693-7.041 0 9.145 7.429 16.641 16.693 16.641H983.3c6.59 0 12.342-3.865 14.951-9.49-2.61-7.095-8.362-14.316-14.952-18.085"/>
    <path fill="#FCB832" d="M1000 9.722c0-9.269-7.501-12.418-16.643-7.041L607.161 219.762c-9.235 5.322-16.708 17.123-16.708 26.364 0-9.242 7.473-16.683 16.708-16.683h376.138a16.434 16.434 0 0 1 14.951 9.504c1.131-2.819 1.75-5.639 1.75-8.17V9.722z"/>
    <path fill="#F5841E" d="M983.299 229.443H607.161c-9.265 0-16.693 7.469-16.693 16.668 0-9.2 7.429-12.364 16.693-7.04l203.731 117.63 172.465-99.655c6.531-3.796 12.283-10.962 14.893-18.113-2.609-5.597-8.361-9.49-14.951-9.49"/>
    <path fill="#FFF" d="M634.674 701.51c-139.143 0-240.545 91.238-240.545 234.19 0 142.866 101.402 234.243 240.545 234.243 65.52 0 129.082-12.653 187.03-42.828v-232.95H647.321v90.689h79.912v72.369c-18.254 10.04-49.725 22.03-92.56 22.03-83.732 0-138.524-60.43-138.524-143.554 0-83.098 54.792-143.584 138.524-143.584 49.767 0 81.886 14.47 108.275 42.25l69.315-75.617c-44.694-41.507-107.068-57.238-177.59-57.238zM0 712.842v445.74h98.238v-211.55l181.336 211.55h137.264L201.449 919.967l198.403-207.125H271.38L98.238 897.904V712.842H0z"/>
    <path fill="#44207A" d="M607.154 474.306 810.878 356.69 607.154 239.057c-9.243-5.294-16.701-2.16-16.701 7.042v221.165c0 9.16 7.458 12.336 16.701 7.042"/>
</svg>