<svg xmlns="http://www.w3.org/2000/svg" xml:space="preserve" viewBox="0 0 1017.642 400">
    <script xmlns=""/>
    <path d="M620.52 327.216c5.682 26.231 19.151 67.701 19.052 87.001-.102 29.426-8.597 37.07-19.085 37.038-10.468-.033-18.932-7.77-18.812-37.189.083-19.301 12.93-60.678 18.796-86.824z" style="fill:#a7a9ac;fill-opacity:1;fill-rule:nonzero;stroke:none;stroke-width:1.84001" transform="matrix(1.33333 0 0 -1.33333 68.74 601.673)"/>
    <path d="m631.564 300.065-.068-.057c10.852-24.442 25.116-65.388 36.53-81 11.85-16.198 20.952-21.865 28.201-21.865 3.357 0 6.34 1.229 9.002 3.186 8.445 6.18 10.775 17.398-6.623 41.117-11.415 15.61-46.93 40.946-67.042 58.62" style="fill:#f15a22;fill-opacity:1;fill-rule:nonzero;stroke:none;stroke-width:1.84001" transform="matrix(1.33333 0 0 -1.33333 68.74 601.673)"/>
    <path d="M0 0c-.924 0-1.363-2.377-4.295-5.054-3.428-3.14-6.516-4.341-13.395-6.774-7.669-2.693-10.261-6.042-12.589-10.766-1.282-2.637-1.694-5.684-1.391-7.387.154-.863.311-1.763.897-1.585.796.243 3.069 8.148 10.599 8.658 3.51.247 7.889-1.036 9.51-6.405.238-.769.303-1.567.359-2.345.914-11.147-9.997-21.616-23.162-21.071-9.821.43-20.504 6.672-22.226 18.345-1.448 9.744 2.584 19.932 9.318 23.55a48.087 48.087 0 0 1 3.582-.871c2.684-.522 4.975-.575 7.356-.173 2.291.39 5.011 1.769 4.708 3.93-.457 3.142-5.55 3.564-8.207 3.532-2.869-.019-5.031-.471-6.084-.747-2.061 1.699-3.362 3.528-4.232 6.642-1.797 6.276 1.723 16.868 11.919 17.92 6.486.678 10.655-2.006 13.33-5.39 2.666-3.395 3.573-4.641 4.251-4.407.494.169.705.549.751 1.634l.028 6.441c-.037.687-.109 1.365-.265 1.979-.936 3.784-9.914 7.764-19.515 7.311-3.032-.133-5.03-.358-9.702-1.969-10.949-3.766-14.467-13.66-13.514-20.972 1.018-7.603 7.412-11.292 7.412-11.292-11.159-4.338-20.146-16.339-16.216-31.983 3.949-15.624 21.639-21.318 33.586-21.561 13.194-.284 22.603 4.882 28.347 11.076 4.791 5.167 7.668 12.678 6.569 19.968-.395 2.514-2.354 8.154-6.698 10.834 0 0 2.42.843 4.041 2.07 3.756 2.798 5.451 6.257 5.973 9.748.467 2.985-.027 5.817-.531 6.748C.514-.366.322 0 0 0" style="fill:#4c4d4f;fill-opacity:1;fill-rule:nonzero;stroke:none" transform="matrix(2.45334 0 0 -2.45334 512.511 250.785)"/>
    <path d="M520.79 346.63c-18.728 19.224-45.886 53.341-62.036 63.921-24.592 16.158-35.65 13.276-41.419 4.518-5.746-8.744-3.96-20.06 20.618-36.219 16.151-10.586 57.737-22.706 82.772-32.257z" style="fill:#009edb;fill-opacity:1;fill-rule:nonzero;stroke:none;stroke-width:1.84001" transform="matrix(1.33333 0 0 -1.33333 68.74 601.673)"/>
    <path d="M0 0c7.42.004 32.578.018 32.615 0 10.573 0 21.328 5.506 22.172 19.614.852 14.453-7.889 19.912-18.892 19.912H21.219c-3.905 0-6.074-.113-8.504-4.338l-4.846-9.096h19.34c4.555 0 6.523-3.006 6.523-6.487 0-3.436-2.06-6.148-6.404-6.148H9.666c-4.93 0-9.281 1.655-12.178 5.224-2.334 2.903-4.406 6.709-4.406 13.424 0 7.216 2.236 10.303 4.406 13.04C.055 48.364 4.15 49.556 7.98 49.948l1.768.077h31.707v.025c3.885 0 6.076.1 8.504 4.324l4.791 9.029H.604c-16.958 0-29.28-13.665-29.28-31.75 0-16.271 9.858-29.152 24.379-31.401C-4.297.252-3.133 0 0 0" style="fill:#4c4d4f;fill-opacity:1;fill-rule:nonzero;stroke:none" transform="matrix(2.45334 0 0 -2.45334 603.927 380.216)"/>
    <path d="M0 0c0 5.776-4.773 5.62-4.773 5.62h-25.14L-44.819-8.484l28.932-35.922h-19.797c-7.348 0-10.005 3.55-14.073 8.955h-.009l-13.788 18.286c-.348.459-1.154 1.128-2.391.705-.742-.246-.99-.915-1.054-1.455v-26.491H-88.95v63.438h21.951V-7.857l22.473 22.223c2.191 2.058 3.803 3.267 6.047 3.935 1.484.457 3.244.654 5.644.731.037.011.073.011.109.011h84.718l-4.828-9.107c-2.317-4.027-4.416-4.296-7.998-4.316H21.383v-50.026H0Z" style="fill:#4c4d4f;fill-opacity:1;fill-rule:nonzero;stroke:none" transform="matrix(2.45334 0 0 -2.45334 218.225 271.33)"/>
    <path d="m620.52 326.86-.083.011c-5.63-26.152-18.155-67.675-18.124-86.993.102-20.095 4.116-30.04 9.964-34.287 2.697-1.991 5.831-2.733 9.152-2.725 10.451.044 18.914 7.728 18.833 37.13-.067 19.353-13.874 60.723-19.742 86.864" style="fill:#a7a9ac;fill-opacity:1;fill-rule:nonzero;stroke:none;stroke-width:1.84001" transform="matrix(1.33333 0 0 -1.33333 68.74 601.673)"/>
    <path d="M631.36 300.356c-10.822 24.517-24.328 65.992-35.772 81.588-17.363 23.71-28.758 24.906-37.204 18.722-8.445-6.19-10.738-17.408 6.66-41.15 11.41-15.568 46.154-41.46 66.25-59.19z" style="fill:#f7931d;fill-opacity:1;fill-rule:nonzero;stroke:none;stroke-width:1.84001" transform="matrix(1.33333 0 0 -1.33333 68.74 601.673)"/>
    <path d="m694.77 331.8-.067.075c24.926 25.53 61.902 70.019 83.408 84.19 13.214 8.66 23.488 13.18 31.563 14.761 3.344-14.934 7.438-30.958 11.164-45.926-4.062-3.503-8.993-7.199-14.94-11.111-21.582-14.163-77.75-29.275-111.128-41.988zm126.068 53.1zm-11.164 45.926c2.69.527 5.135.727 7.36.639-2.229.082-4.67-.112-7.36-.639zm12.896-44.394zm1.69 1.572zm1.383 1.355zm3.709 4.05zm1.12 1.396zm1.022 1.369zm.797 1.146zm1.543 2.526zm.697 1.341zm.588 1.282zm.512 1.285zm.941 3.305zm.205 1.23zm.123 1.223c.017.236.034.473.041.707-.007-.234-.024-.47-.04-.707zm.043 1.174zm-.072 1.777c-.017.187-.041.373-.064.558.023-.185.047-.37.064-.558zm-.146 1.156zm-.213 1.111zm-.309 1.194c-.045.155-.085.312-.135.467.05-.155.09-.312.135-.467zm-.506 1.525c-.051.136-.11.27-.164.405.055-.135.113-.27.164-.405zm-.408.985zm-.982 1.964zm-2.95 4.268zm-1.091 1.186c-1.882 1.9-4.09 3.414-6.702 4.384 2.611-.97 4.82-2.484 6.702-4.384zm-8.291 4.888c-.228.063-.466.113-.7.168.234-.055.472-.105.7-.168zm-1.641.37zm-1.686.24z" style="fill:#8cc63f;fill-opacity:1;fill-rule:nonzero;stroke:none;stroke-width:2.45335" transform="translate(68.74 -192.028)"/>
    <path d="M615.628 306.6c-2.794-11.225-5.865-23.243-8.373-34.444 4.215-.825 7.637-.592 10.418.443 3.134 1.164 5.495 3.372 7.314 6.143 4.691 7.149 4.372 16.017-9.359 27.859z" style="fill:#578424;fill-opacity:1;fill-rule:nonzero;stroke:none;stroke-width:1.84001" transform="matrix(1.33333 0 0 -1.33333 68.74 601.673)"/>
</svg>