<svg xmlns="http://www.w3.org/2000/svg" width="298.272" height="243.411" viewBox="0 0 78.917799 64.402494">
    <script xmlns=""/>
    <defs>
        <linearGradient id="c" x1="0" x2="1" y1="0" y2="0" gradientTransform="scale(-186.53993 186.53993) rotate(-14.668 11.457 22.724)" gradientUnits="userSpaceOnUse" spreadMethod="pad">
            <stop offset="0" style="stop-opacity:1;stop-color:#cf2027"/>
            <stop offset="0.477528" style="stop-opacity:1;stop-color:#a11d21"/>
            <stop offset="0.67453393" style="stop-opacity:1;stop-color:#a11d21"/>
            <stop offset="0.825843" style="stop-opacity:1;stop-color:#cf2027"/>
            <stop offset="0.926966" style="stop-opacity:1;stop-color:#991b1f"/>
            <stop offset="0.97235582" style="stop-opacity:1;stop-color:#991b1f"/>
            <stop offset="1" style="stop-opacity:1;stop-color:#331212"/>
        </linearGradient>
        <linearGradient id="d" x1="0" x2="1" y1="0" y2="0" gradientTransform="scale(124.51072 -124.51072) rotate(40 11.188 6.837)" gradientUnits="userSpaceOnUse" spreadMethod="pad">
            <stop offset="0" style="stop-opacity:1;stop-color:#b82025"/>
            <stop offset="0.0168539" style="stop-opacity:1;stop-color:#d71f26"/>
            <stop offset="0.08471048" style="stop-opacity:1;stop-color:#f37355"/>
            <stop offset="0.11236" style="stop-opacity:1;stop-color:#f37355"/>
            <stop offset="0.14009372" style="stop-opacity:1;stop-color:#f37355"/>
            <stop offset="0.477528" style="stop-opacity:1;stop-color:#ed2227"/>
            <stop offset="0.62529928" style="stop-opacity:1;stop-color:#ed2227"/>
            <stop offset="0.707865" style="stop-opacity:1;stop-color:#ed2227"/>
            <stop offset="1" style="stop-opacity:1;stop-color:#d71f26"/>
        </linearGradient>
        <linearGradient id="b" x1="0" x2="1" y1="0" y2="0" gradientTransform="rotate(-90 29.585 2.582) scale(6.50564)" gradientUnits="userSpaceOnUse" spreadMethod="pad">
            <stop offset="0" style="stop-opacity:1;stop-color:#fff"/>
            <stop offset="0.533708" style="stop-opacity:1;stop-color:#bcbec0"/>
            <stop offset="1" style="stop-opacity:1;stop-color:#fff"/>
        </linearGradient>
        <linearGradient id="a" x1="0" x2="1" y1="0" y2="0" gradientTransform="matrix(0 -2.66481 2.66481 0 56.647 31.45)" gradientUnits="userSpaceOnUse" spreadMethod="pad">
            <stop offset="0" style="stop-opacity:1;stop-color:#fff"/>
            <stop offset="1" style="stop-opacity:1;stop-color:#bcbec0"/>
        </linearGradient>
        <radialGradient id="e" cx="0" cy="0" r="1" fx="0" fy="0" gradientTransform="matrix(61.00068 0 0 61.00068 17.336 28.085)" gradientUnits="userSpaceOnUse" spreadMethod="pad">
            <stop offset="0" style="stop-opacity:1;stop-color:#000"/>
            <stop offset="0.235955" style="stop-opacity:1;stop-color:#fff"/>
            <stop offset="0.758427" style="stop-opacity:1;stop-color:#fff"/>
            <stop offset="0.86271765" style="stop-opacity:1;stop-color:#fff"/>
            <stop offset="1" style="stop-opacity:1;stop-color:#000"/>
        </radialGradient>
    </defs>
    <path d="m37.684 53.771-12.49-15.38 18.15-22.35h-9.915c-4.44 0-7.487 1.35-10.186 4.52L13.68 32.323V0H4.08C1.83 0 0 1.837 0 4.096V64.4h9.599c2.25 0 4.08-1.837 4.08-4.096V44.262l7.775 9.542 6.61 8.14c1.334 1.672 3.088 2.449 4.891 2.449h13.39zM62.304 64.4c-7.404 0-12.506-5.097-12.506-12.493V4.088A4.098 4.098 0 0 1 53.896 0h9.602v49.34c0 2.029 1.645 3.679 3.668 3.679h9.77v7.288a4.102 4.102 0 0 1-4.097 4.095z" style="fill:#fff;fill-opacity:1;fill-rule:nonzero;stroke:none;stroke-width:.352778"/>
    <path d="M49.747 31.475h13.799v-7.243H49.747Z" style="fill:url(#a);stroke:none;stroke-width:.352778"/>
    <path d="M34.134 17.508c-3.03 0-6.402 1.53-10.725 2.897l-11.39 14.01 12.91 4.302C40.621 19.403 40.461 19.6 41.986 17.735c-2.042 0-7.852-.227-7.852-.227" style="fill:url(#b);stroke:none;stroke-width:.352778"/>
    <path d="M974.05 672.704c-21.952 0-101.565-.052-101.565-.052-13.773 0-22.847-4.871-29.255-12.674l-19.552-24.101c7.117 5.368 16.869 8.561 26.835 8.561H974.05c15.662 0 30.716 4.791 30.716 17.13 0 12.302-1.414 19.115-1.414 19.115s-7.356-7.979-29.302-7.979m-150.51-36.932c.024.02.031-.027.031-.027l.107.132-.138-.105" style="fill:url(#c);stroke:none" transform="matrix(.35278 0 0 -.35278 -275.541 254.951)"/>
    <path d="M1002.339 684.802c-.075-.074-7.364-7.507-28.289-7.507h-98.914c-15.614 0-22.963-6.358-28.578-13.231l-22.723-27.994s10.734 10.171 26.507 10.171H974.05c13.541 0 22.829 2.656 27.6 7.887 3.407 3.736 3.108 7.413 3.1 7.44l-.01 25.772-2.402-2.538z" style="fill:url(#d);stroke:none" transform="matrix(.35278 0 0 -.35278 -275.541 254.951)"/>
    <path d="M78.852 22.03c-.043.874-1.201 4.737-10.77 4.737h-42.97c-3.97 0-7.055 1.124-9.986 3.715l-.075.087c2.302-1.851 5.148-3.618 10.062-3.618h42.969c10.79 0 10.77-4.914 10.77-4.914z" style="fill:url(#e);stroke:none;stroke-width:.352778"/>
</svg>