<svg xmlns="http://www.w3.org/2000/svg" xml:space="preserve" x="0px" y="0px" viewBox="0 0 1000 450.041">
    <script xmlns=""/>
    <path fill="#003378" d="M586.648 288.285c26.255 0 40.836 3.712 41.229 21.284.164 9.652-6.394 20.871-13.51 26.379-16.045 12.395-30.152 13.715-105.472 13.715H137.283L209.076 49.89H84.918c-8.291 0-11.405 2.372-13.88 12.23L2.979 343.104c-12.808 55.85 16.004 106.937 80.352 106.937H253.79c43.167 0 100.956-47.126 124.405-90.664 1.279-2.393 2.104-3.939 3.073-5.94 0 0 .495-.598.639.269 0 .042.021.042.021.042-3.733 15.653-16.788 70.967-18.933 79.98-2.743 11.756 3.382 16.211 9.034 16.211h183.396c155.527 0 216.225-73.98 221.566-162.809 2.969-49.91-28.606-82.208-117.95-82.208h-68.616c-24.398 0-49.396-8.023-49.396-27.822 0-19.84 27.142-37.062 63.997-37.062H772.02s14.602-58.47 17.489-70.7c3.608-15.385-1.011-19.84-12.251-19.84H570.83c-119.894 0-173.702 80.187-173.702 137.378 0 57.253 46.136 101.326 165.144 101.326l24.376.083z"/>
    <path fill="#E6003E" d="M667.764 0H1000L829.107 87.777s6.889-28.75 8.951-37.31c2.145-9.116-.743-15.963-13.612-18.562C811.659 29.328 667.764 0 667.764 0z"/>
</svg>