<svg xmlns="http://www.w3.org/2000/svg" version="1.0" viewBox="0 0 594.000000 107.000000">

    <g transform="translate(0.000000,107.000000) scale(0.100000,-0.100000)" fill="#55474a" stroke="none">
        <path d="M2100 1059 c-75 -14 -186 -76 -246 -136 -30 -30 -54 -59 -52 -65 2 -6 30 -32 61 -56 l58 -46 47 47 c90 88 208 122 323 93 70 -18 159 -71 185 -111 9 -14 20 -25 24 -25 4 0 36 23 71 50 l63 51 -65 62 c-128 122 -293 170 -469 136z" fill="#FFAA00"/>
        <path d="M3822 861 c-90 -31 -152 -105 -152 -181 0 -80 42 -126 144 -155 125 -37 304 0 351 72 44 66 27 152 -40 211 -79 69 -197 90 -303 53z m195 -107 c56 -36 55 -106 -2 -130 -67 -28 -184 -13 -205 26 -24 45 7 102 63 119 41 13 114 5 144 -15z"/>
        <path d="M308 851 c-205 -66 -330 -260 -299 -462 37 -238 203 -379 447 -379 193 0 351 102 414 267 32 81 39 221 15 294 -44 133 -144 232 -283 278 -80 27 -212 28 -294 2z m226 -183 c60 -18 139 -100 154 -160 15 -58 7 -118 -23 -178 -28 -56 -57 -83 -115 -109 -151 -69 -322 37 -337 209 -15 167 149 289 321 238z"/>
        <path d="M1005 837 c-3 -6 -4 -190 -3 -407 l3 -395 97 -3 98 -3 2 190 3 189 168 -189 168 -189 115 0 c63 0 114 3 114 6 0 3 -81 100 -181 216 -179 210 -180 211 -161 232 123 138 302 349 302 357 0 5 -46 9 -104 9 l-104 0 -159 -179 -158 -180 -3 180 -2 179 -96 0 c-66 0 -96 -4 -99 -13z"/>
        <path d="M2807 843 c-4 -3 -7 -28 -7 -55 l0 -48 225 0 225 0 -1 -57 c0 -32 -3 -76 -7 -98 l-7 -40 -255 -5 -255 -5 0 -50 0 -50 373 -3 372 -2 0 55 0 55 -56 0 c-47 0 -55 3 -50 16 11 28 28 198 24 244 l-3 45 -286 3 c-157 1 -288 -1 -292 -5z"/>
        <path d="M5270 800 l0 -50 230 0 c198 0 230 -2 230 -15 0 -13 -32 -15 -231 -15 l-231 0 4 -80 c3 -75 5 -82 36 -112 l32 -33 265 -3 265 -3 0 50 0 51 -232 2 c-172 2 -232 6 -235 15 -4 10 48 13 224 15 l228 3 3 113 3 112 -296 0 -295 0 0 -50z"/>
        <path d="M4440 780 l0 -50 226 0 226 0 -5 -212 c-3 -122 -10 -231 -17 -255 l-12 -43 -239 0 -239 0 0 -50 0 -50 360 0 360 0 0 50 0 50 -53 0 -53 0 12 73 c8 44 13 163 14 305 l0 232 -290 0 -290 0 0 -50z"/>
        <path d="M2190 793 c-60 -19 -90 -56 -90 -115 0 -78 53 -414 68 -430 19 -22 65 -23 85 -3 19 18 21 27 53 259 24 176 25 192 10 222 -22 47 -84 80 -126 67z" fill="#F55000"/>
        <path d="M3550 445 l0 -55 85 0 85 0 0 -39 c0 -29 -6 -44 -21 -55 -61 -42 -77 -127 -36 -186 67 -100 312 -131 456 -57 104 53 124 169 41 237 -24 20 -30 33 -30 63 l0 37 80 0 80 0 0 55 0 55 -370 0 -370 0 0 -55z m460 -72 c0 -16 -11 -18 -85 -18 -74 0 -85 2 -85 18 0 15 11 17 85 17 74 0 85 -2 85 -17z m-5 -124 c78 -20 98 -71 42 -113 -24 -18 -43 -21 -122 -21 -79 0 -98 3 -122 21 -34 25 -41 64 -16 86 38 35 138 47 218 27z"/>
        <path d="M5190 415 l0 -45 160 0 160 0 0 -30 0 -30 65 0 65 0 0 30 0 30 150 0 150 0 0 45 0 45 -375 0 -375 0 0 -45z"/>
        <path d="M2802 248 c8 -204 5 -202 341 -206 l257 -3 0 160 0 161 -301 0 -301 0 4 -112z m468 -48 l0 -60 -151 0 c-84 0 -159 5 -170 10 -15 8 -19 22 -19 60 l0 50 170 0 170 0 0 -60z"/>
        <path d="M5280 238 c0 -117 14 -153 72 -185 29 -16 61 -18 268 -18 l235 0 3 153 3 152 -66 0 c-63 0 -65 -1 -65 -25 l0 -25 -160 0 -160 0 0 25 c0 24 -2 25 -65 25 l-65 0 0 -102z m450 -78 c0 -20 -5 -20 -157 -18 -141 3 -158 5 -161 21 -3 16 10 17 157 17 155 0 161 -1 161 -20z"/>
        <path d="M2146 149 c-41 -48 -30 -106 24 -134 62 -32 130 11 130 82 0 80 -102 114 -154 52z" fill="#F55000"/>
    </g>
</svg>