<svg xmlns="http://www.w3.org/2000/svg"
    xmlns:xlink="http://www.w3.org/1999/xlink" viewBox="0 0 440.84557 150.00001">
    <script xmlns=""/>
    <defs>
        <linearGradient id="e">
            <stop offset="0" style="stop-color:#fbaf16;stop-opacity:1"/>
            <stop offset="0.60068423" style="stop-color:#fec706;stop-opacity:1"/>
            <stop offset="1" style="stop-color:#fecb03;stop-opacity:1"/>
        </linearGradient>
        <linearGradient id="d">
            <stop offset="0" style="stop-color:#fbaf16;stop-opacity:1"/>
            <stop offset="0.59809554" style="stop-color:#fec607;stop-opacity:1"/>
            <stop offset="1" style="stop-color:#fecb03;stop-opacity:1"/>
        </linearGradient>
        <linearGradient id="c">
            <stop offset="0" style="stop-color:#fbaf16;stop-opacity:1"/>
            <stop offset="0.48121002" style="stop-color:#fec706;stop-opacity:1"/>
            <stop offset="1" style="stop-color:#fecb03;stop-opacity:1"/>
        </linearGradient>
        <linearGradient id="b">
            <stop offset="0" style="stop-color:#fbaf16;stop-opacity:1"/>
            <stop offset="0.44650456" style="stop-color:#fec608;stop-opacity:1"/>
            <stop offset="1" style="stop-color:#fecb03;stop-opacity:1"/>
        </linearGradient>
        <linearGradient id="a">
            <stop offset="0" style="stop-color:#fecb03;stop-opacity:1"/>
            <stop offset="0.53011262" style="stop-color:#fdbd0f;stop-opacity:1"/>
            <stop offset="1" style="stop-color:#fbaf16;stop-opacity:1"/>
        </linearGradient>
        <linearGradient xlink:href="#a" id="g" x1="213.93906" x2="260.82077" y1="281.95053" y2="251.57649" gradientUnits="userSpaceOnUse"/>
        <linearGradient xlink:href="#b" id="i" x1="212.61844" x2="195.45049" y1="238.37036" y2="281.95053" gradientUnits="userSpaceOnUse"/>
        <linearGradient xlink:href="#c" id="k" x1="169.69858" x2="180.92375" y1="247.61464" y2="293.83606" gradientUnits="userSpaceOnUse"/>
        <linearGradient xlink:href="#d" id="m" x1="133.38174" x2="170.35887" y1="287.89328" y2="317.60706" gradientUnits="userSpaceOnUse"/>
        <linearGradient xlink:href="#e" id="o" x1="114.23289" x2="202.05354" y1="337.41623" y2="329.49255" gradientUnits="userSpaceOnUse"/>
        <clipPath id="f">
            <path d="M215.527 177.267c-8.726-2.128-28.212-.403-42.993 9.316-17.476 11.498-21.283 32.288-21.283 32.288 22.535-29.346 55.246-21.13 55.246-21.13s3.353-2.52 6.524-9.485c2.664-5.86 2.506-10.989 2.506-10.989z"/>
        </clipPath>
        <clipPath id="h">
            <path d="M168.6 151.992c-8.176 3.722-22.426 17.124-28.036 33.894-6.638 19.847 3.22 38.543 3.22 38.543-.427-37.002 30.37-50.757 30.37-50.757s1.083-4.06-.732-11.486c-1.524-6.258-4.821-10.194-4.821-10.194z"/>
        </clipPath>
        <clipPath id="j">
            <path d="M116.076 161.135c-4.123 7.977-7.035 27.321-1.076 43.979 7.054 19.692 26.368 28.292 26.368 28.292-23.217-28.824-7.519-58.67-7.519-58.67s-1.661-3.858-7.683-8.582c-5.064-3.968-10.09-5.02-10.09-5.02z"/>
        </clipPath>
        <clipPath id="l">
            <path d="M80.64 200.501c1.65 8.825 11.244 25.88 26.185 35.35 17.674 11.198 38.187 6.114 38.187 6.114-36.029-8.466-41.997-41.657-41.997-41.657s-3.68-2.021-11.33-2.049c-6.44-.019-11.046 2.242-11.046 2.242z"/>
        </clipPath>
        <clipPath id="n">
            <path d="M76.95 253.844c6.77 5.9 24.874 13.327 42.463 11.489 20.816-2.17 33.75-18.885 33.75-18.885-33.511 15.704-58.776-6.634-58.776-6.634s-4.146.692-10.158 5.424c-5.066 3.973-7.279 8.606-7.279 8.606z"/>
        </clipPath>
    </defs>
    <g clip-path="url(#f)" transform="matrix(1.00898 0 0 1.00898 -77.64 -153.356)">
        <path d="M201.334 233.334v12.959l.096.01c.122 2.146.355 3.82.652 4.785-.905.633-.855.88.252.893.917.01 1.666.852 1.666 1.87 0 1.031 5.83.734 4.334 2.68-21.804 28.349-120.646 122.63 33.656 25.655 3.578-2.249 5.019 7.324 6.553 8.092.833.416 4.054.809 8.4 1.1l.254.622H288v-29.334l19.61-29.332c10.862-16.214-27.859-13.253-42.74-8.404l-20.204 8.404z" style="fill:url(#g);fill-opacity:1;stroke-width:1.33333" transform="scale(.75)"/>
    </g>
    <g clip-path="url(#h)" transform="matrix(1.00898 0 0 1.00898 -77.64 -153.356)">
        <path d="M177.334 201.334v15.332c0 3.31-.033 5.932 0 8.012v2.656l-24.431 2.762V252.879l.3-.063c.13 1.972.315 3.545.58 4.784-.248.169-.499.339-.706.517-.271.233.375 1.29 1.435 2.35.904.904 1.687 1.306 3.174 1.238 1.487-.014 28.235 59.754 27.116 62.151-20.116 43.082 52.332-27.454 39.864-54.768-2.336-5.118 6.81 4.498 7.102 3.312.06-.243.15-.454.265-.627.058-.086.12-.162.188-.228.337-.333.789-.41 1.213-.149h.004c1.652 1.02 1.592-.31.5-2.203.452-4.664 17.896-19.06 17.896-35.088V215.359l-17.168-14.025c-3.23-24.036-17.134-7.511-28.666 0z" style="fill:url(#i);fill-opacity:1;stroke-width:1.33333" transform="scale(.75)"/>
    </g>
    <g clip-path="url(#j)" transform="matrix(1.00898 0 0 1.00898 -77.64 -153.356)">
        <path d="m138.73 194.857-15.186 38.47v2.714c0 5.992-.098 10.374 0 13.432v32.978l52.824 58.357.342-.507c.084 7.352-30.852-37.402-30.74-33.883-.33 1.976-.522 3.508-.482 4.078.136 1.906.227 1.895.75-.09.328-1.242 1.365-1.964 2.305-1.603 1.137.436 2.694-2.352 4.658-8.334 1.623-4.945 34.6 35.31 37.689 36.818 21.352 10.423 33.524 2.24 19.853-16.37-.131-.178.445-.151.69-.255.621-.262 1.298-.63 1.992-1.06 1.287-.774 2.63-1.735 3.652-2.682.478-.443.88-.829 1.229-1.235 1.323-1.36-28.92-53.41-29.368-53.859-.064-.064-.156-.109-.239-.16.22-1.106.364-2.57.457-4.596l.178-.033v-33.755l-6.603-24.734.023-1.228.067-2.463h-22.09z" style="fill:url(#k);fill-opacity:1;stroke-width:1.33333" transform="scale(.75)"/>
    </g>
    <g clip-path="url(#l)" transform="matrix(1.00898 0 0 1.00898 -77.64 -153.356)">
        <path d="M94.12 250.134c-49.23 18.35 8.692 36.655 12.546 47.2V330.74l3.8-.074h38.899l-.043-.31c1.641-.116 2.987-.277 4.086-.495.643 1.168 1.441.813 3.217-.963.309-.308.551-.668.736-1.09.83-1.35-2.022 12.285.672 13.548 139.302 65.302 10.895-60.49 27.322-68.288 3.325-1.577 6.69-4.046 7.541-5.85l1.52-3.218H157.58l-17.487-19.149-24.017-1.98Z" style="fill:url(#m);fill-opacity:1;stroke-width:1.33333" transform="scale(.75)"/>
    </g>
    <g clip-path="url(#n)" transform="matrix(1.00898 0 0 1.00898 -77.64 -153.356)">
        <path d="M125.906 294.217c-2.108.002-4.54.018-7.356.018h-5.406l-11.81 24.431-15.187 21.315 15.187 17.353 11.397 16.508h18.744c17.893 41.925 70.379-13.828 103.88-17.168l-.3-.416c2.54-.106 4.512-.228 5.795-.368 1.818 1.166 2.925 1.236 1.884-.449-.419-.678.136-1.429 1.233-1.668 1.479-.322.636-2.15-3.26-7.074-3.234-4.087-6.428-10.357-8.31-16.309-1.682-5.318-75.071-33.45-75.927-33.464-.516-.008-1.09-.305-1.57-.726a1.129 1.129 0 0 1-.207-.631c0-.114-.198-.22-.559-.32-.002-.006-.006-.01-.008-.014-.101-.215-.182-.216-.24-.045-.873-.198-2.545-.363-4.81-.502l-.061-.453h-19.93a220.62 220.62 0 0 0-3.18-.018z" style="fill:url(#o);fill-opacity:1;stroke-width:1.33333" transform="scale(.75)"/>
    </g>
    <g fill="#00854a">
        <path d="M320 61.698v81.44h28.025v-81.44h-1.41zM392.092 124.65V61.699h-28.034v81.44h76.788V124.65h-48.754zM206.86 111.385h-31.972V93.947h31.972zM262.767 127.669c-10.122 0-15.052-7.644-15.052-25.356 0-17.699 4.93-25.338 15.052-25.338 10.145 0 15.057 7.64 15.057 25.338 0 17.712-4.912 25.356-15.057 25.356zm0-69.075c-26.784 0-45.258 16.26-45.258 43.72 0 35.935 26.03 43.719 45.258 43.719 19.133 0 45.277-7.784 45.277-43.72 0-37.3-26.144-43.72-45.277-43.72zM129.058 90.386c-9.328-3.175-18.939-5.379-18.35-9.658.495-3.654 4.936-5.71 14.134-5.677 10.55.038 21.002 3.157 28.787 6.056l10.017-17.684c-7.01-2.855-23.972-7.933-40.693-7.939-26.201-.026-43.115 10.619-43.115 27.05 0 20.172 20.504 25.817 36.804 30.96 10.02 3.161 18.878 5.523 18.878 10.396 0 6.625-10.99 6.567-15.53 6.278-12.815-.811-24.36-6.076-32.6-10.381l-10.865 17.46c6.403 3.965 25.15 12.743 46.428 12.753 26.383.022 43.44-9.341 43.44-28.594 0-19.824-20.702-25.36-37.335-31.02z"/>
    </g>
</svg>