<svg xmlns="http://www.w3.org/2000/svg" viewBox="0 0 440.90482 74.999997">
    <script xmlns=""/>
    <defs>
        <clipPath id="a">
            <path d="M0 728h515.905v-67.055H0Z"/>
        </clipPath>
        <clipPath id="b">
            <path d="M0 728.504h515.905v-67.559H0Z"/>
        </clipPath>
        <clipPath id="c">
            <path d="M0 728h515.905v-67.055H0Z"/>
        </clipPath>
    </defs>
    <g fill="#1b62a4" clip-path="url(#a)" transform="translate(-154.696 -538.75)">
        <path d="M165.511 356.048h1.513c.81 0 1.368-.882 1.368-1.747 0-1.062-.288-1.962-1.512-1.962h-1.369Zm-2.719-5.708h4.898c2.485 0 3.457 1.513 3.457 3.889 0 1.477-.432 3.818-3.619 3.818h-2.017v5.293h-2.719zM177.32 358.532c0-1.89-.09-2.845-1.17-2.845-1.081 0-1.171.954-1.171 2.845 0 2.773.234 3.367 1.17 3.367.937 0 1.17-.594 1.17-3.367m-4.878.144c0-2.484.359-4.609 3.709-4.609 3.348 0 3.709 2.125 3.709 4.61 0 2.844-.433 4.843-3.71 4.843s-3.708-1.999-3.708-4.844M180.846 354.247h2.521l1.242 6.842h.036l1.746-6.842h2.63l1.602 6.842h.036l1.368-6.842h2.431l-2.467 9.093h-2.665l-1.638-6.212h-.036l-1.837 6.212h-2.7zM200.324 357.776c0-.882.036-2.143-1.17-2.143-1.17 0-1.153 1.37-1.153 2.143Zm-2.323 1.422c0 1.08.036 2.701 1.153 2.701.9 0 1.08-.864 1.08-1.62h2.574c-.035.99-.359 1.8-.972 2.358-.594.558-1.494.883-2.682.883-3.277 0-3.71-1.999-3.71-4.844 0-2.484.36-4.609 3.71-4.609 3.42 0 3.798 2.214 3.71 5.131zM207.073 354.247v1.17h.036c.468-1.044 1.333-1.35 2.36-1.35v2.27c-2.234-.145-2.27 1.151-2.27 2.051v4.952h-2.539v-9.093ZM219.314 358.532c0-1.89-.09-2.845-1.17-2.845-1.081 0-1.171.954-1.171 2.845 0 2.773.234 3.367 1.17 3.367.936 0 1.17-.594 1.17-3.367m-4.88.144c0-2.484.36-4.609 3.71-4.609s3.71 2.125 3.71 4.61c0 2.844-.433 4.843-3.71 4.843-3.276 0-3.71-1.999-3.71-4.844M227.557 351.906c-1.026-.072-1.243.324-1.243 1.243v1.098h1.19v1.566h-1.19v7.527h-2.538v-7.527h-1.135v-1.566h1.153c-.018-2.61-.234-3.997 2.863-3.997.306 0 .594.018.9.036ZM238.556 350.34h2.989l-3.637 5.834 3.637 7.166h-3.061l-3.115-6.662h-.036v6.662h-2.72v-13h2.72v5.564h.036zM242.73 363.34v-13h4.375l2.035 8.84h.036l2.16-8.84h4.231v13h-2.647v-10.03h-.035l-2.504 10.03h-2.591l-2.377-10.03h-.037v10.03ZM265.52 350.34v2.16h-3.025v10.84h-2.719V352.5h-3.025v-2.16ZM266.652 356.84c0-3.44 0-6.716 4.483-6.716 2.773 0 3.89 1.53 3.782 4.32h-2.665c0-1.727-.307-2.375-1.117-2.375-1.53 0-1.728 1.44-1.728 4.77 0 3.332.198 4.772 1.728 4.772 1.26 0 1.207-1.62 1.243-2.646h2.683c0 3.475-1.387 4.59-3.926 4.59-4.483 0-4.483-3.312-4.483-6.715"/>
    </g>
    <g clip-path="url(#b)" transform="translate(-154.696 -538.75)">
        <path fill="#205997" d="M139.974 388.68h1.115l-2.363 5.362v3.298h-1.103v-3.298l-2.327-5.361h1.236l1.69 4.186z"/>
    </g>
    <g clip-path="url(#c)" transform="translate(-154.696 -538.75)">
        <path fill="#205997" d="M144.642 393.981c0-1.655-.516-2.015-1.271-2.015-.756 0-1.271.36-1.271 2.015 0 1.967.25 2.675 1.27 2.675s1.272-.708 1.272-2.675m-3.574.42c0-1.775.204-3.238 2.303-3.238 2.099 0 2.303 1.463 2.303 3.238 0 2.675-1.02 3.06-2.303 3.06-1.284 0-2.303-.385-2.303-3.06M150.474 391.283h.983v4.797c0 .42.025.84.06 1.26h-1.043v-.732h-.036c-.323.552-.9.852-1.535.852-1.055 0-1.631-.529-1.631-1.56v-4.617h.983v4.197c0 .733.336 1.224 1.032 1.224.527 0 1.187-.396 1.187-1.403zM155.144 391.283h1.091l1.092 5.217h.024l1.343-5.217h1.391l1.236 5.217h.024l1.199-5.217h1.043l-1.619 6.057h-1.319l-1.296-5.158h-.023l-1.355 5.158h-1.32zM165.522 397.34h-.983v-6.057h.983zm-1.043-8.659h1.103v1.056h-1.103zM168.187 397.34h-.983v-8.659h.983zM170.851 397.34h-.984v-8.659h.984zM177.39 396.656c1.234 0 1.234-1.319 1.234-2.23 0-1.62-.144-2.459-1.199-2.459-1.09 0-1.139 1.294-1.139 2.098 0 .924-.108 2.591 1.103 2.591m-1.103.684h-.984v-8.66h.984v3.214h.036c.336-.479.755-.73 1.331-.73 1.955 0 2.003 1.738 2.003 3.25 0 2.662-.983 3.046-1.955 3.046-.636 0-1.056-.277-1.39-.84h-.025zM184.54 393.886c0-1.763-.491-1.98-1.21-1.98-.625 0-1.14.3-1.153 1.98zm-2.362.743c0 1.692.456 2.028 1.224 2.028.67 0 1.019-.541 1.055-1.152h1.08c-.013 1.343-.84 1.955-2.111 1.955-1.283 0-2.303-.384-2.303-3.058 0-1.776.204-3.24 2.303-3.24 1.727 0 2.158.949 2.158 2.952v.515zM190.063 391.283v-1.176c0-1.222.863-1.463 1.739-1.463.204 0 .324.012.468.036v.708c-1.044-.072-1.225.372-1.225.864v1.031h1.225v.743h-1.225v5.314h-.982v-5.314h-.936v-.743ZM196.457 391.283h.984v4.797c0 .42.024.84.059 1.26h-1.043v-.732h-.036c-.324.552-.9.852-1.535.852-1.055 0-1.631-.529-1.631-1.56v-4.617h.983v4.197c0 .733.336 1.224 1.032 1.224.527 0 1.187-.396 1.187-1.403zM200.178 397.34h-.983v-8.659h.983zM202.842 397.34h-.984v-8.659h.984zM206.37 396.213h.023l1.451-4.93h1.067l-2.746 8.348h-1.019l.683-2.291-2.05-6.057h1.14zM214.325 397.46c-1.307 0-2.123-.576-2.087-1.967h1.116c0 .348.012 1.163 1.007 1.163.588 0 1.044-.3 1.044-.924 0-1.079-3.023-1.103-3.023-2.914 0-.635.384-1.655 2.087-1.655 1.08 0 2.003.516 1.919 1.715h-1.091c.01-.636-.324-.971-.948-.971-.527 0-.935.287-.935.816 0 1.067 3.022 1.043 3.022 2.89 0 1.331-.911 1.847-2.111 1.847M218.765 395.541c0 .588.288 1.115.947 1.115.6 0 1.344-.372 1.248-2.327-.936.013-2.195-.071-2.195 1.212m2.22.923h-.025c-.3.696-.768.996-1.524.996-1.283 0-1.654-.828-1.654-1.991 0-1.835 1.798-1.919 3.178-1.883.024-.804.035-1.679-1.02-1.679-.659 0-1.007.444-.947 1.079h-1.068c.048-1.355.768-1.823 2.051-1.823 1.56 0 1.967.804 1.967 1.823v2.914c0 .481.048.972.12 1.44h-1.079ZM223.974 391.283v-1.163l.983-.444v1.607h1.32v.743h-1.32v3.706c0 .384 0 .876.9.876.072 0 .228-.024.444-.048v.755c-.324.025-.648.097-.972.097-.936 0-1.355-.384-1.355-1.08v-4.306h-.996v-.743ZM228.161 397.34h-.984v-6.057h.984zm-1.043-8.659h1.103v1.056h-1.103zM231.652 397.46c-1.307 0-2.123-.576-2.087-1.967h1.116c0 .348.012 1.163 1.007 1.163.588 0 1.044-.3 1.044-.924 0-1.079-3.023-1.103-3.023-2.914 0-.635.384-1.655 2.087-1.655 1.08 0 2.003.516 1.92 1.715h-1.092c.011-.636-.324-.971-.948-.971-.527 0-.935.287-.935.816 0 1.067 3.022 1.043 3.022 2.89 0 1.331-.91 1.847-2.11 1.847M235.373 391.283v-1.176c0-1.222.863-1.463 1.739-1.463.204 0 .324.012.468.036v.708c-1.044-.072-1.224.372-1.224.864v1.031h1.224v.743h-1.224v5.314h-.983v-5.314h-.936v-.743ZM239.488 397.34h-.983v-6.057h.983zm-1.043-8.659h1.103v1.056h-1.103zM244.515 393.886c0-1.763-.492-1.98-1.21-1.98-.625 0-1.14.3-1.153 1.98zm-2.363.743c0 1.692.456 2.028 1.224 2.028.671 0 1.02-.541 1.055-1.152h1.08c-.013 1.343-.84 1.955-2.11 1.955-1.284 0-2.304-.384-2.304-3.058 0-1.776.204-3.24 2.303-3.24 1.727 0 2.158.949 2.158 2.952v.515zM249.256 391.967c-1.055 0-1.2.84-1.2 2.459 0 .91 0 2.23 1.236 2.23 1.104 0 1.104-1.367 1.104-2.59 0-.804-.05-2.1-1.14-2.1m1.14-3.285h.983v8.659h-.983v-.72h-.024c-.336.564-.756.84-1.392.84-.971 0-1.954-.384-1.954-3.047 0-1.51.047-3.25 2.002-3.25.576 0 .996.252 1.332.732h.036ZM255.101 391.283h1.091l1.092 5.217h.024l1.343-5.217h1.391l1.236 5.217h.024l1.2-5.217h1.042l-1.619 6.057h-1.319l-1.296-5.158h-.023l-1.355 5.158h-1.32zM265.48 397.34h-.984v-6.057h.984zm-1.043-8.659h1.103v1.056h-1.103zM267.293 391.283v-1.163l.983-.444v1.607h1.32v.743h-1.32v3.706c0 .384 0 .876.9.876.072 0 .228-.024.444-.048v.755c-.325.025-.649.097-.972.097-.937 0-1.356-.384-1.356-1.08v-4.306h-.995v-.743ZM273.807 397.34v-4.102c0-.744-.24-1.271-1.08-1.271-.983 0-1.235.792-1.235 1.81v3.563h-.983v-8.66h.983v3.383h.048c.396-.707.85-.9 1.643-.9 1.032 0 1.607.516 1.607 1.883v4.294ZM79.561 414.34v-8.658h1.103v3.802h.036l3.023-3.802h1.248l-3.143 3.91 3.322 4.749h-1.416L80.7 409.82h-.036v4.52ZM87.276 414.34h-1.03v-8.658h1.786l2.182 7.267h.024l2.207-7.267h1.823v8.659h-1.103v-7.7h-.024l-2.423 7.7h-1.043l-2.375-7.7h-.024ZM101.086 405.682v.959h-2.279v7.7h-1.103v-7.7h-2.279v-.96ZM106.043 408.068c.012-.492-.024-.983-.251-1.26-.228-.275-.744-.37-.972-.37-.912 0-1.272.551-1.307.67-.036.097-.252.313-.252 1.8v2.314c0 2.123.696 2.375 1.547 2.375.336 0 1.355-.12 1.367-1.81h1.139c.048 2.733-1.882 2.733-2.446 2.733-1.079 0-2.735-.07-2.735-3.43v-2.447c0-2.446 1.08-3.14 2.783-3.14 1.715 0 2.375.886 2.267 2.565ZM108.865 405.682h1.295l-.983 2.387h-.828zM112.356 414.461c-1.307 0-2.123-.576-2.087-1.967h1.116c0 .348.012 1.163 1.007 1.163.588 0 1.044-.3 1.044-.924 0-1.079-3.023-1.103-3.023-2.914 0-.635.384-1.655 2.087-1.655 1.08 0 2.003.516 1.919 1.715h-1.091c.011-.636-.324-.971-.948-.971-.527 0-.935.287-.935.816 0 1.067 3.022 1.043 3.022 2.889 0 1.332-.911 1.848-2.111 1.848M119.52 411.763v.25c0 1.177.744 1.549 1.452 1.549.875 0 1.546-.372 1.546-1.403 0-1.92-3.886-1.704-3.886-4.306 0-1.535 1.092-2.351 2.543-2.351 1.584 0 2.47.768 2.4 2.53h-1.153c.013-.947-.287-1.571-1.33-1.571-.66 0-1.332.336-1.332 1.272 0 1.907 3.885 1.63 3.885 4.378 0 1.822-1.258 2.41-2.686 2.41-2.555.024-2.555-1.931-2.53-2.758ZM128.639 411.211c0-.912 0-2.243-1.235-2.243-1.211 0-1.103 1.679-1.103 2.602 0 .804.047 2.087 1.139 2.087 1.055 0 1.199-.827 1.199-2.446m-2.338-2.207h.024c.335-.564.755-.84 1.39-.84.972 0 1.956.384 1.956 3.047 0 1.511-.05 3.25-2.003 3.25-.576 0-.996-.252-1.332-.731h-.035v2.902h-.984v-8.348h.984zM134.555 410.887c0-1.763-.492-1.98-1.211-1.98-.624 0-1.14.3-1.151 1.98zm-2.362.743c0 1.692.455 2.028 1.223 2.028.67 0 1.019-.541 1.055-1.152h1.08c-.013 1.343-.84 1.955-2.111 1.955-1.283 0-2.303-.384-2.303-3.058 0-1.776.204-3.24 2.303-3.24 1.727 0 2.158.949 2.158 2.952v.515zM140.399 410.228c.024-.996-.468-1.26-.84-1.26-.755 0-1.271.36-1.271 2.015 0 1.967.252 2.675 1.272 2.675.227 0 .91-.241.875-1.331h1.03c.038 1.703-1.234 2.134-1.905 2.134-1.284 0-2.303-.383-2.303-3.058 0-1.776.204-3.238 2.303-3.238 1.21 0 1.919.708 1.859 2.063ZM144.192 414.341h-.984v-6.057h.984zm-1.043-8.659h1.103v1.056h-1.103zM146.796 412.542c0 .588.288 1.115.947 1.115.6 0 1.344-.372 1.248-2.327-.936.013-2.195-.071-2.195 1.212m2.22.923h-.025c-.3.696-.768.996-1.524.996-1.283 0-1.654-.828-1.654-1.991 0-1.835 1.798-1.919 3.178-1.883.024-.804.035-1.679-1.02-1.679-.659 0-1.007.444-.947 1.079h-1.068c.048-1.355.768-1.823 2.051-1.823 1.56 0 1.967.804 1.967 1.823v2.914c0 .48.048.972.12 1.44h-1.079ZM152.856 414.341h-.984v-8.659h.984zM155.52 414.341h-.983v-6.057h.983zm-1.043-8.659h1.103v1.056h-1.103zM160.523 409.184l-2.674 4.354h2.758v.803h-3.826v-.924l2.638-4.305v-.024h-2.507v-.803h3.61ZM165.214 410.887c0-1.763-.492-1.98-1.211-1.98-.624 0-1.14.3-1.151 1.98zm-2.362.743c0 1.692.455 2.028 1.223 2.028.67 0 1.019-.541 1.055-1.152h1.08c-.013 1.343-.84 1.955-2.111 1.955-1.283 0-2.303-.384-2.303-3.058 0-1.776.204-3.24 2.303-3.24 1.727 0 2.158.949 2.158 2.952v.515zM169.955 408.968c-1.055 0-1.2.84-1.2 2.459 0 .91 0 2.23 1.236 2.23 1.104 0 1.104-1.367 1.104-2.59 0-.804-.05-2.1-1.14-2.1m1.14-3.285h.983v8.659h-.983v-.72h-.024c-.336.564-.756.84-1.392.84-.971 0-1.954-.384-1.954-3.047 0-1.51.047-3.25 2.002-3.25.576 0 .996.252 1.332.732h.036ZM176.736 414.34v-8.658h1.104v3.742h3.034v-3.742h1.103v8.659h-1.103v-3.958h-3.034v3.958ZM184.848 414.341h-.984v-6.057h.984zm-1.044-8.659h1.103v1.056h-1.103zM188.602 408.98c-1.116 0-1.15 1.344-1.15 2.147 0 1.943.442 2.399 1.174 2.399 1.187 0 1.151-1.403 1.151-2.243 0-.9.06-2.303-1.174-2.303m1.15-.695h.985v6.668c0 1.355-.9 1.679-2.231 1.679-1.008 0-1.92-.504-1.835-1.62h1.103c.012.565.384.876.924.876.683 0 1.055-.42 1.055-1.043v-1.26h-.036c-.252.48-.803.756-1.331.756-1.643 0-1.967-1.415-1.967-3.214 0-2.783 1.403-2.962 1.895-2.962.636 0 1.14.276 1.415.863h.024zM195.838 414.34v-4.101c0-.744-.24-1.271-1.08-1.271-.983 0-1.235.792-1.235 1.81v3.563h-.983v-8.66h.983v3.383h.048c.396-.707.85-.9 1.643-.9 1.032 0 1.607.516 1.607 1.883v4.294ZM205.533 411.223v-2.927c0-1.81-1.247-1.871-1.595-1.871-.348 0-1.595.06-1.595 1.87v2.928c0 1.439.312 2.23 1.607 2.23s1.583-.791 1.583-2.23m-4.317-2.891c0-1.726.887-2.83 2.722-2.83s2.722 1.104 2.722 2.83v2.843c0 .623-.264 2.158-.755 2.374l.024.025c.156-.048.576-.193.755-.193h.864v.96h-3.598c-1.175 0-2.734-.072-2.734-3.166zM211.785 408.284h.983v4.797c0 .42.025.84.06 1.26h-1.043v-.732h-.036c-.323.552-.9.852-1.535.852-1.055 0-1.63-.529-1.63-1.56v-4.617h.982v4.197c0 .733.336 1.224 1.032 1.224.527 0 1.187-.396 1.187-1.403zM215.447 412.542c0 .588.288 1.115.947 1.115.6 0 1.344-.372 1.248-2.327-.936.013-2.195-.071-2.195 1.212m2.219.923h-.024c-.3.696-.768.996-1.524.996-1.283 0-1.654-.828-1.654-1.991 0-1.835 1.798-1.919 3.178-1.883.024-.804.035-1.679-1.02-1.679-.66 0-1.007.444-.947 1.079h-1.068c.048-1.355.768-1.823 2.05-1.823 1.56 0 1.968.804 1.968 1.823v2.914c0 .48.048.972.12 1.44h-1.08ZM221.507 414.341h-.984v-8.659h.984zM224.171 414.341h-.984v-6.057h.984zm-1.044-8.659h1.103v1.056h-1.103zM225.983 408.284v-1.163l.983-.444v1.607h1.32v.743h-1.32v3.706c0 .384 0 .876.9.876.072 0 .228-.024.444-.048v.755c-.324.025-.648.097-.972.097-.936 0-1.355-.384-1.355-1.08v-4.306h-.996v-.743ZM231.034 413.214h.024l1.451-4.93h1.067l-2.746 8.348h-1.019l.683-2.291-2.05-6.057h1.14zM238.162 411.763v.25c0 1.177.743 1.549 1.451 1.549.876 0 1.547-.372 1.547-1.403 0-1.92-3.886-1.704-3.886-4.306 0-1.535 1.092-2.351 2.543-2.351 1.583 0 2.47.768 2.4 2.53h-1.153c.012-.947-.288-1.571-1.33-1.571-.66 0-1.332.336-1.332 1.272 0 1.907 3.885 1.63 3.885 4.378 0 1.822-1.259 2.41-2.686 2.41-2.555.024-2.555-1.931-2.53-2.758ZM247.197 410.887c0-1.763-.492-1.98-1.211-1.98-.624 0-1.14.3-1.152 1.98zm-2.363.743c0 1.692.456 2.028 1.224 2.028.67 0 1.019-.541 1.055-1.152h1.08c-.013 1.343-.84 1.955-2.111 1.955-1.283 0-2.303-.384-2.303-3.058 0-1.776.204-3.24 2.303-3.24 1.727 0 2.158.949 2.158 2.952v.515zM250.894 409.195h.024c.408-.923.912-1.03 1.871-1.03v1.018c-.084-.01-.18-.023-.264-.036a1.802 1.802 0 0 0-.264-.023c-1.091 0-1.367.827-1.367 1.642v3.575h-.983v-6.057h.983ZM253.175 408.284h1.104l1.354 5.133h.024l1.464-5.133h1.03l-1.894 6.057h-1.283ZM260.158 414.341h-.984v-6.057h.984zm-1.043-8.659h1.103v1.056h-1.103zM265.028 410.228c.024-.996-.468-1.26-.839-1.26-.756 0-1.272.36-1.272 2.015 0 1.967.252 2.675 1.272 2.675.227 0 .911-.241.875-1.331h1.031c.037 1.703-1.235 2.134-1.906 2.134-1.284 0-2.303-.383-2.303-3.058 0-1.776.204-3.238 2.303-3.238 1.211 0 1.92.708 1.86 2.063ZM271.184 410.887c0-1.763-.492-1.98-1.21-1.98-.625 0-1.14.3-1.153 1.98zm-2.363.743c0 1.692.456 2.028 1.224 2.028.671 0 1.02-.541 1.055-1.152h1.08c-.013 1.343-.84 1.955-2.11 1.955-1.284 0-2.304-.384-2.304-3.058 0-1.776.204-3.24 2.303-3.24 1.727 0 2.158.949 2.158 2.952v.515zM274.894 414.341h-1.127v-1.247h1.127zM125.2 432.237h1.21c.456 0 1.536-.12 1.536-1.476 0-1.318-.984-1.45-1.224-1.45H125.2Zm-1.105 4.773v-8.659h2.567c1.163 0 2.411.432 2.411 2.471 0 1.967-1.535 2.375-2.423 2.375h-1.45v3.813zM133.754 430.954h.983v4.797c0 .42.025.84.06 1.26h-1.043v-.732h-.036c-.323.552-.9.852-1.535.852-1.055 0-1.631-.529-1.631-1.56v-4.617h.983v4.197c0 .733.336 1.224 1.032 1.224.527 0 1.187-.396 1.187-1.403zM139.802 437.01v-4.196c0-.65-.228-1.176-1.067-1.176-1.08 0-1.236.96-1.236 1.787v3.586h-.984v-4.798c0-.42-.024-.84-.059-1.26h1.043v.78h.048c.384-.683.84-.9 1.62-.9 1.295 0 1.618.78 1.618 1.98v4.198ZM145.682 432.898c.024-.996-.468-1.26-.839-1.26-.756 0-1.272.36-1.272 2.015 0 1.967.252 2.675 1.272 2.675.227 0 .911-.241.875-1.331h1.031c.037 1.703-1.235 2.134-1.906 2.134-1.284 0-2.303-.383-2.303-3.058 0-1.776.204-3.238 2.303-3.238 1.211 0 1.92.708 1.86 2.063ZM148.624 430.954v-1.163l.983-.444v1.607h1.32v.743h-1.32v3.706c0 .384 0 .876.9.876.072 0 .228-.024.444-.048v.755c-.324.025-.648.097-.972.097-.936 0-1.355-.384-1.355-1.08v-4.306h-.996v-.743ZM155.09 430.954h.983v4.797c0 .42.025.84.06 1.26h-1.043v-.732h-.036c-.323.552-.9.852-1.535.852-1.055 0-1.631-.529-1.631-1.56v-4.617h.983v4.197c0 .733.336 1.224 1.032 1.224.527 0 1.187-.396 1.187-1.403zM158.751 435.212c0 .588.288 1.115.947 1.115.6 0 1.344-.372 1.248-2.327-.936.013-2.195-.071-2.195 1.212m2.22.923h-.025c-.3.696-.768.996-1.524.996-1.283 0-1.654-.828-1.654-1.991 0-1.835 1.798-1.92 3.178-1.883.024-.804.035-1.68-1.02-1.68-.659 0-1.006.445-.946 1.08h-1.069c.048-1.355.768-1.823 2.051-1.823 1.56 0 1.967.804 1.967 1.823v2.914c0 .48.048.972.12 1.44h-1.079ZM164.812 437.011h-.984v-8.659h.984zM170.08 435.212c0 .588.287 1.115.946 1.115.6 0 1.344-.372 1.248-2.327-.936.013-2.195-.071-2.195 1.212m2.22.923h-.025c-.3.696-.768.996-1.524.996-1.283 0-1.654-.828-1.654-1.991 0-1.835 1.798-1.92 3.178-1.883.024-.804.035-1.68-1.02-1.68-.659 0-1.007.445-.947 1.08h-1.068c.048-1.355.768-1.823 2.051-1.823 1.56 0 1.967.804 1.967 1.823v2.914c0 .48.048.972.12 1.44h-1.079ZM178.466 437.01v-4.196c0-.65-.228-1.176-1.067-1.176-1.08 0-1.236.96-1.236 1.787v3.586h-.983v-4.798c0-.42-.025-.84-.06-1.26h1.043v.78h.048c.384-.683.839-.9 1.619-.9 1.296 0 1.619.78 1.619 1.98v4.198ZM183.242 431.638c-1.055 0-1.199.84-1.199 2.459 0 .91 0 2.23 1.235 2.23 1.104 0 1.104-1.367 1.104-2.59 0-.804-.049-2.1-1.14-2.1m1.14-3.285h.983v8.659h-.983v-.72h-.024c-.336.564-.756.84-1.392.84-.97 0-1.954-.384-1.954-3.047 0-1.51.047-3.25 2.002-3.25.576 0 .996.252 1.332.732h.036ZM191.03 432.07h1.656c.792 0 1.176-.685 1.176-1.44 0-.624-.312-1.32-1.164-1.32h-1.667Zm0 .96v3.98h-1.103v-8.659h2.987c1.535 0 2.075 1.08 2.075 2.16 0 1.018-.564 1.798-1.583 1.978v.024c.995.156 1.355.492 1.415 2.231.012.372.132 1.726.3 2.266h-1.152c-.312-.599-.24-1.727-.335-2.878-.084-1.055-.936-1.103-1.308-1.103ZM199.837 433.557c0-1.763-.492-1.98-1.21-1.98-.625 0-1.14.3-1.153 1.98zm-2.363.743c0 1.692.456 2.028 1.224 2.028.671 0 1.02-.541 1.055-1.152h1.08c-.013 1.343-.84 1.955-2.11 1.955-1.284 0-2.304-.384-2.304-3.058 0-1.776.204-3.24 2.303-3.24 1.727 0 2.158.949 2.158 2.952v.515zM203.475 437.011h-.983v-8.659h.983zM206.139 437.011h-.983v-6.057h.983zm-1.043-8.659h1.103v1.056h-1.103ZM208.743 435.212c0 .588.288 1.115.947 1.115.6 0 1.344-.372 1.248-2.327-.936.013-2.195-.071-2.195 1.212m2.219.923h-.024c-.3.696-.768.996-1.524.996-1.283 0-1.654-.828-1.654-1.991 0-1.835 1.798-1.92 3.178-1.883.024-.804.035-1.68-1.02-1.68-.66 0-1.007.445-.947 1.08h-1.068c.048-1.355.768-1.823 2.05-1.823 1.56 0 1.968.804 1.968 1.823v2.914c0 .48.048.972.12 1.44h-1.08ZM216.014 436.327c1.235 0 1.235-1.319 1.235-2.23 0-1.62-.143-2.459-1.2-2.459-1.09 0-1.138 1.294-1.138 2.098 0 .924-.108 2.591 1.103 2.591m-1.103.684h-.984v-8.66h.984v3.214h.036c.336-.479.755-.73 1.33-.73 1.956 0 2.004 1.738 2.004 3.25 0 2.662-.984 3.046-1.955 3.046-.636 0-1.056-.277-1.391-.84h-.024zM220.803 437.011h-.984v-8.659h.984zM225.83 433.557c0-1.763-.493-1.98-1.212-1.98-.624 0-1.14.3-1.15 1.98zm-2.363.743c0 1.692.455 2.028 1.223 2.028.671 0 1.02-.541 1.055-1.152h1.08c-.013 1.343-.84 1.955-2.11 1.955-1.284 0-2.304-.384-2.304-3.058 0-1.776.204-3.24 2.303-3.24 1.727 0 2.158.949 2.158 2.952v.515zM232.13 434.433v.25c0 1.177.744 1.549 1.452 1.549.875 0 1.547-.372 1.547-1.403 0-1.92-3.886-1.704-3.886-4.306 0-1.535 1.09-2.351 2.542-2.351 1.583 0 2.47.768 2.399 2.53h-1.151c.012-.947-.288-1.571-1.332-1.571-.66 0-1.331.336-1.331 1.272 0 1.907 3.886 1.63 3.886 4.378 0 1.822-1.26 2.41-2.687 2.41-2.554.024-2.554-1.931-2.53-2.758zM241.009 432.898c.024-.996-.468-1.26-.84-1.26-.755 0-1.271.36-1.271 2.015 0 1.967.252 2.675 1.272 2.675.227 0 .91-.241.875-1.331h1.03c.038 1.703-1.234 2.134-1.905 2.134-1.284 0-2.303-.383-2.303-3.058 0-1.776.204-3.238 2.303-3.238 1.21 0 1.919.708 1.859 2.063ZM247.129 437.01v-4.101c0-.744-.24-1.271-1.08-1.271-.983 0-1.235.792-1.235 1.81v3.563h-.983v-8.66h.983v3.383h.048c.396-.707.85-.9 1.643-.9 1.032 0 1.607.516 1.607 1.883v4.294ZM253.165 433.557c0-1.763-.492-1.98-1.211-1.98-.624 0-1.14.3-1.152 1.98zm-2.363.743c0 1.692.456 2.028 1.224 2.028.67 0 1.019-.541 1.055-1.152h1.08c-.013 1.343-.84 1.955-2.111 1.955-1.283 0-2.303-.384-2.303-3.058 0-1.776.204-3.24 2.303-3.24 1.727 0 2.158.949 2.158 2.952v.515zM257.905 431.638c-1.055 0-1.199.84-1.199 2.459 0 .91 0 2.23 1.235 2.23 1.104 0 1.104-1.367 1.104-2.59 0-.804-.049-2.1-1.14-2.1m1.14-3.285h.983v8.659h-.983v-.72h-.024c-.336.564-.756.84-1.392.84-.97 0-1.954-.384-1.954-3.047 0-1.51.047-3.25 2.002-3.25.576 0 .996.252 1.332.732h.036ZM265.08 430.954h.985v4.797c0 .42.024.84.059 1.26h-1.043v-.732h-.036c-.324.552-.9.852-1.535.852-1.055 0-1.631-.529-1.631-1.56v-4.617h.983v4.197c0 .733.336 1.224 1.032 1.224.527 0 1.187-.396 1.187-1.403zM268.802 437.011h-.983v-8.659h.983zM273.829 433.557c0-1.763-.492-1.98-1.211-1.98-.624 0-1.14.3-1.152 1.98zm-2.363.743c0 1.692.456 2.028 1.224 2.028.67 0 1.019-.541 1.055-1.152h1.08c-.013 1.343-.84 1.955-2.111 1.955-1.283 0-2.303-.384-2.303-3.058 0-1.776.204-3.24 2.303-3.24 1.727 0 2.158.949 2.158 2.952v.515zM82.57 449.237h1.21c.456 0 1.536-.12 1.536-1.476 0-1.318-.984-1.45-1.224-1.45H82.57Zm-1.105 4.773v-8.659h2.567c1.163 0 2.411.432 2.411 2.471 0 1.967-1.535 2.375-2.423 2.375h-1.45v3.813zM91.292 450.652c0-1.655-.516-2.015-1.271-2.015-.756 0-1.271.36-1.271 2.015 0 1.967.251 2.675 1.271 2.675 1.019 0 1.271-.708 1.271-2.675m-3.574.42c0-1.775.204-3.238 2.303-3.238 2.099 0 2.303 1.463 2.303 3.238 0 2.675-1.02 3.06-2.303 3.06-1.284 0-2.303-.385-2.303-3.06M93.13 447.954h1.091l1.092 5.217h.024l1.343-5.217h1.391l1.236 5.217h.024l1.2-5.217h1.042l-1.619 6.057h-1.319l-1.296-5.158h-.023l-1.355 5.158h-1.32zM105.872 450.557c0-1.763-.492-1.98-1.21-1.98-.625 0-1.14.3-1.152 1.98zm-2.362.743c0 1.692.455 2.028 1.223 2.028.671 0 1.02-.541 1.055-1.152h1.08c-.013 1.343-.84 1.955-2.11 1.955-1.284 0-2.304-.384-2.304-3.058 0-1.776.204-3.24 2.303-3.24 1.727 0 2.158.949 2.158 2.952v.515zM109.57 448.865h.023c.408-.923.912-1.03 1.871-1.03v1.018c-.084-.01-.18-.023-.264-.036a1.802 1.802 0 0 0-.264-.023c-1.09 0-1.367.827-1.367 1.642v3.575h-.983v-6.057h.983ZM112.726 447.954v-1.176c0-1.222.863-1.463 1.739-1.463.204 0 .324.012.468.036v.708c-1.044-.072-1.224.372-1.224.864v1.031h1.224v.743h-1.224v5.314h-.983v-5.314h-.936v-.743ZM119.12 447.954h.983v4.797c0 .42.025.84.06 1.26h-1.043v-.732h-.036c-.323.552-.9.852-1.535.852-1.055 0-1.63-.529-1.63-1.56v-4.617h.982v4.197c0 .733.336 1.224 1.032 1.224.527 0 1.187-.396 1.187-1.403zM122.842 454.011h-.984v-8.659h.984zM131.13 447.738c.013-.492-.023-.983-.25-1.26-.228-.275-.744-.37-.972-.37-.912 0-1.272.551-1.307.67-.036.097-.252.313-.252 1.8v2.314c0 2.123.696 2.375 1.547 2.375.336 0 1.355-.12 1.367-1.81h1.139c.048 2.733-1.882 2.733-2.446 2.733-1.08 0-2.735-.07-2.735-3.43v-2.447c0-2.446 1.08-3.14 2.783-3.14 1.715 0 2.375.886 2.267 2.565ZM137.288 450.652c0-1.655-.516-2.015-1.271-2.015-.756 0-1.271.36-1.271 2.015 0 1.967.25 2.675 1.27 2.675s1.272-.708 1.272-2.675m-3.574.42c0-1.775.204-3.238 2.303-3.238 2.099 0 2.303 1.463 2.303 3.238 0 2.675-1.02 3.06-2.303 3.06-1.284 0-2.303-.385-2.303-3.06M142.856 454.01v-4.196c0-.613-.168-1.176-.959-1.176-.3 0-.708.18-.852.408-.18.3-.228.659-.228.887v4.078h-.983v-4.798c0-.42-.024-.84-.061-1.26h1.044v.757h.024c.288-.647.804-.876 1.511-.876.552 0 1.188.229 1.416.78.336-.648.887-.78 1.439-.78.635 0 1.655.145 1.655 1.572v4.605h-.984v-4.197c0-.613-.168-1.176-.959-1.176-.372 0-.48.012-.744.227-.288.24-.336.84-.336 1.068v4.078ZM151.951 450.88c0-.911 0-2.242-1.235-2.242-1.21 0-1.103 1.679-1.103 2.602 0 .804.047 2.087 1.14 2.087 1.054 0 1.198-.827 1.198-2.446m-2.338-2.207h.024c.335-.564.755-.84 1.391-.84.971 0 1.955.384 1.955 3.047 0 1.51-.049 3.25-2.003 3.25-.576 0-.996-.252-1.332-.731h-.035v2.902h-.984v-8.348h.984zM157.783 447.954h.983v4.797c0 .42.025.84.06 1.26h-1.043v-.732h-.036c-.323.552-.9.852-1.535.852-1.055 0-1.63-.529-1.63-1.56v-4.617h.982v4.197c0 .733.336 1.224 1.032 1.224.527 0 1.187-.396 1.187-1.403zM160.653 447.954v-1.163l.983-.444v1.607h1.32v.743h-1.32v3.706c0 .384 0 .876.9.876.072 0 .228-.024.444-.048v.755c-.324.025-.648.097-.972.097-.936 0-1.355-.384-1.355-1.08v-4.306h-.996v-.743ZM167.203 450.557c0-1.763-.492-1.98-1.21-1.98-.625 0-1.14.3-1.152 1.98zm-2.362.743c0 1.692.455 2.028 1.223 2.028.671 0 1.02-.541 1.055-1.152h1.08c-.013 1.343-.84 1.955-2.11 1.955-1.284 0-2.304-.384-2.304-3.058 0-1.776.204-3.24 2.303-3.24 1.727 0 2.158.949 2.158 2.952v.515zM170.9 448.865h.024c.408-.923.912-1.03 1.871-1.03v1.018c-.084-.01-.18-.023-.264-.036a1.802 1.802 0 0 0-.264-.023c-1.09 0-1.367.827-1.367 1.642v3.575h-.983v-6.057h.983ZM177.501 451.433v.25c0 1.177.743 1.549 1.451 1.549.876 0 1.547-.372 1.547-1.403 0-1.92-3.886-1.704-3.886-4.306 0-1.535 1.092-2.351 2.543-2.351 1.583 0 2.47.768 2.399 2.53h-1.152c.012-.947-.288-1.571-1.331-1.571-.66 0-1.331.336-1.331 1.272 0 1.907 3.885 1.63 3.885 4.378 0 1.822-1.259 2.41-2.686 2.41-2.555.024-2.555-1.931-2.531-2.758ZM185.036 452.884h.024l1.451-4.93h1.067l-2.746 8.348h-1.019l.683-2.291-2.05-6.057h1.14zM190.328 454.13c-1.307 0-2.123-.575-2.087-1.966h1.116c0 .348.012 1.163 1.007 1.163.588 0 1.044-.3 1.044-.924 0-1.08-3.023-1.103-3.023-2.914 0-.635.384-1.655 2.087-1.655 1.08 0 2.003.516 1.919 1.715H191.3c.01-.636-.324-.971-.948-.971-.527 0-.935.287-.935.816 0 1.067 3.022 1.043 3.022 2.889 0 1.332-.911 1.848-2.111 1.848M193.977 447.954v-1.163l.983-.444v1.607h1.32v.743h-1.32v3.706c0 .384 0 .876.9.876.072 0 .228-.024.444-.048v.755c-.324.025-.648.097-.972.097-.936 0-1.355-.384-1.355-1.08v-4.306h-.996v-.743ZM200.527 450.557c0-1.763-.492-1.98-1.211-1.98-.624 0-1.14.3-1.152 1.98zm-2.363.743c0 1.692.456 2.028 1.224 2.028.67 0 1.019-.541 1.055-1.152h1.08c-.013 1.343-.84 1.955-2.111 1.955-1.283 0-2.303-.384-2.303-3.058 0-1.776.204-3.24 2.303-3.24 1.727 0 2.158.949 2.158 2.952v.515zM206.18 454.01v-4.196c0-.613-.169-1.176-.96-1.176-.3 0-.708.18-.852.408-.18.3-.228.659-.228.887v4.078h-.983v-4.798c0-.42-.024-.84-.06-1.26h1.043v.757h.024c.288-.647.804-.876 1.511-.876.552 0 1.188.229 1.416.78.336-.648.887-.78 1.44-.78.634 0 1.654.145 1.654 1.572v4.605h-.984v-4.197c0-.613-.168-1.176-.959-1.176-.372 0-.48.012-.744.227-.288.24-.336.84-.336 1.068v4.078ZM215.432 452.212c0 .588.288 1.115.947 1.115.6 0 1.344-.372 1.248-2.327-.936.013-2.195-.071-2.195 1.212m2.22.923h-.025c-.3.696-.768.996-1.524.996-1.283 0-1.654-.828-1.654-1.991 0-1.835 1.798-1.92 3.178-1.883.024-.804.035-1.68-1.02-1.68-.659 0-1.007.445-.947 1.08h-1.068c.048-1.355.768-1.823 2.051-1.823 1.56 0 1.967.804 1.967 1.823v2.914c0 .48.048.972.12 1.44h-1.079ZM223.819 454.01v-4.196c0-.65-.228-1.176-1.067-1.176-1.08 0-1.236.96-1.236 1.787v3.586h-.984v-4.798c0-.42-.024-.84-.06-1.26h1.044v.78h.048c.384-.683.839-.9 1.619-.9 1.296 0 1.619.78 1.619 1.98v4.198ZM228.595 448.638c-1.055 0-1.199.84-1.199 2.459 0 .91 0 2.23 1.235 2.23 1.104 0 1.104-1.367 1.104-2.59 0-.804-.049-2.1-1.14-2.1m1.14-3.285h.983v8.659h-.983v-.72h-.024c-.336.564-.756.84-1.392.84-.97 0-1.954-.384-1.954-3.047 0-1.51.047-3.25 2.002-3.25.576 0 .996.252 1.332.732h.036ZM241.3 445.352v8.659h-1.51l-3.418-7.508h-.024v7.508h-.984v-8.66h1.559l3.37 7.413h.025v-7.412ZM246.522 450.557c0-1.763-.492-1.98-1.211-1.98-.624 0-1.14.3-1.152 1.98zm-2.363.743c0 1.692.456 2.028 1.224 2.028.671 0 1.019-.541 1.055-1.152h1.08c-.013 1.343-.84 1.955-2.111 1.955-1.283 0-2.303-.384-2.303-3.058 0-1.776.204-3.24 2.303-3.24 1.727 0 2.158.949 2.158 2.952v.515zM249.308 447.954v-1.163l.983-.444v1.607h1.32v.743h-1.32v3.706c0 .384 0 .876.9.876.072 0 .228-.024.444-.048v.755c-.325.025-.648.097-.972.097-.936 0-1.355-.384-1.355-1.08v-4.306h-.996v-.743ZM251.78 447.954h1.091l1.092 5.217h.024l1.343-5.217h1.391l1.236 5.217h.024l1.2-5.217h1.042l-1.619 6.057h-1.319l-1.295-5.158h-.024l-1.355 5.158h-1.32zM264.606 450.652c0-1.655-.516-2.015-1.271-2.015-.756 0-1.271.36-1.271 2.015 0 1.967.251 2.675 1.271 2.675 1.019 0 1.271-.708 1.271-2.675m-3.574.42c0-1.775.204-3.238 2.303-3.238 2.099 0 2.303 1.463 2.303 3.238 0 2.675-1.02 3.06-2.303 3.06-1.284 0-2.303-.385-2.303-3.06M268.22 448.865h.023c.408-.923.912-1.03 1.871-1.03v1.018c-.084-.01-.18-.023-.264-.036a1.802 1.802 0 0 0-.264-.023c-1.09 0-1.367.827-1.367 1.642v3.575h-.983v-6.057h.983ZM272.18 454.01h-.985v-8.658h.984v5.217h.024l1.847-2.615h1.2l-2.016 2.603 2.375 3.454h-1.247l-2.159-3.395h-.024ZM83.394 471.012v-8.66h1.104v3.743h3.034v-3.742h1.103v8.659h-1.103v-3.958h-3.034v3.958ZM91.506 471.012h-.984v-6.057h.984Zm-1.044-8.659h1.103v1.056h-1.103ZM95.26 465.65c-1.115 0-1.15 1.344-1.15 2.147 0 1.943.443 2.4 1.175 2.4 1.187 0 1.15-1.404 1.15-2.244 0-.9.06-2.303-1.174-2.303m1.15-.695h.985v6.668c0 1.355-.9 1.68-2.231 1.68-1.008 0-1.92-.505-1.835-1.62h1.103c.012.564.384.875.924.875.683 0 1.055-.42 1.055-1.043v-1.26h-.036c-.252.481-.803.756-1.331.756-1.643 0-1.967-1.415-1.967-3.214 0-2.783 1.403-2.962 1.895-2.962.636 0 1.14.276 1.415.863h.024zM102.496 471.012v-4.102c0-.744-.24-1.271-1.08-1.271-.983 0-1.235.792-1.235 1.81v3.563h-.983v-8.66h.983v3.383h.048c.396-.707.851-.9 1.643-.9 1.032 0 1.607.516 1.607 1.883v4.294ZM106.169 471.012h-.983v-8.659h.983zM109.697 469.885h.024l1.45-4.93h1.068l-2.746 8.348h-1.02l.684-2.291-2.05-6.057h1.139zM120.183 467.894v-2.927c0-1.81-1.248-1.871-1.595-1.871-.348 0-1.595.06-1.595 1.87v2.928c0 1.439.312 2.23 1.607 2.23s1.583-.791 1.583-2.23m-4.318-2.891c0-1.726.888-2.83 2.723-2.83s2.722 1.104 2.722 2.83v2.843c0 .623-.263 2.158-.755 2.374l.024.025c.156-.048.576-.192.755-.192h.864v.959H118.6c-1.175 0-2.735-.072-2.735-3.166zM126.435 464.955h.984v4.797c0 .42.024.84.06 1.26h-1.044v-.732h-.036c-.324.552-.899.852-1.535.852-1.055 0-1.63-.529-1.63-1.56v-4.617h.982v4.197c0 .733.336 1.224 1.032 1.224.527 0 1.187-.396 1.187-1.403zM130.097 469.213c0 .588.288 1.115.947 1.115.6 0 1.344-.372 1.248-2.327-.936.013-2.195-.071-2.195 1.212m2.219.923h-.024c-.3.696-.768.996-1.524.996-1.283 0-1.654-.828-1.654-1.991 0-1.835 1.798-1.92 3.178-1.883.024-.804.035-1.68-1.02-1.68-.66 0-1.007.445-.947 1.08h-1.068c.048-1.355.768-1.823 2.05-1.823 1.56 0 1.968.804 1.968 1.823v2.914c0 .48.048.972.12 1.44h-1.08ZM136.156 471.012h-.983v-8.659h.983zM138.82 471.012h-.983v-6.057h.983zm-1.043-8.659h1.103v1.056h-1.103ZM140.705 464.955v-1.176c0-1.222.863-1.463 1.739-1.463.204 0 .324.012.468.036v.708c-1.043-.072-1.224.372-1.224.864v1.031h1.224v.743h-1.224v5.314h-.983v-5.314h-.936v-.743ZM144.82 471.012h-.984v-6.057h.984Zm-1.043-8.659h1.103v1.056h-1.103ZM149.847 467.558c0-1.763-.492-1.98-1.211-1.98-.624 0-1.14.3-1.151 1.98zm-2.362.743c0 1.692.455 2.028 1.223 2.028.67 0 1.019-.541 1.055-1.152h1.08c-.013 1.343-.84 1.955-2.111 1.955-1.283 0-2.303-.384-2.303-3.058 0-1.776.204-3.24 2.303-3.24 1.727 0 2.158.949 2.158 2.952v.515zM154.587 465.639c-1.055 0-1.199.84-1.199 2.459 0 .91 0 2.23 1.235 2.23 1.104 0 1.104-1.367 1.104-2.59 0-.804-.049-2.1-1.14-2.1m1.14-3.285h.983v8.659h-.983v-.72h-.024c-.336.564-.756.84-1.392.84-.97 0-1.954-.384-1.954-3.047 0-1.51.047-3.25 2.002-3.25.576 0 .996.252 1.332.732h.036ZM162.148 468.434v.25c0 1.177.743 1.549 1.451 1.549.876 0 1.547-.372 1.547-1.403 0-1.92-3.886-1.704-3.886-4.306 0-1.535 1.092-2.351 2.543-2.351 1.583 0 2.47.768 2.4 2.53h-1.153c.012-.947-.288-1.571-1.33-1.571-.66 0-1.332.336-1.332 1.272 0 1.907 3.885 1.63 3.885 4.378 0 1.822-1.259 2.41-2.686 2.41-2.555.024-2.555-1.931-2.53-2.758ZM167.969 464.955v-1.163l.983-.444v1.607h1.32v.743h-1.32v3.706c0 .384 0 .876.9.876.072 0 .228-.024.444-.048v.755c-.324.025-.648.097-.972.097-.936 0-1.355-.384-1.355-1.08v-4.306h-.996v-.743ZM172.096 469.213c0 .588.288 1.115.947 1.115.6 0 1.344-.372 1.248-2.327-.936.013-2.195-.071-2.195 1.212m2.22.923h-.025c-.3.696-.768.996-1.524.996-1.283 0-1.654-.828-1.654-1.991 0-1.835 1.798-1.92 3.178-1.883.024-.804.035-1.68-1.02-1.68-.659 0-1.007.445-.947 1.08h-1.068c.048-1.355.768-1.823 2.051-1.823 1.56 0 1.967.804 1.967 1.823v2.914c0 .48.048.972.12 1.44h-1.079ZM177.376 464.955v-1.176c0-1.222.863-1.463 1.74-1.463.203 0 .323.012.467.036v.708c-1.043-.072-1.224.372-1.224.864v1.031h1.224v.743h-1.224v5.314h-.983v-5.314h-.936v-.743ZM180.712 464.955v-1.176c0-1.222.863-1.463 1.74-1.463.203 0 .323.012.467.036v.708c-1.043-.072-1.224.372-1.224.864v1.031h1.224v.743h-1.224v5.314h-.983v-5.314h-.936v-.743ZM185.655 471.132c-1.307 0-2.123-.576-2.087-1.967h1.116c0 .348.012 1.163 1.007 1.163.588 0 1.044-.3 1.044-.924 0-1.08-3.023-1.103-3.023-2.914 0-.635.384-1.655 2.087-1.655 1.08 0 2.003.516 1.92 1.715h-1.092c.011-.636-.324-.971-.948-.971-.527 0-.935.287-.935.816 0 1.067 3.022 1.043 3.022 2.89 0 1.33-.91 1.847-2.11 1.847M192.76 469.213c0 .588.288 1.115.947 1.115.6 0 1.344-.372 1.248-2.327-.936.013-2.195-.071-2.195 1.212m2.219.923h-.024c-.3.696-.768.996-1.524.996-1.283 0-1.654-.828-1.654-1.991 0-1.835 1.798-1.92 3.178-1.883.024-.804.035-1.68-1.02-1.68-.66 0-1.007.445-.947 1.08h-1.068c.048-1.355.768-1.823 2.05-1.823 1.56 0 1.968.804 1.968 1.823v2.914c0 .48.048.972.12 1.44h-1.08ZM201.147 471.012v-4.197c0-.65-.228-1.176-1.067-1.176-1.08 0-1.237.959-1.237 1.787v3.586h-.982v-4.797c0-.42-.025-.84-.06-1.26h1.043v.78h.048c.384-.684.839-.9 1.619-.9 1.296 0 1.619.78 1.619 1.98v4.197ZM205.923 465.639c-1.055 0-1.2.84-1.2 2.459 0 .91 0 2.23 1.236 2.23 1.104 0 1.104-1.367 1.104-2.59 0-.804-.05-2.1-1.14-2.1m1.14-3.285h.983v8.659h-.983v-.72h-.024c-.336.564-.756.84-1.392.84-.971 0-1.954-.384-1.954-3.047 0-1.51.047-3.25 2.002-3.25.576 0 .996.252 1.332.732h.036ZM213.675 471.012h-1.031v-8.66h1.787l2.182 7.268h.024l2.207-7.267h1.823v8.659h-1.103v-7.7h-.024l-2.423 7.7h-1.043l-2.375-7.7h-.024ZM223.42 469.213c0 .588.287 1.115.946 1.115.6 0 1.344-.372 1.248-2.327-.936.013-2.195-.071-2.195 1.212m2.22.923h-.025c-.3.696-.768.996-1.524.996-1.283 0-1.654-.828-1.654-1.991 0-1.835 1.798-1.92 3.178-1.883.024-.804.035-1.68-1.02-1.68-.659 0-1.007.445-.947 1.08h-1.068c.048-1.355.768-1.823 2.051-1.823 1.56 0 1.967.804 1.967 1.823v2.914c0 .48.048.972.12 1.44h-1.079ZM231.806 471.012v-4.197c0-.65-.228-1.176-1.067-1.176-1.08 0-1.236.959-1.236 1.787v3.586h-.984v-4.797c0-.42-.024-.84-.059-1.26h1.043v.78h.048c.384-.684.84-.9 1.62-.9 1.295 0 1.618.78 1.618 1.98v4.197ZM235.42 469.213c0 .588.287 1.115.946 1.115.6 0 1.344-.372 1.248-2.327-.936.013-2.195-.071-2.195 1.212m2.22.923h-.025c-.3.696-.768.996-1.524.996-1.283 0-1.654-.828-1.654-1.991 0-1.835 1.798-1.92 3.178-1.883.024-.804.035-1.68-1.02-1.68-.659 0-1.007.445-.947 1.08h-1.068c.048-1.355.768-1.823 2.051-1.823 1.56 0 1.967.804 1.967 1.823v2.914c0 .48.048.972.12 1.44h-1.079ZM242.57 465.65c-1.115 0-1.15 1.344-1.15 2.147 0 1.943.443 2.4 1.175 2.4 1.187 0 1.15-1.404 1.15-2.244 0-.9.06-2.303-1.174-2.303m1.15-.695h.985v6.668c0 1.355-.9 1.68-2.231 1.68-1.008 0-1.92-.505-1.835-1.62h1.103c.012.564.384.875.924.875.683 0 1.055-.42 1.055-1.043v-1.26h-.036c-.252.481-.803.756-1.331.756-1.643 0-1.967-1.415-1.967-3.214 0-2.783 1.403-2.962 1.895-2.962.636 0 1.14.276 1.415.863h.024zM249.842 467.558c0-1.763-.492-1.98-1.211-1.98-.624 0-1.14.3-1.151 1.98zm-2.362.743c0 1.692.455 2.028 1.223 2.028.67 0 1.019-.541 1.055-1.152h1.08c-.013 1.343-.84 1.955-2.111 1.955-1.283 0-2.303-.384-2.303-3.058 0-1.776.204-3.24 2.303-3.24 1.727 0 2.158.949 2.158 2.952v.515zM255.494 471.012v-4.197c0-.613-.168-1.176-.959-1.176-.3 0-.708.18-.852.408-.18.3-.228.659-.228.887v4.078h-.983v-4.797c0-.42-.024-.84-.06-1.26h1.043v.756h.024c.288-.648.804-.876 1.511-.876.552 0 1.188.228 1.416.78.335-.648.887-.78 1.44-.78.634 0 1.654.145 1.654 1.572v4.605h-.984v-4.197c0-.613-.168-1.176-.959-1.176-.372 0-.48.012-.744.227-.288.24-.336.84-.336 1.068v4.078ZM264.506 467.558c0-1.763-.492-1.98-1.211-1.98-.624 0-1.14.3-1.151 1.98zm-2.362.743c0 1.692.455 2.028 1.223 2.028.67 0 1.019-.541 1.055-1.152h1.08c-.013 1.343-.84 1.955-2.111 1.955-1.283 0-2.303-.384-2.303-3.058 0-1.776.204-3.24 2.303-3.24 1.727 0 2.158.949 2.158 2.952v.515zM270.47 471.012v-4.197c0-.65-.228-1.176-1.067-1.176-1.08 0-1.236.959-1.236 1.787v3.586h-.984v-4.797c0-.42-.024-.84-.059-1.26h1.043v.78h.048c.384-.684.84-.9 1.62-.9 1.295 0 1.618.78 1.618 1.98v4.197ZM273.292 464.955v-1.163l.983-.444v1.607h1.32v.743h-1.32v3.706c0 .384 0 .876.9.876.072 0 .228-.024.444-.048v.755c-.324.025-.648.097-.972.097-.936 0-1.355-.384-1.355-1.08v-4.306h-.996v-.743Z"/>
        <path fill="#2069aa" d="M28.545 31.191c-.033-.091-.023-.169.03-.234a.357.357 0 0 1 .195-.108.332.332 0 0 1 .224.02.232.232 0 0 1 .156.156l1.33 4.102 1.2-4.034c.052-.169.153-.254.303-.254.156 0 .26.085.312.254l1.201 4.043 1.328-4.111a.211.211 0 0 1 .147-.156.358.358 0 0 1 .234-.02c.085.02.15.055.195.108.053.065.065.143.04.234l-1.592 4.854c-.065.24-.182.361-.352.361-.169 0-.283-.121-.342-.361l-1.162-4.014-1.162 4.014c-.065.24-.182.361-.35.361-.17 0-.285-.121-.343-.361zM36.145 31.191c-.033-.091-.023-.169.03-.234a.357.357 0 0 1 .196-.108.332.332 0 0 1 .223.02.232.232 0 0 1 .156.156l1.33 4.102 1.2-4.034c.052-.169.153-.254.303-.254.156 0 .26.085.312.254l1.201 4.043 1.328-4.111a.211.211 0 0 1 .147-.156.358.358 0 0 1 .234-.02c.085.02.15.055.196.108.053.065.065.143.04.234l-1.593 4.854c-.065.24-.182.361-.352.361-.168 0-.282-.121-.341-.361l-1.163-4.014-1.162 4.014c-.065.24-.181.361-.35.361-.17 0-.285-.121-.343-.361zM43.746 31.191c-.033-.091-.023-.169.029-.234a.357.357 0 0 1 .196-.108.332.332 0 0 1 .224.02.232.232 0 0 1 .156.156l1.329 4.102 1.2-4.034c.053-.169.154-.254.304-.254.156 0 .26.085.312.254l1.2 4.043 1.329-4.111a.211.211 0 0 1 .147-.156.358.358 0 0 1 .234-.02c.085.02.15.055.195.108.053.065.065.143.04.234l-1.592 4.854c-.065.24-.182.361-.352.361-.17 0-.283-.121-.342-.361l-1.162-4.014-1.162 4.014c-.065.24-.182.361-.351.361-.17 0-.284-.121-.342-.361zM53.21 35.468a.572.572 0 0 1 .137.391.546.546 0 0 1-.137.371.484.484 0 0 1-.39.175.493.493 0 0 1-.4-.175.574.574 0 0 1-.128-.37c0-.158.043-.288.127-.392a.506.506 0 0 1 .4-.166c.163 0 .293.055.391.166M55.527 28.964a.313.313 0 0 1 .215-.078.3.3 0 0 1 .205.078c.065.06.098.14.098.244v4.307l2.656-2.627a.344.344 0 0 1 .234-.098.346.346 0 0 1 .205.088.284.284 0 0 1 .078.195.35.35 0 0 1-.127.235l-1.689 1.67 1.953 2.91a.338.338 0 0 1 .068.254.279.279 0 0 1-.117.195.323.323 0 0 1-.224.068.33.33 0 0 1-.225-.136l-1.875-2.88-.937.927v1.767a.302.302 0 0 1-.098.235.283.283 0 0 1-.205.087.308.308 0 0 1-.215-.078.3.3 0 0 1-.088-.224v-6.895c0-.104.03-.185.088-.244M60.627 30.996a.291.291 0 0 1 .215-.088.28.28 0 0 1 .205.088c.065.059.098.143.098.254v.36c.156-.207.357-.38.605-.516a1.91 1.91 0 0 1 .938-.254c.403 0 .738.097 1.005.293.19.143.342.338.46.586.17-.267.39-.475.663-.625.3-.17.635-.254 1.006-.254.508 0 .915.153 1.221.459.267.267.4.576.4.927v3.877a.3.3 0 0 1-.302.303.31.31 0 0 1-.215-.078.303.303 0 0 1-.088-.225v-3.78c0-.28-.082-.503-.244-.673-.176-.182-.426-.273-.752-.273-.37 0-.674.08-.908.244-.235.156-.446.417-.635.78v3.702a.298.298 0 0 1-.303.303.314.314 0 0 1-.215-.078.307.307 0 0 1-.088-.225v-3.78c0-.28-.08-.503-.244-.673-.182-.182-.429-.273-.742-.273-.345 0-.638.072-.879.215-.24.143-.469.384-.683.722v3.789a.3.3 0 0 1-.303.303.313.313 0 0 1-.215-.078.303.303 0 0 1-.088-.225V31.25c0-.111.03-.195.088-.254M69.605 29.423a.343.343 0 0 1 .215-.068c.084 0 .156.023.215.068.065.052.097.127.097.225v1.357h.8c.17 0 .255.088.255.264 0 .182-.084.273-.254.273h-.802v3.877c0 .117.034.215.099.293a.4.4 0 0 0 .331.147h.352c.092 0 .167.025.225.078a.265.265 0 0 1 .077.195.256.256 0 0 1-.077.186.304.304 0 0 1-.225.087h-.459c-.3 0-.533-.1-.703-.302a.938.938 0 0 1-.235-.645v-3.916h-.526c-.15 0-.225-.09-.225-.273 0-.176.075-.264.225-.264h.527v-1.357c0-.098.029-.173.088-.225M74.656 30.84c.573 0 1.05.136 1.436.41.318.234.53.523.634.868.02.085.004.16-.05.225a.314.314 0 0 1-.194.127.384.384 0 0 1-.244-.02.265.265 0 0 1-.156-.195c-.098-.306-.264-.53-.498-.674-.235-.137-.557-.205-.967-.205-.553 0-.98.231-1.28.693-.266.404-.4.922-.4 1.553 0 .645.134 1.17.4 1.572.294.443.72.665 1.28.665.462 0 .814-.072 1.055-.215.24-.143.42-.385.537-.723a.29.29 0 0 1 .176-.195.391.391 0 0 1 .244-.02c.09.02.156.062.195.127.045.065.049.147.01.244-.196.41-.433.72-.713.928-.371.267-.86.4-1.465.4-.788 0-1.387-.279-1.797-.839-.358-.489-.537-1.133-.537-1.934 0-.775.186-1.419.557-1.934.423-.572 1.015-.859 1.777-.859M79.521 35.468a.572.572 0 0 1 .137.391.546.546 0 0 1-.137.371.484.484 0 0 1-.391.175.493.493 0 0 1-.4-.175.574.574 0 0 1-.127-.37c0-.158.043-.288.127-.392a.506.506 0 0 1 .4-.166c.163 0 .293.055.391.166M83.918 30.84c.573 0 1.051.136 1.436.41.318.234.53.523.634.868.02.085.004.16-.049.225a.314.314 0 0 1-.195.127.384.384 0 0 1-.244-.02.265.265 0 0 1-.156-.195c-.098-.306-.264-.53-.498-.674-.235-.137-.557-.205-.967-.205-.553 0-.98.231-1.279.693-.267.404-.401.922-.401 1.553 0 .645.134 1.17.401 1.572.293.443.719.665 1.279.665.462 0 .814-.072 1.055-.215.24-.143.42-.385.537-.723a.29.29 0 0 1 .176-.195.391.391 0 0 1 .244-.02c.091.02.156.062.195.127.045.065.049.147.01.244-.196.41-.433.72-.713.928-.371.267-.86.4-1.465.4-.788 0-1.387-.279-1.797-.839-.358-.489-.537-1.133-.537-1.934 0-.775.186-1.419.557-1.934.423-.572 1.015-.859 1.777-.859M88.383 32.09c-.28.41-.42.927-.42 1.552 0 .618.14 1.133.42 1.543.326.462.778.693 1.357.693.573 0 1.02-.23 1.338-.693.293-.417.44-.93.44-1.543 0-.625-.147-1.143-.44-1.553-.319-.462-.765-.693-1.338-.693-.579 0-1.03.231-1.357.693m3.164-.37c.391.507.586 1.148.586 1.923 0 .768-.195 1.406-.586 1.914-.436.58-1.039.87-1.807.87-.774 0-1.38-.29-1.816-.87-.384-.508-.576-1.146-.576-1.914 0-.775.192-1.416.576-1.924.436-.573 1.042-.859 1.816-.859.768 0 1.371.286 1.807.86M94.939 35.468a.572.572 0 0 1 .137.391.546.546 0 0 1-.137.371.484.484 0 0 1-.391.175.493.493 0 0 1-.4-.175.574.574 0 0 1-.128-.37c0-.158.044-.288.128-.392a.506.506 0 0 1 .4-.166c.163 0 .293.055.39.166M97.255 28.964a.313.313 0 0 1 .215-.078.3.3 0 0 1 .205.078c.065.06.098.14.098.244v4.307l2.656-2.627a.344.344 0 0 1 .234-.098.346.346 0 0 1 .205.088.284.284 0 0 1 .078.195.35.35 0 0 1-.127.235l-1.689 1.67 1.953 2.91a.338.338 0 0 1 .068.254.279.279 0 0 1-.117.195.323.323 0 0 1-.224.068.33.33 0 0 1-.225-.136l-1.875-2.88-.937.927v1.767a.302.302 0 0 1-.098.235.283.283 0 0 1-.205.087.308.308 0 0 1-.215-.078.3.3 0 0 1-.088-.224v-6.895c0-.104.03-.185.088-.244M102.355 30.986a.343.343 0 0 1 .215-.068c.078 0 .146.019.205.058a.261.261 0 0 1 .098.215v.4c.162-.228.338-.4.527-.517a1.54 1.54 0 0 1 .84-.234c.143 0 .218.097.224.292.007.202-.071.303-.234.303a1.52 1.52 0 0 0-.85.244c-.221.143-.39.342-.507.596v3.809a.301.301 0 0 1-.303.312.313.313 0 0 1-.215-.078.316.316 0 0 1-.088-.234V31.19a.26.26 0 0 1 .088-.205M28.545 42.191c-.033-.091-.023-.169.03-.234a.357.357 0 0 1 .195-.108.332.332 0 0 1 .224.02.232.232 0 0 1 .156.156l1.33 4.102 1.2-4.034c.052-.169.153-.254.303-.254.156 0 .26.085.312.254l1.201 4.043 1.328-4.111a.211.211 0 0 1 .147-.156.358.358 0 0 1 .234-.02c.085.02.15.055.195.108.053.065.065.143.04.234l-1.592 4.854c-.065.24-.182.361-.352.361-.169 0-.283-.121-.342-.361l-1.162-4.014-1.162 4.014c-.065.24-.182.361-.35.361-.17 0-.285-.121-.343-.361zM36.045 42.191c-.033-.091-.023-.169.03-.234a.357.357 0 0 1 .195-.108.332.332 0 0 1 .224.02.232.232 0 0 1 .156.156l1.33 4.102 1.2-4.034c.052-.169.153-.254.303-.254.156 0 .26.085.312.254l1.201 4.043 1.328-4.111a.211.211 0 0 1 .147-.156.358.358 0 0 1 .234-.02c.085.02.15.055.195.108.053.065.065.143.04.234l-1.592 4.854c-.065.24-.182.361-.352.361-.169 0-.283-.121-.342-.361l-1.162-4.014-1.162 4.014c-.065.24-.182.361-.35.361-.17 0-.285-.121-.343-.361zM43.545 42.191c-.033-.091-.023-.169.03-.234a.357.357 0 0 1 .195-.108.332.332 0 0 1 .224.02.232.232 0 0 1 .156.156l1.33 4.102 1.2-4.034c.052-.169.153-.254.303-.254.156 0 .26.085.312.254l1.201 4.043 1.328-4.111a.211.211 0 0 1 .147-.156.358.358 0 0 1 .234-.02c.085.02.15.055.195.108.053.065.065.143.04.234l-1.592 4.854c-.065.24-.182.361-.352.361-.169 0-.283-.121-.342-.361l-1.162-4.014-1.162 4.014c-.065.24-.182.361-.35.361-.17 0-.285-.121-.343-.361zM52.91 46.468a.572.572 0 0 1 .138.391.546.546 0 0 1-.137.371.484.484 0 0 1-.391.175.493.493 0 0 1-.4-.175.574.574 0 0 1-.127-.37c0-.158.043-.288.127-.392a.506.506 0 0 1 .4-.166c.163 0 .293.055.39.166M58.594 44.242a2.492 2.492 0 0 0-.42-1.221c-.299-.43-.69-.644-1.172-.644s-.869.21-1.162.635a2.456 2.456 0 0 0-.42 1.23Zm.107 1.309a.358.358 0 0 1 .245.009.267.267 0 0 1 .166.147.333.333 0 0 1 0 .273c-.189.456-.463.804-.82 1.045-.365.254-.795.38-1.29.38-.697 0-1.25-.286-1.66-.858-.37-.521-.557-1.16-.557-1.914 0-.762.186-1.407.557-1.934.41-.573.963-.86 1.66-.86s1.254.287 1.67.86c.378.527.567 1.172.567 1.934v.156h-3.838c.026.553.166 1.019.42 1.396.293.45.687.674 1.181.674.391 0 .717-.114.977-.342.201-.17.381-.423.537-.761a.362.362 0 0 1 .185-.205M60.801 39.964a.313.313 0 0 1 .215-.078.3.3 0 0 1 .205.078c.065.06.098.14.098.244v4.307l2.656-2.627a.344.344 0 0 1 .234-.098.346.346 0 0 1 .205.088.284.284 0 0 1 .078.195.35.35 0 0 1-.127.235l-1.689 1.67 1.953 2.91a.338.338 0 0 1 .068.254.279.279 0 0 1-.117.195.323.323 0 0 1-.224.068.33.33 0 0 1-.225-.136l-1.875-2.88-.937.927v1.767a.302.302 0 0 1-.098.235.283.283 0 0 1-.205.087.308.308 0 0 1-.215-.078.3.3 0 0 1-.088-.224v-6.895c0-.104.03-.185.088-.244M65.801 41.996a.291.291 0 0 1 .215-.088.28.28 0 0 1 .205.088c.065.059.098.143.098.254v.36c.156-.207.357-.38.605-.516a1.91 1.91 0 0 1 .938-.254c.403 0 .738.097 1.005.293.19.143.342.338.46.586.17-.267.39-.475.663-.625.3-.17.635-.254 1.006-.254.508 0 .915.153 1.221.459.267.267.4.576.4.927v3.877a.3.3 0 0 1-.302.303.31.31 0 0 1-.215-.078.303.303 0 0 1-.088-.225v-3.78c0-.28-.082-.503-.244-.673-.176-.182-.426-.273-.752-.273-.37 0-.674.08-.908.244-.235.156-.446.417-.635.78v3.702a.298.298 0 0 1-.303.303.314.314 0 0 1-.215-.078.307.307 0 0 1-.088-.225v-3.78c0-.28-.08-.503-.244-.673-.182-.182-.429-.273-.742-.273-.345 0-.638.072-.879.215-.24.143-.469.384-.683.722v3.789a.3.3 0 0 1-.303.303.313.313 0 0 1-.215-.078.303.303 0 0 1-.088-.225V42.25c0-.111.03-.195.088-.254M74.678 40.423a.343.343 0 0 1 .215-.068c.084 0 .156.023.215.068.065.052.097.127.097.225v1.357h.801c.17 0 .254.088.254.264 0 .182-.084.273-.254.273h-.8v3.877c0 .117.032.215.097.293a.4.4 0 0 0 .332.147h.352c.091 0 .166.025.224.078a.265.265 0 0 1 .078.195.256.256 0 0 1-.078.186.304.304 0 0 1-.224.087h-.459c-.3 0-.534-.1-.704-.302a.938.938 0 0 1-.234-.645v-3.916h-.527c-.15 0-.225-.09-.225-.273 0-.176.075-.264.225-.264h.527v-1.357c0-.098.03-.173.088-.225M79.63 41.84c.572 0 1.05.136 1.435.41.318.234.53.523.634.868.02.085.004.16-.049.225a.314.314 0 0 1-.195.127.384.384 0 0 1-.244-.02.265.265 0 0 1-.156-.195c-.098-.306-.264-.53-.498-.674-.235-.137-.557-.205-.967-.205-.553 0-.98.231-1.279.693-.267.404-.4.922-.4 1.553 0 .645.133 1.17.4 1.572.293.443.72.665 1.28.665.461 0 .813-.072 1.054-.215.24-.143.42-.385.537-.723a.29.29 0 0 1 .176-.195.391.391 0 0 1 .244-.02c.091.02.156.062.195.127.045.065.05.147.01.244-.196.41-.433.72-.713.928-.37.267-.86.4-1.465.4-.788 0-1.387-.279-1.797-.839-.358-.489-.537-1.133-.537-1.934 0-.775.186-1.419.557-1.934.423-.572 1.015-.859 1.777-.859M84.395 46.468a.572.572 0 0 1 .137.391.546.546 0 0 1-.137.371.484.484 0 0 1-.391.175.493.493 0 0 1-.4-.175.574.574 0 0 1-.127-.37c0-.158.043-.288.127-.392a.506.506 0 0 1 .4-.166c.163 0 .293.055.391.166M88.692 41.84c.573 0 1.05.136 1.436.41.318.234.53.523.634.868.02.085.004.16-.05.225a.314.314 0 0 1-.194.127.384.384 0 0 1-.244-.02.265.265 0 0 1-.156-.195c-.098-.306-.264-.53-.498-.674-.235-.137-.557-.205-.967-.205-.553 0-.98.231-1.28.693-.266.404-.4.922-.4 1.553 0 .645.134 1.17.4 1.572.294.443.72.665 1.28.665.462 0 .814-.072 1.055-.215.24-.143.42-.385.537-.723a.29.29 0 0 1 .176-.195.391.391 0 0 1 .244-.02c.09.02.156.062.195.127.045.065.049.147.01.244-.196.41-.433.72-.713.928-.371.267-.86.4-1.465.4-.788 0-1.387-.279-1.797-.839-.358-.489-.537-1.133-.537-1.934 0-.775.186-1.419.557-1.934.423-.572 1.015-.859 1.777-.859M93.057 43.09c-.28.41-.42.927-.42 1.552 0 .618.14 1.133.42 1.543.326.462.778.693 1.357.693.573 0 1.02-.23 1.338-.693.293-.417.44-.93.44-1.543 0-.625-.147-1.143-.44-1.553-.319-.462-.765-.693-1.338-.693-.579 0-1.03.231-1.357.693m3.164-.37c.391.507.586 1.148.586 1.923 0 .768-.195 1.406-.586 1.914-.436.58-1.039.87-1.807.87-.774 0-1.38-.29-1.816-.87-.384-.508-.576-1.146-.576-1.914 0-.775.192-1.416.576-1.924.436-.573 1.042-.859 1.816-.859.768 0 1.371.286 1.807.86M98.39 41.996a.291.291 0 0 1 .214-.088.28.28 0 0 1 .205.088c.065.059.098.143.098.254v.36c.156-.207.357-.38.605-.516a1.91 1.91 0 0 1 .938-.254c.403 0 .738.097 1.005.293.19.143.342.338.46.586.17-.267.39-.475.663-.625.3-.17.635-.254 1.006-.254.508 0 .915.153 1.221.459.267.267.4.576.4.927v3.877a.3.3 0 0 1-.302.303.31.31 0 0 1-.215-.078.303.303 0 0 1-.088-.225v-3.78c0-.28-.082-.503-.244-.673-.176-.182-.426-.273-.752-.273-.37 0-.674.08-.908.244-.235.156-.446.417-.635.78v3.702a.298.298 0 0 1-.303.303.314.314 0 0 1-.215-.078.307.307 0 0 1-.088-.225v-3.78c0-.28-.08-.503-.244-.673-.182-.182-.429-.273-.742-.273-.345 0-.638.072-.879.215-.24.143-.469.384-.683.722v3.789a.3.3 0 0 1-.303.303.313.313 0 0 1-.215-.078.303.303 0 0 1-.088-.225V42.25c0-.111.03-.195.088-.254"/>
    </g>
    <path fill="#21579d" d="m7.673 2.01-.36.118.034.21c.038.576-.884 1.584-2.312 2.022a4.842 4.842 0 0 1-1.497.248c-.947.006-1.558-.343-1.659-.732l-.028-.201c-.04-.582.872-1.59 2.312-2.03a4.877 4.877 0 0 1 1.488-.248c.945-.003 1.567.348 1.662.729l.72-.23C7.726 1 6.74.64 5.65.633c-.544 0-1.128.098-1.722.285-1.595.536-2.798 1.564-2.839 2.756l.07.437c.308.893 1.29 1.253 2.378 1.259.541 0 1.131-.095 1.73-.288 1.59-.53 2.796-1.555 2.836-2.744l-.072-.444Z" style="stroke-width:2.87932"/>
    <path fill="#21579d" d="m8.701 1.676-.362.115.048.305c.04.861-1.25 2.209-3.198 2.816a6.834 6.834 0 0 1-2.076.346C1.83 5.26.968 4.8.803 4.224l-.049-.302c-.04-.861 1.25-2.212 3.202-2.816A6.869 6.869 0 0 1 6.038.76c1.275-.003 2.14.455 2.298 1.03l.365-.114.36-.118C8.687.472 7.446.003 6.038 0c-.723 0-1.512.124-2.31.383C1.613 1.08.04 2.436 0 3.922l.084.535c.374 1.089 1.615 1.555 3.029 1.558.72 0 1.508-.124 2.303-.38 2.113-.7 3.686-2.056 3.726-3.539l-.08-.538Z" style="stroke-width:2.87932"/>
    <path fill="#21579d" d="m2.915 5.446 14.23 64.65h9.513L6.75 4.444l-.967.297 19.513 64.347h-7.337L3.902 5.233Z" style="stroke-width:2.87932"/>
    <path fill="#21579d" d="M92.778 41.753c-.746-9.626-5.715-13.24-7.673-16.246-1.95-3.014-6.015-10.086-6.315-17.307 0 0-6.927-1.803-17-.45-10.085 1.351-9.029 3.312-25.881-.9-16.853-4.222-28.442.302-28.891.146 0 0 16.7 18.359 15.496 50.86v.755s9.332-4.218 21.67-1.36c0 0 15.194 4.363 24.67.606 9.481-3.767 17.454-2.86 28.894-.452 0 0-4.216-6.018-4.97-15.652m-32.493 4.966L47.492 36.34l2.26 9.925H37.265l-6.47-27.678 12.335.144 2.7 9.179 12.048-9.024 13.84.452-15.047 10.835 20.311 17z" style="stroke-width:2.87932"/>
    <path fill="#252022" d="m122.868 10.74-8.95 43.997h20.505l4.103-20.878 16.037 20.878h19.01l-19.01-26.101 25.721-17.524h-19.392L140.017 26.03l2.98-15.29zM185.504 11.112l-8.206 43.25h10.437l4.85-23.115 8.574 21.255 19.02-21.255-4.102 23.49h19.383l7.83-43.996h-19.753l-15.292 18.272-7.832-18.272zM247.396 10.74l-1.866 10.813 18.266.374-6.328 32.81h20.5l5.964-32.81h18.266l2.24-11.186zM364.464 23.79s-1.117-8.943-14.535-13.417c0 0-23.12-7.835-39.524 6.332 0 0-19.013 20.503-1.118 33.187 0 0 26.101 14.909 54.805-5.598l-2.231-6.331s-13.046 8.2-25.355 6.708c-12.3-1.488-21.523-13.95-6.686-26.426 0 0 12.807-8.762 25.326 5.174zM373.976 37.026l-3.173 15.476h16.035l.749-3.357h-9.7l2.8-12.12zM393.917 36.933l-3.164 15.655 6.524-.086 2.983-15.664zM403.247 36.838l-3.357 15.574 3.63.09 1.872-8.112 10.896 8.111h2.985l2.99-15.292h-3.361l-1.492 6.718-10.996-6.994zM425.238 37.209l-2.605 14.92h16.501l.173-2.982h-10.34l.472-3.355h6.24v-2.608h-5.966l.374-2.618h10.444l.374-3.357zM113.19 73.586v-10.87h1.998V67.7l5.082-4.984 2.456-.014-4.57 4.385 4.892 6.496-2.496-.003-3.735-5.218-1.63 1.463v3.76zM131.748 65.305c.53.783.791 1.736.791 2.862 0 1.125-.262 2.078-.791 2.859-.634.918-1.512 1.379-2.638 1.379-1.146 0-2.021-.467-2.66-1.394-.53-.786-.798-1.736-.798-2.844 0-1.126.274-2.08.827-2.862.621-.916 1.5-1.377 2.631-1.377 1.126 0 2.004.46 2.638 1.377m-6.675-1.069c-.961 1.071-1.44 2.381-1.44 3.93 0 1.53.484 2.845 1.463 3.937 1.028 1.154 2.364 1.721 4.014 1.721 1.636 0 2.977-.578 4.017-1.742.956-1.085 1.442-2.387 1.442-3.915 0-1.55-.486-2.86-1.442-3.93-1.04-1.17-2.381-1.76-4.017-1.76-1.655 0-3.006.59-4.037 1.76M141.732 64.186c.562 0 1.04.16 1.411.48.372.329.556.8.556 1.423 0 .535-.173.973-.51 1.298-.342.334-.823.498-1.442.498h-3.263v-3.7Zm-3.248 9.418V69.21h2.94c.887 0 1.497.253 1.831.751.3.424.444 1.138.444 2.137 0 .322.011.61.046.838l.248.665h2.142c-.196-.23-.351-.576-.45-1.048a8.017 8.017 0 0 1-.152-1.647c0-.717-.196-1.299-.607-1.754a1.97 1.97 0 0 0-1.098-.613c.395-.11.76-.334 1.098-.654.535-.544.794-1.238.794-2.084 0-.904-.325-1.627-.95-2.177-.685-.596-1.627-.895-2.836-.895h-5.442v10.875zM147.843 73.605V62.73h8.194v1.555h-6.207v2.997h5.767v1.454h-5.767v3.317h6.314v1.552zM162.197 64.48l1.707 4.878-3.478.02zm-3.423 9.12 1.076-2.874h4.567l1.071 2.88 2.145-.007-4.408-10.869h-2.134l-4.368 10.875zM178.23 73.605V62.73h2.79l3.15 8.63 3.107-8.63h2.773v10.875h-1.895l.003-8.569-3.216 8.563h-1.61l-3.187-8.571-.017 8.577zM196.712 64.48l1.705 4.878-3.47.02zm-3.426 9.12 1.083-2.874h4.569l1.063 2.88 2.142-.007-4.4-10.869h-2.133l-4.371 10.875zM208.539 64.186c.57 0 1.039.16 1.41.48.369.329.562.8.562 1.423 0 .535-.17.973-.51 1.298-.34.334-.826.498-1.442.498h-3.263v-3.7Zm-3.243 9.418V69.21h2.94c.876 0 1.492.253 1.826.751.296.424.449 1.138.449 2.137 0 .322.017.61.04.838l.25.665h2.146c-.202-.23-.357-.576-.455-1.048a8.003 8.003 0 0 1-.156-1.647c0-.717-.198-1.299-.601-1.754a1.984 1.984 0 0 0-1.092-.613c.386-.11.755-.334 1.092-.654.532-.544.789-1.238.789-2.084 0-.904-.314-1.627-.945-2.177-.685-.596-1.63-.895-2.833-.895h-5.442v10.875zM214.653 73.602h1.987V62.73h-1.987zM219.12 73.605V62.73h2.127l5.232 8.186V62.73h1.9v10.875l-2.064-.026-5.238-8.105-.06 8.131zM230.811 73.605V62.73h8.21v1.555h-6.209v2.997h5.759v1.454h-5.759v3.317h6.315v1.552zM249.749 64.284v-1.555h8.474v1.555h-3.257v9.32h-1.984v-9.32ZM265.253 64.186c.576 0 1.043.16 1.42.48.368.329.553.8.553 1.423 0 .535-.17.973-.51 1.298-.34.334-.815.498-1.434.498h-3.265v-3.7Zm-3.236 9.418V69.21h2.946c.872 0 1.482.253 1.825.751.297.424.438 1.138.438 2.137 0 .322.014.61.049.838l.247.665h2.145c-.198-.23-.354-.576-.455-1.048a8.018 8.018 0 0 1-.152-1.647c0-.717-.202-1.299-.602-1.754a1.973 1.973 0 0 0-1.094-.613c.386-.11.757-.334 1.094-.654.533-.544.792-1.238.792-2.084 0-.904-.32-1.627-.947-2.177-.683-.596-1.63-.895-2.834-.895h-5.445v10.875zM275.542 64.48l1.707 4.878-3.466.02zm-3.42 9.12 1.088-2.874h4.563l1.066 2.88 2.142-.007-4.4-10.869h-2.142l-4.365 10.875zM282.077 73.605V62.73h2.119l5.237 8.186V62.73h1.898v10.875l-2.073-.026-5.232-8.105-.06 8.131zM293.113 69.84h1.99c0 .789.267 1.41.815 1.872.555.46 1.246.693 2.087.693.812 0 1.425-.201 1.86-.59.363-.342.55-.783.55-1.316 0-.722-.596-1.235-1.776-1.54a429.95 429.95 0 0 1-3.329-.786c-1.195-.478-1.785-1.273-1.785-2.384 0-1.002.386-1.803 1.183-2.407.8-.605 1.8-.907 3.018-.907 1.226 0 2.257.34 3.098.999.84.67 1.258 1.535 1.258 2.597h-1.955c0-.648-.236-1.163-.714-1.555-.48-.386-1.068-.587-1.782-.587-.573 0-1.068.152-1.474.458-.412.308-.614.71-.614 1.212 0 .66.573 1.131 1.708 1.422 1.137.288 2.257.562 3.36.844 1.2.507 1.794 1.316 1.794 2.444 0 1.195-.47 2.102-1.414 2.707-.798.538-1.84.809-3.121.809-1.36 0-2.482-.34-3.36-1.03-.933-.732-1.397-1.72-1.397-2.955M309.166 64.186c.573 0 1.034.17 1.402.518.366.345.55.835.55 1.48 0 .61-.222 1.077-.665 1.42-.36.293-.792.437-1.304.437h-2.932v-3.855Zm-2.949 9.418v-4.112h3.03c1.448 0 2.507-.386 3.178-1.163.478-.562.711-1.261.711-2.114 0-.875-.236-1.62-.73-2.228-.663-.84-1.726-1.258-3.16-1.258h-5.021v10.875zM322.503 65.305c.53.783.791 1.736.791 2.862 0 1.125-.262 2.078-.791 2.859-.634.918-1.51 1.379-2.64 1.379-1.138 0-2.025-.467-2.65-1.394-.538-.786-.803-1.736-.803-2.844 0-1.126.27-2.08.818-2.862.636-.916 1.508-1.377 2.634-1.377 1.132 0 2.007.46 2.64 1.377m-6.668-1.069c-.967 1.071-1.442 2.381-1.442 3.93 0 1.53.489 2.845 1.46 3.937 1.033 1.154 2.372 1.721 4.01 1.721 1.647 0 2.983-.578 4.02-1.742.959-1.085 1.44-2.387 1.44-3.915 0-1.55-.481-2.86-1.44-3.93-1.037-1.17-2.373-1.76-4.02-1.76-1.655 0-2.997.59-4.028 1.76M332.485 64.186c.575 0 1.042.16 1.413.48.372.329.559.8.559 1.423 0 .535-.167.973-.513 1.298-.336.334-.823.498-1.442.498h-3.262v-3.7Zm-3.245 9.418V69.21h2.948c.881 0 1.489.253 1.828.751.291.424.441 1.138.441 2.137 0 .322.014.61.043.838l.245.665h2.145c-.196-.23-.348-.576-.443-1.048a7.771 7.771 0 0 1-.165-1.647c0-.717-.192-1.299-.601-1.754-.3-.325-.663-.53-1.089-.613.389-.11.755-.334 1.089-.654.532-.544.797-1.238.797-2.084 0-.904-.32-1.627-.953-2.177-.688-.596-1.627-.895-2.824-.895h-5.451v10.875zM337.903 64.284v-1.555h8.47v1.555h-3.259v9.32h-1.99v-9.32ZM367.345 66.3h-2.01c-.184-.662-.483-1.198-.91-1.618-.509-.498-1.15-.752-1.92-.752-1.123 0-2.012.458-2.643 1.374-.544.786-.826 1.739-.826 2.862 0 1.108.273 2.058.815 2.844.624.928 1.514 1.394 2.654 1.394.818 0 1.498-.322 2.047-.959.49-.561.772-1.255.879-2.076h1.935c0 1.27-.432 2.324-1.279 3.156-.901.864-2.099 1.299-3.585 1.299-1.888 0-3.308-.568-4.258-1.72-.812-.987-1.227-2.3-1.227-3.938 0-1.806.539-3.22 1.616-4.239 1.002-.967 2.352-1.45 4.028-1.45 1.25 0 2.303.36 3.187 1.073.875.711 1.368 1.627 1.497 2.75M376.768 65.305c.538.783.803 1.736.803 2.862 0 1.125-.265 2.078-.803 2.859-.625.918-1.506 1.379-2.629 1.379-1.149 0-2.03-.467-2.655-1.394-.535-.786-.8-1.736-.8-2.844 0-1.126.274-2.08.818-2.862.625-.916 1.508-1.377 2.637-1.377 1.123 0 2.004.46 2.629 1.377m-6.666-1.069c-.958 1.071-1.442 2.381-1.442 3.93 0 1.53.484 2.845 1.46 3.937 1.033 1.154 2.378 1.721 4.02 1.721 1.64 0 2.98-.578 4.013-1.742.959-1.085 1.442-2.387 1.442-3.915 0-1.55-.483-2.86-1.442-3.93-1.034-1.17-2.373-1.76-4.014-1.76-1.661 0-3.003.59-4.037 1.76M381.555 73.167h2.46v-2.125h-2.46zM401.023 73.6V62.73h1.99v9.32h5.822v1.55zM409.613 64.284v-1.555h8.463v1.555h-3.251v9.32h-1.993v-9.32ZM423.85 64.186c1.448 0 2.482.408 3.1 1.226.496.645.738 1.564.738 2.767 0 1.192-.242 2.11-.737 2.738-.62.821-1.653 1.23-3.101 1.23h-1.978v-7.962Zm.769 9.418c1.658 0 2.936-.556 3.843-1.667.792-.982 1.187-2.238 1.187-3.758 0-1.535-.4-2.799-1.21-3.786-.898-1.106-2.17-1.664-3.82-1.664h-4.737v10.875zM431.55 73.167h2.472v-2.125h-2.473zM388.252 75h-.738c.222-.42.395-.81.501-1.155.113-.345.193-.731.242-1.146-.273-.106-.466-.227-.59-.357-.164-.172-.239-.408-.239-.702 0-.403.104-.729.308-.98.213-.25.46-.373.755-.373.293 0 .515.14.673.423.162.282.24.61.24.982 0 .65-.139 1.31-.421 1.97-.158.359-.403.805-.731 1.338" style="stroke-width:2.87932"/>
</svg>