<svg xmlns="http://www.w3.org/2000/svg" xml:space="preserve" viewBox="0 0 5026.9199 924.09198">
    <script xmlns=""/>
    <defs>
        <clipPath id="a" clipPathUnits="userSpaceOnUse">
            <path d="M0 693.069h3770.191V0H0Z"/>
        </clipPath>
    </defs>
    <g clip-path="url(#a)" transform="matrix(1.33333 0 0 -1.33333 0 924.092)">
        <path d="M0 0c-31.545 0-62.465 9.234-89.466 26.691-12.427-5.929-26.104-10.654-41.628-14.433C-94.379-19.211-47.955-36.572 0-36.572c47.939 0 94.377 17.361 131.107 48.83-15.513 3.779-29.192 8.49-41.63 14.433C62.452 9.234 31.532 0 0 0m144.048 84.873c13.543-3.894 26.118-5.873 38.347-6.021 11.557 24.234 18.04 50.068 19.303 76.82h-.037c-5.883-.574-11.922-1.151-17.682-1.151-6.271 0-12.734.62-19.019 1.245-1.525-25.096-8.56-48.922-20.912-70.893m-328.003 69.648c-5.773 0-11.825.594-17.695 1.147l-.046.004c1.286-26.777 7.784-52.613 19.297-76.82 12.257.14 24.832 2.127 38.375 6.021-12.363 22.002-19.4 45.84-20.912 70.893-6.311-.633-12.772-1.245-19.019-1.245m164.896 62.059C-22.78 150.465-65.007 93.135-126.918 70.334c-14.858-5.494-30.944-8.57-49.192-9.379 0 0-3.942-.387-6.335-.615 7.616-12.641 16.158-24.086 25.445-34.028.993.088 8.851.836 8.851.836 19.769 3.524 38.374 9.629 55.196 18.125 35.74 18.125 65.099 46.114 84.897 80.909L0 140.348l8.08-14.166c19.782-34.791 49.142-62.774 84.899-80.909 16.823-8.474 35.414-14.578 55.269-18.125.013 0 6.766-.65 8.731-.836 9.279 9.942 17.828 21.387 25.44 34.028l-6.459.615c-17.863.809-34.382 3.965-49.04 9.379C65.005 93.135 22.791 150.482 19.07 216.58Zm65.4 107.903c46.39-13.555 85.612-48.019 105.113-92.362 11.341-2.551 22.283-3.857 32.525-3.857 2.446 0 5.072.254 7.65.509-22.938 69.704-81.581 121.192-153.603 134.898 1.07-13.908 3.857-27.087 8.315-39.188m-237.97-95.71c2.602-.255 5.241-.509 7.674-.509 10.376 0 21.01 1.265 32.477 3.857 19.552 44.357 58.784 78.807 105.163 92.362 4.467 12.073 7.23 25.252 8.287 39.188-72.018-13.706-130.652-65.194-153.601-134.898m172.706 142.3v-2.378c-.837-19.885-4.652-38.402-11.357-55.061-19.648-48.746-61.678-85.663-112.478-98.739-13.594-3.45-27.458-5.19-41.197-5.19-4.899 0-9.983.541-14.908 1.078-.037 0-3.182.381-4.848.594a204.261 204.261 0 0 1-4.863-36.346c1.422-.174 4.762-.594 4.762-.594 6.617-.673 13.436-1.361 19.857-1.361 8.276 0 17.154.584 26.388 1.758 62.254 8.137 118.15 45.818 149.511 100.782L0 289.942l8.08-14.326c31.326-54.964 87.22-92.645 149.511-100.782 9.245-1.174 18.126-1.758 26.388-1.758 6.252 0 13.201.703 18.787 1.26l2.222.309c-.025-.045 2.237.222 3.639.386a204.817 204.817 0 0 1-4.865 36.346c-1.4-.176-4.789-.594-4.789-.594-5.008-.525-10.144-1.078-14.994-1.078-13.741 0-27.614 1.74-41.197 5.178-50.787 13.08-92.83 50.005-112.478 98.751-6.665 16.589-10.485 35.079-11.355 54.971v2.468c-7.261.817-13.523 1.239-18.949 1.239-5.401 0-11.64-.422-18.923-1.239" style="fill:#007cbe;fill-opacity:1;fill-rule:nonzero;stroke:none" transform="translate(360.993 161.01)"/>
    </g>
    <text style="font-variant:normal;font-weight:400;font-stretch:normal;font-size:428.94970703px;font-family:&quot;Gotham Rounded Bold&quot;;writing-mode:lr-tb;fill:#007cbe;fill-opacity:1;fill-rule:nonzero;stroke:none" transform="matrix(1.33333 0 0 1.33333 813.066 688.806)">
        <tspan x="0 306.27008 524.60547 859.18628 1138.8615 1437.4104 1672.9038 1771.5623 2013.9188 2312.4678 2569.8376 2706.2437" y="0">GLOBAL SAE-A</tspan>
    </text>
</svg>