<svg xmlns="http://www.w3.org/2000/svg" xml:space="preserve" x="0px" y="0px" viewBox="0 0 1000 120.46">
    <script xmlns=""/>
    <path fill="#717071" d="M756.535 82.529h118.451v12.458H756.535z"/>
    <g fill="#717071">
        <path d="M848.656 71.125c2.609-9.857 6.529-47.28 6.555-66.081h-80.176v13.112h60.203v1.404c0 14.62-2.361 44.368-3.041 51.564h16.459zM959.959 108.914h-36.311c-2.766 0-3.938-1.623-3.938-4.092v-5.748h40.248v9.84zm-1.801-33.603c1.137 3.213 1.801 6.95 1.801 11.979v1.181h-40.248V75.772h-19.48c1.137 3.217 1.781 7.674 1.781 12.716v15.896c0 9.663 8.346 16.075 17.699 16.075h57.939V75.311h-19.492zM921.184 40.034c-2.746 0-3.953-1.603-3.953-4.092v-3.049h62.883V4.131h-80.865v11.218h63.416v6.993h-64.32c.904 2.153 1.594 6.985 1.594 11.266v5.331c0 9.677 6.158 12.614 15.477 12.614h65.379v-11.52h-59.611z"/>
    </g>
    <path fill="#717071" d="M930.65 80.987V68.774h-51.531V57.582H1000V68.55h-51.496v12.437zM428.411 12.933c12.144 0 20.567 8.372 20.567 17.781 0 9.788-8.424 17.841-20.567 17.841-12.161 0-20.602-8.053-20.602-17.841.001-9.409 8.441-17.781 20.602-17.781m-.035 48.382c21.36 0 39.219-13.203 39.219-30.601 0-18.354-17.858-30.58-39.219-30.58-21.39 0-39.273 12.227-39.273 30.58 0 17.398 17.883 30.601 39.273 30.601M489.846 78.197V66.035H366.868v12.162h32.72v42.261h17.531V78.197h22.476v42.261h17.548V78.197zM753.941 34.569h-18.146v30.093h-17.846V16.357c0-4.974-.723-9.069-1.619-12.179h19.465V22.45h18.146v12.119zM652.389 73.059V85.21h64.363v35.245h18.139V73.059z"/>
    <g fill="#717071">
        <path d="M669.502 53.625c-8.74 0-14.408-6.017-14.408-15.029 0-8.996 5.668-15.021 14.408-15.021 8.563 0 14.35 6.141 14.35 15.021s-5.788 15.029-14.35 15.029m36.588-44.62h-27.578V.001h-19.311c.871 2.644 1.154 3.315 1.154 6.816v2.188h-27.732v12.153h12.42c-4.857 4.745-8.08 10.912-8.08 17.656 0 15.089 14.564 27.28 32.514 27.28 17.967 0 32.531-12.191 32.531-27.28 0-6.744-3.248-12.911-8.053-17.656h12.135V9.005zM98.991 4.178h-81.06v12.213h62.055v2.011c0 14.607-.387 21.434-1.024 28.586l-.112 1.188H0v12.136h120.837V48.176H94.37l.396-1.641c2.61-9.839 4.173-23.546 4.225-42.357M79.604 108.276H45.781c-4.948 0-8.036-2.493-8.036-7.196V82.542H79.603v25.734zm14.585-37.878H18.104c1.076 3.096 1.748 7.514 1.748 12.497v21.51c0 9.685 8.376 16.05 17.682 16.05h60.07V73.783c0-1.787-1.615-3.385-3.415-3.385M165.55 47.836c0-10.258 7.761-17.798 18.229-17.798 10.477 0 18.22 7.54 18.22 17.798 0 10.249-7.743 17.781-18.22 17.781-10.468.001-18.229-7.532-18.229-17.781m27.669 45.992V77.577c15.89-3.493 27.595-15.478 27.595-29.74 0-8.458-4.121-16.08-10.723-21.661h20.369v-12.17h-37.323V.001h-20.206c.875 2.502 1.336 5.271 1.336 9.207v4.797h-37.389v12.17h20.567c-6.632 5.581-10.731 13.203-10.731 21.661 0 14.232 11.632 26.174 27.41 29.705v16.286h-51.048v12.127h121.487V93.828h-51.344zM604.752 37.445V4.178H586.07c1.129 3.247 1.775 7.691 1.775 12.772v103.504h16.906V49.606h18.164V37.445h-18.163zM526.16 43.887c0-9.043 5.676-15.063 14.41-15.063 8.629 0 14.451 6.171 14.451 15.063 0 8.88-5.822 15.042-14.451 15.042-8.734 0-14.41-5.968-14.41-15.042m39.68 35.407h-16.191V70.28c13.557-3.272 23.469-13.767 23.469-26.174 0-8.66-4.85-16.377-12.359-21.39h14.236V10.557h-25.346V.001h-19.457c.896 2.502 1.318 5.671 1.318 9.611v.943h-25.494v12.161h14.426c-7.553 5.013-12.377 12.729-12.377 21.39 0 12.407 9.889 22.901 23.445 26.174v9.014h-30.851v12.174h63.433c5.168 0 10.172-.486 14.65-1.193V78.61c-4.013.422-8.388.684-12.902.684"/>
    </g>
    <path fill="#717071" d="M264.695 68.976v12.127H329.2v39.352h17.988V68.976z"/>
    <g fill="#717071">
        <path d="M329.287 4.178c1.128 3.243 1.773 7.691 1.773 12.777v5.663h-17.401V34.78h17.401v25.773h16.873V4.178h-18.646z"/>
        <path d="M329.287 4.178c1.128 3.243 1.773 7.691 1.773 12.777v5.663h-17.401V34.78h17.401v25.773h16.873V4.178h-18.646zM314.029 59.769c-4.005-35.824-20.946-58.118-49.364-55.396l-14.676 56.181h17.729l10.193-41.979c7.084.615 15.761 15.017 19.615 41.194h16.503z"/>
    </g>
</svg>