<svg xmlns="http://www.w3.org/2000/svg" xml:space="preserve" viewBox="-198 130 897 239">
    <script xmlns=""/>
    <g clip-path="url(#a)" transform="matrix(1 0 0 -1 622.69 208.4)">
        <clipPath id="a">
            <rect width="1280" height="720" x="-640" y="-360" rx="0" ry="0" transform="matrix(1 0 0 -1 -372.69 -41.6)"/>
        </clipPath>
        <path d="M.187 86.282c0-1.994.286-4.039 1.049-5.956 3.382-8.645 12.02-13.962 22.982-9.449 2.601 1.082 75.168 31.15 75.168 31.15s-28.571-74.514-29.651-77.29C65.58 14.04 70.56 4.385 79.06 1.146 80.94.424 82.91.088 84.845.097c6.942.037 13.078 4.245 16.075 12.669.451 1.265 36.176 102.173 36.966 104.61.473 1.424 1.285 4.815 1.301 7.153.022 4.998-1.774 9.689-5.25 13.248-3.441 3.522-7.968 5.342-12.767 5.32-2.318-.006-4.225-.421-7.094-1.371-1.699-.555-93.8-35.825-101.682-38.839C4.506 99.864.159 93.416.187 86.282" style="stroke:none;stroke-width:1;stroke-dasharray:none;stroke-linecap:butt;stroke-dashoffset:0;stroke-linejoin:miter;stroke-miterlimit:4;fill:#e60013;fill-rule:evenodd;opacity:1" transform="translate(-69.69 -71.6)" vector-effect="non-scaling-stroke"/>
    </g>
    <g clip-path="url(#b)" transform="matrix(1 0 0 -1 -134.94 338.86)">
        <clipPath id="b">
            <rect width="1280" height="720" x="-640" y="-360" rx="0" ry="0" transform="matrix(1 0 0 -1 384.94 88.86)"/>
        </clipPath>
        <path d="M57.218 14.074H25.55c-4.602-.027-6.539 1.842-6.618 5.944v14.18h38.286Zm14.66 34.065H.066V16.57C.065 7.047 7.478.14 17.657.14h58.408v43.695c-.027 2.377-1.887 4.305-4.186 4.305" style="stroke:none;stroke-width:1;stroke-dasharray:none;stroke-linecap:butt;stroke-dashoffset:0;stroke-linejoin:miter;stroke-miterlimit:4;fill:#4a4f55;fill-rule:evenodd;opacity:1" transform="translate(-38.06 -24.14)" vector-effect="non-scaling-stroke"/>
    </g>
    <g clip-path="url(#c)" transform="matrix(1 0 0 -1 -133.43 276.37)">
        <clipPath id="c">
            <rect width="1280" height="720" x="-640" y="-360" rx="0" ry="0" transform="matrix(1 0 0 -1 383.43 26.37)"/>
        </clipPath>
        <path d="M97.11 54.489v.643H17.311V41.434H76.97c0-.9.003-2.038.003-3.135 0-12.71-.64-21.077-.98-24.483H.069V.131H117.07v13.686h-23.95c1.152 4.286 3.99 17.528 3.99 40.672" style="stroke:none;stroke-width:1;stroke-dasharray:none;stroke-linecap:butt;stroke-dashoffset:0;stroke-linejoin:miter;stroke-miterlimit:4;fill:#4a4f55;fill-rule:evenodd;opacity:1" transform="translate(-58.57 -27.63)" vector-effect="non-scaling-stroke"/>
    </g>
    <g clip-path="url(#d)" transform="matrix(1 0 0 -1 6.09 297.87)">
        <clipPath id="d">
            <rect width="1280" height="720" x="-640" y="-360" rx="0" ry="0" transform="matrix(1 0 0 -1 243.91 47.87)"/>
        </clipPath>
        <path d="M40.628 57.839c0 9.43 7.824 17.1 17.46 17.1 9.627 0 17.461-7.67 17.461-17.1 0-9.439-7.834-17.103-17.46-17.103-9.637 0-17.46 7.664-17.46 17.103M67.613 27.92c15.833 3.481 27.55 15.373 27.55 29.498 0 7.593-3.395 14.532-8.97 19.886h20.218v13.8H67.614v13.029H48.566V91.105H9.752V77.304h20.227c-5.574-5.354-8.97-12.293-8.97-19.886 0-14.125 11.718-26.02 27.557-29.498V13.94H.086V.133h115.999v13.808H67.614Z" style="stroke:none;stroke-width:1;stroke-dasharray:none;stroke-linecap:butt;stroke-dashoffset:0;stroke-linejoin:miter;stroke-miterlimit:4;fill:#4a4f55;fill-rule:evenodd;opacity:1" transform="translate(-58.09 -52.13)" vector-effect="non-scaling-stroke"/>
    </g>
    <g clip-path="url(#e)" transform="matrix(1 0 0 -1 121.1 291.4)">
        <clipPath id="e">
            <rect width="1280" height="720" x="-640" y="-360" rx="0" ry="0" transform="matrix(1 0 0 -1 128.9 41.4)"/>
        </clipPath>
        <path d="M33.106 14.141c-8.195 0-14.871 11.424-14.871 25.462s6.676 25.459 14.871 25.459c8.198 0 14.865-11.421 14.865-25.459s-6.666-25.462-14.865-25.462m0 64.962C14.911 79.103.105 61.39.105 39.603.105 17.83 14.91.103 33.106.103c18.196 0 32.999 17.727 32.999 39.5 0 21.786-14.803 39.5-32.999 39.5" style="stroke:none;stroke-width:1;stroke-dasharray:none;stroke-linecap:butt;stroke-dashoffset:0;stroke-linejoin:miter;stroke-miterlimit:4;fill:#4a4f55;fill-rule:evenodd;opacity:1" transform="translate(-33.1 -39.6)" vector-effect="non-scaling-stroke"/>
    </g>
    <g clip-path="url(#f)" transform="matrix(1 0 0 -1 304.03 304.47)">
        <clipPath id="f">
            <rect width="1280" height="720" x="-640" y="-360" rx="0" ry="0" transform="matrix(1 0 0 -1 -54.03 54.47)"/>
        </clipPath>
        <path d="M.031.026h18v111h-18Z" style="stroke:none;stroke-width:1;stroke-dasharray:none;stroke-linecap:butt;stroke-dashoffset:0;stroke-linejoin:miter;stroke-miterlimit:4;fill:#4a4f55;fill-rule:evenodd;opacity:1" transform="translate(-9.03 -55.53)" vector-effect="non-scaling-stroke"/>
    </g>
    <g clip-path="url(#g)" transform="matrix(1 0 0 -1 182.11 304.39)">
        <clipPath id="g">
            <rect width="1280" height="720" x="-640" y="-360" rx="0" ry="0" transform="matrix(1 0 0 -1 67.89 54.39)"/>
        </clipPath>
        <path d="M18.266 111.111H.111v-111h18.155v63.795h17.846v13.46H18.266Z" style="stroke:none;stroke-width:1;stroke-dasharray:none;stroke-linecap:butt;stroke-dashoffset:0;stroke-linejoin:miter;stroke-miterlimit:4;fill:#4a4f55;fill-rule:evenodd;opacity:1" transform="translate(-18.11 -55.61)" vector-effect="non-scaling-stroke"/>
    </g>
    <g clip-path="url(#h)" transform="matrix(1 0 0 -1 374.13 291.4)">
        <clipPath id="h">
            <rect width="1280" height="720" x="-640" y="-360" rx="0" ry="0" transform="matrix(1 0 0 -1 -124.13 41.4)"/>
        </clipPath>
        <path d="M33.14 14.141c-8.195 0-14.869 11.424-14.869 25.462s6.674 25.459 14.87 25.459c8.192 0 14.862-11.421 14.862-25.459s-6.67-25.462-14.863-25.462m0 64.962c-18.2 0-33.006-17.714-33.006-39.5C.134 17.83 14.94.103 33.14.103c18.193 0 32.994 17.727 32.994 39.5 0 21.786-14.8 39.5-32.994 39.5" style="stroke:none;stroke-width:1;stroke-dasharray:none;stroke-linecap:butt;stroke-dashoffset:0;stroke-linejoin:miter;stroke-miterlimit:4;fill:#4a4f55;fill-rule:evenodd;opacity:1" transform="translate(-33.13 -39.6)" vector-effect="non-scaling-stroke"/>
    </g>
    <g clip-path="url(#i)" transform="matrix(1 0 0 -1 435.14 304.39)">
        <clipPath id="i">
            <rect width="1280" height="720" x="-640" y="-360" rx="0" ry="0" transform="matrix(1 0 0 -1 -185.14 54.39)"/>
        </clipPath>
        <path d="M18.295 111.111H.141v-111h18.154v63.795h17.846v13.46H18.295Z" style="stroke:none;stroke-width:1;stroke-dasharray:none;stroke-linecap:butt;stroke-dashoffset:0;stroke-linejoin:miter;stroke-miterlimit:4;fill:#4a4f55;fill-rule:evenodd;opacity:1" transform="translate(-18.14 -55.61)" vector-effect="non-scaling-stroke"/>
    </g>
    <g clip-path="url(#j)" transform="matrix(1 0 0 -1 562.66 304.39)">
        <clipPath id="j">
            <rect width="1280" height="720" x="-640" y="-360" rx="0" ry="0" transform="matrix(1 0 0 -1 -312.66 54.39)"/>
        </clipPath>
        <path d="M18.825 111.111H.16v-111h18.665v63.795H37.16v13.46H18.825Z" style="stroke:none;stroke-width:1;stroke-dasharray:none;stroke-linecap:butt;stroke-dashoffset:0;stroke-linejoin:miter;stroke-miterlimit:4;fill:#4a4f55;fill-rule:evenodd;opacity:1" transform="translate(-18.66 -55.61)" vector-effect="non-scaling-stroke"/>
    </g>
    <g clip-path="url(#k)" transform="matrix(1 0 0 -1 251.12 289.39)">
        <clipPath id="k">
            <rect width="1280" height="720" x="-640" y="-360" rx="0" ry="0" transform="matrix(1 0 0 -1 -1.12 39.39)"/>
        </clipPath>
        <path d="M35.888 73.109H17.925L.12.109h17.665L30.818 53.65C46.041 40.325 51.509.109 51.509.109h16.61s-3.251 48.585-32.23 73" style="stroke:none;stroke-width:1;stroke-dasharray:none;stroke-linecap:butt;stroke-dashoffset:0;stroke-linejoin:miter;stroke-miterlimit:4;fill:#4a4f55;fill-rule:evenodd;opacity:1" transform="translate(-34.12 -36.61)" vector-effect="non-scaling-stroke"/>
    </g>
    <g clip-path="url(#l)" transform="matrix(1 0 0 -1 506.15 289.4)">
        <clipPath id="l">
            <rect width="1280" height="720" x="-640" y="-360" rx="0" ry="0" transform="matrix(1 0 0 -1 -256.15 39.4)"/>
        </clipPath>
        <path d="M24.943 13.66c-4.228.072-6.312 1.99-6.39 5.858v53.585H.15V16.15C.155 6.13 8.774.122 17.107.11L46.891.103c5.325 0 11.205.816 11.258.828v13.241c-.037 0-4.347-.509-9.786-.509Z" style="stroke:none;stroke-width:1;stroke-dasharray:none;stroke-linecap:butt;stroke-dashoffset:0;stroke-linejoin:miter;stroke-miterlimit:4;fill:#4a4f55;fill-rule:evenodd;opacity:1" transform="translate(-29.15 -36.6)" vector-effect="non-scaling-stroke"/>
    </g>
</svg>