<svg xmlns="http://www.w3.org/2000/svg" xml:space="preserve" x="0px" y="0px" viewBox="0 0 1000 304.263">
    <script xmlns=""/>
    <path fill="#FFF" d="M502.617 138.306h-91.816v-23.379h91.816V89.039h-91.816V68.194h91.816V42.383H378.213v121.723h124.404zm395.684-47.807 77.168 73.607h24.532V42.383h-32.54v73.618l-77.139-73.618h-24.551v121.723h32.53zm-67.608-48.116H696.436v121.723h134.258V42.383zm-32.529 95.923h-69.17V68.194h69.17v70.112zM241.42 90.499l77.135 73.607h24.58V42.383h-32.549v73.618l-77.14-73.618h-24.57v121.723h32.544zm358.199 35.996 33.34 37.611h41.123l-53.916-60.819 54.043-60.904h-41.211l-33.379 37.7-33.428-37.7H524.99l54.043 60.904-53.916 60.819h41.162z"/>
    <path fill="#00A0DF" d="M-.001 164.624v102.304l135.85-72.265z"/>
    <path fill="#003DA6" d="M135.849 0-.001 72.217v92.407l135.85 30.039z"/>
    <path fill="#C2D500" d="M135.849 194.663-.001 266.928l168.486 37.334 135.822-72.197z"/>
</svg>