<svg xmlns="http://www.w3.org/2000/svg" viewBox="0 0 384.31921 82.437998">
    <script xmlns=""/>
    <defs>
        <image id="a" width="55" height="43"/>
        <image id="b" width="131" height="30"/>
        <image id="d" width="126" height="46"/>
        <image id="c" width="125" height="46"/>
        <image id="e" width="124" height="46"/>
    </defs>
    <path d="M330.61 48.335c-1.512 0-2.828.317-3.973.975-1.146.633-1.73 1.437-1.73 2.363V67.22c0 1 .316 1.853.95 2.608.609.755 1.389 1.146 2.34 1.146h47.228c.901 0 1.656-.39 2.314-1.146.634-.755.975-1.608.975-2.608V51.673c0-.926-.585-1.73-1.73-2.363-1.145-.658-2.461-.975-3.972-.975-1.511 0-2.852.317-3.997.975-1.145.633-1.705 1.413-1.705 2.29v2.437H336.31V51.6c0-.877-.56-1.657-1.705-2.29-1.146-.658-2.486-.975-3.997-.975zm5.701 12.647h30.999v3.046H336.31z" style="stroke-width:2.43694"/>
    <path d="M345.986 46.775h-25.295c-.415 0-.78-.366-1.097-1.072-.292-.707-.463-1.511-.463-2.462 0-.926.17-1.754.463-2.461.317-.682.707-1.048 1.17-1.048h61.996c.414 0 .78.366 1.096 1.048.317.707.463 1.535.463 2.461 0 .95-.146 1.755-.463 2.462-.317.706-.682 1.072-1.096 1.072h-25.223v3.046c0 .829-.56 1.56-1.706 2.218-1.145.658-2.534.974-4.142.974-1.56 0-2.9-.316-4.021-.974-1.121-.658-1.682-1.39-1.682-2.218zM336.555 30.983h32.777c1.048 0 2.023-.073 2.924-.219.926-.17 1.706-.341 2.389-.56.633-.195 1.194-.39 1.681-.536.487-.147.78-.244.829-.244.511-.098 1.047.049 1.584.438.56.39.999.975 1.364 1.755.268.877.293 1.682.098 2.413-.22.73-.61 1.242-1.17 1.486-1.097.829-2.486 1.438-4.143 1.852-1.681.39-3.29.61-4.85.658h-41.452c-1.145.098-2.047-.243-2.705-1.023-.633-.78-.974-1.706-.974-2.803v-8.432c0-1.096.316-2.047.901-2.826.61-.78 1.34-1.17 2.218-1.17h39.137v-2.169H325.76c-.293 0-.585-.366-.853-1.097a7.866 7.866 0 0 1-.39-2.51c0-.926.146-1.754.39-2.485.268-.731.56-1.097.853-1.097h49.737c.902 0 1.658.39 2.267 1.194.633.829.95 1.803.95 2.949v8.188c0 1.097-.317 2.047-.95 2.851-.61.804-1.365 1.219-2.267 1.219h-38.942zM310.821 61.591c.414 0 .78.366 1.097 1.073.316.682.463 1.51.463 2.461 0 .926-.147 1.755-.463 2.437-.317.707-.683 1.072-1.097 1.072h-61.996c-.463 0-.853-.365-1.17-1.072-.292-.682-.462-1.51-.462-2.437 0-.95.17-1.779.463-2.461.316-.707.706-1.073 1.17-1.073zM306.776 48.164c0 .95-.56 1.73-1.682 2.34-1.12.633-2.437.95-3.948.95-1.56 0-2.9-.317-4.02-.95-1.122-.61-1.682-1.39-1.682-2.34V20.992h-40.746c-.414 0-.755-.341-.974-1.048-.244-.707-.366-1.51-.366-2.461 0-.926.122-1.755.366-2.461.219-.707.56-1.048.974-1.048h48.861c.902 0 1.657.365 2.266 1.12.634.756.95 1.658.95 2.706z" style="stroke-width:2.43694"/>
    <path d="M752.213 280.69c-7.966 0-15.245.589-21.883 1.769-6.638 1.23-12.293 3-17.014 5.31-4.819 2.213-8.604 4.918-11.26 8.114-2.704 3.196-4.033 6.834-4.033 10.916 0 3.885 1.33 7.475 4.034 10.672 2.655 3.196 6.44 5.948 11.26 8.26 4.72 2.212 10.375 3.885 17.013 5.115 6.638 1.229 13.917 1.818 21.883 1.818 8.015 0 15.293-.589 21.932-1.818 6.589-1.23 12.34-2.903 17.16-5.116 4.819-2.31 8.606-5.063 11.261-8.26 2.705-3.196 4.032-6.786 4.032-10.671 0-4.082-1.327-7.72-4.032-10.916-2.655-3.196-6.442-5.9-11.261-8.113-4.82-2.312-10.571-4.082-17.16-5.311-6.639-1.18-13.917-1.77-21.932-1.77zm0 14.947c4.425 0 8.507.247 12.244.69 3.737.49 6.834 1.18 9.342 2.163 2.754.935 4.868 2.065 6.344 3.442 1.426 1.376 2.164 2.998 2.164 4.867 0 1.573-.738 3.049-2.164 4.426-1.476 1.376-3.59 2.459-6.344 3.295-2.508 1.081-5.605 1.87-9.342 2.36-3.737.542-7.819.786-12.244.786-4.278 0-8.311-.244-12.098-.785-3.786-.492-6.981-1.28-9.636-2.361-2.803-.836-5.017-1.919-6.59-3.295-1.574-1.377-2.36-2.853-2.36-4.426 0-1.869.786-3.49 2.36-4.867 1.573-1.377 3.787-2.507 6.59-3.442 2.655-.983 5.85-1.672 9.636-2.164 3.787-.442 7.82-.69 12.098-.69zM852.182 282.262c-1.574 0-2.95.689-4.18 2.115-1.23 1.426-1.82 3.049-1.82 4.967v32.896c0 2.016.59 3.736 1.82 5.162 1.23 1.377 2.606 2.116 4.18 2.116h96.87c1.574 0 3-.739 4.18-2.116 1.23-1.426 1.819-3.146 1.819-5.162v-32.896c0-1.918-.59-3.541-1.819-4.967-1.18-1.426-2.606-2.115-4.18-2.115zm15.44 12.244h65.843v22.57H867.62z" style="stroke-width:4.91731" transform="matrix(.49558 0 0 .49558 -236.839 -93.11)"/>
    <path d="M687.227 202.108c-5.827-.959-11.211-2.803-16.116-5.606a44.294 44.294 0 0 1-12.724-10.806c-3.872 4.942-8.334 8.815-13.424 11.617a54.548 54.548 0 0 1-16.116 5.864c-1.033.148-1.992.037-2.877-.368-.922-.37-1.549-1.144-1.844-2.25-.332-1.07-.295-2.176.11-3.282.406-1.107 1.07-1.808 2.03-2.14 4.314-1.511 7.891-3.43 10.731-5.79s5.163-4.978 6.97-7.781c1.881-2.766 3.283-5.68 4.131-8.778.885-3.06 1.475-6.011 1.77-8.85.11-.923.443-1.697 1.07-2.25a13.062 13.062 0 0 1 2.139-1.512c.7-.406 1.549-.701 2.47-.849.96-.147 1.771-.221 2.472-.221.664 0 1.438.037 2.434.184.996.111 1.917.332 2.766.627.737.48 1.364.96 1.917 1.476.554.516.812 1.253.812 2.212a66.91 66.91 0 0 0 1.844 8.888c.811 3.061 2.176 5.901 4.057 8.593 1.733 2.84 4.093 5.348 7.044 7.56 2.95 2.214 6.527 3.984 10.695 5.311 2.139.701 3.91.812 5.31.295 1.439-.516 2.435-1.07 3.062-1.696.958-.959 1.622-2.508 2.028-4.61v-26.148c0-1.327.774-2.434 2.36-3.356 1.586-.885 3.504-1.364 5.79-1.364 2.36 0 4.315.479 5.864 1.364 1.512.922 2.287 2.029 2.287 3.356v41.6c0 1.365-.775 2.472-2.287 3.394-1.549.885-3.503 1.327-5.864 1.327-2.286 0-4.204-.442-5.79-1.327-1.586-.922-2.36-2.029-2.36-3.393v-5.532c-1.254 1.475-2.655 2.507-4.13 3.06-1.66.701-3.246 1.107-4.795 1.255-1.549.11-2.803.073-3.836-.074zM590.529 193.589h-17.481v5.089h38.023c.627 0 1.18.553 1.66 1.586.479 1.07.7 2.323.7 3.725 0 1.438-.221 2.655-.7 3.725-.48 1.07-1.033 1.622-1.66 1.622h-93.933c-.627 0-1.18-.553-1.66-1.622-.442-1.07-.7-2.287-.7-3.725 0-1.402.258-2.656.7-3.725.48-1.033.996-1.586 1.55-1.586h38.17v-5.09h-26.812c-1.364 0-2.508-.553-3.43-1.696a5.986 5.986 0 0 1-1.438-3.946v-25.41c0-1.439.885-2.656 2.655-3.688 1.77-.996 3.836-1.512 6.233-1.512 2.25 0 4.278.516 6.085 1.512 1.77 1.032 2.656 2.213 2.656 3.577v20.542h48.423c1.586 0 3.06-.11 4.425-.369 1.402-.22 2.582-.479 3.615-.81 1.032-.333 1.88-.591 2.618-.812.7-.258 1.106-.37 1.18-.37.848-.147 1.697.075 2.471.665.775.59 1.402 1.475 1.881 2.655.406 1.328.443 2.545.11 3.577-.294 1.07-.848 1.844-1.622 2.324-1.66 1.254-3.762 2.176-6.27 2.766-2.544.59-5.015.922-7.45.996z" style="stroke-width:3.68798" transform="matrix(.66078 0 0 .66078 -236.839 -93.11)"/>
    <path d="M48.343 82.438c26.699 0 48.343-18.455 48.343-41.219C96.686 18.455 75.042 0 48.343 0 21.645 0 0 18.455 0 41.219c0 22.764 21.645 41.219 48.343 41.219" style="fill:#fff;fill-opacity:1;fill-rule:nonzero;stroke:none"/>
    <path d="M48.343 47.706c7.873 0 14.255-9.186 14.255-20.518 0-11.331-6.382-20.517-14.255-20.517-7.873 0-14.255 9.186-14.255 20.517 0 11.332 6.382 20.518 14.255 20.518M3.462 41.219c0-21.134 20.094-38.267 44.881-38.267s44.881 17.133 44.881 38.267c0 21.133-20.094 38.266-44.881 38.266S3.462 62.352 3.462 41.219" style="fill:#ed1c24;fill-opacity:1;fill-rule:nonzero;stroke:none"/>
</svg>