<svg xmlns="http://www.w3.org/2000/svg" xml:space="preserve" x="0px" y="0px" viewBox="0 0 1000 319.698">
    <script xmlns=""/>
    <path fill="#FCC800" d="M128.107 121.347 64.255 0l63.852 32.055L191.994 0z"/>
    <path fill="#FCC800" d="m212.294 95.025 43.588-18.488V12.778l-78.124 33.168-43.289 82.077c32.348 3.14 57.525 30.449 57.525 63.596 0 35.336-28.593 63.867-63.887 63.867s-63.921-28.531-63.921-63.867c0-33.146 25.289-60.456 57.561-63.596L78.518 45.946.377 12.778v63.759l43.604 18.488C17.056 118.492.002 153.062.002 191.619c0 70.74 57.33 128.08 128.105 128.08s128.114-57.34 128.114-128.08c.001-38.557-17.02-73.127-43.927-96.594z"/>
    <g fill="#1EAC4B">
        <path d="M988.01 46.814h-37.34V96.11h-52.68l-.033-.046h-50.795a39.678 39.678 0 0 1 9.275 25.556c0 21.912-17.813 39.794-39.791 39.794-22.025 0-39.816-17.882-39.816-39.794 0-21.99 17.723-39.759 39.691-39.878h67.563-.092 28.371c2.828 0 4.973-1.98 5.314-4.854 0 0 1.043-6.232-.137-11.409-.512-2.742-2.418-4.542-5.256-4.542h-71.037V54.41c-.17-6.607-5.381-11.938-11.922-12.114h-37.361l-.08 18.642-84.456.062 14.941 20.742h26.885c-13.908 10.644-22.389 24.586-22.389 39.878 0 33.276 40.156 60.376 89.781 60.376 32.811 0 61.623-11.908 77.189-29.677h56.766v60.075H795.473v-15.049c-.113-6.676-5.348-11.994-11.955-12.215h-37.33l.068 78.211c0 12.029 9.639 21.832 21.561 22.076h232.182V58.928c-.171-6.619-5.415-11.91-11.989-12.114zm-82.877 84.757a42.076 42.076 0 0 0 1.203-9.951c0-1.669-.137-3.213-.285-4.836h44.619v14.787h-45.537zM799.65 264.648c-5.506-.273-4.088-4.639-4.178-10.189v-21.356h155.129v31.545H799.65zM656.816 168.861c-.512-2.793-2.418-4.592-5.223-4.592h-115.04V134.33h109.398c2.861 0 4.588-1.766 4.973-4.563 0 0 1.09-6.897-.137-11.7-.986-4.614-4.938-4.541-4.938-4.541H436.098c-5.398-.216-9.758-4.666-9.809-10.104V58.894c-.119-6.613-5.364-11.943-11.972-12.08h-37.414l.102 65.53c0 12.068 9.604 21.775 21.61 21.985h88.623v29.939l-130.584.068 14.986 20.758h34.554c-14.407 9.924-23.876 26.363-23.876 45.01 0 23.773 21.849 66.285 129.939 66.285 108.08 0 130.049-42.682 130.049-66.285 0-13.221-4.803-25.334-12.771-34.859H569.59c.137 0 .238.033.375.09 12.523 5.508 21.389 19.006 21.389 34.77 0 16.076-9.025 45.191-79.096 45.191-70.08 0-79.055-28.963-79.055-45.191 0-15.803 9.009-44.975 79.055-44.975h.113v-.035h139.303c2.85 0 4.928-1.93 5.244-4.859 0 0 1.057-6.301-.102-11.375z"/>
    </g>
</svg>