<svg xmlns="http://www.w3.org/2000/svg" version="1.0" viewBox="0 0 1616.000000 280.000000" preserveAspectRatio="xMidYMid meet">

    <g transform="translate(0.000000,280.000000) scale(0.100000,-0.100000)" fill="#0A3968" stroke="none">
        <path d="M15343 2292 c-436 -147 -793 -270 -793 -273 0 -3 66 -30 148 -59 236 -84 429 -176 420 -199 -2 -5 -147 -173 -323 -375 -176 -201 -321 -370 -323 -375 -3 -8 378 -345 383 -339 3 4 177 206 439 508 l219 252 19 -23 c55 -68 162 -241 233 -376 44 -84 81 -149 82 -145 1 4 70 372 153 817 82 446 152 820 155 833 4 14 1 22 -7 21 -7 0 -370 -120 -805 -267z" style="&#10;    fill: #E4007F;&#10;"/>
        <path d="M10373 2115 c-174 -38 -316 -153 -404 -327 -75 -149 -112 -387 -91 -595 23 -242 86 -398 212 -523 123 -124 242 -172 425 -173 182 0 312 51 431 169 187 185 263 530 198 894 -43 237 -169 422 -347 510 -116 57 -286 75 -424 45z m225 -361 c121 -50 183 -198 183 -439 1 -208 -35 -331 -119 -407 -109 -98 -276 -58 -348 83 -42 83 -57 170 -57 324 0 194 27 299 100 385 54 64 160 88 241 54z"/>
        <path d="M11743 2115 c-140 -31 -277 -128 -362 -258 -132 -202 -174 -562 -101 -853 51 -203 178 -375 330 -447 229 -108 517 -71 689 89 146 135 223 330 237 599 21 394 -113 698 -361 821 -123 61 -290 80 -432 49z m247 -371 c90 -49 143 -159 163 -337 20 -190 -18 -385 -95 -472 -53 -60 -90 -78 -163 -79 -112 -1 -195 71 -237 207 -20 64 -23 93 -23 252 0 161 2 187 23 250 45 137 122 205 231 205 39 0 66 -7 101 -26z"/>
        <path d="M6757 2058 c-18 -29 -114 -183 -212 -342 l-180 -289 -3 337 -2 336 -205 0 -205 0 0 -790 0 -790 205 0 205 0 2 341 3 342 211 -339 210 -339 227 -3 226 -2 -104 152 c-57 84 -179 264 -270 399 l-167 247 266 391 c146 215 266 393 266 396 0 3 -99 5 -220 5 l-219 0 -34 -52z"/>
        <path d="M7430 1315 l0 -795 205 0 205 0 0 795 0 795 -205 0 -205 0 0 -795z"/>
        <path d="M8050 2101 c0 -11 328 -1539 336 -1564 5 -16 21 -17 187 -15 l181 3 27 135 c14 74 57 292 95 484 49 253 70 343 75 325 5 -13 47 -222 94 -464 47 -242 88 -450 90 -462 5 -23 7 -23 188 -23 l182 0 168 783 c92 430 168 788 167 795 0 9 -44 12 -185 12 -140 0 -187 -3 -190 -12 -5 -14 -145 -961 -145 -980 0 -41 -18 48 -90 442 -44 245 -85 469 -91 498 l-10 52 -183 0 -182 0 -89 -487 c-48 -269 -91 -491 -95 -496 -3 -4 -37 203 -74 460 -38 258 -71 480 -73 496 l-5 27 -189 0 c-104 0 -189 -4 -189 -9z"/>
        <path d="M12730 1315 l0 -795 185 0 185 0 0 412 c0 246 4 408 9 402 5 -5 92 -187 193 -404 100 -217 187 -397 192 -398 6 -2 94 177 196 397 103 221 190 404 194 408 3 3 6 -179 6 -405 l0 -412 190 0 190 0 -2 793 -3 792 -186 3 -185 2 -195 -445 c-106 -245 -198 -446 -203 -446 -5 0 -96 200 -204 445 l-195 446 -183 0 -184 0 0 -795z"/>
        <path d="M220 1309 l0 -791 333 4 c371 5 398 9 557 85 103 49 220 167 272 273 74 152 106 349 88 544 -32 335 -175 532 -455 625 -130 43 -213 51 -521 51 l-274 0 0 -791z m605 466 c151 -44 232 -160 255 -363 19 -172 -15 -348 -86 -445 -64 -88 -156 -130 -309 -143 l-85 -7 0 493 0 493 88 -6 c48 -4 110 -13 137 -22z" style="&#10;    fill: #004EA2;&#10;"/>
        <path d="M1916 2083 c-10 -33 -376 -1547 -376 -1555 0 -4 89 -8 198 -8 l197 0 124 593 c112 531 140 653 141 609 0 -7 41 -276 90 -596 50 -321 90 -589 90 -595 0 -8 66 -11 226 -11 211 0 226 1 222 18 -2 9 -80 365 -173 790 l-169 772 -282 0 c-261 0 -283 -1 -288 -17z" style="&#10;    fill: #004EA2;&#10;"/>
        <path d="M3412 2085 c-205 -45 -365 -197 -443 -422 -72 -209 -77 -499 -12 -723 68 -236 225 -401 433 -455 86 -23 244 -23 330 0 197 51 343 192 421 405 42 115 59 230 59 395 0 211 -26 337 -102 492 -46 96 -169 219 -261 262 -123 59 -285 76 -425 46z m233 -364 c116 -52 175 -200 175 -441 0 -203 -40 -334 -121 -404 -100 -85 -250 -63 -325 48 -117 172 -109 593 13 736 66 76 170 101 258 61z" style="&#10;    fill: #004EA2;&#10;"/>
        <path d="M4390 1627 c0 -265 5 -510 10 -557 24 -194 78 -326 177 -431 116 -122 254 -171 483 -170 329 0 520 134 604 423 39 136 46 244 46 743 l0 465 -190 0 -189 0 -3 -527 c-3 -520 -4 -529 -26 -596 -28 -82 -85 -146 -148 -165 -51 -15 -146 -16 -198 -1 -60 17 -120 84 -147 166 -23 67 -23 78 -27 596 l-3 527 -195 0 -194 0 0 -473z" style="&#10;    fill: #004EA2;&#10;"/>
    </g>
</svg>