<svg xmlns="http://www.w3.org/2000/svg" xml:space="preserve" viewBox="0 0 521.47411 99.999999">
    <script xmlns=""/>
    <defs>
        <clipPath id="a" clipPathUnits="userSpaceOnUse">
            <path d="M0 0h730.848v576.368H0Z"/>
        </clipPath>
        <clipPath id="b" clipPathUnits="userSpaceOnUse">
            <path d="M-260.042 787.592h1140v-1017h-1140z"/>
        </clipPath>
        <clipPath id="c" clipPathUnits="userSpaceOnUse">
            <path d="M295.738 309.52v-2.553H308.919c10.333 0 18.709-8.376 18.709-18.707 0-10.332-8.376-18.71-18.709-18.71H295.738V267H317c11.739 0 21.259 9.517 21.259 21.26 0 11.741-9.52 21.26-21.259 21.26z"/>
        </clipPath>
        <clipPath id="e" clipPathUnits="userSpaceOnUse">
            <path d="M295.738 306.967v-34.865l10.63 2.848v32.017z"/>
        </clipPath>
        <clipPath id="g" clipPathUnits="userSpaceOnUse">
            <path d="M-97.042-7.908h825.999v567H-97.042Z"/>
        </clipPath>
        <linearGradient id="d" x1="0" x2="1" y1="0" y2="0" gradientTransform="matrix(0 -42.5196 -42.5196 0 316.998 309.52)" gradientUnits="userSpaceOnUse" spreadMethod="pad">
            <stop offset="0" style="stop-opacity:1;stop-color:#757c93"/>
            <stop offset="1" style="stop-opacity:1;stop-color:#0c1d3c"/>
        </linearGradient>
        <linearGradient id="f" x1="0" x2="1" y1="0" y2="0" gradientTransform="scale(-33.6788 33.6788) rotate(75 -9.842 -1.825)" gradientUnits="userSpaceOnUse" spreadMethod="pad">
            <stop offset="0" style="stop-opacity:1;stop-color:#757c93"/>
            <stop offset="1" style="stop-opacity:1;stop-color:#202c4b"/>
        </linearGradient>
    </defs>
    <g clip-path="url(#a)" transform="matrix(2.35183 0 0 -2.35183 -695.527 727.94)">
        <g clip-path="url(#b)">
            <g clip-path="url(#c)">
                <path d="M295.738 309.52v-2.553H308.919c10.333 0 18.709-8.376 18.709-18.707 0-10.332-8.376-18.71-18.709-18.71H295.738V267H317c11.739 0 21.259 9.517 21.259 21.26 0 11.741-9.52 21.26-21.259 21.26z" style="fill:url(#d);stroke:none"/>
            </g>
            <g clip-path="url(#e)">
                <path d="M295.738 306.967v-34.865l10.63 2.848v32.017z" style="fill:url(#f);stroke:none"/>
            </g>
            <path d="m0 0 10.63-2.849V0Z" style="fill:#0c1d3c;fill-opacity:1;fill-rule:nonzero;stroke:none" transform="translate(295.738 306.969)"/>
            <path d="M0 0h4.847v17.348H0v-5.079h-6.766V8.291H0Z" style="fill:#0c1d3c;fill-opacity:1;fill-rule:nonzero;stroke:none" transform="translate(511.947 287.837)"/>
            <path d="M0 0v1.959h18.95v8.767H-5.241V7.063h18.992V5.142h-18.99v-8.841l24.866-.003v3.7z" style="fill:#0c1d3c;fill-opacity:1;fill-rule:nonzero;stroke:none" transform="translate(497.842 275.629)"/>
            <g clip-path="url(#g)">
                <path d="M0 0a15.704 15.704 0 0 1 3.616-3.734C5.038-4.788 6.437-5.637 7.82-6.282l2.972 3.234c-.887.297-1.813.762-2.776 1.395A15.11 15.11 0 0 0 5.357.559a11.589 11.589 0 0 0-2.035 2.73c-.521.979-.781 1.976-.781 2.992 0 .52.013 1.033.039 1.542.026.508.08 1.022.157 1.543h-5.591c.077-.521.13-1.053.154-1.599.027-.546.04-1.078.04-1.598 0-1.04-.241-2.057-.722-3.046A11.325 11.325 0 0 0-5.278.371a16.925 16.925 0 0 0-2.951-2.546 25.058 25.058 0 0 0-3.305-1.913l3.91-3.049c1.406.793 2.828 1.799 4.262 3.011C-1.93-2.913-.809-1.537 0 0" style="fill:#0c1d3c;fill-opacity:1;fill-rule:nonzero;stroke:none" transform="translate(497.284 295.227)"/>
                <path d="M0 0h-4.848v-20.31H0v9.265h4.34v3.977H0Z" style="fill:#0c1d3c;fill-opacity:1;fill-rule:nonzero;stroke:none" transform="translate(429.328 305.185)"/>
                <path d="M0 0c-1.343-.548-3.147-.822-5.416-.822-2.319 0-4.157.274-5.513.822-1.355.548-2.033 1.27-2.033 2.166 0 .897.678 1.617 2.033 2.166 1.356.547 3.194.821 5.513.821 2.269 0 4.073-.274 5.416-.821 1.342-.549 2.014-1.269 2.014-2.166C2.014 1.27 1.342.548 0 0m4.146 6.945C1.967 8.241-1.231 8.888-5.455 8.888c-4.224 0-7.409-.647-9.56-1.943-2.151-1.294-3.225-2.874-3.225-4.741 0-1.918 1.074-3.513 3.225-4.781 2.151-1.272 5.336-1.905 9.56-1.905 4.25 0 7.455.633 9.619 1.905C6.325-1.309 7.41.286 7.41 2.204c0 1.867-1.089 3.447-3.264 4.741" style="fill:#0c1d3c;fill-opacity:1;fill-rule:nonzero;stroke:none" transform="translate(422.596 275.817)"/>
                <path d="M0 0h-7.312l.001 4.231H0Zm4.887 12.696H0V8.209h-7.311v4.487h-4.887V-4.06H4.887Z" style="fill:#0c1d3c;fill-opacity:1;fill-rule:nonzero;stroke:none" transform="translate(414.312 291.897)"/>
                <path d="M0 0c1.329 1.59 2.357 3.411 3.089 5.463.729 2.05 1.094 4.317 1.094 6.804h-16.498V8.204h11.103a10.885 10.885 0 0 0-1.331-3.86 13.747 13.747 0 0 0-2.58-3.227c-1.25-1.168-2.691-2.155-4.32-2.964a23.934 23.934 0 0 0-5.103-1.844l3.087-3.506a25.3 25.3 0 0 1 6.395 2.778A19.665 19.665 0 0 1 0 0" style="fill:#0c1d3c;fill-opacity:1;fill-rule:nonzero;stroke:none" transform="translate(458.113 291.648)"/>
                <path d="M0 0h-5.24v-10.764l24.868-.002v3.7L0-7.063Z" style="fill:#0c1d3c;fill-opacity:1;fill-rule:nonzero;stroke:none" transform="translate(454.565 282.692)"/>
                <path d="M0 0h6.768v-10.659h4.846v23.696H6.768V3.979H0Z" style="fill:#0c1d3c;fill-opacity:1;fill-rule:nonzero;stroke:none" transform="translate(461.902 292.148)"/>
                <path d="M0 0h-3.246v10.453h-4.613V-10.74a11.828 11.828 0 0 0-1.115-.241 28.867 28.867 0 0 0-1.623-.243 28.56 28.56 0 0 0-1.876-.168 33.165 33.165 0 0 0-1.877-.056h-5.532V5.078h8.819v4.021H-24.651v-24.681h7.915c.704 0 1.486.019 2.347.057.86.036 1.707.092 2.542.168.832.074 1.602.16 2.306.26.704.098 1.265.2 1.682.299v-5.89h4.613v16.71H0v-18.235h4.614v33.258H0Z" style="fill:#0c1d3c;fill-opacity:1;fill-rule:nonzero;stroke:none" transform="translate(382.546 294.14)"/>
            </g>
        </g>
    </g>
</svg>