<svg xmlns="http://www.w3.org/2000/svg" xml:space="preserve" viewBox="0 0 580.86621 99.999998">
    <script xmlns=""/>
    <path d="m0 0 3.316-3.509L13.796 7.62h-6.68z" style="fill:#c11b30;fill-opacity:1;fill-rule:nonzero;stroke:none" transform="matrix(3.86768 0 0 -3.86768 60.424 29.472)"/>
    <path d="m0 0-3.343 3.596-10.338-11.031h6.715z" style="fill:#c11b30;fill-opacity:1;fill-rule:nonzero;stroke:none" transform="matrix(3.86768 0 0 -3.86768 86.988 71.244)"/>
    <path d="M0 0h-15.391v2.631h10.237c.226.712.413 1.189.556 1.906.156.793.234 1.623.234 2.494v4.456h-10.437v2.434H-.556V8.039A17.79 17.79 0 0 0-.807 5.06c-.168-.984-.377-1.634-.628-2.429H0Z" style="fill:#072444;fill-opacity:1;fill-rule:nonzero;stroke:none" transform="matrix(3.86768 0 0 -3.86768 511.092 76.082)"/>
    <path d="M217.356 538.862h7.602v.959h-7.602zm1.763 4.114h-5.814v1.804h15.645v-1.804h-5.81v-1.112h-4.021zm9.28 8.936v-4.045h-10.863v-.887h10.974v-1.575h-12.083c-.806 0-1.424.174-1.854.531-.627.513-.624 1.049-.624 1.566v1.857h10.897v1h-10.897v1.553zm-11.043-9.636v-.976h7.602v.976h3.41v-5.326H216.42c-.792 0-1.407.164-1.85.492-.414.328-.621.672-.621 1.23v3.604z" style="fill:#072444;fill-opacity:1;fill-rule:nonzero;stroke:none" transform="matrix(3.86768 0 0 -3.86768 -304.639 2155.823)"/>
    <path d="m0 0-8.572 9.297L0 18.552h-7.705l-8.691-9.265L-7.84 0Z" style="fill:#072444;fill-opacity:1;fill-rule:nonzero;stroke:none" transform="matrix(3.86768 0 0 -3.86768 141.4 85.632)"/>
    <path d="M0 0v.002h-6.616v-5.481H0v.009c2.021-.049 3.785-1.727 3.785-3.796 0-2-1.658-3.637-3.588-3.783h-1.972v5.632h-4.83l-.011-11.113H.207l.001.005c4.886.159 8.943 4.243 8.943 9.259C9.151-4.177 4.983-.049 0 0" style="fill:#072444;fill-opacity:1;fill-rule:nonzero;stroke:none" transform="matrix(3.86768 0 0 -3.86768 25.589 13.886)"/>
    <path d="M0 0v-3.367c-.002 0-.045-.589-.045-.589l-.132-.842-.031-.217.225-.004h.585v-2.26h-6.039l.006-2.129H.031v-5.638h-3.806l-.008 3.381h-10.875V-9.408h5.447l-.006 2.129h-5.441l-.027 2.26h10.664l.094.861.036.674-.002 1.223h-10.792V0Z" style="fill:#072444;fill-opacity:1;fill-rule:nonzero;stroke:none" transform="matrix(3.86768 0 0 -3.86768 292.666 20.88)"/>
    <path d="M0 0v-.002C-.726-.25-1.668-.378-2.801-.378c-1.145 0-2.092.128-2.821.378-.74.264-1.099.586-1.099.983-.002.412.361.723 1.105.948.687.2 1.631.302 2.81.302 1.165 0 2.105-.102 2.792-.302.759-.225 1.126-.536 1.128-.948C1.115.586.753.264 0 0m3.042 3.155c-1.413.711-3.381 1.07-5.854 1.07-2.487 0-4.46-.359-5.864-1.07-1.153-.618-1.738-1.351-1.733-2.172 0-.87.571-1.597 1.745-2.228 1.395-.748 3.371-1.127 5.87-1.127 2.485 0 4.452.379 5.845 1.127C4.23-.618 4.803.112 4.803.977v.006c-.002.821-.593 1.55-1.761 2.172" style="fill:#072444;fill-opacity:1;fill-rule:nonzero;stroke:none" transform="matrix(3.86768 0 0 -3.86768 204.616 71.782)"/>
    <path d="M0 0h10.62v-1.941H-.196v-1.257H10.62v-1.94H5.175l.002-1.238h6.037V-8.3H-4.64v1.924h6.037l-.002 1.238h-3.027c-.782 0-1.386.175-1.791.519-.39.33-.581.805-.583 1.447L-4.013 0z" style="fill:#072444;fill-opacity:1;fill-rule:nonzero;stroke:none" transform="matrix(3.86768 0 0 -3.86768 180.993 20.88)"/>
    <path d="M173.428 536.944h-3.094v15.074h3.094z" style="fill:#072444;fill-opacity:1;fill-rule:nonzero;stroke:none" transform="matrix(3.86768 0 0 -3.86768 -304.639 2155.823)"/>
    <path d="M0 0h1.864v-15.069h-3.063v7.921h-2.113v1.999h2.113V0Zm-2.731-.157v-2.001h-2.061l.009-4.071c.005-1.521.281-2.791.83-3.776.48-.858 1.214-1.555 2.181-2.069l.166-.088c-.099-.091-1.55-1.458-1.726-1.626-.724.312-1.35.683-1.85 1.114a4.416 4.416 0 0 0-.968 1.141l-.178.308-.168-.314c-.202-.38-.517-.76-.941-1.135-.499-.42-1.124-.791-1.843-1.114l-1.728 1.628c.934.492 1.673 1.141 2.176 1.953.641 1.006.967 2.323.967 3.921l-.008 4.128h-2.059v2.001z" style="fill:#072444;fill-opacity:1;fill-rule:nonzero;stroke:none" transform="matrix(3.86768 0 0 -3.86768 344.382 20.777)"/>
    <path d="M0 0v-2.96h1.734v-2.257H0v-2.686h-3.832V0Z" style="fill:#072444;fill-opacity:1;fill-rule:nonzero;stroke:none" transform="matrix(3.86768 0 0 -3.86768 436.898 20.88)"/>
    <path d="M0 0c0-.482-.344-.875-1.022-1.176-.707-.314-1.693-.474-2.929-.474-1.236 0-2.216.16-2.912.477-.67.299-1.008.693-1.008 1.176-.003.529.336.949 1.002 1.249.69.31 1.642.457 2.911.457 1.235 0 2.224-.159 2.931-.475C-.346.934 0 .521 0 .005Zm1.77 2.506c-1.382.769-3.306 1.161-5.715 1.161-2.422 0-4.343-.392-5.708-1.161C-10.85 1.83-11.431 1.01-11.43.005c.004-.96.589-1.762 1.789-2.45 1.382-.782 3.305-1.18 5.714-1.18 2.411 0 4.332.398 5.709 1.18 1.209.688 1.796 1.487 1.796 2.442v.006c-.004.995-.596 1.812-1.808 2.503" style="fill:#072444;fill-opacity:1;fill-rule:nonzero;stroke:none" transform="matrix(3.86768 0 0 -3.86768 424.74 66.915)"/>
    <path d="m0 0 .005-1.253c0-2.009-.931-3.636-2.769-4.83-1.709-1.111-3.922-1.67-6.573-1.669-.065.219-.482 1.618-.582 1.96 1.794.1 3.203.398 4.164.898 1.041.553 1.782 1.603 1.916 2.637l.026.212h-5.922V0Z" style="fill:#072444;fill-opacity:1;fill-rule:nonzero;stroke:none" transform="matrix(3.86768 0 0 -3.86768 414.963 21.45)"/>
</svg>