<svg xmlns="http://www.w3.org/2000/svg" xml:space="preserve" x="0px" y="0px" viewBox="0 324.5 1000 351">
    <script xmlns=""/>
    <path fill="#033D8D" d="M2 558.138h131.999v116.275l46.032-19.369v-96.906h132v-38.739H2v38.739zm266.448-70.244v-38.796H91.614v-75.087h176.835v-38.739H45.582v152.622h222.866zM1000 519.398H689.969v38.739h131.999v116.275L868 655.044v-96.906h132v-38.74zM609.983 325.587h-45.974v186.576l-67.852 26.604h-89.671V344.956h-45.974v232.552h137.126a28.495 28.495 0 0 0 9.913-1.766l56.229-21.99v120.661l45.976-19.369V490.287h50.873v-38.739h-50.873l.227-125.961zm288.268 164.7 62.667-26.491V335.271H728.709v155.016h169.542zm17.092-116.276v67.111l-24.612 10.426H774.74v-77.537h140.603z"/>
</svg>