<svg xmlns="http://www.w3.org/2000/svg" viewBox="0 0 2018 627">
    <script xmlns=""/>
    <path d="M1126.41 197.59c-86.133 0-137.676 53.222-137.676 119.066s51.543 119.067 137.676 119.067c86.13 0 137.793-53.106 137.793-119.067 0-65.965-51.726-119.066-137.793-119.066m0 212.293c-41.25 0-72.68-41.672-72.68-93.348 0-51.672 31.43-93.285 72.68-93.285 41.246 0 72.676 41.672 72.676 93.285 0 51.617-31.367 93.348-72.676 93.348M1275.813 232.656h90.71V425.54h68.332V232.656h76.489V206.34h-235.532ZM1536.34 232.656h76.43V425.54h68.273V232.656h90.71V206.34H1536.34ZM852.723 386.25V206.34h-65.477v193.066a26.076 26.076 0 0 0 26.133 26.133h167.617v-26.254H865.88c-7.234.035-13.125-5.8-13.156-13.035M1887.645 232.297h126.128V206.34h-178.566a26.081 26.081 0 0 0-18.477 7.617 26.078 26.078 0 0 0-7.656 18.461v166.988c0 14.434 11.7 26.133 26.133 26.133h178.566v-25.953h-126.128c-7.176 0-13.004-5.8-13.036-12.98v-64.594h136.903v-25.715h-136.903v-51.024a12.978 12.978 0 0 1 13.036-12.976M446.777 573.598c-71.425 70.965-186.722 70.965-258.148 0L57.679 442.625c-71.011-71.387-71.011-186.742 0-258.133L188.63 53.52c71.426-70.961 186.723-70.961 258.148 0l130.95 130.972c70.945 71.418 70.945 186.719 0 258.133Zm0 0" style="stroke:none;fill-rule:nonzero;fill:#e60012;fill-opacity:1"/>
    <path d="M239.938 506.148c-10.438-.226-18.747-8.816-18.63-19.253.114-10.442 8.606-18.844 19.044-18.844 10.441 0 18.933 8.402 19.046 18.844.114 10.437-8.191 19.027-18.628 19.253h-.833M310.473 148.117a35.187 35.187 0 0 0-26.075 10.18c-14.82 14.824-22.617 45.305-21.96 85.906.832 50.129 12.796 148.356 52.14 198.961a87.519 87.519 0 0 0 20.418 19.406 45.212 45.212 0 0 0 26.844 9.11 61.106 61.106 0 0 0 10.535-1.012c22.559-5.418 50.832-30.543 71.902-64 5.098-8.035 15.711-10.477 23.809-5.477a17.077 17.077 0 0 1 7.68 10.836 17.325 17.325 0 0 1-2.204 13.157c-26.605 42.27-61.722 71.976-93.984 79.476h-.773a97.305 97.305 0 0 1-17.262 1.606 80.23 80.23 0 0 1-45.895-14.82 122.433 122.433 0 0 1-28.687-27.09c-55.418-71.438-59.227-204.735-59.524-219.735-.597-35.719 4.524-83.348 32.262-111.148a68.919 68.919 0 0 1 50.414-20.301h3.215a68.923 68.923 0 0 1 50.477 20.242c27.734 27.504 32.855 75.664 32.261 111.149-.597 37.027-7.382 108.765-45.773 173-5.18 7.636-15.418 9.894-23.328 5.148-7.906-4.746-10.735-14.844-6.434-23.008 26.844-44.945 39.88-94.418 40.89-155.738.657-40.602-7.14-71.14-22.023-85.906a34.893 34.893 0 0 0-25.953-10.18Zm0 0" style="stroke:none;fill-rule:nonzero;fill:#fff;fill-opacity:1"/>
</svg>