<svg xmlns="http://www.w3.org/2000/svg" viewBox="0 0 476.74091 94.949234">
    <script xmlns=""/>
    <g transform="matrix(1.16106 0 0 1.16106 50.186 -151.82)">
        <rect width="68.788307" height="81.778336" x="-35.367062" y="130.76059" rx="18.307871" ry="18.307871" style="fill:#f9f9f9;fill-rule:evenodd;stroke-width:.632312"/>
        <path d="M0 0c.053-2.306-.857-3.856-3.483-3.809-.59.021-3.492 0-4.028 0v7.08H-3C-.75 3.107-.053 2.413 0 0m6.876-18.419c-.927-3.576-3.693-4.9-7.767-5.185h-19.946V3.024l5.65 5.628v-26.898h11.864c2.36.073 3.645.503 4.145 2.861.006 1.418 0 2.861-.071 4.288-.191 1.011-.856 2.219-2.429 2.362H-7.44l-.071-8.221h-6.107v25.66c1.361 0 10.865-.065 12.439-.071 4.863-.08 6.868-2.122 7.347-5.779.157-1.246.37-2.42-.02-4.71-.505-2.143-2.178-3.578-4.539-4.15 5.147-.65 5.395-4.161 5.608-6.662.142-1.502-.052-4.749-.341-5.751m6.877 35.309h-42.799a2.942 2.942 0 0 1-2.943-2.941v-42.801a2.943 2.943 0 0 1 2.943-2.942h42.799a2.942 2.942 0 0 1 2.943 2.942v42.801a2.941 2.941 0 0 1-2.943 2.941" style="fill:#ac1524;fill-opacity:1;fill-rule:nonzero;stroke:none" transform="matrix(1.6756 0 0 -1.6756 10.377 159.062)"/>
        <path d="M0 0c2.547-3.503 7.105-6.5 10.588-7.954l.22-.091 3.387 5.115-.273.149C10.104-.688 5.029 3.077 3.222 6.85c.554 2.073.941 5.345.941 8.013v.286h-7.44l.002-.287C-3.206 6.603-6.885.638-14.852-3.91l-.29-.167 4.011-5 .209.111C-7.197-6.987-2.279-3.382 0 0m1.892-24.265v1.63h19.603c3.141 0 3.819.583 3.819 3.28v6.216c0 2.542-.878 3.279-3.92 3.279H-5.598v-5.62h23.205c.204 0 .27-.071.27-.277v-1.49H-5.598v-9.542c0-2.299.545-3.324 3.77-3.324h27.242v5.621H2.209c-.317 0-.317.132-.317.227m15.985 39.788V8.277H8.992V2.471h8.885V-8.144h7.537v23.667zm-100.746-26.65h12.671v5.856H-95.12c-.526 0-.57.227-.57.46V7.052h25.492v5.9h-33.132V-7.1c0-2.711 1.447-4.027 4.425-4.027h8.446v-7.748h-19.182v-5.902h46.004v5.902h-19.232zm-34.778 26.65h-7.59V-16.51h7.59v12.808h7.267V2.2h-7.267zm-23.021-38.338v9.026h-7.59v-11.69c0-2.834.859-3.654 3.821-3.654h26.79v5.904h-22.499c-.483 0-.522.186-.522.414m3.112 23.928h-8.414v-4.716c0-.261.077-.414.473-.414h7.471c.394 0 .47.153.47.414zm3.466-10.892h-15.246c-3.433 0-4.222.675-4.222 3.606v19.641h7.588V6.923h8.414v6.545h7.589V-6.313c0-2.624-1-3.466-4.123-3.466m105.823 11.84h-7.901v-5.858h7.901v-12.994h7.539v32.314h-7.539zm-15.38-24.876v9.026h-7.587v-11.69c0-2.834.844-3.654 3.766-3.654h26.74v5.904h-22.398c-.482 0-.521.186-.521.414m-.896 16.346c-3.863-3.166-8.362-5.595-13.008-7.029l-.223-.068-2.927 5.462.294.12C-46.614-2.398-43.76 3.264-42.943 7.146H-57.66v5.852h21.021c.495 0 .817-.1 1.037-.324.384-.386.378-1.018.369-2.164l-.003-.647c0-7.202-5.062-12.858-9.307-16.332" style="fill:#222354;fill-opacity:1;fill-rule:nonzero;stroke:none" transform="matrix(1.6756 0 0 -1.6756 324.802 159.785)"/>
    </g>
</svg>