<svg xmlns="http://www.w3.org/2000/svg" viewBox="0 0 950.39734 200">
    <script xmlns=""/>
    <path d="M421.577 611.32h-4.482V657.05a3.52 3.52 0 0 1-.473 1.74c-.604 1.07-1.734 1.802-3.046 1.802H365.72c-1.944 0-3.518-1.673-3.518-3.74v-.041c0-2.066 1.574-3.742 3.519-3.742H402.293V611.32h-43.585c-1.941 0-3.518-1.673-3.518-3.74v-.042c0-2.065 1.577-3.74 3.518-3.74h62.869c1.944 0 3.518 1.675 3.518 3.74v.042c0 2.067-1.574 3.74-3.518 3.74zM294.012 662.32c-11.904 0-21.558-6.691-21.558-15.667 0-8.975 10.041-15.117 21.943-15.117 11.913 0 21.176 6.82 21.176 15.117 0 8.976-9.653 15.668-21.561 15.668m-.11-23.259c-4.117 0-7.757 3.649-7.757 7.775 0 4.123 3.64 7.982 7.757 7.982 4.49 0 8.082-2.827 8.082-8.29 0-4.122-3.97-7.466-8.082-7.466zM312.581 629.914c-15.84 0-29.262-7.03-29.262-16.205 0-9.176 13.423-16.174 29.262-16.174 15.84 0 28.868 6.998 28.868 16.174 0 9.176-13.027 16.205-28.868 16.205m0-24.777c-8.46 0-15.65 3.643-15.65 8.572 0 4.929 7.19 8.669 15.65 8.669 8.462 0 15.553-3.74 15.553-8.669 0-4.93-7.091-8.572-15.553-8.572zM322.47 637.8h4.01v-2.074c0-1.73.876-3.12 3.017-3.12 0 0 5.724-.004 8.847-.004 3.105 0 2.966 3.124 2.966 3.124l.087 20.844c0 3.062-1.503 3.843-3.252 3.843H322.47s-3.761-.185-3.761-2.814l.004-1.847s.07-2.762 3.757-2.762h4.01v-7.686h-4.01s-3.747.317-3.747-3.108v-1.844s-.267-2.551 3.747-2.551zM198.496 628.508H253.983c1.941 0 3.517 1.586 3.517 3.542v25c0 1.956-1.576 3.542-3.517 3.542h-7.764c-1.942 0-3.52-1.586-3.52-3.542v-4.066h-32.921v4.066c0 1.956-1.575 3.542-3.519 3.542h-7.763c-1.944 0-3.518-1.586-3.518-3.542v-25c0-1.956 1.574-3.542 3.518-3.542m11.282 16.953h32.92v-9.43h-29.56c-2.859 0-3.292 2.194-3.36 2.873zM257.048 622.218h-61.943c-1.943 0-3.519-1.674-3.519-3.74v-.043c0-2.064 1.576-3.74 3.519-3.74h23.565v-11.502c0-1.956 1.577-3.542 3.52-3.542h7.763c1.944 0 3.518 1.586 3.518 3.542v11.502h23.577c1.943 0 3.518 1.676 3.518 3.74v.043c0 2.066-1.575 3.74-3.518 3.74zM503.849 622.764h-6.84c-1.944 0-3.518-1.587-3.518-3.544v-2.217H458.72v2.217c0 1.957-1.576 3.544-3.52 3.544h-6.838c-1.943 0-3.517-1.587-3.517-3.544v-15.753c0-1.958 1.574-3.544 3.517-3.544h55.488c1.941 0 3.515 1.586 3.515 3.544v15.753c0 1.957-1.574 3.544-3.515 3.544m-9.897-15.318H462.08c-2.858 0-3.292.345-3.36 1.025v1.01h35.233z" style="fill:#1e5cb3;fill-opacity:1;fill-rule:nonzero;stroke:none" transform="matrix(1.95221 0 0 -1.95221 -52.714 1292.992)"/>
    <path d="M510.315 632.278h-67.033c-1.944 0-3.518-1.675-3.518-3.741v-.04c0-2.067 1.574-3.742 3.518-3.742h25.416v-3.182c0-1.954 1.576-3.542 3.52-3.542h7.763c1.944 0 3.518 1.588 3.518 3.542v3.182h26.816c1.942 0 3.518 1.675 3.518 3.741v.04c0 2.067-1.576 3.742-3.518 3.742zM447.897 653.09h44.264l-.01-.014c.892 0 1.234-.179 1.365-.677v-1.394h-45.41c-1.903 0-3.448-1.455-3.448-3.25v-.033c0-.084.02-.501.025-.583 0-.006-.004-.015-.004-.023v-7.11c-.004-.086-.021-.169-.021-.255v-.041c0-4.312 3.267-5.51 5.173-5.51H505.7c1.905 0 3.448 1.678 3.448 3.748v.041c0 2.071-1.543 3.75-3.448 3.75h-46.232c-.643.19-.879.782-.966 1.204v.88h45.42c1.905 0 3.448 1.456 3.448 3.25v.036c0 .153-.026.3-.046.448.002.051.013.096.013.145v7.012c.01.121.033.24.033.363v.041c0 2.07-.97 5.512-5.173 5.512h-54.3c-1.906 0-3.45-1.68-3.45-3.75v-.04c0-2.07 1.544-3.75 3.45-3.75zM126.573 658.957h-7.018l49.083-49.13h-6.722l-49.611 49.13h-7.114l49.323-49.13h-6.96l-49.47 49.13h-7.397l49.322-49.13h-6.82l-49.654 49.13h-6.489l-50.044-49.47 48.887-49.564 50.772-.05 49.42 49.954-49.508 49.13M79.802 563.5l-45.206 46.03h7.25l41.87-42.16-3.914-3.87m7.839 7.403-38.92 38.924h6.961l35.441-35.735-3.482-3.19m6.525 6.67-31.912 32.255h6.956l28.728-28.63-3.772-3.625m7.255 6.962-24.95 24.953 24.88 24.59 25.091-25.097zM203.374 570.577h4.552c1.715 0 2.54-.759 2.54-2.144 0-1.814-1.32-2.243-2.838-2.243h-4.254v4.387m-7.256-9.995h13.358c4.156 0 8.247 2.44 8.247 7.158 0 3.463-1.98 5.145-4.09 5.872 1.747.956 2.902 2.242 2.902 4.617 0 2.408-1.32 5.905-7.52 5.905h-12.897v-23.552m7.256 17.944h3.827c1.484 0 2.473-.429 2.473-1.616 0-1.517-.956-1.946-2.473-1.946h-3.827zM225.804 572.358c0 5.245 2.836 6.465 4.683 6.465 1.848 0 4.685-1.22 4.685-6.465s-2.838-6.464-4.685-6.464c-1.847 0-4.683 1.22-4.683 6.464m-7.257 0c0-7.19 4.783-12.336 11.94-12.336 7.158 0 11.941 5.145 11.941 12.336 0 7.19-4.783 12.336-11.94 12.336-7.158 0-11.94-5.146-11.94-12.336zM250.74 572.358c0 5.245 2.837 6.465 4.684 6.465s4.683-1.22 4.683-6.465-2.836-6.464-4.683-6.464-4.684 1.22-4.684 6.464m-7.256 0c0-7.19 4.783-12.336 11.94-12.336 7.158 0 11.94 5.145 11.94 12.336 0 7.19-4.782 12.336-11.94 12.336-7.157 0-11.94-5.146-11.94-12.336zM274.522 569.257l-8.279 14.877h8.016l3.925-8.675 4.09 8.675h7.949l-8.444-14.877v-8.675h-7.256zM296.358 572.358c0 5.245 2.837 6.465 4.684 6.465 1.848 0 4.684-1.22 4.684-6.465s-2.836-6.464-4.684-6.464c-1.847 0-4.684 1.22-4.684 6.464m-7.257 0c0-7.19 4.783-12.336 11.941-12.336 7.157 0 11.94 5.145 11.94 12.336 0 7.19-4.783 12.336-11.94 12.336-7.158 0-11.94-5.146-11.94-12.336zM336.104 569.686c0-6.53-3.528-9.664-10.72-9.664-7.19 0-10.753 3.133-10.753 9.664v14.448h7.258v-12.831c0-2.409 0-5.41 3.529-5.41 3.43 0 3.43 3.001 3.43 5.41v12.83h7.256zM338.48 584.134h7.422l6.86-12.6h.066v12.6h6.862v-23.552h-7.061l-7.223 12.864h-.066v-12.864h-6.86zM379.414 562.99c-1.617-2.078-4.124-2.968-6.696-2.968-6.961 0-11.248 5.41-11.248 12.105 0 8.972 6.3 12.567 11.61 12.567 6.003 0 9.797-3.265 10.854-8.807h-6.961a3.446 3.446 0 0 1-3.43 2.936c-4.98 0-4.817-5.244-4.817-6.861 0-2.21.891-6.068 5.311-6.068 1.683 0 3.397.856 3.76 2.604h-3.2v5.048h9.632v-12.964h-4.585zM413.455 562.99c-1.617-2.078-4.124-2.968-6.696-2.968-6.961 0-11.248 5.41-11.248 12.105 0 8.972 6.299 12.567 11.61 12.567 6.003 0 9.797-3.265 10.852-8.807h-6.96a3.446 3.446 0 0 1-3.429 2.936c-4.982 0-4.817-5.244-4.817-6.861 0-2.21.891-6.068 5.311-6.068 1.683 0 3.397.856 3.76 2.604h-3.2v5.048h9.632v-12.964h-4.585zM427.803 578.526h3.396c2.773 0 3.597-.858 3.597-2.341 0-2.112-1.848-2.343-3.2-2.343h-3.793v4.684m-7.257-17.944h7.257v8.214h3.86c2.87 0 3.067-2.342 3.264-4.586.1-1.22.231-2.44.595-3.628h7.256c-.659 1.089-.692 3.892-.792 5.047-.264 2.935-1.484 5.112-3.464 5.871 2.409.891 3.53 3.464 3.53 5.904 0 4.453-3.562 6.73-7.686 6.73h-13.82zM450.233 572.358c0 5.245 2.836 6.465 4.683 6.465 1.848 0 4.685-1.22 4.685-6.465s-2.837-6.464-4.685-6.464c-1.847 0-4.683 1.22-4.683 6.464m-7.258 0c0-7.19 4.784-12.336 11.941-12.336 7.157 0 11.941 5.145 11.941 12.336 0 7.19-4.784 12.336-11.941 12.336-7.157 0-11.941-5.146-11.941-12.336zM489.978 569.686c0-6.53-3.529-9.664-10.72-9.664-7.19 0-10.751 3.133-10.751 9.664v14.448h7.257v-12.831c0-2.409 0-5.41 3.528-5.41 3.43 0 3.43 3.001 3.43 5.41v12.83h7.257zM499.577 578.097h3.233c1.78 0 3.43-.131 3.43-2.276 0-2.375-1.978-2.506-3.86-2.506h-2.803v4.782m-7.256-17.515h7.256v7.125h4.288c5.41 0 9.237 2.671 9.237 8.378 0 3.365-2.244 8.049-8.644 8.049h-12.137z" style="fill:#1e5cb3;fill-opacity:1;fill-rule:nonzero;stroke:none" transform="matrix(1.95221 0 0 -1.95221 -52.714 1292.992)"/>
</svg>