<svg xmlns="http://www.w3.org/2000/svg" viewBox="0 0 150 25.875">
    <script xmlns=""/>
    <path fill="#9cb227" d="M150 4.611a4.611 4.611 0 1 1-4.611-4.61A4.607 4.607 0 0 1 150 4.611"/>
    <path fill="#f05333" d="M136.674 4.611a4.613 4.613 0 1 1-4.613-4.61 4.615 4.615 0 0 1 4.614 4.611"/>
    <path fill="#fff" d="M110.081 21.247h3.266c.237 1.382 1.488 2.154 3.1 2.154 2.128 0 3.428-1.3 3.428-3.877v-1.432a4.133 4.133 0 0 1-3.826 2.153c-4.329 0-6.374-3.083-6.374-6.751 0-3.717 2.073-6.876 6.294-6.876a4.447 4.447 0 0 1 3.912 1.937V6.884h3.187v12.432c0 4.828-3.244 6.558-6.748 6.558-3.374 0-5.898-1.647-6.239-4.627Zm2.866-7.753c0 2.741 1.194 4.307 3.69 4.307 1.942 0 3.266-1.3 3.266-3.828V12.94c0-2.183-1.194-3.8-3.291-3.8-2.396 0-3.666 1.616-3.666 4.354ZM66.163 25.527l2.524-6.03-5.395-12.613h3.373l3.669 9.211 3.664-9.211h3.295l-8 18.643Zm-54.382-9.031h3.029c.106 1.143.717 2.149 2.6 2.149 1.7 0 2.441-.582 2.441-1.694 0-1.064-.848-1.674-2.866-2.021-3.553-.608-4.99-1.89-4.99-4.22 0-2.789 2.686-4.17 5.231-4.17 2.788 0 5.2 1.19 5.476 4.457h-2.978a2.14 2.14 0 0 0-2.5-2.045c-1.355 0-2.177.636-2.177 1.62 0 .957.583 1.515 2.76 1.864 3.084.5 5.208 1.433 5.208 4.247s-2.1 4.406-5.577 4.406c-3.533.001-5.549-1.749-5.657-4.593Zm66.71.4c0-3.161 2.976-4.435 6.85-4.435h1.621v-.746c0-1.832-.8-2.711-2.39-2.711a2.222 2.222 0 0 0-2.469 1.992h-3.086c.3-3.1 2.925-4.38 5.711-4.38 2.817 0 5.366 1.219 5.366 5.047v9.107h-3.107v-1.642a4.371 4.371 0 0 1-3.982 1.861c-2.365 0-4.514-1.226-4.514-4.095Zm3.107-.186c0 1.119.609 1.915 2.1 1.915a2.98 2.98 0 0 0 3.264-3.085v-1.006h-1.541c-2.365 0-3.823.715-3.823 2.175Zm-55.893.186c0-3.161 2.976-4.435 6.854-4.435h1.622v-.746c0-1.832-.8-2.711-2.392-2.711a2.22 2.22 0 0 0-2.468 1.993H26.24c.292-3.1 2.921-4.38 5.709-4.38 2.816 0 5.369 1.219 5.369 5.047v9.107h-3.11v-1.643a4.381 4.381 0 0 1-3.986 1.861c-2.363 0-4.517-1.226-4.517-4.095Zm3.109-.186c0 1.119.611 1.915 2.1 1.915a2.981 2.981 0 0 0 3.267-3.085v-1.006h-1.543c-2.357 0-3.824.715-3.824 2.175Zm74.473 4.063v-8.366c0-2.1-.9-3.055-2.657-3.055a3.255 3.255 0 0 0-3.109 3.562v7.858h-3.183V6.884h3.183v2.023a4.672 4.672 0 0 1 4.305-2.235c2.627 0 4.646 1.618 4.646 5.442v8.658Zm-45.247 0v-8.314c0-2.044-.795-3.026-2.31-3.026-1.543 0-2.788 1.278-2.788 3.4v7.939h-3.189V12.44c0-2.048-.689-3-2.177-3-1.651 0-2.921 1.406-2.921 3.611v7.728h-3.189V6.884h3.189v2.043a4.38 4.38 0 0 1 4.039-2.255 3.5 3.5 0 0 1 3.61 2.419 4.843 4.843 0 0 1 4.384-2.419c2.492 0 4.54 1.539 4.54 5.388v8.712Z"/>
    <path fill="#219dcb" d="M9.226 4.611a4.6 4.6 0 1 1-1.573-3.474 4.612 4.612 0 0 1 1.573 3.474"/>
</svg>