<svg xmlns="http://www.w3.org/2000/svg" xml:space="preserve" viewBox="-183.52279500000003 99.55272952364447 867.047865 167.89454095271105">
    <script xmlns=""/>
    <path d="m306.917 401.35 7.697-33.119-19.198 32.443h-7.559l-.917-32.443-10.194 33.12h-8.903l13.756-41.262h13.03l.62 26.967 16.027-26.967h13.59l-8.496 41.261z" style="stroke:none;stroke-width:1;stroke-dasharray:none;stroke-linecap:butt;stroke-dashoffset:0;stroke-linejoin:miter;stroke-miterlimit:4;fill:#009bd8;fill-rule:nonzero;opacity:1" transform="matrix(3.47 0 0 3.47 -832.005 -1134.108)" vector-effect="non-scaling-stroke"/>
    <g clip-path="url(#a)" transform="matrix(3.47 0 0 -3.47 348.81 186.97)">
        <clipPath id="a">
            <path stroke-linecap="round" d="M-153.183-23.504H96.266v49.335h-249.449Z"/>
        </clipPath>
        <path d="M0 0s2.119-.013 3.943-.013c3.782 0 6.885-1.285 6.885-5.204 0-4.157-3.843-7.527-9.652-7.527-1.689 0-2.696.118-3.774.303L0 0m-16.709-34.479h9.517l3.099 14.81c1.022-.056 2.374-.241 3.99-.241 5.534 0 10.86 1.223 14.58 3.86 3.505 2.45 6.14 6.428 6.14 11.569 0 3.978-1.821 6.922-4.923 8.755-3.31 2.147-7.973 2.523-12.092 2.523H-8.073l-8.636-41.276" style="stroke:none;stroke-width:1;stroke-dasharray:none;stroke-linecap:butt;stroke-dashoffset:0;stroke-linejoin:miter;stroke-miterlimit:4;fill:#009bd8;fill-rule:nonzero;opacity:1" transform="translate(-1.95 13.84)" vector-effect="non-scaling-stroke"/>
    </g>
    <g clip-path="url(#b)" transform="matrix(3.47 0 0 -3.47 468.34 186.99)">
        <clipPath id="b">
            <path stroke-linecap="round" d="M-187.603-23.504H61.846v49.335h-249.449Z"/>
        </clipPath>
        <path d="M0 0h10.132l-32.611-41.261h-11.288l13.092 15.732L-28.143 0h9.538l4.478-17.948z" style="stroke:none;stroke-width:1;stroke-dasharray:none;stroke-linecap:butt;stroke-dashoffset:0;stroke-linejoin:miter;stroke-miterlimit:4;fill:#009bd8;fill-rule:nonzero;opacity:1" transform="translate(11.82 20.63)" vector-effect="non-scaling-stroke"/>
    </g>
    <g clip-path="url(#c)" transform="matrix(3.47 0 0 -3.47 591.83 183.71)">
        <clipPath id="c">
            <path stroke-linecap="round" d="M-223.163-24.444H26.286v49.335h-249.449Z"/>
        </clipPath>
        <path d="M0 0c-4.978 0-9.588-.979-13.614-2.69l-16.261-20.576a26.65 26.65 0 0 1-.418-4.68c0-10.577 8.016-18.924 22.355-18.924h.076c8.27 0 15.31 2.426 20.382 6.6 6.223 5.047 9.749 13.131 9.749 21.348C22.269-8.079 14.57 0 0 0m-6.488-39.739h-.082c-8.597 0-12.416 5.075-12.416 11.872 0 9.146 7.002 20.731 17.731 20.731 9.4 0 12.059-5.794 12.059-11.797 0-9.078-7.007-20.806-17.292-20.806" style="stroke:none;stroke-width:1;stroke-dasharray:none;stroke-linecap:butt;stroke-dashoffset:0;stroke-linejoin:miter;stroke-miterlimit:4;fill:#009bd8;fill-rule:nonzero;opacity:1" transform="translate(4.01 23.44)" vector-effect="non-scaling-stroke"/>
    </g>
    <g clip-path="url(#d)" transform="matrix(3.47 0 0 -3.47 33.83 186.99)">
        <clipPath id="d">
            <path stroke-linecap="round" d="M-62.473-23.504h249.449v49.335H-62.473Z"/>
        </clipPath>
        <path d="M0 0h10.189L4.928 41.261H-7.563L-29.766 0h10.391l4.239 8.784H-.744L0 0m-11.908 15.493s7.724 16.405 8.866 18.91l1.731-18.91h-10.597" style="stroke:none;stroke-width:1;stroke-dasharray:none;stroke-linecap:butt;stroke-dashoffset:0;stroke-linejoin:miter;stroke-miterlimit:4;fill:#009bd8;fill-rule:nonzero;opacity:1" transform="translate(9.79 -20.63)" vector-effect="non-scaling-stroke"/>
    </g>
    <g clip-path="url(#e)" transform="matrix(3.47 0 0 -3.47 -84.48 183.5)">
        <clipPath id="e">
            <path stroke-linecap="round" d="M-28.393-24.504h249.449v49.335H-28.393Z"/>
        </clipPath>
        <path d="M0 0c-5.531 2.081-9.164 3.336-9.747 5.963-.545 2.428 1.615 4.819 7.456 5.35 7.788.571 15.729-2.619 20.917-5.585l4.364 8.11c-6.098 3.75-16.418 6.785-26.907 5.831h-.063c-11.156-1.008-20.484-6.228-18.478-15.172C-21.361-.387-16.526-4.02-8.315-7.184c4.329-1.661 8.927-3.651 9.494-6.193.754-3.395-3.303-5.524-8.087-5.982l-.094.007c-7.925-.706-16.065 2.31-22.15 5.564l-4.655-8.767c6.363-3.056 15.917-6.157 27.004-5.638 4.661.129 8.823.991 12.221 2.466l8.36 15.533C12.323-6.201 8.261-3.106 0 0" style="stroke:none;stroke-width:1;stroke-dasharray:none;stroke-linecap:butt;stroke-dashoffset:0;stroke-linejoin:miter;stroke-miterlimit:4;fill:#009bd8;fill-rule:nonzero;opacity:1" transform="translate(5.41 4.2)" vector-effect="non-scaling-stroke"/>
    </g>
</svg>