<svg xmlns="http://www.w3.org/2000/svg" viewBox="0 0 95.130932 15.801975">
    <script xmlns=""/>
    <path d="M15.277 3.979c0 .503-.144.922-.473 1.199-.33.276-.768.345-1.263.257L7.494 4.368a.34.34 0 0 1-.28-.334V.99c0-.334.095-.612.313-.796.219-.183.51-.228.838-.17l6.631 1.17a.34.34 0 0 1 .28.334z" style="fill:#23b1ec;fill-opacity:1;fill-rule:nonzero;stroke:none;stroke-width:.352778"/>
    <path d="M0 6.888a.34.34 0 0 0 .28.334L6.95 8.398c.979.173 1.595-.059 2.036-.428.44-.369.775-.936.775-1.93V2.813a.34.34 0 0 0-.28-.334L3.387 1.405c-1-.177-1.802-.053-2.464.503C.26 2.463 0 3.233 0 4.248Z" style="fill:#1f5ab1;fill-opacity:1;fill-rule:nonzero;stroke:none;stroke-width:.352778"/>
    <path d="M7.494 13.493a.34.34 0 0 1-.28-.335V8.234c0-.994.335-1.56.775-1.93.44-.37 1.057-.6 2.036-.428l4.97.877a.34.34 0 0 1 .282.334v4.924c0 .994-.336 1.561-.776 1.93-.44.37-1.056.601-2.036.428z" style="fill:#503298;fill-opacity:1;fill-rule:nonzero;stroke:none;stroke-width:.352778"/>
    <path d="M0 10.08c0-.502.143-.922.473-1.198.33-.277.767-.345 1.263-.258L9.479 9.99a.34.34 0 0 1 .281.334v4.488c0 .334-.095.612-.314.796-.218.183-.508.228-.837.17L.28 14.31a.34.34 0 0 1-.28-.334Z" style="fill:#5349a7;fill-opacity:1;fill-rule:nonzero;stroke:none;stroke-width:.352778"/>
    <path d="M25.1 7.086c-1.453-.378-2.044-.555-2.044-1.122 0-.508.567-.874 1.347-.874.555 0 1.417.2 2.291.862l.768-1.488c-.91-.803-1.866-1.146-3.036-1.146-1.948 0-3.319 1.11-3.319 2.717 0 1.76 1.56 2.291 2.859 2.61 1.429.355 2.043.544 2.043 1.181 0 .508-.65.874-1.547.874-1.063 0-2.22-.626-3.06-1.287l-.779 1.512c.827.791 2.197 1.559 3.815 1.559 2.067 0 3.508-1.122 3.508-2.729 0-1.724-1.334-2.28-2.846-2.669M34.832 3.59v3.307h-3.78V3.59H29.14v8.433h1.914V8.61h3.78v3.413h1.913V3.59ZM47.943 3.59v5.717l-3.72-5.717h-2.268v8.433h1.913V6.306l3.733 5.717h2.256V3.59ZM38.411 12.023h1.938V3.59H38.41zM95.13 7.901c0-.425-.07-.91-.07-.91h-4.24v1.702h2.397c-.307 1.133-1.252 1.83-2.421 1.83-1.477 0-2.54-1.122-2.54-2.622 0-1.63 1.158-2.646 2.54-2.646.838 0 1.594.225 2.185.697l.815-1.583c-1.027-.673-1.795-.897-3.012-.897-2.445 0-4.323 1.984-4.323 4.43 0 2.444 1.89 4.429 4.335 4.429 2.433 0 4.335-1.985 4.335-4.43M63.145 10.535c-1.465 0-2.54-1.122-2.54-2.634 0-1.512 1.064-2.634 2.54-2.634s2.54 1.122 2.54 2.634c0 1.512-1.075 2.634-2.54 2.634m0-7.063c-2.457 0-4.347 1.972-4.347 4.43 0 2.456 1.914 4.429 4.347 4.429 2.433 0 4.347-1.973 4.347-4.43s-1.89-4.429-4.347-4.429M74.094 3.59v4.748c-.012 1.252-.52 2.209-1.866 2.209s-1.866-.957-1.866-2.209V3.59h-1.914v4.937c0 2.362 1.571 3.803 3.78 3.803 2.209 0 3.78-1.44 3.78-3.803V3.59zM59.117 3.59h-2.102l-2.126 3.874-2.114-3.874H50.66l3.177 5.8-1.44 2.633h2.114zM83.437 3.59v5.717L79.705 3.59h-2.256v8.433h1.913V6.306l3.721 5.717h2.268V3.59Z" style="fill:#1b1d4b;fill-opacity:1;fill-rule:nonzero;stroke:none;stroke-width:.352778"/>
</svg>