<svg xmlns="http://www.w3.org/2000/svg" viewBox="0 0 514.10303 104.454">
    <script xmlns=""/>
    <path fill="#007CCF" d="M127.27 104.232c-.388 0-.78 0-1.167-.02A35.16 35.16 0 0 1 99.2 91.89a37.329 37.329 0 0 1-7.361-30.407c4.56-22.28 27.277-39.322 49.56-39.322h1.175a33.257 33.257 0 0 1 29.25 17.204l.387.715-11.347 7.168a6.797 6.797 0 0 1-3.67 1.076 8.494 8.494 0 0 1-5.792-2.503 17.268 17.268 0 0 0-12.418-5.35h-.674a27.347 27.347 0 0 0-26.1 22.23 20.719 20.719 0 0 0 3.62 17.204 17.362 17.362 0 0 0 13.405 6.605h.608a25.998 25.998 0 0 0 18.013-8.184 9.057 9.057 0 0 1 6.248-2.766 7.178 7.178 0 0 1 3.265.783c2.648 1.35 9.388 4.959 9.445 5l.867.465-.567.8a50.306 50.306 0 0 1-39.838 21.612z"/>
    <path fill="#003288" d="m262.442 103.207 16.266-90.742C280.472 2.453 286.224.03 293.888.03h39.45a28.64 28.64 0 0 1 22.143 9.853 27.233 27.233 0 0 1 5.697 22.676c-3.133 17.794-21.305 32.825-39.673 32.825h-20.931c-4.882 0-10.191.584-11.402 7.486l-4.156 23.437a8.46 8.46 0 0 1-8.538 6.909zm42.696-84.275a7.421 7.421 0 0 0-7.654 7.083l-.641 3.192c-.699 3.808-2.18 11.84-3.735 20.64l-.509 2.882 1.997-2.139a14.323 14.323 0 0 1 9.307-4.048h19.35a17.076 17.076 0 0 0 16.12-13.682 11.874 11.874 0 0 0-2.405-9.884 11.672 11.672 0 0 0-9.155-4.048z"/>
    <path fill="#007CCF" d="M210.543 104.411a33.949 33.949 0 0 1-34.61-41.37 51.747 51.747 0 0 1 49.062-41.057 33.942 33.942 0 0 1 34.606 41.36 51.747 51.747 0 0 1-49.058 41.067zm11.47-64.39c-12.02 0-24.055 10.68-26.275 23.324a20.867 20.867 0 0 0 4.244 17.14 17.325 17.325 0 0 0 13.493 6.226c11.806 0 24.119-11.057 26.342-23.67a20.439 20.439 0 0 0-4.14-16.779 17.504 17.504 0 0 0-13.668-6.237z"/>
    <path fill="#003288" d="M464.196 104.411a33.946 33.946 0 0 1-34.607-41.37 51.747 51.747 0 0 1 49.055-41.057 33.942 33.942 0 0 1 34.613 41.36 51.747 51.747 0 0 1-49.061 41.067zm11.47-64.39c-12.02 0-24.056 10.68-26.282 23.324a20.884 20.884 0 0 0 4.25 17.14 17.312 17.312 0 0 0 13.493 6.226c11.807 0 24.113-11.057 26.34-23.67a20.422 20.422 0 0 0-4.143-16.779 17.48 17.48 0 0 0-13.659-6.237zM414.389 25.118c-10.727 0-19.65 5.256-23.04 10.997a353.306 353.306 0 0 1 2.304-11.661H380.46a8.524 8.524 0 0 0-9.178 6.898l-12.741 71.852h13.098a9.253 9.253 0 0 0 9.391-7.63c.28-1.566 3.772-23.439 5.307-31.5 1.534-8.063 8.342-20.39 23.377-20.39h14.302a10.039 10.039 0 0 0 9.824-7.11c2.128-4.514 5.289-11.47 5.289-11.47z"/>
    <path fill="#007CCF" d="M14.676 103.207a14.627 14.627 0 0 1-11.527-4.891 15.021 15.021 0 0 1-2.8-12.525l13.156-72.864A15.416 15.416 0 0 1 29.697.021h70.215s-3.795 8.328-5.505 12.117a9.681 9.681 0 0 1-9.9 7.219H39.944a6.41 6.41 0 0 0-7.313 6.15c-.152.842-1.687 8.975-1.687 8.975a6560.259 6560.259 0 0 0-2.024 11.358l-.465 2.615 1.922-1.842a20.47 20.47 0 0 1 12.866-5.087H82.87s-3.48 7.883-5.06 11.47c-2.074 4.722-4.527 7.103-9.846 7.103H34.366a9.681 9.681 0 0 0-9.412 7.638l-1.48 8.21a6.635 6.635 0 0 0 1.348 5.53 7.084 7.084 0 0 0 5.573 2.418h44.7c7.759 0 10.221 4.54 9.175 10.295l-1.622 9.024z"/>
</svg>