<svg xmlns="http://www.w3.org/2000/svg" class="navLogo" viewBox="0 0 472.38 388.52">
    <script xmlns=""/>
    <g fill="#f6c533">
        <path d="M415.754 209.639a179.096 179.096 0 1 0-189.227 178.785v-32.928a147.62 147.62 0 1 1 19.337.14v32.884a179.096 179.096 0 0 0 169.89-178.881"/>
        <path d="M196.704 112.727c0 67.347 40.91 99.447 40.91 99.447V.097a204.826 204.826 0 0 0-40.91 112.576"/>
        <path d="M237.613 0v212.035s40.92-32.09 40.92-99.47A204.74 204.74 0 0 0 237.613 0M226.516 387.973V253.309a81.099 81.099 0 0 0-74.943-77.725H0l38.621 36.676h102.467a57.948 57.948 0 0 1 45.195 57.325v112.232zM245.853 387.983V253.31a81.099 81.099 0 0 1 74.943-77.715H472.38l-38.621 36.688H331.292a57.948 57.948 0 0 0-45.195 57.324v112.232z"/>
    </g>
</svg>