<svg xmlns="http://www.w3.org/2000/svg" viewBox="0 0 720.44208 196.16135">
    <script xmlns=""/>
    <path d="M232.41 266.727v-.438h-.437c-.075-.219-.149-.437-.22-.656l-.655-.438v-.437c-.149-.074-.293-.149-.442-.219v-.437c-1.062-1.922-1.504-4.254-.652-6.79v-.875h.219c.144-.437.289-.875.433-1.316.223-.144.442-.289.66-.437v-.438c.364-.293.73-.582 1.094-.875.145-.219.293-.437.438-.656h.437c.074-.149.149-.293.219-.438h.437c.075-.144.149-.293.22-.437h.44v-.219h.876v-.219c.289-.074.582-.148.875-.218v-.22c.496-.214 3.156-.46 3.941-.222v.223h.875v.219c.437.144.875.289 1.312.437v.219h.66l.215.437c.293.075.586.145.88.22.07.144.144.288.218.437.438.363.875.73 1.313 1.093v.438c.218.148.437.293.656.437v.442c.148.07.293.144.437.219v.656h.22v.437l.44.219v.438h.215c.075 1.386.149 2.773.22 4.16h-.22v1.093h-.214v.438c-.149.074-.293.148-.442.219-.07.367-.144.73-.219 1.097-.144.07-.289.145-.437.22v.437c-.219.144-.438.289-.656.437v.438c-.364.293-.73.582-1.094.875-.074.144-.149.293-.219.437h-.437c-.149.219-.293.438-.442.656h-.433c-.075.149-.149.293-.22.442-.44.07-.878.144-1.316.218v.22h-.437v.218h-.656v.219h-3.504v-.219h-.438v-.219h-.656v-.219c-.574-.23-1.273-.132-1.754-.44-.07-.145-.144-.29-.219-.438-.218-.07-.437-.145-.656-.22v-.218c-.324-.258-.39-.3-.875-.437zm95.899-17.735c-.106 1.371-.872 2.696-1.313 3.723-.148.73-.293 1.46-.437 2.187h-.22c-.148.442-.292.88-.437 1.317h-.218c-.075.582-.149 1.168-.22 1.75h-.222c-.07.293-.144.586-.219.875h-.218c-.145.804-.29 1.605-.438 2.41-.332.906-.773 1.129-.875 2.406 1.778.656 7.031.23 9.414.223.13-.281.215-.473.438-.66-.184-1.164-.719-2.121-1.094-3.063l-.219-1.535h-.219v-.438h-.218c-.074-.437-.149-.875-.219-1.312h-.219v-.438h-.219v-.875h-.218v-.44h-.223v-.657h-.219v-.438h-.215v-.656h-.218v-.875h-.223v-.437h-.219c-.457-1.055-.277-2.375-1.093-3.067zm115.605-2.629c-.492 2.758-.219 6.508-.219 9.637v17.516c.22.074.438.144.657.218.445.399 1.82.22 2.625.22 1.46-.075 2.921-.15 4.378-.22v-.218c.368-.075.73-.149 1.098-.22.07-.148.145-.292.219-.437h.656v-.218h.656v-.22h.438v-.222h.437c.075-.144.149-.289.22-.437h.437c.074-.145.148-.29.218-.438h.442l.656-.875h.438c.218-.293.437-.586.656-.875h.219v-.437c.218-.149.437-.293.656-.438.074-.293.144-.586.219-.879.144-.07.292-.144.44-.218v-.438h.216c.074-.293.148-.582.219-.875h.218v-.656h.223v-.656h.219v-.657h.218v-1.097h.22v-.657h.218c.266-.863-.016-5.496-.219-6.128h-.219v-.875h-.218v-.442h-.22v-.656h-.222v-.875h-.218v-.438h-.22v-.437c-.144-.074-.288-.149-.437-.219a57.1 57.1 0 0 0-.218-.875h-.22c-.253-.332-.3-.387-.437-.879h-.437v-.437c-1.024-.801-2.043-1.606-3.067-2.407h-.656v-.218h-.437v-.22c-.364-.073-.73-.147-1.094-.218v-.219h-.656v-.218h-.442v-.22h-.652v-.222h-2.629c-1.234-.343-3.14-.215-4.379 0zm31.09 30.215h-.438c-.363 1.496-1.8 2.05-2.191 3.504h-.438v.438c-.144.074-.292.148-.437.218-.71.79-1.46 1.899-2.629 2.192v.437l-.656.219v.219h-.438v.218h-.437c-.07.149-.145.293-.219.438h-.437c-.145.219-.293.437-.438.656l-.875.223c-.074.144-.148.289-.219.437-.293.07-.586.145-.879.22v.218h-.437v.219c-.438.144-.875.289-1.313.437v.219c-.437.07-.875.144-1.312.219v.218c-.293.075-.586.145-.875.22v.218h-.66v.219c-.656.074-1.313.144-1.969.218v.22h-.656v.218h-.438v.219c-.949.074-1.898.148-2.847.218v.22h-.875v.222h-.438v.219h-1.316v.214h-13.793c-3.676.004-8.09.371-11.383-.214-.36-2.024-.223-4.856-.223-7.227v-52.328c.223-.074.442-.149.66-.219.563-.504 4.93-.219 6.13-.219h11.386c2.45 0 5.152-.097 7.008.438 1.238.07 2.48.144 3.719.219l7.226 1.968v.22c.293.073.582.148.875.218v.219h.438c.144.218.293.437.437.66.438.144.88.289 1.317.437.07.145.144.29.218.438h.438v.218h.437v.22h.438v.218h.437c.075.145.149.293.22.437h.437v.22c.218.073.437.144.656.218.074.145.148.293.219.437h.437c.367.438.73.875 1.098 1.317h.437c.805.875 1.606 1.75 2.406 2.625v.437c.22.149.442.293.66.438v.437c.22.149.438.293.657.442v.437c.144.07.293.145.437.219v.438c.145.074.293.144.438.218v.438c.144.074.293.144.437.219v.437c.149.074.293.145.438.219v.656h.219c.074.293.144.586.218.879h.22c.148.656.292 1.312.437 1.969h.218v.437h.22c.073.438.148.875.222 1.313h.219c.07.66.144 1.316.218 1.972h.22v.657h.218v.656h.219v1.094c.472 1.582.957 4.507.437 6.351v2.406h-.219v1.754h-.218v1.313h-.22v.656h-.218v.656h-.219c-.074.73-.148 1.461-.218 2.192h-.22v.437h-.222v.656h-.219c-.07.438-.144.875-.218 1.317h-.22c-.07.363-.144.726-.218 1.094h-.219c-.074.289-.144.582-.218.875h-.22v.656c-.144.074-.288.144-.437.219-.144.437-.293.875-.437 1.312zm-112.102-46.633c5.578-.011 11.637-.039 16.86.22.14.26.36.315.437.437v.437h.219v.438c.144.074.293.144.437.218v.438c.149.074.293.144.438.219v.437c.219.149.437.293.656.438v.437c.149.074.293.149.442.223.07.218.144.437.218.656h.22c.07.219.144.437.218.656h.437c.125.613.336.91.657 1.313h.218v.437c.149.074.293.149.438.219.144.437.293.879.437 1.316h.22c.073.22.148.438.218.657.148.074.293.144.437.218v.438l.88.656v.438c.144.074.288.144.437.218v.438c.219.148.437.293.656.437v.442c.145.07.29.144.438.219.074.218.144.437.218.656h.219l.438 1.312c.218.145.437.293.656.438v.437c.148.074.293.149.437.219v.438c.223.148.442.292.66.44v.438c.22.145.438.29.657.438v.437c.218.145.437.293.656.438v.437c.144.075.293.145.437.22.075.292.149.581.22.874.218.149.437.293.655.438.149.437.293.879.438 1.316.148.07.293.145.437.219v.437c.368.29.73.582 1.098.875.07.22.145.438.219.657.144.074.293.144.437.218v.438c.145.074.29.148.438.219.07.293.144.586.219.878h.218c.075.22.145.438.22.657.144.07.292.144.437.218.074.293.144.583.218.875.22.145.438.293.657.438v.437c.148.075.293.149.437.22v.655c.149.075.293.149.442.22.53.562.203.6 1.312.66.152-.41.219-.856.219-1.536-.508-.574-.219-5.12-.219-6.347v-16.204c0-1.628-.426-4.82.438-5.69.636-.56 3.082-.22 4.16-.22h11.824c.648 1.27.437 3.551.437 5.473V289.938c-1.332.484-3.765.214-5.472.214h-11.168c-.364-.433-.73-.875-1.094-1.312h-.219v-.438c-.148-.074-.293-.144-.437-.218l-.223-.875c-.144-.075-.289-.149-.437-.22a57.1 57.1 0 0 0-.22-.874 63.9 63.9 0 0 0-.655-.438l-.438-1.316c-.144-.07-.293-.145-.437-.219-.075-.219-.149-.437-.22-.656-.292-.219-.581-.438-.874-.656v-.438c-.149-.074-.293-.148-.438-.219v-.437c-.148-.074-.293-.149-.437-.219v-.437c-.149-.075-.293-.149-.442-.22v-.44h-.218c-.07-.29-.145-.583-.22-.875l-.655-.438c-.075-.293-.145-.586-.22-.875-.288-.219-.581-.437-.874-.656-.074-.293-.145-.586-.219-.875l-.437-.223v-.437c-.22-.145-.438-.29-.657-.438-.074-.293-.148-.582-.218-.875-.22-.144-.442-.293-.66-.437a57.13 57.13 0 0 0-.22-.875c-.144-.075-.288-.149-.437-.22v-.437c-.218-.148-.437-.293-.656-.437l-.219-.879c-.144-.07-.293-.145-.437-.219v-.437c-.145-.074-.293-.145-.438-.219v-.438c-.293-.218-.586-.437-.875-.656v-.437c-.148-.074-.293-.149-.437-.219l-.223-.656h-.219v-.442c-.144-.07-.289-.144-.437-.218-.07-.29-.145-.582-.219-.875-.144-.075-.293-.145-.437-.22-.075-.292-.145-.581-.22-.874-.144-.074-.288-.145-.437-.219v-.437h-.218c-.075-.22-.149-.438-.22-.657h-.437v-.437c-.539-.367-.5-.778-.875-1.317-.218-.144-.437-.293-.66-.437v-.438c-.219-.144-.437-.293-.656-.437-.547-.824-.133-1.43-1.313-1.75v.219c-.832.847-.437 6.074-.437 7.879v22.335h-.219v.215c-4.969.45-10.87.22-16.203.22-.648-1.27-.437-3.552-.437-5.474v-54.515c.25-.25.085 0 .218-.438zm-2.41 60.207H342.32c-.363-1.238-.726-2.48-1.093-3.718h-.22v-.438h-.218c-.074-.586-.144-1.168-.219-1.754h-.218v-.437c-.149-.075-.293-.145-.438-.22-.074-.51-.148-1.022-.219-1.53h-.218v-.657h-.22v-.437h-.222c-.289-.879-.582-1.754-.875-2.629h-.437c-.524-.46-3.758-.219-4.817-.219-4.66 0-9.699.082-14.011.219-.157.777-.618 1.324-.875 1.969-.075.437-.149.879-.22 1.316h-.222v.656h-.215v.657h-.218v.656h-.22v.656h-.222v.875h-.219v.66h-.218v.438h-.22v.656h-.218v.875h-.219c-.382 1.024-.043 1.555-.875 2.192v.214H297c-.145-.375-.21-.683-.219-1.312H297v-.875h.219c.07-.293.144-.582.218-.875h.22c.073-.438.144-.875.218-1.313h.219v-.879h.218v-.656h.22v-.437h.218v-.875h.219v-.438h.218v-.875h.22l.222-.879h.219c.144-.656.289-1.312.437-1.968h.219c.07-.293.144-.586.219-.875h.218v-.657h.22v-.437h.218c.07-.442.144-.88.219-1.317h.218v-.437h.22c.073-.438.144-.875.218-1.313h.219c.074-.511.144-1.023.218-1.535h.22v-.437h.218l.656-2.844h.223c.07-.293.144-.586.219-.879h.218c.07-.437.145-.875.22-1.312.144-.075.288-.145.437-.22v-.437h.218c.145-.73.29-1.46.438-2.187h.219c.074-.293.144-.586.218-.88h.22c.144-.73.292-1.456.437-2.187h.218v-.656h.22v-.656h.218v-.442h.219c.148-.726.293-1.457.437-2.187h.223c.07-.293.144-.586.218-.875h.22c.07-.512.144-1.023.218-1.535h.219v-.438c.144-.074.293-.144.437-.218v-.657h.219v-.437h.219c.074-.438.144-.875.218-1.313h.22v-.66h.218v-.437h.219v-.875h.218v-.875h.22v-.657h.218v-.437h.219v-.656h.218c.149-.66.293-1.317.442-1.973h.219c.07-.293.144-.582.218-.875h.22c.07-.437.144-.875.218-1.312h.219v-.442h.218v-.656c.145-.07.29-.145.438-.219.144-.726.293-1.46.437-2.187h.22v-.438h.218c.144-.73.293-1.46.437-2.191h.22v-.657h.218v-.437h.219c.074-.438.148-.875.218-1.313h.22v-.878h.222v-.438h.219v-.656c.144-.07.289-.145.433-.219v-.656h.223v-.656c.219-.149.437-.293.656-.438v-.219h19.926c.433.73.875 1.457 1.312 2.188.07.363.145.73.22 1.094h.218v.437h.219l1.312 4.602c.148.07.293.144.438.218v.875h.218v.438h.22c.073.437.147.875.222 1.312h.215c.074.438.148.875.218 1.317h.22v.437h.222c.07.29.144.582.218.875h.22c.07.438.144.875.218 1.313h.219v.437h.218v.657h.22v.66h.218v.656h.219v.656h.218v.875h.22v.438h.218c.074.437.148.875.219 1.312h.218c.075.512.149 1.024.22 1.535h.222v.438c.144.07.289.144.433.219.149.656.293 1.312.442 1.968.144.075.289.149.437.22.07.366.145.73.22 1.097h.218v.656h.219v.438h.218c.075.437.145.875.22 1.312h.218v.879h.219v.656h.218v.656h.22v.657h.218v.437h.219c.144.73.293 1.461.437 2.192h.223v.437h.215v.875c.148.074.293.145.437.219v.656h.223c.07.293.144.582.219.875h.218v.656h.219c.07.293.145.586.219.88h.219v.655h.218v.438h.219l.219 1.531h.219v.656h.218v.66h.219v.657h.219v.875h.219v.656h.218v.656h.223v.657h.215v.437h.219v.66h.218v.438h.223v.656h.219v.438h.218v.437h.22c.144.438.288.875.437 1.313h.218v.66h.22v.656h.218v.656h.219v.656h.218c.149.73.293 1.461.438 2.192h.219v.437h.218v.657h.22l.222 1.53h.215v.438h.218c.075.368.149.73.22 1.094h.222c-.074.223-.149.442-.223.656zm-89.547-16.418c2.356.418 5.606.22 8.32.22h14.887c.621 1.202.438 3.198.438 5.034v10.73c-.246.247-.086 0-.219.434H253.43c-.528-1.441-.22-4.078-.22-5.91v-54.078c1.33-.488 3.767-.219 5.474-.219h11.824c.566 1.11.437 2.668.437 4.38v39.41zm-68.968-21.02h21.457c.406 1.11.218 3.126.218 4.598v9.633c-1.605.586-4.558.22-6.566.22h-14.453c-.25.25 0 .089-.438.218-.59 1.597-.23 4.57-.218 6.57.363.07.73.145 1.093.219v.219h22.551c.45 1.218.223 3.445.223 5.035v10.726H184.46c-.523-1.441-.219-4.078-.219-5.91v-54.078c1.004-.367 2.805-.219 4.16-.219h37.22c.448 1.22.222 3.446.222 5.035v10.508c-1.528.782-4.774.438-7.008.438h-15.547v.219h-1.094v.218c-.488.547-.238 5.157-.218 6.352zM70.609 229.067h-.441v.442h-.215c-.437.508-.879 1.02-1.316 1.531h-.438c-.226.89-.695.762-1.094 1.313v.437l-.875.656c-.074.293-.148.586-.218.88-.367.288-.73.581-1.098.874v.438c-.144.074-.289.144-.437.218v.438c-.22.144-.438.293-.657.437v.438c-.144.074-.293.148-.437.219v.437l-.438.223c-.144.437-.293.875-.437 1.312h-.219v.438h-.219c-.148.437-.293.875-.437 1.312h-.223v.657h-.215v.437h-.222c-.07.293-.145.586-.215.879h-.223c-.07.438-.144.875-.219 1.313h-.218c-.07.218-.145.437-.22.656-.144.074-.292.144-.437.219-.074.585-.144 1.167-.218 1.753h-.22l-.218.875h-.219v1.094c-.34 1.043-.613 1.836-.656 3.285 1.606.586 4.559.22 6.567.22h14.011c.59-1.61.223-5.157.223-7.227v-15.762c.246-.25.086-.004.219-.442 1.058-.382 2.965-.218 4.379-.218H122.719c.36.68.414.394.437 1.535-.449.52-.164 1.066-.437 1.75h-.223v.437h-.215v.657h-.219v.878h-.218v.657h-.223v.656h-.219v.656c-.144.074-.289.145-.437.219v.656h-.219v.656h-.219v.442h-.218v.656h-.22v.438h-.218v.656h-.219v.875c-.511 1.094-1.02 2.191-1.53 3.285h-.438c-.579.496-4.727.219-5.914.219h-10.29c-2.101 0-4.593-.09-6.351.219-.383 2.152-.219 5.156-.219 7.664.25.183.035-.028.219.218h.879v.22h46.195c.219-.583.23-1.52.219-2.411h-.219c-.07-.438-.144-.875-.219-1.313h-.218v-.656h-.22v-.875h-.218c-.074-.512-.144-1.023-.219-1.535h-.218v-.437h-.22v-.657h-.218v-.437h-.219v-.875h-.218c-.075-.293-.149-.586-.22-.875h-.222v-.442c-.144-.07-.289-.144-.433-.218v-.657l-.442-.218c-.07-.293-.144-.582-.219-.875-.144-.075-.289-.145-.437-.22-.145-.437-.29-.874-.438-1.312h-.218v-.437l-.438-.223c-.144-.437-.293-.875-.437-1.312h-.219c-.074-.219-.148-.438-.219-.657-.148-.074-.293-.144-.437-.218v-.438l-1.535-1.312v-.442c-.145-.07-.29-.144-.438-.218-.684-.997-2.066-3.188-3.281-3.5v-.442c-.844-.492-1.153-1.469-2.192-1.75v-.437c-.218-.075-.437-.145-.656-.22v-.218h-.437a22.952 22.952 0 0 1-.22-.437h-.437v-.22c-.218-.073-.437-.148-.66-.218-.07-.148-.144-.293-.218-.437h-.438l-.656-.88h-.438c-.144-.218-.293-.437-.437-.656h-.438c-.074-.144-.144-.289-.218-.437-.442-.145-.875-.29-1.317-.438-.07-.144-.144-.292-.219-.437h-.437v-.219c-.363-.074-.73-.144-1.094-.219-.074-.148-.144-.292-.219-.437h-.437v-.219h-.438v-.219c-.437-.074-.875-.148-1.312-.218-.074-.149-.149-.293-.223-.442h-.437v-.218h-.438v-.22h-.656v-.218c-.293-.07-.582-.144-.875-.219v-.218c-.363-.075-.73-.145-1.094-.22v-.218h-1.097c-.989-.316-2.31-.793-3.282-1.094h-1.316v-.218h-2.625c-2.52-.704-7.785-.711-10.293 0-1.313.074-2.625.144-3.941.218v.22h-.875v.218h-.875v.219h-.657v.218c-.875.149-1.75.293-2.629.438v.219h-.437v.218h-.656v.22h-.438v.218h-.437c-.075.148-.149.293-.22.437h-.655v.22l-.88.222v.218h-.656v.22c-.437.144-.875.288-1.312.437v.218h-.438v.22c-.367.073-.73.144-1.093.218-.149.219-.293.437-.442.656-.437.149-.875.293-1.312.438v.218c-.219.075-.438.149-.656.22-.075.148-.145.292-.22.437h-.437l-.656.879h-.437c-.075.144-.149.289-.223.437h-.438c-.144.219-.289.438-.437.656h-.438c-.07.145-.144.293-.218.438h-.438c-.219.293-.437.586-.656.875-.578.523-1.07.398-1.313 1.312zm24.739 38.973c-.07.367-.145.73-.22 1.098h-.218v6.347c1.695.868 6.043.438 8.54.438h19.706c.184.25-.027.031.219.219-.156.789-.613 1.523-.879 2.191-.07.438-.144.875-.215 1.313h-.219c-.074.511-.148 1.023-.218 1.535h-.223v.656h-.219v.437h-.218v.657h-.22v.437h-.218v.875h-.219v.656h-.218v.442h-.22v.656h-.218v.656h-.219v.657h-.218v.656h-.22v.656h-.218v.656h-.219v.66h-.218a25.92 25.92 0 0 0-.22.657h-.218c-.074.144-.148.289-.219.437H79.367c-.12-.215-.656-.66-.656-.66V267.82H65.789c-2.504 0-5.508-.168-7.66.22-.156.41-.219.858-.219 1.534.426.48.203 1.274.438 1.969.402 1.203 1.011 2.191 1.093 3.723h.438c.074.293.148.586.219.875h.218v.66c.149.07.293.144.442.219v.437h.215l.222.875h.215v.656h.223v.438h.219v.656c.144.074.289.148.437.219v.437h.219v.66h.219v.438h.218v.437c.145.07.293.145.438.22v.437c.144.074.293.144.437.218v.438c.293.219.586.437.875.656v.438c.149.074.293.148.442.218v.442c.289.219.582.437.875.656v.438c.144.07.289.144.437.218v.438c.219.144.438.293.656.437v.438c.801.73 1.606 1.46 2.41 2.187.653.73 1.313 1.461 1.97 2.192h.437c.219.293.437.586.656.875h.438c.367.437.73.879 1.093 1.312h.438c.074.149.148.293.223.442.218.07.437.144.656.218v.22h.437c.075.144.145.288.219.437h.438c.074.144.144.293.218.437.293.074.586.145.875.219.075.144.149.293.219.437.293.075.586.149.879.22.07.148.144.292.219.437h.437v.218c.363.075.73.149 1.094.22.144.222.293.44.437.66h.657c.074.144.148.288.218.437.293.07.586.144.88.219v.218c.288.07.581.145.874.22v.218c.438.07.875.144 1.313.219v.218h.656v.22h.438v.218h.875v.219c.66.074 1.316.144 1.972.218v.22h.875v.218h.875v.219h.438v.218h1.535v.22h2.187v.218h.875v.219h1.317c.765.222 5.297.52 6.347.218v-.218h1.536v-.22h1.53v-.218h1.75v-.219h1.536v-.218h.656v-.22h.657v-.218c.656-.07 1.312-.144 1.968-.219v-.218h.66v-.22c.508-.073 1.02-.144 1.532-.218.074-.144.144-.293.218-.437h.657v-.22c.511-.073 1.023-.148 1.535-.218.07-.148.144-.293.219-.437.656-.22 1.312-.442 1.968-.657v-.437c.778-.164.985-.578 1.532-.88h.437v-.218h.442v-.219h.433v-.218h.442v-.22h.437v-.218h.438c.074-.144.144-.293.218-.437h.438c.074-.149.144-.293.219-.438h.437l.656-.879h.442c.218-.289.437-.582.656-.875h.437c.075-.144.145-.289.22-.437h.437V293c.386-.316.527-.496 1.093-.656.215-.848.5-.66 1.094-1.094.074-.148.149-.293.223-.437.289-.22.582-.442.875-.66.469-.645.406-1.079 1.312-1.313.184-.715.68-1.035 1.094-1.531h.219v-.438a63.9 63.9 0 0 1 .656-.437v-.438c.149-.074.293-.148.441-.219v-.437c.215-.149.434-.293.657-.442v-.437a63.9 63.9 0 0 0 .656-.438v-.437c.144-.074.293-.145.437-.219v-.437h.22v-.438h.218v-.437h.219v-.438h.218v-.437c.149-.075.293-.149.438-.22v-.44c.512-.801 1.023-1.606 1.531-2.407h17.52c-.223.95-.442 1.899-.66 2.848-.145.07-.29.144-.438.219-.07.508-.144 1.02-.219 1.53-.144.071-.289.145-.437.22-.07.218-.145.437-.219.656h-.219v.656h-.218v.438h-.22c-.218.66-.437 1.316-.655 1.972h-.22v.657h-.218v.437h-.219v.438c-.148.074-.293.144-.437.218-.149.438-.293.875-.442 1.317h-.214v.433c-.22.149-.442.293-.66.442v.437c-.145.07-.29.145-.438.219v.438c-.145.074-.29.144-.438.218-.144.438-.293.875-.437 1.313-.219.148-.438.293-.656.437-.075.293-.149.586-.22.875l-.437.223v.437c-.293.22-.585.438-.875.657v.437l-.878.656v.438l-1.094.879v.437c-.145.07-.293.145-.438.215-.504.535-1.316 1.215-1.535 1.973h-.433v.437c-.22.075-.442.149-.66.22v.218c-.364.293-.727.586-1.094.875-.075.219-.145.437-.22.656l-.655.223c-.586.656-1.168 1.312-1.75 1.968h-.442c-.219.293-.437.586-.656.875h-.438c-.363.438-.73.875-1.093 1.317h-.438c-.148.219-.293.437-.437.656h-.442c-.07.145-.144.29-.215.438-.292.074-.585.144-.878.218-.07.145-.145.293-.22.438h-.437c-.074.144-.144.293-.218.437h-.438v.22c-.293.073-.586.148-.875.218-.148.219-.293.437-.437.656h-.442c-.07.149-.144.293-.215.438h-.437c-.074.148-.149.293-.223.437-.437.149-.875.293-1.312.442v.218h-.438v.219h-.437v.219c-.438.144-.875.293-1.313.437v.219h-.656v.219c-.293.074-.586.144-.879.219v.218h-.437v.219h-.657v.219h-.437v.219h-.438c-.074.148-.144.293-.218.437h-.442v.219c-.508.074-1.02.148-1.531.219-.07.148-.145.293-.219.44h-.656v.22h-.438v.218c-.875.145-1.75.29-2.629.438v.219h-.656v.218h-.656v.22h-.875v.218c-.95.144-1.898.293-2.848.437v.22h-.656v.218h-.656v.219h-.875v.218h-1.535c-2.133.614-5.325.438-8.102.438-1.367.004-3.137.074-4.156-.219h-2.41v-.219c-.582-.07-1.168-.144-1.75-.218v-.22h-.22v.22c-.73-.07-1.46-.145-2.19-.22v-.218h-.875a22.823 22.823 0 0 1-.22-.437c-.804-.075-1.605-.145-2.41-.22v-.218h-.874v-.219h-.875v-.218h-.657v-.22H82.43v-.218c-.508-.074-1.02-.148-1.532-.219v-.218h-.875c-.074-.149-.148-.293-.218-.442h-.657v-.218h-.66v-.22h-.437v-.218h-.438c-.144-.219-.289-.437-.437-.656-.512-.07-1.02-.145-1.531-.219v-.219h-.438a22.823 22.823 0 0 1-.219-.437h-.441v-.219c-.875-.293-1.75-.586-2.625-.875-.074-.148-.145-.293-.219-.437-.293-.075-.586-.149-.875-.22-.074-.148-.148-.292-.219-.44h-.441v-.22h-.438v-.214c-.214-.074-.437-.149-.656-.223-.07-.144-.144-.289-.219-.437-.289-.07-.582-.145-.875-.22-.074-.144-.144-.288-.218-.437h-.438c-.144-.218-.293-.437-.437-.656-.293-.074-.586-.144-.875-.219-.075-.144-.149-.293-.223-.437h-.437c-.07-.149-.145-.293-.215-.438-.293-.074-.586-.148-.88-.218-.288-.368-.581-.73-.874-1.094h-.438l-1.312-1.535h-.438l-.879-1.094h-.437l-1.969-2.191c-.219-.145-.437-.29-.656-.438v-.437c-.606-.157-.492-.063-.66-.657-.676-.156-.93-.425-1.094-1.093h-.437v-.442c-.739-.441-.829-1.074-1.313-1.75-.367-.293-.73-.582-1.094-.875v-.437c-.222-.149-.437-.293-.66-.438v-.437c-.219-.149-.437-.293-.656-.442-.07-.215-.145-.433-.219-.652l-.437-.223v-.437h-.22c-.198-.297-.155-.383-.218-.875h-.437c-.246-1.297-1.157-2.13-1.754-3.067-.07-.289-.145-.582-.215-.875l-.442-.218c-.07-.22-.144-.438-.218-.657h-.22c-.07-.367-.144-.73-.218-1.093a22.984 22.984 0 0 0-.437-.22c-.075-.366-.145-.73-.22-1.097h-.218v-.437h-.219c-.074-.29-.144-.582-.218-.875h-.22v-.657h-.218v-.656h-.219v-.656h-.218v-.656h-.22v-.442h-.218a90.177 90.177 0 0 1-.219-1.093h-.222v-.875h-.219v-.438h-.219c-.07-.363-.144-.73-.218-1.094h-.22v-1.097h-.218c-.07-.438-.144-.875-.219-1.313h-.218v-.437h-.22c-.073-.801-.144-1.606-.218-2.41-1.055-3.508-1.094-7.594-1.094-12.258-.004-3.887-.015-7.414.875-10.293.075-.95.145-1.899.219-2.844h.219v-.879h.219v-.437h.218v-.657h.219c.074-.656.148-1.312.219-1.968h.219c.148-.442.293-.88.437-1.317h.219l.222-1.531h.22c.07-.293.144-.582.218-.875h.219v-.656h.218v-.66h.22v-.657h.218v-.656h.219c.074-.29.144-.582.218-.875h.22v-.656h.218c.074-.367.144-.73.219-1.098.144-.07.293-.144.437-.219.149-.437.293-.875.438-1.312.218-.145.437-.293.66-.438.07-.363.144-.73.215-1.093.222-.149.437-.293.66-.438v-.437h.219v-.442h.218v-.437h.22v-.438h.218c.07-.219.144-.437.219-.656.144-.07.293-.145.437-.219v-.437c.145-.075.293-.145.438-.22v-.437c.218-.144.437-.293.656-.437.074-.293.148-.586.219-.875.218-.149.437-.293.66-.441.07-.22.144-.438.215-.657.148-.07.293-.144.441-.218.344-.38.723-.965.875-1.532h.438c.375-1.492 3.093-3.535 4.16-4.597.566-.57.84-1.293 1.75-1.536.234-.84.488-.66 1.097-1.093.145-.22.29-.438.438-.657h.437c.145-.218.29-.437.438-.656.508-.383.39.235.656-.656h.438c.441-.656.195-.098.656-.438l.656-.878h.438l.222-.438h.438c.07-.144.144-.289.218-.437h.438c.07-.145.145-.29.219-.438.293-.07.582-.144.875-.219.074-.144.144-.293.218-.437.293-.074.586-.145.875-.219.075-.144.149-.293.22-.437.44-.149.878-.293 1.316-.438.144-.219.289-.437.437-.656.438-.149.875-.293 1.313-.442.074-.144.144-.289.218-.433h.438v-.223h.437v-.219h.66v-.218h.438v-.22c.438-.144.875-.288 1.313-.437v-.218c.437-.075.875-.145 1.312-.22v-.218h.438v-.219c.293-.074.585-.144.878-.218v-.22c.727-.148 1.457-.292 2.188-.437.074-.148.144-.293.219-.437l1.312-.223v-.219h.66v-.218h.438v-.215h.656v-.223c.73-.07 1.461-.144 2.188-.219v-.218h1.097v-.219h.657v-.219h.875v-.219c.73-.074 1.46-.144 2.187-.218v-.219h2.191c4.684-1.32 13.059-.816 17.297.437.875.075 1.75.149 2.625.22v.218c.66.074 1.317.148 1.973.219v.218h1.094v.22l1.312.222v.215h.442v.218c.582.075 1.168.149 1.75.22v.222h.437c.074.144.145.289.219.437h.437v.22c.657.144 1.317.288 1.97.437v.218c.292.075.585.145.878.22v.218h.875v.219h.438v.218c.367.075.73.149 1.093.22v.218c.293.074.586.148.88.219v.218h.437v.22h.656c.07.148.144.292.219.437.293.074.582.148.875.218l.218.442h.438c.074.144.148.289.219.437h.437c.074.145.149.29.223.438h.437v.219h.438c.07.144.144.293.219.437.289.074.582.145.875.219.074.144.144.293.218.437h.438v.219h.437v.219h.438v.219h.437c.075.148.149.293.22.437h.44c.29.367.583.73.875 1.098h.438c.363.437.73.875 1.094 1.312h.437c.074.145.149.293.219.438h.437c.149.218.293.437.442.656h.437c1.164 1.242 2.332 2.48 3.5 3.723.22.074.442.144.66.218.07.149.145.293.215.438.22.144.442.293.66.437v.438c.364.293.727.586 1.094.879v.437c.512.438 1.024.875 1.532 1.313v.437l.878.657v.437h.215l.223.656c.219.149.437.293.656.442.07.289.145.582.219.875.144.074.293.144.437.218.075.22.145.438.22.657h.218c.074.293.144.586.219.875.144.074.293.144.437.218v.438c.219.148.438.293.656.437v.442c.149.07.293.144.442.219v.437c.219.145.433.29.652.438v.437h.223v.438h.219v.656c.144.074.289.144.437.219v.437h.219v.656h.219v.442h.218v.437c.22.145.438.29.657.438.144.656.293 1.312.437 1.968h.219c.074.293.148.586.219.875h.218v.66h.22v.438h.222v.438c.144.074.289.144.433.218.075.508.149 1.024.22 1.532h.222v.656h.219v.656h.218v.66h.219v1.313h.219v.875h.219v.875h.218v.879h.219c.074.726.145 1.457.219 2.187h.219v1.531c.296 1 .582 2.477.875 3.504v2.192c.238.828.53 5.668.218 6.785h-.219v4.598c-1.496.546-4.238.218-6.128.218H96.008v.22h-.66" style="fill:#e31c2e;fill-opacity:1;fill-rule:evenodd;stroke:none" transform="matrix(1.64194 0 0 1.64194 -66.683 -328.823)"/>
</svg>