<svg xmlns="http://www.w3.org/2000/svg" viewBox="0 0 364.85266 75">
    <script xmlns=""/>
    <path d="M383.695 99.502v1.789h1.51v-1.789zM349.678 99.502v1.789h.484c-.015.126-.016.253-.066.371-.08.188-.196.318-.32.363l-.151.055v1.004l.291-.084c.437-.124.762-.416.967-.766.204-.35.298-.757.306-1.154v-1.578h-.228zM344.31 99.502v1.789h1.51v-1.789zM245.979 94.172c-.775 0-1.464.17-1.979.564-.515.395-.834 1.016-.873 1.826l-.01.24h1.256l.004-.224c.012-.475.17-.773.422-.974.252-.202.624-.307 1.078-.307.444 0 .825.07 1.07.228.246.16.395.394.395.871 0 .319-.062.418-.168.493-.106.074-.327.122-.649.16-.846.098-1.725.16-2.433.449-.355.145-.671.352-.895.66-.223.308-.346.707-.346 1.2 0 .709.279 1.265.725 1.617.446.352 1.041.507 1.674.507.65 0 1.15-.13 1.557-.38.282-.174.48-.457.69-.725.028.17.012.362.106.504.18.268.516.41.961.41.22 0 .373-.015.56-.055l.182-.039v-1.183l-.312.119a.59.59 0 0 1-.172.037c-.113 0-.154-.027-.18-.055-.025-.027-.05-.08-.05-.193v-3.438c0-.92-.352-1.536-.866-1.88-.513-.346-1.154-.432-1.748-.432zm1.363 3.764v.62c.005.568-.224 1.002-.592 1.311-.368.31-.883.487-1.436.487-.32 0-.63-.107-.853-.29a.941.941 0 0 1-.36-.757c0-.267.075-.431.213-.573.14-.14.357-.255.63-.341.543-.172 1.289-.23 1.978-.354h.002c.104-.02.255-.044.406-.096.004 0 .008-.006.012-.007zM286.268 94.172c-.775 0-1.462.17-1.977.564-.515.395-.835 1.016-.875 1.826l-.01.24h1.256l.004-.224c.01-.474.167-.773.42-.974.253-.202.626-.307 1.08-.307.442 0 .824.07 1.07.228.247.16.397.394.397.871 0 .319-.06.418-.166.493-.106.074-.327.122-.649.16-.847.098-1.729.16-2.437.449-.355.145-.671.352-.895.66-.223.308-.346.707-.346 1.2 0 .709.281 1.265.727 1.617.446.352 1.038.507 1.67.507.65 0 1.152-.13 1.559-.38.282-.174.48-.458.691-.725.027.17.01.362.105.504.178.268.514.41.957.41.225 0 .375-.015.563-.055l.182-.039v-1.183l-.313.119a.637.637 0 0 1-.17.037c-.113 0-.154-.027-.18-.055-.025-.027-.05-.08-.05-.193v-3.438c0-.92-.352-1.536-.866-1.88-.513-.346-1.154-.432-1.748-.432zm1.365 3.76v.625c.005.567-.224 1-.592 1.31-.368.31-.884.487-1.44.487-.317 0-.629-.107-.851-.29a.944.944 0 0 1-.361-.757c0-.267.076-.431.215-.573.138-.14.356-.255.628-.341.544-.172 1.292-.23 1.979-.354.105-.02.256-.044.406-.096.005-.002.01-.01.016-.011zM379.057 91.877v3.363c-.496-.642-1.22-1.068-2.041-1.068-1.047 0-1.855.438-2.375 1.117s-.764 1.583-.764 2.537c0 .955.243 1.86.764 2.54.52.678 1.328 1.113 2.375 1.113.822 0 1.59-.457 2.103-1.094v.906h1.188v-9.414zm-2.041 3.422c.775 0 1.255.309 1.576.777.32.468.465 1.113.465 1.75 0 .639-.145 1.286-.465 1.754-.32.468-.8.774-1.576.774-.681 0-1.124-.3-1.432-.77-.308-.47-.459-1.12-.459-1.758 0-.635.15-1.285.459-1.756.308-.47.75-.771 1.432-.771zM313.352 94.172c-1.091 0-1.905.472-2.416 1.166-.512.694-.735 1.597-.735 2.488 0 .958.222 1.862.737 2.541.514.68 1.328 1.112 2.414 1.112.855 0 1.538-.228 2.044-.665.507-.437.825-1.065 1-1.832l.065-.28h-1.256l-.043.171c-.118.457-.318.824-.607 1.078-.29.254-.672.406-1.203.406-.69 0-1.137-.3-1.444-.742-.261-.377-.35-.875-.39-1.344h4.904l.008-.222c.031-.947-.167-1.9-.662-2.637-.495-.736-1.307-1.24-2.416-1.24zm0 1.127c.573 0 1.005.24 1.318.623.262.32.37.772.43 1.224h-3.551c.087-.449.211-.899.476-1.218a1.65 1.65 0 0 1 1.327-.63zM215.025 94.172c-1.092 0-1.904.472-2.416 1.166-.51.694-.734 1.597-.734 2.488 0 .957.223 1.862.736 2.541.514.68 1.328 1.112 2.414 1.112.856 0 1.541-.228 2.047-.665.507-.436.823-1.065 1-1.832l.067-.28h-1.262l-.041.171c-.116.457-.318.825-.607 1.078-.29.254-.672.406-1.204.406-.687 0-1.132-.3-1.439-.742-.262-.377-.352-.875-.393-1.344h4.903l.008-.222c.032-.947-.163-1.9-.658-2.637-.496-.736-1.312-1.24-2.42-1.24zm0 1.127c.573 0 1.007.241 1.319.623.261.32.369.772.427 1.224h-3.546c.088-.448.211-.9.476-1.218.32-.386.747-.63 1.324-.63zM337.955 94.172c-1.051 0-1.891.426-2.45 1.1-.557.673-.839 1.584-.839 2.556 0 .973.282 1.88.84 2.553s1.398 1.098 2.45 1.098c1.05 0 1.89-.425 2.448-1.098s.838-1.58.838-2.553c0-.972-.28-1.883-.838-2.557-.557-.673-1.398-1.1-2.449-1.1zm0 1.125c.69 0 1.178.3 1.52.767.341.469.52 1.116.52 1.764 0 .649-.179 1.292-.52 1.76-.342.468-.83.77-1.52.77-.69 0-1.176-.302-1.517-.77-.342-.468-.522-1.111-.522-1.76 0-.648.18-1.295.522-1.764.341-.468.827-.767 1.517-.767zM182.79 94.172c-1.054 0-1.894.426-2.452 1.1-.558.673-.838 1.584-.838 2.556s.28 1.88.838 2.553c.558.673 1.398 1.098 2.451 1.098 1.051 0 1.893-.425 2.451-1.098s.838-1.58.838-2.553c0-.972-.28-1.883-.838-2.557-.558-.673-1.4-1.1-2.45-1.1zm0 1.125c.687 0 1.175.3 1.517.767.341.469.521 1.117.521 1.764 0 .648-.18 1.292-.521 1.76-.342.468-.83.77-1.518.77-.69 0-1.175-.302-1.518-.77-.342-.468-.523-1.112-.523-1.76 0-.647.181-1.295.523-1.764a1.784 1.784 0 0 1 1.518-.767zM165.783 94.172c-1.052 0-1.89.426-2.447 1.1-.558.673-.842 1.584-.842 2.556 0 .973.284 1.88.842 2.553s1.395 1.098 2.447 1.098 1.893-.425 2.451-1.098.842-1.58.842-2.553c0-.972-.284-1.883-.842-2.557-.558-.673-1.399-1.1-2.45-1.1zm0 1.125c.689 0 1.178.3 1.52.767.342.469.523 1.117.523 1.764 0 .648-.181 1.292-.523 1.76a1.79 1.79 0 0 1-1.52.77c-.688 0-1.175-.302-1.517-.77-.343-.468-.522-1.112-.522-1.76 0-.647.18-1.295.522-1.764.342-.468.829-.767 1.517-.767zM297.727 94.361v6.934h1.248V94.36zM150.018 94.361v6.934h1.248V94.36zM295.32 94.273c-1-.042-1.738.478-2.252 1.22V94.36h-1.187V101.291h1.25v-3.68c0-1.228.853-2.157 2.168-2.09l.242.012v-1.25zM224.031 94.273c-.997-.042-1.737.478-2.252 1.217v-1.129h-1.187V101.291h1.25v-3.68c0-1.228.853-2.157 2.168-2.09l.24.012v-1.25zM192.115 94.273c-.998-.042-1.737.478-2.25 1.217v-1.129h-1.185V101.291h1.248v-3.68c0-1.228.856-2.157 2.166-2.09l.24.012v-1.25zM305.016 94.172c-.768 0-1.416.402-1.868.955v-.766H301.9V101.291h1.248v-4c.012-.588.194-1.089.5-1.437.307-.35.735-.557 1.303-.557.589 0 .906.178 1.113.467.208.288.301.726.301 1.26v4.267h1.25v-4.393c0-.798-.14-1.483-.558-1.976-.418-.493-1.093-.75-2.041-.75zM254.695 94.172c-.766 0-1.412.402-1.865.953v-.764h-1.25V101.291h1.25v-4c.01-.588.19-1.089.496-1.437.306-.35.734-.557 1.301-.557.59 0 .91.178 1.117.467.208.288.3.726.3 1.26v4.267h1.25v-4.393c0-.798-.14-1.483-.558-1.976-.417-.493-1.092-.75-2.04-.75zM229.162 94.172c-1.05 0-1.893.426-2.451 1.1-.558.673-.838 1.582-.838 2.554 0 .973.28 1.882.838 2.555.558.673 1.4 1.098 2.451 1.098 1.544 0 2.674-1.065 2.899-2.706l.035-.263h-1.262l-.022.209c-.09.976-.79 1.638-1.65 1.638a1.79 1.79 0 0 1-1.52-.77c-.341-.467-.519-1.113-.519-1.76 0-.648.178-1.29.52-1.759a1.79 1.79 0 0 1 1.519-.77c.47 0 .809.13 1.066.358.258.229.441.567.54 1.016l.039.182h1.234l-.031-.258c-.095-.79-.433-1.408-.942-1.817-.508-.409-1.174-.607-1.906-.607zM157.31 94.172c-.766 0-1.413.403-1.865.955v-.766h-1.25V101.291h1.25v-4c.011-.588.189-1.089.494-1.437.306-.349.736-.557 1.305-.557.59 0 .909.178 1.115.467.207.288.3.726.3 1.26v4.267h1.247v-4.393c0-.798-.14-1.481-.556-1.974-.417-.493-1.09-.752-2.04-.752zM369.025 92.42v1.941h-1.127v1.125h1.127v4.196c-.007.574.08 1.01.366 1.302.285.293.714.383 1.265.383.256 0 .482-.025.705-.025h.23v-1.162l-.255.029a6.18 6.18 0 0 1-.647.033c-.23-.017-.299-.066-.343-.138-.046-.074-.073-.239-.073-.485v-4.133h1.319v-1.125h-1.319V92.42zM260.67 92.42v1.941h-1.125v1.125h1.125v4.196c-.005.574.084 1.01.37 1.302.285.293.712.383 1.265.383.254 0 .48-.025.7-.025h.23v-1.162l-.253.029a6.138 6.138 0 0 1-.646.033c-.23-.017-.299-.066-.344-.138-.046-.074-.072-.239-.072-.485v-4.133h1.314v-1.125h-1.314V92.42zM360.096 91.877v9.414h6.326v-1.184h-5.016v-8.23zM297.727 91.877v1.73h1.248v-1.73zM271.291 91.877v9.414h1.313v-6.824l2.714 6.824h1.114l2.695-6.82v6.82h1.316v-9.414h-1.64l-2.93 7.457-2.941-7.457zM234.576 91.877v9.414h1.25v-4c.01-.588.188-1.089.494-1.437.307-.35.737-.555 1.305-.555.59 0 .909.176 1.115.465.207.288.297.728.297 1.261v4.266h1.252v-4.393c0-.798-.14-1.481-.557-1.974-.417-.493-1.094-.752-2.045-.752-.763 0-1.408.402-1.86.953v-3.248zM200 91.877v9.414h1.314v-6.824l2.711 6.824h1.116l2.7-6.828v6.828h1.31v-9.414h-1.641l-2.93 7.457-2.937-7.457zM171.674 91.877v9.414h1.25v-2.58l1.008-.842 2.482 3.422h1.555l-3.086-4.268 3.064-2.662h-1.752l-3.271 2.86v-5.344zM150.018 91.877v1.73h1.248v-1.73zM143.525 91.693c-1.31 0-2.157.437-2.658 1.008a2.67 2.67 0 0 0-.654 1.737c0 .75.274 1.305.691 1.677.418.372.958.57 1.502.705l1.992.49h.002c.402.098.84.242 1.157.465.317.224.513.497.513.928 0 .57-.296.942-.724 1.205-.429.263-.988.387-1.416.387-.79 0-1.487-.143-1.96-.473-.471-.33-.753-.836-.736-1.703l.006-.234h-1.308l-.008.219c-.052 1.147.345 2.02 1.043 2.576.697.556 1.666.799 2.76.799 1.633 0 2.573-.509 3.08-1.13.506-.62.574-1.317.574-1.656 0-.79-.298-1.376-.764-1.777-.465-.401-1.078-.631-1.726-.805h-.002l-2.186-.539v-.002c-.344-.082-.648-.206-.851-.383-.204-.177-.327-.394-.327-.757 0-.603.225-.956.584-1.198.36-.241.877-.355 1.432-.355.591 0 1.14.163 1.537.469.398.305.657.746.68 1.367l.008.219h1.299l.004-.227c.007-.98-.42-1.754-1.079-2.26-.658-.505-1.539-.752-2.464-.752zM328.463 91.69c-1.473 0-2.604.59-3.348 1.5-.744.91-1.107 2.129-1.107 3.396 0 1.266.363 2.486 1.107 3.396.744.91 1.875 1.5 3.348 1.5 1.098 0 2.036-.376 2.719-1.044.683-.669 1.108-1.62 1.234-2.76l.03-.256h-1.319l-.023.205c-.077.752-.363 1.422-.813 1.898-.45.477-1.06.77-1.828.77-1.122 0-1.883-.456-2.393-1.145-.51-.688-.752-1.625-.752-2.564 0-.94.243-1.876.752-2.565.51-.688 1.27-1.144 2.393-1.144 1.209 0 2.24.71 2.521 1.99l.041.18h1.297l-.03-.258c-.243-2.004-2.044-3.1-3.829-3.1z" style="color:#000;font-style:normal;font-variant:normal;font-weight:400;font-stretch:normal;font-size:medium;font-family:sans-serif;font-variant-ligatures:normal;font-variant-position:normal;font-variant-caps:normal;font-variant-numeric:normal;font-variant-alternates:normal;font-variant-east-asian:normal;font-feature-settings:normal;text-indent:0;text-decoration:none;text-decoration-line:none;text-decoration-style:solid;text-decoration-color:#000;letter-spacing:normal;word-spacing:normal;text-transform:none;writing-mode:lr-tb;direction:ltr;text-orientation:mixed;dominant-baseline:auto;baseline-shift:baseline;text-anchor:start;clip-rule:nonzero;display:inline;overflow:visible;visibility:visible;mix-blend-mode:normal;color-interpolation:sRGB;vector-effect:none;fill:#2c292a;fill-opacity:1;fill-rule:nonzero;stroke:none;stroke-width:.459;stroke-linecap:butt;stroke-linejoin:miter;stroke-miterlimit:4;stroke-dasharray:none;stroke-dashoffset:0;stroke-opacity:1;color-rendering:auto;image-rendering:auto;shape-rendering:auto;text-rendering:auto;enable-background:accumulate;stop-color:#000" transform="matrix(1.11048 0 0 1.11048 -62.908 -41.97)"/>
    <path fill="#2c292a" d="M75.004 37.5c0 20.713-16.79 37.5-37.505 37.5C16.79 75 0 58.213 0 37.5 0 16.79 16.79 0 37.499 0c20.715 0 37.505 16.79 37.505 37.5"/>
    <path fill="#fff" d="M73.759 36.958c0 19.85-16.718 36.204-36.566 36.204-19.85 0-35.944-16.094-35.944-35.943z"/>
    <path fill="#0358a7" d="M14.07 64.761c2.03 1.786 5.157 3.792 8.449 5.277h29.397c2.94-1.26 6.75-3.658 8.508-5.277z"/>
    <path fill="#c52226" d="M73.759 38.52C73.759 17.554 57.272.908 37.1 1.184 17.251 1.454 1.25 17.553 1.25 38.521z"/>
    <path fill="#0358a7" d="M1.768 43.355c.578 3.43 1.144 4.886 1.682 6.381h67.927c.538-1.495 1.223-2.757 1.804-6.381zM5.557 54.33c1.063 1.84 2.265 3.89 4.31 6.275h54.887c2.358-2.716 3.62-4.888 4.45-6.275z"/>
    <path fill="#ffcc19" d="M23.946 20.937c-.651-2.119-2.825-5.597-7.104-5.597-1.886 0-3.878.906-3.878 2.873 0 1.634.689 2.3 3.736 3.571l5.324 2.21c1.233.513 3.987 2.267 3.987 5.565 0 2.66-2.317 6.324-8.987 6.324-3.444 0-5.076-1.031-6.198-1.031-.76 0-.943.545-1.088 1.03H8.685V28.41h1.053c.727 3.053 2.826 6.473 7.43 6.473 4.35 0 4.53-2.994 4.53-3.388 0-2.027-1.702-2.752-4.058-3.69l-2.431-.968C9.01 24.356 9.01 21.754 9.01 20.363c0-1.848 1.125-5.96 8.013-5.96 2.9 0 4.605.995 5.653.995.835 0 1.017-.452 1.196-1.028h1.087v6.567zM45.594 35.308h-8.705v-.76c1.583-.059 2.045-.149 2.045-.633 0-.394-.205-.758-.62-1.333l-4.715-6.865-.697.756v5.93c0 1.813.904 1.937 2.278 2.146v.76h-8.73v-.76c1.423-.18 2.253-.3 2.253-2.146V17.761c0-1.999-1.058-2.058-2.253-2.15v-.753h8.757v.753c-1.426.122-2.305.184-2.305 2.782v6.477l5.619-6.596c.701-.815.935-1.089.935-1.663 0-.695-.339-.878-2.203-1v-.753h7.485v.753c-2.719.184-3.96 1.666-8.314 6.868l7.902 11.436c.388.546.75.604 1.268.634zM54.224 24.87c4.063-.03 5.673-.696 5.673-4.628 0-3.056-1.27-4.358-3.75-4.358-1.71 0-1.769.335-1.923 1.272zM67.84 35.31H61.48l-6.42-9.47h-.837v5.926c0 2.423.678 2.513 2.73 2.784v.76H46.468v-.76c2.107-.238 2.73-.333 2.73-2.784V18.394c0-2.599-.962-2.66-2.73-2.782v-.755h9.984c2.175 0 8.747.241 8.747 5.324 0 3.72-3.193 4.658-4.868 5.172l6.236 8.62c.431.546.9.576 1.27.576z"/>
    <path fill="#fff" d="M110.711 61.292c.84 1.061 1.546 1.488 1.591 1.518l1.634-1.518zm-1.724.147.265-.147h-.81v2.976l2.476-.516c-.825-.648-1.902-2.283-1.93-2.313m6.466.678-1.857 1.561c1.607 1.017 3.331 1.253 3.478 1.282l-1.193 1.503c-2.46-.647-4.302-2.136-4.406-2.209v.853l-6.216 1.356-.62-1.547 1.93-.309v-3.315h-2.238V60.01h2.283v-5.967h8.353v1.253h-6.467v.707h6.29v1.208h-6.29v.78h6.32v1.208h-6.32v.811h8.221v1.282h-2.506zM139.615 57.713h-2.767v.737h2.767zm0-1.841h-2.767v.721h2.767zm1.371 9.648c-.398.132-1.105.148-1.121.148l-.573-1.694c.029 0 .28.015.573 0 .325-.016.311-.177.311-.546v-1.502h-1.18v4.493h-1.678v-4.493h-.943v3.624h-1.518v-4.98h2.461v-1.002h-2.18v-4.979h1.898l.12-1.326 2.003.191-.368 1.135h2.533v4.979h-2.328v1.002h2.785v3.58c0 .752-.308 1.208-.795 1.37m-7.44-1.385-1.119-.324c.191-.677.353-1.297.516-2.224l1.355.368zm-2.018-8.632c-.368.78-1.518 1.812-1.576 1.87h3.52c-.81-.604-1.752-1.635-1.944-1.87m-2.225 9c-.161-.927-.353-1.841-.575-2.298l1.268-.279c.073.147.117.293.161.441.207.53.31 1.033.443 1.753zm4.494-5.715h-1.4v1.046h1.798v1.458h-1.814v3.167l2.196-.279-.014 1.428c-.279.044-5.701.766-6.277.87l-.515-1.547c.132-.015 2.504-.207 3.005-.265v-3.374h-1.96v-1.458h1.96v-1.016h-1.459v-1.033l-.648.428-.928-1.371c.118-.059 2.387-1.089 3.227-3.667l1.666.397-.253.561c.59.971 2.093 1.943 2.432 2.062l-1.016 1.222zM161.744 58.876v.65c0 .352.074.454.53.454.488 0 .72.03.899-.338l.295.147v-.913zm-1.325 4.051h-2.121v1.311h2.12zm-2.49-6.954.413 1.473h2.12l.415-1.473zm-2.52 4.538c.355-.133 1.209-.516 1.533-1.635h-1.533zm7.485 4.081c.5.03.604-.118.604-.825v-2.725c-.207.25-.353.22-.795.265h-1.681c-.84-.075-.987-.59-.987-1.046v-1.385h-1.355c-.588 2.46-2.416 3.02-2.52 3.05l-.751-.87v5.363h-1.723v-8.973h2.814l-.427-1.473h-2.785v-1.429h5.097l-.03-.574c-.013-.398-.072-.795-.072-.81l2.225.133c0 .014-.09.264-.09.618l-.043.633h5.156v1.43h-2.8l-.456 1.472h2.948v7.308c0 .516-.06.838-.458 1.222-.442.531-1.885.443-1.916.428l-.59-1.768v.868h-5.67v-3.74h5.67v2.828zM187.997 62.175h-2.136v2.593h2.136zm-3.757-1.458h5.437v5.511h-5.437zm-1.223-2.003v.677h.796zm-2.917.295c-.073-.841-.221-1.68-.427-2.226l1.15-.147c.353.825.455 1.548.484 2.24zm1.517-2.8h-2.135v3.182h2.135zm2.593.662c.251-.985.161-2.268.161-2.62h4.554v3.299c-.044.751.266.648.516.441.191-.161.205-.987.205-1.03l1.488.383c0 .029-.103 1.488-.692 1.93-.545.472-1.282.412-1.93.308-.059 0-1.148-.014-1.193-1.458v-2.386h-1.341c0 .134.074 2.578-1.724 4.037l-.398-.339v1.34h-.839v3.904c0 .634-.279 1.341-.707 1.591-.368.207-1.739.117-1.753.117l-.339-1.649c.015.015.412.177.856.118.633-.073.529-.53.529-.957v-3.124h-.412v2.902h-1.385v-2.902h-.399c0 .015-.043 1.724-.25 2.844-.206 1.148-.603 2.312-1.002 2.858l-1.355-.738c.029-.043.678-.868 1.017-2.665.192-1.002.192-2.239.192-2.299h-.988v-1.385h1.002v-4.464h1.414l.648-1.694 1.65.427-.633 1.267h1.915v3.757c.118-.088.914-.751 1.193-1.813M214.323 65.726c-.412-.384-1.93-1.65-2.769-3.168v3.861h-1.71v-3.89c-1.076 1.9-2.313 2.83-2.813 3.256l-1.165-1.488c.574-.279 2.432-1.635 3.48-3.698h-2.124l-.972 1.474c-.456-.516-.797-1.045-1.076-1.489v5.835h-1.708v-5.216c-.207.412-.5 1.105-1.135 1.99l-1.223-1.254c.93-.927 2.093-2.916 2.313-4.876h-1.356v-1.546h1.401l-.074-2.21 1.87.206-.102 2.004h1.252v1.546h-1.238v.574c.31.914.928 1.901 1.607 2.564v-1.075h3.063v-1.754h-1.236c-.442.988-.81 1.341-.826 1.356l-1.384-.883c.441-.502.867-1.327 1.222-2.372.206-.56.34-1.34.34-1.386l1.472.428c-.015.044-.162.854-.354 1.4h.781l-.029-1.282a40.81 40.81 0 0 1-.059-1.194l1.884.148c0 .088-.087 1.724-.087 1.87v.458h2.52v1.457h-2.52v1.754h3.153V60.6h-2.68c.824 1.724 2.592 3.065 3.52 3.61zM227.126 66.006l-.486-1.62 2.283-.368v-2.962h-1.87v-1.474h5.658v1.474h-1.96v2.622l2.4-.486v1.43c-.057.03-5.73 1.31-6.025 1.384m10.268.382c-1.457.104-2.813-1.429-3.742-4.61-.485-1.723-.587-2.874-.677-3.933h-6.393v-1.562h6.29c0-.045-.03-.649-.045-1.253-.03-.648-.013-1.723-.013-1.738l1.9.207c0 .043-.074.912-.074 1.56 0 .368.016 1.194.016 1.224h1.943c-.03-.03-.294-.457-.706-.87a12.949 12.949 0 0 0-.9-.75l1.135-1.076c.133.102.383.25.914.707.678.604 1 1.061 1.016 1.075l-1.033.914h1.46v1.562h-3.711c0 .058.072 2.018.603 3.682.575 1.767 1.312 2.976 1.797 2.785.353-.148.589-1.34.589-1.357l1.562 1.003c-.015.074-.676 2.342-1.931 2.43M260.567 58.993h-.868l.635.34c-.178.278-.649.882-.736 1.09h.969zm-2.532 0v1.43h.825l-.501-.325c.073-.19.647-1.06.676-1.105zm-1.635 0h-.93c.06.104.282.37.309.427.104.207.281.487.31.708l-.647.295h.958zm.501-4.095c-.296.293-1.414 1.15-1.974 1.325h4.138c-.604-.25-2.135-1.31-2.164-1.325m2.947 9.62h-5.217v.516h5.217zm0-1.533h-5.217v.516h5.217zm-5.983-3.992v1.43h.885c-.03-.133-.191-.414-.251-.546-.075-.22-.294-.486-.367-.618l.499-.266zm-1.031 2.976h8.825v4.155h-8.825zm-.663-4.037h10.077v3.536h-10.077zm11.169-.22c-1.21-.163-2.742-.795-3.051-.899v.604h-6.173v-.678c-.369.148-1.843.78-2.916 1.031l-1.077-1.34c.943-.236 2.623-.634 4.42-1.694 1.031-.575 1.635-1.282 1.812-1.666l1.797.443c0 .014-.147.176-.278.354.074.043 1.339.81 2.384 1.251a14.877 14.877 0 0 0 4.008 1.105zM281.516 66.006v-1.518h2.55v-4.552h-1.99v-1.503h1.99v-3.315c0-.559-.09-1.443-.09-1.474l1.931.193c0 .045-.073.826-.073.913v3.683h2.02v1.503h-2.02v4.552h2.52v1.518zm-.25-1.9h-1.442v-5.128h1.442zm-5.347-10.049h4.891v1.446h-4.89zm5.57 4.023h-2.256v8.338h-1.619V58.08h-2.387v-1.444h6.261zm-4.538 4.228c-.06 1.15-.413 2.696-.428 2.784l-1.518-.206c.014-.044.295-.928.457-2.859.133-1.457.06-2.99.06-3.063l1.516.015c0 .088.015 1.767-.087 3.33" style="fill:#2c292a;fill-opacity:1" transform="matrix(1.48063 0 0 1.48063 -62.908 -41.97)"/>
    <path fill="#fff" d="M110.847 43.69c0 .444.074.84.198 1.161.396 1.063 1.582 1.286 2.596 1.286.89 0 2.25-.297 2.25-1.607 0-.915-.767-1.162-3.808-2.028-2.793-.79-5.983-1.557-5.983-5.117 0-4.08 3.486-5.835 7.12-5.835 3.833 0 7.22 1.46 7.368 5.761h-5.143c.099-.668-.197-1.113-.642-1.41-.445-.32-1.063-.444-1.607-.444-.742 0-1.953.197-1.953 1.186.099 1.261 2.62 1.533 5.117 2.225 2.497.692 4.97 1.855 4.97 5.093 0 4.598-4.228 6.082-8.16 6.082-2.001 0-7.712-.717-7.762-6.354zM133.376 31.97h5.439v17.652h-5.439zM151.996 31.97h5.563l5.142 9.445h.05V31.97h5.142v17.652h-5.29l-5.415-9.642h-.048v9.642h-5.143zM189.533 45.642c1.384 0 3.51-.915 3.51-4.846 0-3.93-2.126-4.846-3.51-4.846-1.385 0-3.512.915-3.512 4.846s2.127 4.846 3.512 4.846m0-14.092c5.364 0 8.95 3.857 8.95 9.246 0 5.39-3.586 9.246-8.95 9.246-5.365 0-8.95-3.856-8.95-9.246 0-5.389 3.585-9.246 8.95-9.246M211.295 31.97h5.44v6.083h.05l4.844-6.082h6.7l-6.404 6.898 7.443 10.754h-6.774l-4.352-6.873-1.508 1.656v5.217h-5.439zM249.179 45.642c1.384 0 3.51-.915 3.51-4.846 0-3.93-2.126-4.846-3.51-4.846-1.385 0-3.512.915-3.512 4.846s2.127 4.846 3.512 4.846m0-14.092c5.364 0 8.949 3.857 8.949 9.246 0 5.39-3.585 9.246-8.95 9.246-5.364 0-8.95-3.856-8.95-9.246 0-5.389 3.586-9.246 8.95-9.246M276.231 39.684h2.844c1.014 0 2.398-.173 2.398-1.756 0-1.112-.619-1.755-2.695-1.755h-2.547zm-5.438-7.714h10.36c3.09 0 5.76 1.706 5.76 5.044 0 1.83-.842 3.758-2.647 4.425 1.484.57 2.4 2.201 2.596 4.401.075.865.1 2.967.594 3.782h-5.439c-.272-.89-.37-1.805-.445-2.719-.149-1.68-.296-3.437-2.448-3.437h-2.893v6.156h-5.438z" style="fill:#0358a7;fill-opacity:1" transform="matrix(1.48063 0 0 1.48063 -62.908 -41.97)"/>
</svg>