<svg xmlns="http://www.w3.org/2000/svg" xml:space="preserve" x="0px" y="0px" viewBox="0 442 1000 116">
    <script xmlns=""/>
    <path d="M57.618 515.109a24.541 24.541 0 0 1-3.979 9.95 23.246 23.246 0 0 1-8.856 7.263 33.833 33.833 0 0 1-15.67 3.084 36.705 36.705 0 0 1-10.746-1.592 27.15 27.15 0 0 1-9.303-4.976 24.22 24.22 0 0 1-6.567-8.307A28.568 28.568 0 0 1 .01 508.093v-7.91h17.56v3.98a32.1 32.1 0 0 0 .498 5.969 11.923 11.923 0 0 0 1.841 4.976 8.347 8.347 0 0 0 3.383 3.034 12.145 12.145 0 0 0 5.622 1.145 10.539 10.539 0 0 0 5.919-1.542 8.013 8.013 0 0 0 3.035-3.532 14.34 14.34 0 0 0 1.095-4.976v-64.424h19.402v60.643a61.175 61.175 0 0 1-.747 9.653M89.557 508.89a19.922 19.922 0 0 0 2.537 6.567 14.178 14.178 0 0 0 4.727 4.677 14.924 14.924 0 0 0 7.413 1.691 14.922 14.922 0 0 0 7.462-1.741 14.458 14.458 0 0 0 4.974-4.677 21.25 21.25 0 0 0 2.538-6.567c.46-2.477.693-4.991.696-7.511a42.9 42.9 0 0 0-.696-7.562 20.274 20.274 0 0 0-2.538-6.567 14.94 14.94 0 0 0-4.974-4.677 14.638 14.638 0 0 0-7.512-1.791 14.241 14.241 0 0 0-7.413 1.791 14.656 14.656 0 0 0-4.727 4.677 19.269 19.269 0 0 0-2.487 6.617 38.633 38.633 0 0 0-.746 7.562c-.006 2.522.244 5.04.746 7.511m-16.019-21.441a29.858 29.858 0 0 1 6.715-10.696 29.125 29.125 0 0 1 10.348-6.816 35.71 35.71 0 0 1 13.581-2.438c4.674-.073 9.32.755 13.681 2.438a29.492 29.492 0 0 1 10.448 6.816 30.512 30.512 0 0 1 6.666 10.696 39.798 39.798 0 0 1 2.339 13.93 39.438 39.438 0 0 1-2.339 13.73 30.222 30.222 0 0 1-6.666 10.646 28.611 28.611 0 0 1-10.448 6.717 37.423 37.423 0 0 1-13.681 2.388 36.704 36.704 0 0 1-13.581-2.388 28.219 28.219 0 0 1-10.348-6.717 29.829 29.829 0 0 1-6.715-10.646 39.474 39.474 0 0 1-2.339-13.88 39.802 39.802 0 0 1 2.339-13.93M164.826 508.89a19.88 19.88 0 0 0 2.538 6.567 13.875 13.875 0 0 0 4.975 4.677 14.37 14.37 0 0 0 7.363 1.691 14.91 14.91 0 0 0 7.313-1.741 14.002 14.002 0 0 0 4.975-4.677 19.908 19.908 0 0 0 2.537-6.567c.484-2.473.718-4.989.696-7.511a38.53 38.53 0 0 0-.696-7.562 19.277 19.277 0 0 0-2.537-6.567 13.635 13.635 0 0 0-12.338-6.468 13.93 13.93 0 0 0-7.363 1.791 14.334 14.334 0 0 0-4.975 4.677 19.279 19.279 0 0 0-2.538 6.567 38.76 38.76 0 0 0-.597 7.612c-.006 2.522.245 5.04.746 7.511m-15.918-21.441a29.201 29.201 0 0 1 17.013-17.512 35.712 35.712 0 0 1 13.582-2.438c4.674-.073 9.32.755 13.681 2.438a29.492 29.492 0 0 1 10.448 6.816 30.512 30.512 0 0 1 6.666 10.696 39.798 39.798 0 0 1 2.339 13.93 39.439 39.439 0 0 1-2.438 13.73 30.222 30.222 0 0 1-6.666 10.646 28.611 28.611 0 0 1-10.448 6.717 37.423 37.423 0 0 1-13.681 2.388 36.709 36.709 0 0 1-13.582-2.388 28.659 28.659 0 0 1-10.347-6.717 29.537 29.537 0 0 1-6.667-10.646 38.3 38.3 0 0 1-2.388-13.88 38.592 38.592 0 0 1 2.388-13.93M240.941 469.241v8.955h.397a19.901 19.901 0 0 1 8.657-8.159 24.88 24.88 0 0 1 10.845-2.537 29.835 29.835 0 0 1 11.591 1.94 17.608 17.608 0 0 1 7.064 5.323 19.888 19.888 0 0 1 3.631 8.308 49.25 49.25 0 0 1 1.095 10.895v39.4H266.66v-36.217a22.19 22.19 0 0 0-2.487-11.89 9.551 9.551 0 0 0-8.755-3.88 12.088 12.088 0 0 0-10.398 4.278 23.783 23.783 0 0 0-3.184 14.079v33.58h-17.562V469.24h16.667zM334.219 516.751a13.833 13.833 0 0 0 4.677-3.931 17.81 17.81 0 0 0 2.786-5.671c.645-2.146.963-4.376.945-6.616a35.964 35.964 0 0 0-.747-7.512 18.58 18.58 0 0 0-2.487-6.268 12.33 12.33 0 0 0-4.577-4.328 14.137 14.137 0 0 0-7.164-1.643 12.935 12.935 0 0 0-6.368 1.493 13.689 13.689 0 0 0-4.428 4.029 16.263 16.263 0 0 0-2.587 5.821 28.325 28.325 0 0 0-.845 6.915 35.623 35.623 0 0 0 .646 6.866 19.187 19.187 0 0 0 2.337 6.168 13.936 13.936 0 0 0 4.429 4.428 11.98 11.98 0 0 0 6.765 1.741 13.882 13.882 0 0 0 6.567-1.492m24.03 21.342a21.193 21.193 0 0 1-4.528 9.253 26.865 26.865 0 0 1-9.95 7.264 42.839 42.839 0 0 1-17.511 2.985 40.37 40.37 0 0 1-9.602-1.194 30.708 30.708 0 0 1-8.905-3.632 22.786 22.786 0 0 1-6.667-6.418 18.29 18.29 0 0 1-3.034-9.352h17.411a9.95 9.95 0 0 0 4.976 6.864 17.205 17.205 0 0 0 8.308 1.94 12.735 12.735 0 0 0 10.795-4.477 17.913 17.913 0 0 0 3.134-11.294v-8.407h-.249a17.463 17.463 0 0 1-8.109 7.512 26.281 26.281 0 0 1-10.895 2.389 28.124 28.124 0 0 1-12.388-2.538 23.786 23.786 0 0 1-8.506-6.964 28.978 28.978 0 0 1-4.975-10.299 48.211 48.211 0 0 1-1.542-12.437 40.2 40.2 0 0 1 1.791-11.989 30.77 30.77 0 0 1 5.273-9.95 23.98 23.98 0 0 1 8.507-7.014 25.709 25.709 0 0 1 11.84-2.836 24.466 24.466 0 0 1 11.094 2.388 18.998 18.998 0 0 1 7.959 7.911h.249v-8.557h16.665v60.046a42.776 42.776 0 0 1-1.141 8.806M410.234 466.654h.249l11.144 32.485h-22.885l11.492-32.485zm-9.651-21.839-33.331 88.601h19.501l6.915-19.899h33.033l6.667 19.899h19.899l-32.784-88.601h-19.9zM477.594 469.241v8.955h.349a20.289 20.289 0 0 1 8.656-8.159 24.88 24.88 0 0 1 10.895-2.537 29.83 29.83 0 0 1 11.591 1.94 17.254 17.254 0 0 1 7.065 5.323 20.808 20.808 0 0 1 3.682 8.308 52.579 52.579 0 0 1 1.044 10.895v39.4h-17.411v-36.217a22.746 22.746 0 0 0-2.438-11.89 9.65 9.65 0 0 0-8.805-3.88 11.941 11.941 0 0 0-10.348 4.278 23.39 23.39 0 0 0-3.233 14.079v33.58h-17.562V469.24h16.515zM571.021 516.751a13.366 13.366 0 0 0 4.676-3.931 17.748 17.748 0 0 0 2.786-5.671c.645-2.146.963-4.376.945-6.616a35.896 35.896 0 0 0-.746-7.512 17.634 17.634 0 0 0-2.487-6.268 12.343 12.343 0 0 0-4.576-4.328 14.144 14.144 0 0 0-7.164-1.643 12.933 12.933 0 0 0-6.368 1.493 13.699 13.699 0 0 0-4.428 4.029 17.21 17.21 0 0 0-2.587 5.821 28.35 28.35 0 0 0-.796 6.915c-.007 2.305.21 4.604.646 6.866a18.127 18.127 0 0 0 2.389 6.168 13.303 13.303 0 0 0 4.377 4.428 11.985 11.985 0 0 0 6.767 1.741 13.878 13.878 0 0 0 6.566-1.492m24.028 21.342a21.662 21.662 0 0 1-4.477 9.253 27.465 27.465 0 0 1-9.95 7.264 42.942 42.942 0 0 1-17.562 2.985 40.569 40.569 0 0 1-9.551-1.194 31.323 31.323 0 0 1-8.906-3.632 22.767 22.767 0 0 1-6.665-6.418 18.803 18.803 0 0 1-3.035-9.352h17.313a9.945 9.945 0 0 0 4.976 6.864 17.2 17.2 0 0 0 8.307 1.94 12.64 12.64 0 0 0 10.796-4.477 17.32 17.32 0 0 0 3.283-11.294v-8.407a17.708 17.708 0 0 1-8.108 7.512 26.276 26.276 0 0 1-11.045 2.389 27.712 27.712 0 0 1-12.337-2.538 23.513 23.513 0 0 1-8.557-6.964 29.014 29.014 0 0 1-4.976-10.299 48.168 48.168 0 0 1-1.542-12.437 40.2 40.2 0 0 1 1.791-11.989 30.829 30.829 0 0 1 5.273-9.95 23.962 23.962 0 0 1 8.258-7.014 25.715 25.715 0 0 1 11.79-2.637 24.468 24.468 0 0 1 11.095 2.388 18.705 18.705 0 0 1 7.959 7.91v-8.755h16.666v60.046a42.92 42.92 0 0 1-1.045 8.806M698.625 532.67a31.94 31.94 0 0 1-12.686 2.687 45.206 45.206 0 0 1-18.208-3.532 39.426 39.426 0 0 1-13.631-9.949 41.747 41.747 0 0 1-8.508-14.576 53.05 53.05 0 0 1-2.985-18.009 55.174 55.174 0 0 1 2.985-18.407 43.08 43.08 0 0 1 8.508-14.924 38.533 38.533 0 0 1 13.631-9.95 43.572 43.572 0 0 1 18.208-3.631 41.67 41.67 0 0 1 13.133 2.089 37.186 37.186 0 0 1 11.492 5.97 32.772 32.772 0 0 1 12.486 23.182h-18.506a18.555 18.555 0 0 0-6.666-11.143 19.196 19.196 0 0 0-11.939-3.731 22.442 22.442 0 0 0-11.095 2.537 20.793 20.793 0 0 0-7.412 6.815 29.854 29.854 0 0 0-4.129 9.95 46.708 46.708 0 0 0-1.344 11.243 43.442 43.442 0 0 0 1.344 10.845 29.188 29.188 0 0 0 4.129 9.502 20.568 20.568 0 0 0 7.412 6.716 22.44 22.44 0 0 0 11.095 2.537 20.933 20.933 0 0 0 14.924-4.975 21.293 21.293 0 0 0 6.02-13.73h-19.501V485.51h37.063v47.857h-12.388l-1.94-9.949a29.06 29.06 0 0 1-11.491 9.353M755.537 469.291v11.89a21.488 21.488 0 0 1 3.333-5.472 23.438 23.438 0 0 1 4.975-4.378 26.051 26.051 0 0 1 5.821-2.786 21.137 21.137 0 0 1 6.417-.995c1.3.041 2.589.258 3.83.646v16.367c-.982-.22-1.98-.369-2.984-.447a25.405 25.405 0 0 0-3.334 0 18.104 18.104 0 0 0-8.108 1.642 13.741 13.741 0 0 0-5.373 4.377 17.277 17.277 0 0 0-2.886 6.517 33.9 33.9 0 0 0-.896 8.06v28.854h-17.51v-64.274h16.715zM801.555 508.89a19.878 19.878 0 0 0 2.537 6.567 13.18 13.18 0 0 0 4.974 4.627 16.763 16.763 0 0 0 14.925 0 13.076 13.076 0 0 0 4.975-4.627 19.91 19.91 0 0 0 2.538-6.567c.98-4.926.98-9.997 0-14.923a19.508 19.508 0 0 0-2.538-6.617 13.87 13.87 0 0 0-4.975-4.627 16.32 16.32 0 0 0-14.925 0 14.021 14.021 0 0 0-4.974 4.627 19.485 19.485 0 0 0-2.537 6.617 38.165 38.165 0 0 0 0 14.923m-15.92-21.441a29.298 29.298 0 0 1 17.014-17.462 36.726 36.726 0 0 1 13.582-2.388 37.164 37.164 0 0 1 13.631 2.388 29.484 29.484 0 0 1 10.446 6.816 30.23 30.23 0 0 1 6.667 10.646 39.774 39.774 0 0 1 2.338 13.93c.06 4.729-.733 9.43-2.338 13.879a30.485 30.485 0 0 1-6.667 10.597 29.396 29.396 0 0 1-10.446 6.766 37.162 37.162 0 0 1-13.631 2.339 36.706 36.706 0 0 1-13.582-2.339 29.446 29.446 0 0 1-10.348-6.766 29.846 29.846 0 0 1-6.666-10.745 38.298 38.298 0 0 1-2.338-13.88 38.817 38.817 0 0 1 2.338-13.93M904.485 533.366v-8.955h-.398a19.886 19.886 0 0 1-8.607 8.109 25.315 25.315 0 0 1-10.845 2.438 30.642 30.642 0 0 1-11.542-1.841 16.375 16.375 0 0 1-7.063-5.273 21.217 21.217 0 0 1-3.682-8.308 52.046 52.046 0 0 1-1.045-10.846v-39.4h17.512v36.167a22.44 22.44 0 0 0 2.487 11.84 9.606 9.606 0 0 0 8.755 3.931 12.24 12.24 0 0 0 10.398-4.278 23.879 23.879 0 0 0 3.184-14.079v-33.58h17.511v64.075h-16.665zM974.48 520.084a13.57 13.57 0 0 0 4.676-4.527 18.301 18.301 0 0 0 2.537-6.468c.497-2.489.747-5.021.747-7.561a34.882 34.882 0 0 0-.796-7.562 19.853 19.853 0 0 0-2.688-6.617 14.343 14.343 0 0 0-4.726-4.727 13.239 13.239 0 0 0-7.113-1.791 13.648 13.648 0 0 0-7.214 1.791 14.331 14.331 0 0 0-4.677 4.627 19.893 19.893 0 0 0-2.536 6.567 39.302 39.302 0 0 0-.746 7.711 38.65 38.65 0 0 0 .795 7.561 19.383 19.383 0 0 0 2.587 6.468 13.423 13.423 0 0 0 4.975 4.527 13.674 13.674 0 0 0 7.164 1.741 13.48 13.48 0 0 0 7.214-1.741m-22.983-50.792v8.208a19.147 19.147 0 0 1 8.456-7.562 24.578 24.578 0 0 1 10.845-2.388 26.364 26.364 0 0 1 21.989 10.447 32.427 32.427 0 0 1 5.273 10.944 49.141 49.141 0 0 1 1.741 13.084 44.787 44.787 0 0 1-1.741 12.387 31.06 31.06 0 0 1-5.273 10.647 25.5 25.5 0 0 1-8.755 7.313 26.019 26.019 0 0 1-12.289 2.736 24.872 24.872 0 0 1-10.895-2.389 21.102 21.102 0 0 1-8.208-7.164h-.298v30.348h-17.263V469.29h16.418z"/>
</svg>