<svg xmlns="http://www.w3.org/2000/svg" viewBox="0 0 363.05496 64.602112">
    <script xmlns=""/>
    <path d="M75.423 150.319h24.785L60.43 190.035v68.317H41.29v-75.975l34.133-32.058" style="fill:#284398;fill-opacity:1;fill-rule:nonzero;stroke:none;stroke-width:.133333" transform="matrix(.59402 0 0 .59402 -24.527 -89.292)"/>
    <path d="M105.406 150.319 63.94 192.588v65.764h16.588v-58.43l47.528-49.603h-22.649" style="fill:#284398;fill-opacity:1;fill-rule:nonzero;stroke:none;stroke-width:.133333" transform="matrix(.59402 0 0 .59402 -24.527 -89.292)"/>
    <path d="m132.806 150.319-48.771 50.88v57.153h17.543v-51.093l56.143-56.94h-24.915" style="fill:#284398;fill-opacity:1;fill-rule:nonzero;stroke:none;stroke-width:.133333" transform="matrix(.59402 0 0 .59402 -24.527 -89.292)"/>
    <path d="m136.35 180.148-12.538 12.119 17.005 17.226v48.859h16.907v-57.47l-21.373-20.734" style="fill:#284398;fill-opacity:1;fill-rule:nonzero;stroke:none;stroke-width:.133333" transform="matrix(.59402 0 0 .59402 -24.527 -89.292)"/>
    <path d="m138.417 177.75 22.971 22.973v57.629h16.432v-65.447l-27.276-27.274-12.127 12.12" style="fill:#284398;fill-opacity:1;fill-rule:nonzero;stroke:none;stroke-width:.133333" transform="matrix(.59402 0 0 .59402 -24.527 -89.292)"/>
    <path d="m152.939 163.241 27.589 27.591v67.52h17.707v-74.376l-33.02-33.021-12.276 12.286" style="fill:#284398;fill-opacity:1;fill-rule:nonzero;stroke:none;stroke-width:.133333" transform="matrix(.59402 0 0 .59402 -24.527 -89.292)"/>
    <path d="M515.515 172.164v16h-.322v8.32h-.318c-.107 4.373-.215 8.747-.32 13.12h-.32v4.8h-.322v3.52h-.32c-.4 1.42-.136 4.303 0 5.12h15.68c2.326 0 5.576.333 7.36-.32.118-.64.108-2.144.322-2.88h.32v-2.24h.32v-2.88h.318v-3.2h.322v-4.8h.32v-3.2c.105-2.133.213-4.267.32-6.4h.318c.684-2.427-.97-9.043.32-10.56v-17.6c0-2.585.422-6.295-.32-8.32h-79.36c-3.665 0-8.05-.24-11.2.32l.322 1.92h-.322c-.022 3.024-.405 7.267.642 9.28h66.24M362.555 179.524l.64-.32v-.64l.64-.32 1.278-1.6 1.28-.32v-.32h1.28v-.32h.962v-.32h1.918v-.32h2.562c2.981-.85 13.317-1.23 16.64-.32h3.518v.32h2.88c2.879.815 6.647 1.55 7.362 4.48.5.545.701 2.859.32 3.84h-.32v.64h-.322c-.37.493-.43.563-.638 1.28-.719.197-.795.268-1.28.64v.32l-1.28.32v.32h-.962v.32h-1.28v.32h-1.278v.32l-5.44.32c-1.587.448-4.304.32-6.4.32-4.25 0-9.131.317-12.482-.64h-1.918v-.32h-1.6c-2.09-.661-5.2-2.028-5.76-4.16h-.32v-3.84zm-18.882-6.4c-.493 1.028-1.181 1.777-1.918 2.56l-.642.32v.64l-.638.32v.64h-.32v.96h-.32v.64h-.322v2.56h-.318v1.28h.318v3.52h.322v.64h.32v.96h.32c.105.427.213.853.318 1.28h.32v.64l.642.32v.64l1.6 1.28.318.64h.642l.638.96 1.282.32v.32l1.918.64v.32l1.922.32v.32h.638v.32l3.522.64v.32h.958v.32l6.402.64c3.697 1.06 8.786.96 13.438.96h6.402v.32h4.16v-.32h7.36c10.148-.001 18.982-1.295 25.918-4.48h.962l.318-.64 1.282-.32.318-.64h.642c.32-.427.638-.853.96-1.28 1.128-1.123 2.18-1.919 2.88-3.52.106-.747.212-1.493.32-2.24h.32v-1.92h.32c.293-1.03-.159-2.656-.32-3.2v-1.6h-.32v-.96h-.32l-.64-1.92-.64-.32v-.64l-.642-.32-1.598-1.92v-.32c2.744.017 6.79.483 8.958-.32.018-3.144.583-8.756-.318-11.2h-24.96c-3.248 0-8.979.608-11.522-.32v-8h-24c.018 2.57.426 6.312-.32 8.32h-24.318c-3.174 0-8.723-.584-11.202.32-.014 3.144-.58 8.756.32 11.2h8.32M649.913 190.084h.322v-.32c-.082-.139-.456-.256-.642-.64h-68.158c-.016-2.053-.25-4.87.318-6.4h61.12c2.154 0 5.094-.272 6.72.32v-.32h.32v-14.72c0-2.324.334-5.576-.32-7.36h-82.878c-2.676 0-6.531-.448-8.64.32v9.6H619.833c2.154 0 5.094-.272 6.722.32 0 2.15.134 4.84 0 6.08h-68.48v22.08h91.838c.367-2.159-.4-5.924 0-8.96M250.233 172.164c3.422 0 8.522-.57 10.882.64.01 2.756-.479 6.008-1.6 7.68l-.962.64c-.318.427-.638.853-.958 1.28h-.64c-.107.213-.215.427-.32.64l-1.28.32v.32l-1.92.64v.32l-1.922.32v.32l-2.238.32v.32l-8.64 1.28h-10.242c-1.2 0-3.162-.248-3.838.32l-.96.32c.037 2.904-.27 7.924.32 11.2 3.337-.047 7.784.47 10.56-.32h7.998v-.32h3.842v-.32h2.24v-.32l7.36-.96v-.32h1.28v-.32h1.28v-.32h1.278v-.32h.962v-.32l2.24-.32v-.32h.64v-.32l1.92-.32v-.32l1.92-.64v-.32h.638v-.32h.642v-.32c.816-.456 1.541-.77 2.56-.96.845.99 2.617 1.265 3.838 1.92v.32l1.922.64v.32h.958v.32h.642v.32l2.56.32v.32h.64v.32h1.6v.32h.96v.32h1.28v.32h1.6v.32h1.6v.32h1.918v.32h2.242v.32h2.56v.32l8.32.32c1.148 0 2.877-.21 3.52.32 2.994.016 8.242.535 10.56-.32v-11.2c-3.047-.553-7.318-.32-10.88-.32h-4.48v-.32h-3.202v-.32h-2.238v-.32h-1.6v-.32h-1.28v-.32h-1.28v-.32h-.962v-.32l-1.6-.32v-.32h-.638v-.32l-1.6-.32-.322-.64-1.28-.32a71.734 71.734 0 0 0-.32-.64l-2.238-1.92-.322-1.28h-.318c-.264-.515-.06-1.8-.32-2.24h-.32c-.016-1.544-.08-3.413.32-4.48h34.558c.194-.639-.044-.276.322-.64.016-3.07.557-8.5-.322-10.88h-82.558c-3.767 0-8.276-.257-11.52.32-.004 3.665-.243 8.055.32 11.2h24.318M431.673 204.804h-96.64c-.138.416-.476.556-.318 1.28h.318v1.28h-.318v.32c.042.196.556-.065.318.32h-.318c-.024 2.8-.31 6.497.638 8.32 22.391-.421 47.582 0 71.042 0h18.238c1.479 0 5.648.333 6.402-.32l.96-.32V206.404c-.075-.447-.316.132-.322-.32h.322c-.076-.755-.136-.79-.322-1.28M532.153 246.724H445.115c-.016 3.144-.582 8.756.32 11.2h96.638v-11.2c-2.414-.41-6.57 0-9.92 0M567.673 203.524c-3.865 0-8.496.275-11.838-.32v.96h-.32c-.016 2.995-.536 8.243.32 10.56h25.28c3.496 0 8.773-.603 11.2.64-.194.639.044.276-.32.64-.018 2.053-.251 4.87.32 6.4h16.318c2.412 0 5.816.363 7.682-.32v-1.28h-.322c-.016-1.967-.218-4.628.322-6.08h36.158v-11.2h-84.8" style="fill:#100f0d;fill-opacity:1;fill-rule:nonzero;stroke:none;stroke-width:.133333" transform="matrix(.59402 0 0 .59402 -24.527 -89.292)"/>
    <path d="M625.913 246.724h-26.558c-5.703 0-12.095.15-17.28-.32v-8.64h43.838v.32h.322c.016 2.657.453 6.55-.322 8.64zm15.682-26.56h-15.36c.003 2.099-.027 4.448-.322 6.08h-2.238v-.32l-27.842.32h-7.998c-1.231-.003-2.466-.295-2.88 0-1.531.009-2.028-.188-2.88-.64v-5.44h-16.32c-2.412 0-5.816-.363-7.68.32v25.6c0 3.323-.631 9.235.32 11.84l.638.32v-.32h2.88v.32h5.76v-.32h74.88c1.586 0 5.142-.493 6.08.32.756-.076.792-.136 1.28-.32.194-.639-.044-.276.322-.64v-28.16c0-2.092.456-8.519-.642-9.28-2.088.527-5.392.32-7.998.32M405.115 243.204l-.642.32a673.25 673.25 0 0 1-1.28 1.6l-1.28.32v.32h-.958v.32h-.642v.32h-1.598v.32h-1.6v.32h-2.242c-3.186.912-7.773.64-11.838.64-3.974 0-8.416.253-11.52-.64h-1.92v-.32h-1.602v-.32h-1.6v-.32h-.638v-.32h-1.28c-.107-.213-.215-.427-.32-.64h-.642l-.318-.64h-.64v-.32a300.17 300.17 0 0 1-.96-.64c-.203-.905-.724-1.761-.962-2.56.108-1.067.215-2.133.32-3.2.404-.341.335-.567.642-.96h.318v-.64c.962-.64 1.922-1.28 2.88-1.92h.962v-.32h.638v-.32h1.6v-.32h1.922v-.32h2.56v-.32c1.132-.324 2.465.297 3.2-.32 6.009.023 13.576-.775 18.56.64h2.56v.32l4.16.64v.32h.638v.32h.962l.638.96h.642c.67.487.868 1.448 1.6 1.92.133 1.34.336 2.765.32 4.48-.636.553-.271.743-.64 1.28zm24.32-8h-.32v-.64h-.322v-1.28h-.318c-.107-.427-.215-.853-.32-1.28l-.642-.32v-.64l-1.918-1.6c-.215-.32-.428-.64-.64-.96h-.642l-.318-.64-.962-.32v-.32h-.638c-.108-.213-.214-.427-.32-.64l-7.04-2.56h-1.28v-.32h-1.28v-.32h-1.28v-.32h-1.6v-.32h-2.242v-.32h-2.88v-.32h-3.518v-.32h-5.12c-2.218-.625-5.884-.32-8.64-.32h-16.322c-.721.624-2.896.29-4.158.32l-7.68.64v.32l-3.52.32v.32h-1.6v.32h-1.28v.32h-1.28v.32h-.96v.32l-2.242.32v.32h-.638v.32h-.962v.32l-1.918.64v.32l-1.28.32c-.215.32-.428.64-.64.96h-.642l-1.598 1.92-1.28.96v.64l-.64.32-.322 1.28c-.754 1.425-2.402 6.165-1.6 8.96h.322v1.6h.32v1.28h.32v.96h.318c.108.427.215.853.32 1.28h.322v.64l.958.64v.64l.642.32 1.6 1.92h.638l.642.96h.638l.322.64 2.88.96v.32h.64v.32l1.918.32v.32h.962v.32h.96v.32l2.238.32v.32h1.922v.32h1.6v.32h1.6v.32l11.2.64c2.624.737 6.508-.19 9.6.32 1.33.219 5.28.81 7.04.32v-.32h9.598v-.32h5.44v-.32h3.522v-.32h2.558v-.32h1.922v-.32h1.6v-.32h1.6v-.32h.96v-.32h1.28v-.32h.958v-.32h1.282l6.72-3.2.638-.96h.642c.105-.213.213-.427.32-.64l1.6-1.28v-.64l.64-.32v-.64l.64-.32v-.96h.318v-.64h.322c.749-1.747.929-6.913.32-8.96v-1.6M265.275 232.644c2.481-.7 12.549-.685 15.04 0h3.52v.32h2.56v.32l3.2.32v.32h.96v.32l1.918.64v.32h.642c.212.32.425.64.64.96l.64.32v.64l.64.32v.96h.32c.532 1.341.08 2.064 0 3.52-.634.556-.271.743-.64 1.28l-.642.32c-.425.533-.852 1.067-1.28 1.6l-1.28.32v.32h-.958v.32h-.96v.32h-1.282v.32h-1.598v.32h-2.24c-2.71.779-6.407.64-9.92.64-5.384 0-11.219.277-15.36-.96l-3.202-.32v-.32h-.958v-.32h-.642v-.32h-.958l-.64-.96h-.64v-.32l-.96-.64v-.64h-.32c-.335-.619-1.008-3-.642-4.16h.322v-.96h.32v-.64h.32c.37-.49.438-.561.638-1.28.719-.197.795-.268 1.28-.64v-.32l1.28-.32v-.32h.962v-.32h.96v-.32h1.6v-.32h1.6c.578-.176 2.19-.579 2.88-.64h2.88zm-31.68-28.16c-2.851 0-7.01-.507-9.28.32v10.88c3.73.67 8.854.32 13.118.32h23.362v5.44c-2.383.421-5.762.335-8 .96h-3.52v.32h-2.24v.32h-2.24c-7.056 2.13-13.388 3.568-16.64 9.6h-.32l-.322 1.28h-.318c-.522 1.188-1.571 6.899-.962 8.96h.322c.106.853.212 1.707.32 2.56h.32l.64 1.92h.32v.64l.638.32v.64l1.282.96c.426.533.852 1.067 1.28 1.6h.638l.642.96h.638l.322.64 1.6.32.32.64h.96v.32h.64v.32h.96v.32h.958v.32h.96v.32h.962v.32h1.28v.32h1.28v.32h1.28v.32h1.92v.32h1.918v.32h2.562v.32h3.198v.32h5.442v.32h9.92v.32l12.16-.32c9.785-.001 19.677-1.157 26.558-4.16h.962v-.32l1.918-.64v-.32l1.28-.32.322-.64h.64l.64-.96h.64c.105-.213.213-.427.32-.64l1.598-1.28v-.64l.642-.32v-.64l.638-.32v-.96h.32l.322-1.28h.32v-1.6c1.349-4.427-.17-9.861-2.242-12.8-.425-.32-.852-.64-1.28-.96l-.638-.96c-7.363-5.296-18.331-6.45-30.08-7.36v-5.44h24.958c3.25 0 8.98.608 11.52-.32v-11.2h-87.678" style="fill:#100f0d;fill-opacity:1;fill-rule:nonzero;stroke:none;stroke-width:.133333" transform="matrix(.59402 0 0 .59402 -24.527 -89.292)"/>
</svg>