<svg xmlns="http://www.w3.org/2000/svg" xml:space="preserve" x="0px" y="0px" viewBox="0 149.5 1620 281">
    <script xmlns=""/>
    <g fill="#FFF">
        <path d="m1506.766 424.79-8.088-16.114V279.76l56.628 145.028h64.738l-8.092-16.113V171.201l8.092-16.117h-70.123l8.092 16.126v128.952l-56.646-145.08h-64.72l8.092 16.125v237.455l-8.093 16.123 70.12.004zM1261.21 209.09h59.337v161.818h-59.337V209.089zm75.519 215.76 37.75-37.746h.006V192.91l-37.756-37.757h-91.704l-37.758 37.757v194.193h.006l37.752 37.747h91.704zM1099.32 424.79l-8.087-16.114v-199.65h43.165l16.166 8.114v-62.057H978.076v62.057l16.162-8.114h43.05v199.64l-8.093 16.123h70.126zM832.071 424.79l-8.086-16.114v-91.235h53.939l16.179 8.12v-70.195l-16.182 8.123v.009h-53.936V209.02h80.924l16.164 8.114v-62.057H761.948l8.092 16.126v237.455l-8.092 16.123 70.123.008zM569.672 326.743l23.289-89.591 23.286 89.591h-46.575zM700.84 424.79l-6.862-14.842-63.763-239.196 5.895-15.664h-86.305l5.898 15.664-63.767 239.196-6.858 14.842h67.426l-3.14-19.933 6.848-26.328h73.492l6.843 26.328-3.131 19.933h67.424zM315.386 209.09h53.949v82.827h-53.949V209.09zm-62.035-53.94 8.093 16.123v237.455l-8.093 16.119h70.125l-8.089-16.113v-62.878h18.943l22.606 61.557-1.084 17.434h72.82l-14.282-20.6-24.373-62.895 33.251-33.248h.01V192.905l-37.761-37.757-132.166.002zM196.877 424.79l-16.45-20.755-63.06-127.034 58.346-105.341 13.075-16.574h-70.124l.801 12.86-48.069 89.052h-9.37v-85.793l8.09-16.117H-.005l8.092 16.125v237.455l-8.092 16.123h70.12l-8.088-16.112v-97.737h8.73l48.73 100.633-.823 13.214h78.213z"/>
    </g>
</svg>