<svg xmlns="http://www.w3.org/2000/svg" viewBox="0 0 100.08499 19.710137">
    <script xmlns=""/>
    <g fill="#B39758">
        <path d="M20.686 1.851H4.348l.592 1.026 16.343-.003zM21.757 3.712H5.414l.594 1.023H22.35zM19.915.51C19.75.234 19.354 0 19.03 0H3.274l.6 1.026h16.338ZM.898 3.295l8.167 14.153.6-1.03L1.492 2.266ZM1.963 1.437l8.18 14.154.587-1.027L2.56.414ZM.124 4.639c-.165.276-.165.74 0 1.02L8 19.305l.591-1.032L.418 4.123ZM12.036 19.71l8.176-14.147h-1.191L10.853 19.71ZM9.9 19.71l8.17-14.147h-1.183L8.711 19.71ZM13.593 19.71c.321 0 .717-.225.882-.51l7.88-13.637h-1.189L12.993 19.71ZM30.534 7.306h-2.62V5.563h7.123v1.743h-2.613v6.853h-1.89zM44.69 5.563h6.484V7.24h-4.609v1.746h4.06v1.69h-4.06v1.797h4.672v1.69H44.69zM82.727 5.563h1.743l4.03 5.293V5.563h1.866v8.6h-1.608l-4.165-5.47v5.47h-1.866zM91.888 9.884v-.021c0-2.446 1.908-4.447 4.512-4.447 1.549 0 2.485.414 3.382 1.18L98.59 8.028c-.666-.552-1.255-.876-2.25-.876-1.38 0-2.473 1.221-2.473 2.686v.024c0 1.569 1.08 2.724 2.604 2.724.687 0 1.303-.168 1.783-.516v-1.227h-1.903V9.208h3.733v3.733c-.885.75-2.094 1.368-3.67 1.368-2.685 0-4.527-1.878-4.527-4.425M78.49 5.563h-2.265l-3.144 8.6h1.926l.651-1.93h3.403l.654 1.93h1.926zm-2.274 4.999 1.143-3.42 1.146 3.42zM40.447 5.563h-2.26l-3.15 8.6h1.93l.645-1.93h3.414l.645 1.93h1.924zm-2.271 4.999 1.146-3.42 1.14 3.42zM52.96 5.563h1.896v3.76l3.49-3.76h2.283l-3.505 3.645 3.66 4.954h-2.268l-2.667-3.66-.993 1.032v2.628h-1.897ZM72 5.563l-1.971 5.902-1.713-5.902H66.56l-1.71 5.902-1.968-5.902h-1.98l3.15 8.6h1.683l1.705-5.567 1.707 5.566h1.686l3.15-8.6zm0 0"/>
        <path d="M52.96 5.563h1.896v3.76l3.49-3.76h2.283l-3.505 3.645 3.66 4.954h-2.268l-2.667-3.66-.993 1.032v2.628h-1.897Zm0 0"/>
    </g>
</svg>