<svg xmlns="http://www.w3.org/2000/svg" xml:space="preserve" x="0px" y="0px" viewBox="0 0 1000 218">
    <script xmlns=""/>
    <path fill="#AC2457" d="M929.994 218.41c37.536-2.308 67.561-32.293 69.951-69.809V.757H70.395C32.729 2.83 2.537 32.746-.055 70.259V218.41h930.049z"/>
    <g fill="#FFF">
        <path d="m885.942 102.156-36.537.038c-3.207 0-3.72 1.932-3.72 4.281 0 4.329 11.641 9.73 16.435 9.73h8.734c2.297.317 2.704 2.047 2.704 3.006v13.72c0 1.07-.473 3.081-3.422 3.081h-31.76c-2.453-.146-5.813-1.858-5.997-3.825 0-5.207.013-36.248.013-47.166.195-2.062 3.892-3.848 6.351-3.848 10.788 0 39.186-.01 39.186-.01 4.794 0 16.435-5.405 16.435-9.723 0-2.342-.5-4.274-3.717-4.274h-62.528c-.126 0-.255.013-.384.02-6.354.157-17.62 5.892-17.62 11.346l-.023 60.142c0 5.458 11.247 11.188 17.631 11.353.125.013 55.82-.036 58.221-.036 6.033 0 9.855-4.589 9.855-10.156v-27.519c-.001-5.561-3.823-10.16-9.857-10.16zM258.405 69.968c-.483-1.121-2.066-3.055-5.014-3.055h-19.9c-2.913 0-4.506 1.934-4.997 3.055-9.77 21.697-34.2 76.911-34.2 76.911-1.222 2.252-1.134 3.812 2.6 3.72 4.613-.1 19.054-4.619 21.912-11.307.503-1.177 1.569-3.61 3.017-6.894h43.251c1.438 3.283 2.518 5.717 3.007 6.894 2.871 6.688 17.297 11.207 21.925 11.307 3.724.092 3.81-1.468 2.587-3.72 0 0-24.431-55.214-34.188-76.911zm-30.501 48.669c4.757-10.73 10.548-23.777 15.535-34.933 4.98 11.156 10.792 24.203 15.562 34.933h-31.097zM393.038 65.849c4.423-1.362 24.398 3.62 29.238 9.052 3.446 3.883 9.584 10.678 17.963 19.821 8.364-9.143 14.499-15.938 17.963-19.821 4.81-5.432 24.811-10.414 29.241-9.052 3.562 1.096 3.132 2.616 1.266 4.355 0 0-21.112 23.33-37.25 40.809v30.99c0 5.567-13.075 11.323-17.978 11.323-3.703 0-4.293-1.71-4.293-3.739v-38.409c-.036-.046-.087-.082-.132-.125-16.119-17.479-37.301-40.849-37.301-40.849-1.855-1.739-2.281-3.26 1.283-4.355zM370.1 136.039s-33.265-.026-39.081-.026c-2.473 0-6.147-1.785-6.353-3.855V114.64h33.759c4.784 0 16.431-5.4 16.431-9.734 0-2.334-.516-4.281-3.714-4.281h-46.475v-6.31h-.015v-9.493c.2-2.068 3.895-3.853 6.368-3.853l32.861-.001c4.8 0 16.44-5.41 16.44-9.729 0-2.348-.487-4.283-3.722-4.283-2.103 0-56.444.017-56.572.032-6.369.157-17.635 5.893-17.635 11.354v60.304c0 5.458 11.267 11.188 17.635 11.353h.03v.043h62.747c3.22 0 3.737-1.927 3.737-4.258-.001-4.337-11.671-9.745-16.441-9.745zM104.101 71.29c0-2.349.531-4.279 3.736-4.279h94.951c3.203 0 3.752 1.931 3.752 4.279 0 4.324-11.667 9.725-16.455 9.725h-23.64v60.988c0 5.567-13.093 11.323-17.987 11.323-3.68 0-4.268-1.71-4.268-3.739V81.015h-23.636c-4.788 0-16.453-5.401-16.453-9.725zM685.195 67.03c-4.903 0-17.968 5.754-17.968 11.316v53.887c-.212 2.08-3.892 3.858-6.378 3.858-10.777 0-21.803-.079-21.803-.079-7.266 0-13.141-5.878-13.141-13.135l-.017-52.117c0-2.04-.602-3.731-4.281-3.731-4.902 0-17.987 5.754-17.987 11.316l.022 44.469a.736.736 0 0 1-.022.228l.059-.01c.513 14.751 12.435 26.597 27.229 26.977l40.577.086c.112 0 .225-.01.341-.023 6.427-.168 17.644-5.891 17.644-11.355V70.761c0-2.04-.585-3.731-4.275-3.731zM792.705 92.685c-1.236-14.061-12.867-25.14-27.179-25.5-.175 0-40.789-.005-40.925.001-6.377.157-17.644 5.892-17.644 11.346v67.947c0 2.044.599 3.717 4.302 3.717 4.886 0 17.978-5.743 17.978-11.307V85.022c.225-2.062 3.891-3.848 6.374-3.848 10.777 0 21.806.006 21.806.006 7.253 0 13.138 5.88 13.138 13.118l.017 52.181c0 2.044.575 3.717 4.284 3.717 4.9 0 17.962-5.743 17.962-11.307 0 0-.021-46.204 0-46.237l-.113.033zM559.057 67.103c-.172 0-40.806-.083-40.947-.071-6.368.17-17.621 5.909-17.621 11.366 0 0 .06 45.729.127 46.129 1.252 14.057 12.875 25.119 27.174 25.482.178 0 40.809.076 40.938.063 6.363-.168 17.634-5.891 17.634-11.355v-23.502s-.05-22.228-.126-22.628c-1.271-14.055-12.898-25.113-27.179-25.484zm-1.339 68.989c-10.771 0-21.819-.079-21.819-.079-7.26 0-13.121-5.878-13.121-13.135 0 0-.017-25.548-.017-31.162v-6.842c.218-2.061 3.881-3.845 6.363-3.845 10.765 0 21.819.078 21.819.078 7.247 0 13.132 5.881 13.132 13.131v31.169h.006v6.826c-.204 2.08-3.874 3.859-6.363 3.859z"/>
    </g>
</svg>