<svg xmlns="http://www.w3.org/2000/svg" xml:space="preserve" viewBox="0 0 1178.53 200">
    <script xmlns=""/>
    <path d="m0 0 2.215 7.395H-5.28L-8.323-2.656c-1.004-.074-3.839-.549-5.125 1.288-3.351 5.027 6.321 13.623 6.321 13.623s5.64 5.163 11.187 8.181c0 0-5.643-2.126-11.851-6.739-4.146-3.082-6.765-6.091-7.881-8.218-2.159-4.107-2.38-8.684 1.609-10.788C-9.468-7.733-.568-5.536 8.081.506c0 0 5.707 3.604 8.299 6.889H8.881S5.444 2.73 0 0" style="fill:#0094bb;fill-opacity:1;fill-rule:nonzero;stroke:none" transform="matrix(4.87478 0 0 -4.87478 83.86 99.621)"/>
    <path d="m0 0-2.525-8.341h-7.52L-7.59-.227S-.792-.709 6.039 2.706l4.706-11.065H3.299Z" style="fill:#024694;fill-opacity:1;fill-rule:nonzero;stroke:none" transform="matrix(4.87478 0 0 -4.87478 73.413 133.74)"/>
    <path d="M0 0h-7.566l6.232 22.753h7.419z" style="fill:#024694;fill-opacity:1;fill-rule:nonzero;stroke:none" transform="matrix(4.87478 0 0 -4.87478 291.835 174.487)"/>
    <path d="m0 0 2.955 6.634L3.471 0Zm.184 14.087L-11.351-8.666h7.496l1.64 3.687h6.074l.286-3.687h7.495L8.4 14.087Z" style="fill:#024694;fill-opacity:1;fill-rule:nonzero;stroke:none" transform="matrix(4.87478 0 0 -4.87478 188.584 132.245)"/>
    <path d="M0 0h-55.181l.705 2.354H.651Z" style="fill:#024694;fill-opacity:1;fill-rule:nonzero;stroke:none" transform="matrix(4.87478 0 0 -4.87478 287.322 194.27)"/>
    <path d="M0 0v-1.748h10.083v-4.53h-2.58v3.117H4.625v-3.117H-.832V-8.02h15.354v1.742h-1.563V0Z" style="fill:#024694;fill-opacity:1;fill-rule:nonzero;stroke:none" transform="matrix(4.87478 0 0 -4.87478 634.56 63.617)"/>
    <path d="M0 0c0 1.035.386 2.148 1.908 2.148 1.523 0 1.909-1.113 1.909-2.148 0-1.036-.386-2.146-1.909-2.146C.386-2.146 0-1.036 0 0m6.733-.006c0 2.372-1.802 3.995-4.825 3.995-3.017 0-4.824-1.623-4.824-3.995 0-2.376 1.807-3.995 4.824-3.995 3.023 0 4.825 1.619 4.825 3.995" style="fill:#024694;fill-opacity:1;fill-rule:nonzero;stroke:none" transform="matrix(4.87478 0 0 -4.87478 987.858 78.925)"/>
    <path d="M0 0v1.275h6.854v-1.54L.246-.267C.111-.267 0-.148 0 0m9.731 4.957H6.854v-1.93H-.001v1.93h-2.835L-2.84.514c0-1.73.755-2.545 1.687-2.545H9.731Z" style="fill:#024694;fill-opacity:1;fill-rule:nonzero;stroke:none" transform="matrix(4.87478 0 0 -4.87478 1000.768 131.36)"/>
    <path d="M0 0c.936-1.405 2.717-2.602 4.636-3.078l.645 1.582C4.085-1.117 1.432.556 1.432 4.232v.803h-2.936v-.803c0-3.676-2.661-5.349-3.858-5.728l.651-1.582C-2.793-2.602-.961-1.405 0 0" style="fill:#024694;fill-opacity:1;fill-rule:nonzero;stroke:none" transform="matrix(4.87478 0 0 -4.87478 906.348 85.299)"/>
    <path d="m0 0-.001 4.31h-2.842V.557c0-1.73.758-2.547 1.687-2.547H9.711v1.73L.249-.264C.106-.264 0-.146 0 0" style="fill:#024694;fill-opacity:1;fill-rule:nonzero;stroke:none" transform="matrix(4.87478 0 0 -4.87478 906.16 131.298)"/>
    <path d="M0 0c0 1.146.292 2.376 1.739 2.376 1.445 0 1.74-1.23 1.74-2.376s-.295-2.378-1.74-2.378C.292-2.378 0-1.146 0 0m6.321 0c0 .912-.241 1.715-.695 2.362h1.286v1.731h-3.75v1.388H.322V4.093H-3.39V2.362h1.243C-2.6 1.715-2.841.912-2.841 0c0-2.429 1.714-4.088 4.58-4.088 2.867 0 4.582 1.659 4.582 4.088" style="fill:#024694;fill-opacity:1;fill-rule:nonzero;stroke:none" transform="matrix(4.87478 0 0 -4.87478 378.85 83.505)"/>
    <path d="M0 0h-2.874v-10.8H0v5.961h2.274v1.743H0Z" style="fill:#024694;fill-opacity:1;fill-rule:nonzero;stroke:none" transform="matrix(4.87478 0 0 -4.87478 433.975 60.39)"/>
    <path d="M0 0h-2.876v-10.914H0v5.777h2.261v1.748H0Z" style="fill:#024694;fill-opacity:1;fill-rule:nonzero;stroke:none" transform="matrix(4.87478 0 0 -4.87478 953.613 60.235)"/>
    <path d="m0 0 .497-1.702c2.207.473 5.166 1.327 6.647 3.388 1.481-2.061 4.441-2.915 6.649-3.388L14.288 0c-2.34.525-4.689 1.633-5.239 4.188h4.714v1.744H.497V4.188h4.741C4.687 1.633 2.334.525 0 0" style="fill:#024694;fill-opacity:1;fill-rule:nonzero;stroke:none" transform="matrix(4.87478 0 0 -4.87478 802.861 91.521)"/>
    <path d="m0 0-.002 4.18h-2.842V.493c0-1.728.756-2.546 1.688-2.546H9.731v1.775H.245C.108-.278 0-.149 0 0" style="fill:#024694;fill-opacity:1;fill-rule:nonzero;stroke:none" transform="matrix(4.87478 0 0 -4.87478 386.537 131.1)"/>
    <path d="M0 0c-1.444 0-1.74 1.231-1.74 2.378 0 1.145.296 2.376 1.74 2.376 1.449 0 1.741-1.231 1.741-2.376C1.741 1.231 1.449 0 0 0m0-1.71c2.868 0 4.581 1.659 4.581 4.088 0 .912-.242 1.715-.694 2.362h1.288v1.731H1.426v1.388h-2.845V6.471h-3.708V4.74h1.242c-.454-.647-.696-1.45-.696-2.362C-4.581-.051-2.864-1.71 0-1.71" style="fill:#024694;fill-opacity:1;fill-rule:nonzero;stroke:none" transform="matrix(4.87478 0 0 -4.87478 561.995 95.096)"/>
    <path d="M0 0h-2.871v-8.52H0v3.681h2.273v1.743H0Z" style="fill:#024694;fill-opacity:1;fill-rule:nonzero;stroke:none" transform="matrix(4.87478 0 0 -4.87478 608.644 60.39)"/>
    <path d="M0 0h-2.054v-1.746H0v-3.743h2.874v8.52H0Z" style="fill:#024694;fill-opacity:1;fill-rule:nonzero;stroke:none" transform="matrix(4.87478 0 0 -4.87478 1034.197 75.166)"/>
    <path d="M362.593 417.012h2.905v33.367h-2.905zM403.328 417.012h2.901v33.367h-2.901z" style="fill:#024694;fill-opacity:1;fill-rule:nonzero;stroke:none;stroke-width:2.01789" transform="matrix(2.41579 0 0 -2.41579 197.166 1148.409)"/>
    <path d="M0 0h-4.766v2.124h6.145v1.743H.01v5.716h-12.931V7.831h10.057V3.867H-13.98V2.124h6.351V0h-5.292v-1.751h10.047v-4.677H0Z" style="fill:#024694;fill-opacity:1;fill-rule:nonzero;stroke:none" transform="matrix(4.87478 0 0 -4.87478 520.024 110.118)"/>
    <path d="M0 0c-3.112 0-3.764 1.065-3.764 2.057 0 .989.652 2.056 3.764 2.056 3.114 0 3.76-1.067 3.76-2.056C3.76 1.065 3.114 0 0 0m0 5.808c-4.497 0-6.669-1.54-6.669-3.792 0-2.25 2.172-3.791 6.669-3.791 4.496 0 6.665 1.541 6.665 3.791 0 2.252-2.169 3.792-6.665 3.792" style="fill:#024694;fill-opacity:1;fill-rule:nonzero;stroke:none" transform="matrix(4.87478 0 0 -4.87478 667.524 134.851)"/>
    <path d="M0 0c-3.109 0-3.76 1.065-3.76 2.057 0 .989.651 2.056 3.76 2.056 3.119 0 3.767-1.067 3.767-2.056C3.767 1.065 3.119 0 0 0m0 5.808c-4.492 0-6.665-1.54-6.665-3.792 0-2.25 2.173-3.791 6.665-3.791 4.502 0 6.673 1.541 6.673 3.791 0 2.252-2.171 3.792-6.673 3.792" style="fill:#024694;fill-opacity:1;fill-rule:nonzero;stroke:none" transform="matrix(4.87478 0 0 -4.87478 577.6 134.851)"/>
    <path d="M0 0c2.909 0 3.71-1.345 3.71-2.415 0-1.068-.801-2.416-3.71-2.416-2.904 0-3.71 1.348-3.71 2.416C-3.71-1.345-2.904 0 0 0m0-6.661c4.438 0 6.583 1.71 6.583 4.202C6.583.037 4.438 1.743 0 1.743c-4.439 0-6.58-1.706-6.58-4.202 0-2.492 2.141-4.202 6.58-4.202" style="fill:#024694;fill-opacity:1;fill-rule:nonzero;stroke:none" transform="matrix(4.87478 0 0 -4.87478 752.478 68.173)"/>
    <path d="M0 0h6.247v-5.286h2.859V0h6.25v1.738H0Z" style="fill:#024694;fill-opacity:1;fill-rule:nonzero;stroke:none" transform="matrix(4.87478 0 0 -4.87478 715.656 115.788)"/>
    <path d="M0 0h6.063v-5.286h2.859V0h6.063v1.738H0Z" style="fill:#024694;fill-opacity:1;fill-rule:nonzero;stroke:none" transform="matrix(4.87478 0 0 -4.87478 801.188 115.788)"/>
    <path d="m0 0 .5-1.704C2.544-1.265 5.233-.5 6.799 1.25c1.565-1.75 4.256-2.515 6.3-2.954L13.602 0c-2.344.523-4.7 1.633-5.25 4.187h4.717v1.744H.5V4.187h4.741C4.691 1.633 2.339.523 0 0" style="fill:#024694;fill-opacity:1;fill-rule:nonzero;stroke:none" transform="matrix(4.87478 0 0 -4.87478 1092.49 91.597)"/>
    <path d="M0 0h6.058v-5.285h2.858V0h6.067v1.745H0Z" style="fill:#024694;fill-opacity:1;fill-rule:nonzero;stroke:none" transform="matrix(4.87478 0 0 -4.87478 1089.152 115.888)"/>
    <path d="M0 0h1.921L.065-2.991 2.14-6.382H.118l-1.821 3.369zm-3.489 0h1.7v-6.382h-1.7z" style="fill:#024694;fill-opacity:1;fill-rule:nonzero;stroke:none" transform="matrix(4.87478 0 0 -4.87478 389.679 162.824)"/>
    <path d="M0 0c1.916 0 3.228 1.185 3.228 3.311 0 2.114-1.312 3.298-3.228 3.298-1.917 0-3.225-1.184-3.225-3.298C-3.225 1.185-1.917 0 0 0m0 5.212c1.024 0 1.529-.928 1.529-1.912 0-.986-.505-1.904-1.529-1.904-1.03 0-1.527.918-1.527 1.904 0 .984.497 1.912 1.527 1.912" style="fill:#024694;fill-opacity:1;fill-rule:nonzero;stroke:none" transform="matrix(4.87478 0 0 -4.87478 417.544 194.484)"/>
    <path d="M0 0h2.878c1.424 0 1.975-.682 1.975-1.943 0-.755-.437-1.3-1.184-1.617.397-.955.788-1.96 1.184-2.822H3.024c-.371 1.207-.743 2.422-1.195 3.577.153-.027.289-.045.421-.045.468 0 .977.21.977.831 0 .679-.525.679-.769.679h-.833v-5.042H0Z" style="fill:#024694;fill-opacity:1;fill-rule:nonzero;stroke:none" transform="matrix(4.87478 0 0 -4.87478 437.686 162.824)"/>
    <path d="M0 0v-1.369h-2.254v-1.157H.431v-1.369h-4.385v6.382H.431V1.12h-2.685V0Z" style="fill:#024694;fill-opacity:1;fill-rule:nonzero;stroke:none" transform="matrix(4.87478 0 0 -4.87478 484.95 174.95)"/>
    <path d="m0 0 .639 1.838h1.989L3.211 0h1.805c-.76 2.115-1.578 4.287-2.25 6.382H.729C-.111 4.239-.937 2.077-1.861 0Zm1.044 3.177.664 1.829h.015l.581-1.829Z" style="fill:#024694;fill-opacity:1;fill-rule:nonzero;stroke:none" transform="matrix(4.87478 0 0 -4.87478 497.252 193.937)"/>
    <path d="m0 0 .64 1.838h1.988L3.212 0h1.802c-.76 2.115-1.577 4.287-2.247 6.382H.729C-.111 4.239-.938 2.077-1.859 0Zm1.044 3.177.662 1.829h.017l.583-1.829Z" style="fill:#024694;fill-opacity:1;fill-rule:nonzero;stroke:none" transform="matrix(4.87478 0 0 -4.87478 551.353 193.937)"/>
    <path d="M0 0v-1.369h-2.256v-1.157H.429v-1.369h-4.385v6.382H.429V1.12h-2.685V0Z" style="fill:#024694;fill-opacity:1;fill-rule:nonzero;stroke:none" transform="matrix(4.87478 0 0 -4.87478 596.616 174.95)"/>
    <path d="M0 0h2.878c1.421 0 1.975-.682 1.975-1.943 0-.755-.44-1.3-1.184-1.617.397-.955.785-1.96 1.184-2.822H3.021C2.65-5.175 2.279-3.96 1.825-2.805a2.46 2.46 0 0 1 .423-.045c.467 0 .975.21.975.831 0 .679-.523.679-.765.679h-.833v-5.042H0Z" style="fill:#024694;fill-opacity:1;fill-rule:nonzero;stroke:none" transform="matrix(4.87478 0 0 -4.87478 604.117 162.824)"/>
    <path d="M0 0c1.915 0 3.225 1.185 3.225 3.311 0 2.114-1.31 3.298-3.225 3.298-1.917 0-3.229-1.184-3.229-3.298C-3.229 1.185-1.917 0 0 0m0 5.212c1.026 0 1.526-.928 1.526-1.912 0-.986-.5-1.904-1.526-1.904s-1.528.918-1.528 1.904c0 .984.502 1.912 1.528 1.912" style="fill:#024694;fill-opacity:1;fill-rule:nonzero;stroke:none" transform="matrix(4.87478 0 0 -4.87478 646.45 194.484)"/>
    <path d="M0 0c.429-.247.937-.431 1.406-.431.278 0 .756.049.756.498C2.162.88.106 1.532.106 3.157c0 .747.492 1.656 1.982 1.656.483 0 .979-.077 1.43-.183l.185-1.511c-.371.203-.79.325-1.187.325-.259 0-.713-.122-.713-.459 0-.935 2.054-1.377 2.054-3.043 0-.86-.551-1.739-2.054-1.739-.54 0-1.09.104-1.616.219z" style="fill:#024694;fill-opacity:1;fill-rule:nonzero;stroke:none" transform="matrix(4.87478 0 0 -4.87478 665.682 185.725)"/>
    <path d="M0 0h3.01c.387 0 1.496-.317 1.496-1.922 0-1.254-.786-2.066-1.884-2.066-.179 0-.364.038-.543.057l-.316 1.253c.115-.012.227-.057.341-.057.434 0 .791.21.791.696 0 .643-.315.699-.686.699h-.583v-5.042H0Z" style="fill:#024694;fill-opacity:1;fill-rule:nonzero;stroke:none" transform="matrix(4.87478 0 0 -4.87478 689.375 162.824)"/>
    <path d="m0 0 .638 1.838H2.63L3.209 0h1.808c-.764 2.115-1.579 4.287-2.252 6.382H.729C-.114 4.239-.938 2.077-1.86 0Zm1.043 3.177.664 1.829h.015l.582-1.829Z" style="fill:#024694;fill-opacity:1;fill-rule:nonzero;stroke:none" transform="matrix(4.87478 0 0 -4.87478 716.86 193.937)"/>
    <path d="M0 0c-.486-.047-1.151-.144-1.458-.144-1.918 0-3.225 1.185-3.225 3.311 0 2.114 1.307 3.299 3.225 3.299.47 0 .965-.077 1.434-.175l.128-1.48c-.419.144-.84.258-1.277.258-1.311 0-1.812-1.059-1.812-1.913 0-.985.492-1.903 1.527-1.903.664 0 1.143.125 1.602.257z" style="fill:#024694;fill-opacity:1;fill-rule:nonzero;stroke:none" transform="matrix(4.87478 0 0 -4.87478 764.294 193.784)"/>
    <path d="M0 0v-1.369h-2.256v-1.157H.427v-1.369h-4.383v6.382H.427V1.12h-2.683V0Z" style="fill:#024694;fill-opacity:1;fill-rule:nonzero;stroke:none" transform="matrix(4.87478 0 0 -4.87478 788.894 174.95)"/>
    <path d="M256.432 407.978h3.42v-12.879h-3.42z" style="fill:#024694;fill-opacity:1;fill-rule:nonzero;stroke:none;stroke-width:2.01789" transform="matrix(2.41579 0 0 -2.41579 197.166 1148.409)"/>
    <path d="M0 0h2.003l2.073-4.152h.012V0H5.58v-6.382H3.594L1.503-2.307h-.016v-4.075H0Z" style="fill:#024694;fill-opacity:1;fill-rule:nonzero;stroke:none" transform="matrix(4.87478 0 0 -4.87478 830.806 162.824)"/>
    <path d="M0 0h2.692c1.862 0 2.75 1.343 2.75 3.199 0 2.694-1.601 3.183-2.393 3.183H0Zm1.625 5.015h.848c.908 0 1.273-.632 1.273-1.816 0-.94-.446-1.83-1.382-1.83h-.739Z" style="fill:#024694;fill-opacity:1;fill-rule:nonzero;stroke:none" transform="matrix(4.87478 0 0 -4.87478 863.875 193.937)"/>
    <path d="M0 0v-3.636c0-.918.219-1.462.986-1.462.765 0 .985.544.985 1.462V0H3.67v-4.323c0-1.54-1.099-2.172-2.684-2.172-1.585 0-2.685.632-2.685 2.172V0Z" style="fill:#024694;fill-opacity:1;fill-rule:nonzero;stroke:none" transform="matrix(4.87478 0 0 -4.87478 902.673 162.824)"/>
    <path d="M0 0c.427-.247.936-.431 1.403-.431.277 0 .752.049.752.498C2.155.88.107 1.532.107 3.157c0 .747.492 1.656 1.98 1.656.482 0 .976-.077 1.428-.183L3.7 3.119a2.513 2.513 0 0 1-1.187.325c-.258 0-.71-.122-.71-.459 0-.935 2.053-1.377 2.053-3.043 0-.86-.552-1.739-2.053-1.739-.543 0-1.092.104-1.618.219z" style="fill:#024694;fill-opacity:1;fill-rule:nonzero;stroke:none" transform="matrix(4.87478 0 0 -4.87478 925.224 185.725)"/>
    <path d="M0 0h5.054v-1.368H3.38v-5.014H1.682v5.014H0Z" style="fill:#024694;fill-opacity:1;fill-rule:nonzero;stroke:none" transform="matrix(4.87478 0 0 -4.87478 945.884 162.824)"/>
    <path d="M0 0h2.884c1.422 0 1.97-.682 1.97-1.943 0-.755-.437-1.3-1.179-1.617.395-.955.782-1.96 1.179-2.822H3.026c-.373 1.207-.742 2.422-1.193 3.577.15-.027.288-.045.419-.045.468 0 .977.21.977.831 0 .679-.525.679-.767.679h-.834v-5.042H0Z" style="fill:#024694;fill-opacity:1;fill-rule:nonzero;stroke:none" transform="matrix(4.87478 0 0 -4.87478 973.305 162.824)"/>
    <path d="M332.865 407.978h3.43v-12.879h-3.43z" style="fill:#024694;fill-opacity:1;fill-rule:nonzero;stroke:none;stroke-width:2.01789" transform="matrix(2.41579 0 0 -2.41579 197.166 1148.409)"/>
    <path d="M0 0v-1.369h-2.254v-1.157H.432v-1.369h-4.385v6.382H.432V1.12h-2.686V0Z" style="fill:#024694;fill-opacity:1;fill-rule:nonzero;stroke:none" transform="matrix(4.87478 0 0 -4.87478 1034.649 174.95)"/>
    <path d="M0 0c.43-.247.94-.431 1.406-.431.279 0 .755.049.755.498C2.161.88.107 1.532.107 3.157c0 .747.494 1.656 1.979 1.656.486 0 .981-.077 1.435-.183l.182-1.511a2.52 2.52 0 0 1-1.189.325c-.256 0-.711-.122-.711-.459 0-.935 2.053-1.377 2.053-3.043 0-.86-.55-1.739-2.053-1.739-.54 0-1.089.104-1.615.219z" style="fill:#024694;fill-opacity:1;fill-rule:nonzero;stroke:none" transform="matrix(4.87478 0 0 -4.87478 1041.233 185.725)"/>
    <path d="M403.207 398.463h3.008v-3.366h-3.008z" style="fill:#024694;fill-opacity:1;fill-rule:nonzero;stroke:none;stroke-width:2.01789" transform="matrix(2.41579 0 0 -2.41579 197.166 1148.409)"/>
    <path d="M0 0h1.701v-5.013h2.488v-1.369H0Z" style="fill:#024694;fill-opacity:1;fill-rule:nonzero;stroke:none" transform="matrix(4.87478 0 0 -4.87478 1096.017 162.824)"/>
    <path d="M0 0h5.053v-1.368H3.381v-5.014H1.682v5.014H0Z" style="fill:#024694;fill-opacity:1;fill-rule:nonzero;stroke:none" transform="matrix(4.87478 0 0 -4.87478 1113.293 162.824)"/>
    <path d="M0 0h2.692C4.552 0 5.44 1.343 5.44 3.199c0 2.694-1.6 3.183-2.392 3.183H0Zm1.623 5.015h.852c.908 0 1.269-.632 1.269-1.816 0-.94-.444-1.83-1.386-1.83h-.735Z" style="fill:#024694;fill-opacity:1;fill-rule:nonzero;stroke:none" transform="matrix(4.87478 0 0 -4.87478 1140.732 193.937)"/>
    <path d="M0 0h1.596L.449-2.403H-.624z" style="fill:#024694;fill-opacity:1;fill-rule:nonzero;stroke:none" transform="matrix(4.87478 0 0 -4.87478 1067.192 188.286)"/>
</svg>