<svg xmlns="http://www.w3.org/2000/svg" viewBox="0 0 1183.8379 150">
    <script xmlns=""/>
    <path fill="#ed6b00" d="M173.857 286.778c-2.87 27.53-19.594 50.988-43.183 63.517-.663.364-1.303-.53-.707-1.016 18.258-15.123 30.191-37.421 31.361-62.501h-23.17c-2.848 21.316-16.293 39.33-34.948 48.736-.663.342-1.259-.53-.707-1.016 13.445-11.877 22.254-28.789 23.358-47.72h-23.203c-1.645 9.68-6.602 18.06-12.982 25.036-15.675 17.154-40.964 19.063-53.261 18.081 0 0-.574-.077-.773.386-.188.486.364.784.364.784 20.422 11.47 36.682 22.32 66.287 44.1 7.253 5.342 14.13 6.899 21.36 5.188 46.142-10.796 73.01-58.516 73.286-93.575z" style="stroke-width:11.0387" transform="translate(-35.603 -286.778)"/>
    <path d="m456.164 320.301-15.763 55.966h-25.83l14.306-50.711c1.18-4.36 1.998-7.87.276-9.505-1.557-1.468-3.787-1.666-6.557-1.666l-13.401.408-17.684 61.474h-25.798l22.464-78.43c3.058-.176 26.018-1.258 48.824-1.788 8.743-.21 14.759 1.767 17.95 5.85 3.145 4.041 3.554 10.256 1.213 18.402M517.636 338.656l15.951 37.61H506.72l-14.438-39.188-11.083 39.187h-25.83l22.551-78.452h25.809l-9.913 34.01s15.818-8.334 28.314-34.01h27.31c-13.103 28.105-31.803 40.843-31.803 40.843M777.434 338.656l15.928 37.61h-26.868l-14.438-39.188-11.061 39.187h-25.83l22.552-78.452h25.808l-9.913 34.01s15.819-8.334 28.314-34.01h27.288c-13.103 28.105-31.78 40.843-31.78 40.843M623.9 305.587c-4.835-6.359-14.295-9.593-28.104-9.593-26.78 0-43.802 11.933-50.546 35.456l-3.3 11.47c-3.191 11.149-2.573 19.748 1.876 25.576 4.824 6.38 14.295 9.593 28.104 9.593 26.78 0 43.802-11.933 50.546-35.467l3.29-11.47c3.19-11.116 2.56-19.737-1.866-25.565m-24.318 26.868-2.727 9.471c-3.587 12.507-9.382 17.828-19.35 17.828-4.493 0-7.518-1.093-9.196-3.301-2.185-2.87-2.23-7.573-.165-14.803l2.715-9.493c3.599-12.485 9.383-17.828 19.362-17.828 4.493 0 7.484 1.082 9.184 3.301 2.197 2.892 2.241 7.595.177 14.825M714.6 305.587c-4.836-6.359-14.296-9.593-28.105-9.593-26.78 0-43.802 11.933-50.546 35.456l-3.3 11.47c-3.19 11.149-2.573 19.748 1.876 25.576 4.824 6.38 14.273 9.593 28.104 9.593 26.802 0 43.802-11.933 50.524-35.467l3.312-11.47c3.19-11.116 2.572-19.737-1.866-25.565m-24.318 26.868-2.726 9.471c-3.588 12.507-9.383 17.828-19.351 17.828-4.515 0-7.517-1.093-9.195-3.301-2.186-2.87-2.23-7.573-.166-14.803l2.716-9.493c3.598-12.485 9.405-17.828 19.361-17.828 4.493 0 7.485 1.082 9.196 3.301 2.185 2.892 2.23 7.595.165 14.825M366.399 306.38c-1.987-3.664-5.597-6.28-11.105-7.98-4.195-1.303-9.537-2.065-15.918-2.274-.231 0-23.148-.365-36.946 2.318l-4.382 15.564c13.908-1.567 27.1-2.02 32.795-1.821 6.171.187 9.13.993 10.487 2.87 1.192 1.59 1.303 3.996 0 8.257l-.828 3.08h-9.78c-27.343 0-43.46 3.488-48.46 21.867-1.92 7.065-1.026 14.472 2.97 19.682 4.283 5.619 10.089 8.334 20.046 8.334h46.141l14.914-51.263c2.417-8.125 2.461-14.218.066-18.634m-35.765 53.902-12.595.387c-3.147 0-6.083.121-8.423-2.385-1.556-1.656-2.616-4.426-2.02-7.23 1.678-7.959 10.807-9.129 18.357-9.129h10.023zM260.615 297.82l-8.444 29.65h-23.126l8.444-29.65h-25.996l-22.463 78.452h25.952l8.963-30.93h23.115l-8.93 30.93h26.04l22.441-78.452zM871.845 347.919h7.827v-43.735h14.659v-7.153h-38.404v7.153h15.918zM899.949 347.917h7.594v-36.593h-7.594zM899.949 305.175h7.594v-8.146h-7.594zM927.002 320.851c3.764-2.826 8.533-3.676 11.889-3.897l.342-.022v-7.484l-.386.022c-4.383.21-8.312 1.59-12.01 4.25l-.618-3.444h-6.855v37.63h7.638zM959.752 348.59c3.102 0 7.616-.498 10.917-1.9l.21-.099v-6.325l-.486.199c-3.83 1.357-8.146 1.567-10.387 1.567-8.699 0-10.465-3.61-10.465-9.46v-1.115h24.826v-3.444c0-12.827-5.023-18.545-16.293-18.545-10.365 0-16.083 6.336-16.083 17.827v4.14c0 11.855 5.486 17.154 17.76 17.154m-10.21-23.148v-.088c0-3.533 1.126-9.46 8.6-9.46 7.23 0 8.742 5.144 8.742 9.46v.088zM1011.936 348.585c6.557 0 11.9-1.678 16.293-5.166l6.193 5.994 5.133-5.21-6.403-6.127c2.484-3.51 4.416-7.992 5.763-13.379l.088-.32-6.26-2.108-.11.364c-1.336 4.768-2.715 8.102-4.437 10.696l-12.32-11.8c5.509-3.3 10.609-6.535 10.609-12.573 0-7.297-5.166-11.657-13.799-11.657-7.892 0-13.423 4.747-13.423 11.524 0 4.791 2.252 8.235 5.674 11.834-6.822 4.206-10.078 7.418-10.078 13.93 0 8.511 6.7 13.998 17.077 13.998m-5.442-39.42c0-4.017 3.51-5.441 6.512-5.441 5.166 0 6.248 2.914 6.248 5.375 0 2.683-1.931 4.283-8.124 7.893-2.473-2.34-4.636-4.714-4.636-7.826m3.19 16.105 13.588 13.28c-3.124 2.207-6.8 3.267-11.27 3.267-5.486 0-9.317-3.102-9.317-7.573 0-3.83 2.252-5.971 6.999-8.974M871.845 421.868h7.827v-43.735h15.917v-7.153h-39.662v7.153h15.918zM892.43 405.389c0 11.866 5.464 17.143 17.74 17.143 3.123 0 7.638-.497 10.917-1.899l.231-.1v-6.325l-.485.2c-3.853 1.379-8.158 1.567-10.388 1.567-8.698 0-10.464-3.61-10.464-9.438v-1.115h24.804v-3.444c0-12.85-5.023-18.567-16.271-18.567-10.388 0-16.084 6.336-16.084 17.827zm7.55-5.983v-.11c0-3.533 1.127-9.46 8.6-9.46 7.208 0 8.72 5.143 8.72 9.46v.11zM948.912 422.602c1.534 0 6.81-.132 10.597-1.91l.21-.088v-6.513l-.486.177c-2.98 1.06-6.193 1.59-9.858 1.59-8.632 0-10.31-3.765-10.31-10.277v-5.078c0-5.177 1.237-10.476 10.377-10.476 3.322 0 6.92.497 9.107 1.259l.507.176v-6.391l-.231-.078c-2.506-1.048-5.961-1.578-9.98-1.578-11.756 0-17.485 5.828-17.485 17.827v4.151c0 11.889 5.431 17.21 17.552 17.21M976.084 393.238c3.94-1.998 7.705-3.057 10.939-3.057 4.228 0 4.967 2.053 4.967 6.38v25.312h7.639v-27.465c0-7.594-3.61-10.994-11.679-10.994-3.356 0-7.76 1.225-11.866 3.311v-17.463l-7.64 2.22v50.39h7.64zM1017.043 393.418c3.852-2.384 8.146-3.234 10.939-3.234 4.228 0 4.978 2.042 4.978 6.38v25.3h7.606v-27.441c0-7.518-3.698-11.006-11.657-11.006-3.543 0-8.224 1.369-12.054 3.488l-.618-2.682h-6.833v37.642h7.639zM1081.647 405.318v-4.68c0-10.94-6.104-17.232-16.767-17.232-10.598 0-16.68 6.292-16.68 17.232v4.68c0 10.928 6.082 17.21 16.68 17.21 10.663 0 16.767-6.282 16.767-17.21m-7.705 0c0 7.274-2.87 10.652-9.062 10.652-6.038 0-8.975-3.488-8.975-10.652v-4.68c0-7.165 2.937-10.664 8.975-10.664 6.192 0 9.062 3.389 9.062 10.664zM1089.608 371.46v50.414h7.595v-52.622ZM1121.863 422.535c10.664 0 16.768-6.27 16.768-17.21v-4.68c0-10.95-6.104-17.231-16.768-17.231-10.597 0-16.68 6.28-16.68 17.231v4.68c0 10.94 6.083 17.21 16.68 17.21m9.063-17.21c0 7.275-2.87 10.664-9.063 10.664-6.06 0-8.996-3.5-8.996-10.663v-4.68c0-7.187 2.936-10.675 8.996-10.675 6.193 0 9.063 3.4 9.063 10.674zM1159.126 422.273c4.382 0 8.94-.982 12.087-2.56v2.98c0 5.96-2.109 7.594-9.747 7.594-2.142 0-5.718-.298-8.467-.916l-.464-.1v6.447l.298.055c2.937.619 6.38 1.005 9.25 1.005 11.746 0 16.746-4.15 16.746-13.876v-38.69h-6.832l-.464 2.152c-2.34-1.854-6.999-2.936-10.443-2.936-10.023 0-15.3 5.376-15.3 15.609v9.294c0 6.37 2.319 13.942 13.335 13.942m12.088-8.897c-3.124 1.424-6.955 2.208-10.807 2.208-5.11 0-6.91-2.208-6.91-8.4v-8.147c0-6.149 2.572-8.997 8.102-8.997 4.084 0 7.87 1.424 9.615 2.87zM1192.44 436.111h7.683l19.318-51.881h-7.75l-8.234 23.357c-.508 1.358-1.17 3.765-1.678 6.06a48.971 48.971 0 0 0-1.788-6.038l-8.103-23.38h-8.279l14.174 37.2z" style="stroke-width:11.0387" transform="translate(-35.603 -286.778)"/>
</svg>