<svg xmlns="http://www.w3.org/2000/svg" xml:space="preserve" x="0px" y="0px" version="1.0" viewBox="0 0 648.683 131.981">
    <script xmlns=""/>
    <path fill="#595758" d="M307.5 35.217h29.806v12.814h.34c5.617-9.57 18.264-15.52 29.459-15.52 31.225 0 33.775 22.74 33.775 36.288v60.129h-30.715V83.61c0-12.83 1.455-25.823-15.344-25.823-11.559 0-16.629 9.741-16.629 20.051v51.09H307.5V35.217zM441.283 98.391c0 4.699 1.988 8.129 5.049 10.486 2.889 2.158 7.059 3.252 11.365 3.252 5.973 0 14.465-2.535 14.465-9.947 0-7.213-9.563-8.654-14.988-9.926-19.311-4.879-43.523-5.402-43.523-30.693 0-22.571 24.373-28.713 42.799-28.713 20.574 0 42.082 5.949 43.162 30.331H471.26c0-3.961-1.441-6.496-3.969-8.122-2.543-1.618-5.963-2.343-9.756-2.343-5.055 0-13.191.531-13.191 7.035 0 8.846 20.59 10.481 34.668 13.547 18.965 3.799 23.852 17.516 23.852 25.275 0 25.1-23.852 33.406-44.957 33.406-22.225 0-44.973-7.398-45.883-33.59h29.259zM558.808 107.977c14.264 0 18.779-14.072 18.779-25.992 0-11.906-4.516-26.17-18.779-26.17-14.279 0-18.604 14.264-18.604 26.17.001 11.92 4.325 25.992 18.604 25.992m0-75.643c29.066 0 49.473 21.492 49.473 49.651 0 28.172-20.406 49.48-49.473 49.48-29.076 0-49.295-21.309-49.295-49.48 0-28.159 20.219-49.651 49.295-49.651M617.974 0h30.709v128.922h-30.709zM75.55.008h35.081v47.7h40.584V.008h34.839v128.92h-34.839V78.084h-40.584v50.844H75.55z"/>
    <path fill="#126FB5" d="M0 0h40.079v45.781H0z"/>
    <path fill="#149244" d="M0 81.514h40.079v47.414H0z"/>
    <path fill="#595758" d="M241.278 112.676c14.63 0 19.5-8.299 18.776-27.617-4.334 2.705-12.272 3.26-18.957 5.063-6.862 1.619-12.63 4.5-12.63 11.906 0 7.59 5.957 10.648 12.811 10.648m-39.72-48.555c.551-12.299 6.327-20.22 14.63-25.105 8.299-4.686 19.142-6.48 29.78-6.48 22.205 0 43.701 4.862 43.701 31.394v40.996c0 7.945 0 16.607 3.622 24.004h-30.878c-1.09-2.889-1.46-5.771-1.822-8.846-7.93 8.314-19.666 11.551-30.863 11.551-17.874 0-31.957-9.016-31.957-28.342 0-30.508 33.228-28.158 54.516-32.496 5.248-1.08 8.13-2.891 8.13-8.662 0-7.052-8.492-9.748-14.803-9.748-8.477 0-13.906 3.775-15.343 11.735h-28.713z"/>
</svg>