<svg xmlns="http://www.w3.org/2000/svg" xml:space="preserve" x="0px" y="0px" viewBox="0 0 320.487 86.404">
    <script xmlns=""/>
    <path fill="#009C7D" d="M0 0h185.617v86.404H0z"/>
    <path fill="#E59D00" d="M230.191 0h90.296v86.404h-90.296z"/>
    <path d="M184.775 0h46.253v86.404h-46.253z"/>
    <path fill="#FFF" d="M27.994 27.202v13.862h10.174V27.202h4.022v32.481h-4.022V44.382H27.994v15.301H23.97V27.202h4.024zM67.979 27.202l5.951 14.213 5.758-14.213h4.177L75.9 45.919v13.765h-4.02V45.919l-8.066-18.717h4.165zM156.586 27.202l8.927 23.934h.1V27.202h3.916v32.481h-4.38l-10.75-28.254h-.1v28.254h-3.925V27.202h6.212zM203.765 30.476h2.018c5.471 0 8.638 1.855 8.638 12.967 0 11.113-3.167 12.92-8.638 12.92h-2.018V30.476zm-3.918 29.208h6.788c7.295 0 11.708-3.779 11.708-16.241 0-12.464-4.414-16.241-11.708-16.241h-6.788v32.482zM254.398 29.896h.095l3.842 17.188h-7.774l3.837-17.188zm-2.744-2.694-7.741 32.45h4.037l2.063-9.215h8.884l2.063 9.224h4.041l-7.696-32.459h-5.651zM296.641 27.202v32.481h-3.887V27.202h3.887zM114.996 59.952c-6.245 0-9.119-4.047-9.119-9.262V27.194h4.027v23.49c0 3.288 1.015 6.121 5.092 6.121h.012c4.079 0 5.089-2.833 5.089-6.121v-23.49h4.025V50.69c0 5.215-2.875 9.262-9.114 9.262h-.012z"/>
</svg>