<svg xmlns="http://www.w3.org/2000/svg" xml:space="preserve" viewBox="0 0 1165.1972 200">
    <script xmlns=""/>
    <path d="M0 0c-.666-2.515-1.654-4.715-2.936-6.541-1.269-1.808-2.857-3.237-4.722-4.25-1.858-1.01-4.026-1.523-6.444-1.523-2.482 0-4.687.513-6.556 1.523-1.871 1.013-3.461 2.442-4.719 4.249-1.271 1.824-2.242 4.025-2.889 6.54-.652 2.531-.982 5.339-.982 8.351 0 2.967.33 5.721.982 8.19.647 2.45 1.616 4.591 2.883 6.361a13.332 13.332 0 0 0 4.719 4.108c1.869.972 4.08 1.465 6.562 1.465 2.422 0 4.59-.493 6.452-1.463 1.863-.973 3.451-2.357 4.718-4.112 1.28-1.77 2.266-3.911 2.932-6.363.672-2.472 1.014-5.224 1.014-8.186C1.014 5.345.672 2.536 0 0m7.416 20.158a22.735 22.735 0 0 1-3.857 4.717 25.277 25.277 0 0 1-5.016 3.641 25.448 25.448 0 0 1-5.953 2.346c-4.256 1.096-9.123 1.096-13.381 0a25.292 25.292 0 0 1-5.955-2.346 25.055 25.055 0 0 1-5.014-3.641 22.671 22.671 0 0 1-3.861-4.717 23.177 23.177 0 0 1-2.463-5.576 22.126 22.126 0 0 1-.877-6.233c0-2.197.295-4.334.877-6.356a23.992 23.992 0 0 1 2.461-5.701 23.44 23.44 0 0 1 3.857-4.844 24.657 24.657 0 0 1 5.018-3.739 25.342 25.342 0 0 1 5.953-2.413 26.02 26.02 0 0 1 6.693-.856c2.313 0 4.567.289 6.696.856a25.467 25.467 0 0 1 5.951 2.413 24.745 24.745 0 0 1 5.019 3.739A23.468 23.468 0 0 1 7.42-3.708 23.916 23.916 0 0 1 9.883 2.01c.582 2.032.875 4.165.875 6.339 0 2.152-.295 4.25-.877 6.233a22.993 22.993 0 0 1-2.465 5.576" style="fill:#4c4e52;fill-opacity:1;fill-rule:nonzero;stroke:none" transform="matrix(3.52776 0 0 -3.52776 659.777 128.44)"/>
    <path d="M0 0h-21.164v20.128h-8.445v-45.186h8.445V-3.88H0v-21.178h8.445v45.186H0Z" style="fill:#4c4e52;fill-opacity:1;fill-rule:nonzero;stroke:none" transform="matrix(3.52776 0 0 -3.52776 468.527 91.304)"/>
    <path d="M0 0c-.455-.96-1.174-1.795-2.133-2.479-.976-.7-2.244-1.253-3.762-1.648-1.535-.401-3.378-.603-5.48-.603h-7.508v17.295h7.285c2.307 0 4.272-.249 5.84-.737 1.549-.482 2.82-1.147 3.779-1.977.944-.815 1.631-1.793 2.04-2.912.421-1.141.636-2.392.636-3.72C.697 2.057.463.975 0 0m-18.883 32.22h5.606c2.166 0 4.043-.198 5.58-.586 1.513-.385 2.775-.938 3.756-1.648.957-.693 1.67-1.536 2.117-2.507.451-.985.681-2.097.681-3.304 0-1.133-.195-2.189-.58-3.136a7.016 7.016 0 0 0-1.683-2.468c-.74-.698-1.666-1.253-2.756-1.648-1.1-.4-2.373-.602-3.785-.602h-8.936zM6.795 11.089c-.936.97-2.086 1.78-3.416 2.408-.949.446-1.983.801-3.084 1.064a23.724 23.724 0 0 1 2.795 1.664c1.074.759 1.947 1.573 2.588 2.426a8.193 8.193 0 0 1 1.386 2.824c.262.985.397 2.118.397 3.365 0 1.692-.418 3.263-1.244 4.668-.819 1.392-1.975 2.6-3.434 3.587-1.445.979-3.199 1.75-5.213 2.292-1.998.536-4.222.808-6.599.808h-18.299V-8.991h21.121c2.391 0 4.59.318 6.527.944 1.953.628 3.647 1.511 5.032 2.625 1.394 1.12 2.486 2.458 3.244 3.973a10.912 10.912 0 0 1 1.146 4.924c0 1.54-.256 2.964-.763 4.231a10.44 10.44 0 0 1-2.184 3.383" style="fill:#4c4e52;fill-opacity:1;fill-rule:nonzero;stroke:none" transform="matrix(3.52776 0 0 -3.52776 816.266 147.986)"/>
    <path d="m0 0 7.426 15.737L14.652 0Zm7.674 26.566L-13.604-18.62h4.846l6.975 14.74h18.271l6.752-14.74h8.676L11.113 26.566Z" style="fill:#4c4e52;fill-opacity:1;fill-rule:nonzero;stroke:none" transform="matrix(3.52776 0 0 -3.52776 904.219 114.018)"/>
    <path d="M0 0v-31.76L-28.484 0h-4.897v-45.186h4.358v34.306L.92-45.186h3.373V0Z" style="fill:#4c4e52;fill-opacity:1;fill-rule:nonzero;stroke:none" transform="matrix(3.52776 0 0 -3.52776 1150.053 20.298)"/>
    <path d="M0 0a3.541 3.541 0 0 0-3.543-3.542H-74.41A3.541 3.541 0 0 0-77.954 0v19.841a3.545 3.545 0 0 0 3.544 3.546h70.867A3.545 3.545 0 0 0 0 19.841Z" style="fill:#f25c19;fill-opacity:1;fill-rule:nonzero;stroke:none" transform="matrix(3.52776 0 0 -3.52776 275.003 82.504)"/>
    <path d="M0 0a3.541 3.541 0 0 0-3.543-3.542H-74.41A3.541 3.541 0 0 0-77.954 0v19.842a3.544 3.544 0 0 0 3.544 3.545h70.867A3.544 3.544 0 0 0 0 19.842Z" style="fill:#808185;fill-opacity:1;fill-rule:nonzero;stroke:none" transform="matrix(3.52776 0 0 -3.52776 275.003 187.505)"/>
    <path d="M0 0a3.752 3.752 0 0 0-3.752-3.752h-75.052A3.752 3.752 0 0 0-82.557 0v21.014a3.753 3.753 0 0 0 3.753 3.754h75.052A3.753 3.753 0 0 0 0 21.014Z" style="fill:#f25c19;fill-opacity:1;fill-rule:nonzero;stroke:none" transform="matrix(2.53219 0 0 -2.53219 881.555 467.391)"/>
    <path d="M0 0a3.752 3.752 0 0 0-3.752-3.752h-75.052A3.752 3.752 0 0 0-82.557 0v21.014a3.753 3.753 0 0 0 3.753 3.754h75.052A3.753 3.753 0 0 0 0 21.014Z" style="fill:#808185;fill-opacity:1;fill-rule:nonzero;stroke:none" transform="matrix(2.53219 0 0 -2.53219 881.555 547.21)"/>
    <path d="M0 0c0-2.936-.334-5.682-.99-8.16-.652-2.459-1.617-4.611-2.87-6.395-1.242-1.767-2.794-3.165-4.618-4.154-1.814-.988-3.934-1.489-6.297-1.489-2.429 0-4.584.501-6.411 1.489-1.829.989-3.382 2.387-4.614 4.152-1.241 1.785-2.192 3.936-2.823 6.395-.637 2.475-.96 5.219-.96 8.162 0 2.902.323 5.594.959 8.008.632 2.395 1.58 4.488 2.819 6.219 1.233 1.714 2.784 3.066 4.612 4.015 1.829.95 3.989 1.432 6.418 1.432 2.365 0 4.486-.482 6.306-1.43 1.82-.951 3.373-2.305 4.613-4.019 1.251-1.731 2.214-3.824 2.866-6.221C-.334 5.588 0 2.896 0 0m8.67-6.195c.569 1.986.857 4.07.857 6.195a21.63 21.63 0 0 1-.858 6.094 22.628 22.628 0 0 1-2.409 5.451 22.149 22.149 0 0 1-3.773 4.612 24.652 24.652 0 0 1-4.903 3.56 24.935 24.935 0 0 1-5.819 2.294c-4.161 1.07-8.918 1.07-13.082 0a24.857 24.857 0 0 1-5.82-2.294 24.523 24.523 0 0 1-4.902-3.56 22.197 22.197 0 0 1-3.774-4.612 22.675 22.675 0 0 1-2.407-5.451A21.63 21.63 0 0 1-39.079 0c0-2.146.289-4.235.858-6.213a23.429 23.429 0 0 1 2.406-5.572 22.878 22.878 0 0 1 3.77-4.736 24.159 24.159 0 0 1 4.905-3.655 24.78 24.78 0 0 1 5.821-2.359 25.402 25.402 0 0 1 6.544-.837c2.26 0 4.463.282 6.544.837a24.844 24.844 0 0 1 5.818 2.359 24.291 24.291 0 0 1 4.907 3.655 22.906 22.906 0 0 1 3.769 4.736 23.399 23.399 0 0 1 2.407 5.59" style="fill:#4c4e52;fill-opacity:1;fill-rule:nonzero;stroke:none" transform="matrix(2.53219 0 0 -2.53219 700.802 680.407)"/>
    <path d="M0 0h-20.688v19.676h-8.257v-44.173h8.257v20.703H0v-20.703h8.257v44.173H0Z" style="fill:#4c4e52;fill-opacity:1;fill-rule:nonzero;stroke:none" transform="matrix(2.53219 0 0 -2.53219 564.094 675.011)"/>
    <path d="M0 0a6.903 6.903 0 0 0-1.647-2.412c-.722-.682-1.627-1.225-2.693-1.611-1.076-.392-2.32-.589-3.701-.589h-8.734v15.543h5.48c2.117 0 3.951-.193 5.454-.574 1.48-.375 2.713-.916 3.671-1.611.937-.676 1.633-1.501 2.07-2.449.442-.963.667-2.051.667-3.231C.567 1.959.377.926 0 0m2.364-17.42c0-1.136-.228-2.194-.68-3.146-.446-.94-1.147-1.756-2.085-2.424-.956-.686-2.195-1.227-3.677-1.612-1.502-.392-3.303-.589-5.358-.589h-7.339v16.908h7.121c2.255 0 4.175-.244 5.709-.722 1.515-.472 2.758-1.121 3.694-1.932a6.84 6.84 0 0 0 1.995-2.846c.411-1.115.62-2.338.62-3.637m5.961 7.694c-.914.947-2.038 1.74-3.337 2.353-.929.436-1.939.784-3.016 1.04a23.632 23.632 0 0 1 2.733 1.628c1.051.741 1.902 1.537 2.528 2.371A8.004 8.004 0 0 1 8.59.427c.256.963.387 2.07.387 3.289 0 1.653-.409 3.19-1.215 4.563-.801 1.362-1.932 2.541-3.358 3.507-1.414.957-3.128 1.71-5.096 2.241-1.954.524-4.126.79-6.452.79h-17.887v-44.173h20.647c2.338 0 4.486.31 6.382.922 1.908.614 3.564 1.477 4.918 2.566 1.362 1.095 2.43 2.403 3.172 3.885a10.674 10.674 0 0 1 1.12 4.813c0 1.505-.251 2.897-.748 4.137a10.196 10.196 0 0 1-2.135 3.307" style="fill:#4c4e52;fill-opacity:1;fill-rule:nonzero;stroke:none" transform="matrix(2.53219 0 0 -2.53219 803.838 662.706)"/>
    <path d="m0 0 7.26 15.385L14.322 0Zm10.863 25.972H7.502l-20.801-44.174h4.737l6.818 14.409h17.861l6.601-14.409H31.2Z" style="fill:#4c4e52;fill-opacity:1;fill-rule:nonzero;stroke:none" transform="matrix(2.53219 0 0 -2.53219 869.819 690.951)"/>
    <path d="M0 0h-4.197v-31.049L-32.043 0h-4.787v-44.174h4.26v33.538l29.271-33.538H0Z" style="fill:#4c4e52;fill-opacity:1;fill-rule:nonzero;stroke:none" transform="matrix(2.53219 0 0 -2.53219 1052.947 625.186)"/>
</svg>