<svg xmlns="http://www.w3.org/2000/svg" viewBox="0 0 1297.0537 200">
    <script xmlns=""/>
    <path d="M137.022 140.524c0-29.312-46.783-28.118-46.783-48.466 0-6.754 6.878-9.98 15.65-9.98 14.211 0 23.399 8.964 23.399 8.964V73.517s-8.422-4.297-22.052-4.297c-27.611 0-35.47 13.931-35.33 25.489 0 26.077 46.759 28.815 46.759 47.718 0 9.272-8.844 12.396-19.83 12.396-14.736 0-29.725-11.54-29.725-11.54l3.01 18.964s11.98 5.56 25.947 5.56c24.801 0 38.955-10.225 38.955-27.282M258.145 151.142c-.139 6.027 2.46 11.039 7.09 12.613l-.028 1.607h-26.979l-.042-1.595c4.997-1.833 7.34-6.142 7.3-12.659V85.684c0-6.363-1.797-10.515-7.137-12.86v-1.557h22.95s.781 3.332 2.925 6.067l47.44 61.315V86.25c0-7.744-2.176-11.272-6.615-13.443v-1.54h26.777v1.567c-4.81 2-7.28 6.094-7.18 12.692v83.463c-6.308-.971-13.638-4.584-19.835-12.267L258.145 96.31zM428.222 117.19h-24.078v1.558c3.622 1.674 5.772 4.62 5.772 10.627v24.557s-6.49 2.297-15.533 2.297c-25.293 0-39.326-18.197-39.326-38.274 0-20.16 15.125-35.144 37.3-35.144 14.93 0 24.82 8.745 24.82 8.745V72.924s-11.507-2.633-22.19-2.633c-37.566 0-57.742 20.42-58.05 50.007-.253 24.871 15.298 48.098 56.864 48.044 16.588 0 33.836-3.935 33.836-3.935s-1.061-2.886-1.061-4.96v-35.108c0-4.867 1.646-7.15 1.646-7.15M200.229 71.268v1.424c2.873 1.293 5.602 4.119 5.542 12.357v52.262c0 8.835-8.136 16.286-18.949 17.323-13.641 1.285-22.497-5.994-22.497-23.251V82.21c0-4.644 2.005-7.99 5.292-9.375v-1.568h-27.555v1.568c3.582 1.475 5.51 5.549 5.51 10.057v51.282c0 22.19 13.5 33.618 34.926 33.196 8.621-.169 16.883-3.422 23.173-9.01v7.002h22.794v-1.586c-4.165-1.776-6.088-4.879-6.088-12.056V85.763c-.04-8.708 1.863-10.964 5.506-12.939v-1.556zM-84.52 124.485c-.011 3.045 0 26.02 0 26.02 0 8.482-1.383 10.804-5.382 13.222v1.634h27.712v-1.517c-3.498-2.59-5.624-5.391-5.525-12.513l.012-26.913L-33.16 71.27h-27.486v1.577c5.458 2.68 5.283 8.35 2.705 12.592l-16.117 24.696-19.959-32.973c-2.234-3.803-4.71-5.892-10.69-5.892h-17.769c5.681 2.336 10.632 7.794 13.892 13.575zM-150.295 120.433v30.898c.108 7.566-1.773 10.94-5.967 12.412v1.619h28.398v-1.52c-2.937-1.496-5.837-3.45-5.837-12.936V85.572c0-7.97 1.757-10.795 5.792-12.764l.036-1.54h-28.444v1.555c4.255 1.954 6.043 4.336 6.022 12.17v22.926h-46.551V84.993c-.058-7.834 1.752-10.216 6.015-12.17v-1.556h-28.438l.03 1.541c4.029 1.969 5.787 4.794 5.787 12.764l.006 65.307c0 9.483-2.9 11.452-5.85 12.897v1.586h28.387v-1.586c-4.152-1.45-6.046-4.843-5.937-12.412v-30.931zM-22.2 117.151c0 18.919 13.105 38.389 33.84 38.389 20.063 0 32.888-15.017 32.888-35.15 0-19.736-12.312-38.793-33.184-38.793-20.439 0-33.543 15.15-33.543 35.554m84.59.492c0 29.143-23.62 50.33-51.473 50.33-27.65 0-50.965-20.315-50.965-49.616 0-27.171 23.037-49.907 52.395-49.196 29.34-.132 50.043 22.751 50.043 48.482" style="fill:#164194;fill-opacity:1;fill-rule:nonzero;stroke:none;stroke-width:3.01537" transform="matrix(2.00312 0 0 2.00312 439.275 -138.506)"/>
</svg>